<svg id="Layer_1" data-name="Layer 1" xmlns="http://www.w3.org/2000/svg" width="11.28889mm" height="11.28889mm" viewBox="0 0 32 32"><g id="Atoms_Ikoner_Ui_Alarm" data-name="Atoms/Ikoner/Ui/Alarm"><g id="Alarm"><path id="Combined-Shape" d="M16,2a10.00012,10.00012,0,0,1,9.99616,9.72009L26,12v7.585l4,4.00078V26.25l-10.00774.00092a4.00015,4.00015,0,0,1-7.98453-.00016L2,26.25V23.5858L6,19.584V12A10,10,0,0,1,16,2Zm1.9844,24.251-3.96883-.00019a2.00024,2.00024,0,0,0,3.96883.00019ZM16,4a8.00011,8.00011,0,0,0-7.99619,7.75082L8,12v8.41421L4.164,24.25H27.835L24,20.41423V12A8,8,0,0,0,16,4Z"/></g></g></svg>