<svg id="Layer_1" data-name="Layer 1" xmlns="http://www.w3.org/2000/svg" width="11.28889mm" height="11.28889mm" viewBox="0 0 32 32"><g id="Atoms_Ikoner_Ui_Alarm-off" data-name="Atoms/Ikoner/Ui/Alarm-off"><g id="Alarm-off"><path id="Combined-Shape" d="M16,2a10.0044,10.0044,0,0,1,9.5337,6.97309L31.27806,6.814l.70388,1.872-6.03578,2.27q.03921.37806.05.76411L26,12v7.585l4,4.00078V26.25l-10.00774.00092a4.00015,4.00015,0,0,1-7.98453-.00016L2,26.25V23.5858L6,19.584l-.00094-1.129L.73194,20.436.02806,18.564l5.971-2.246L6,12A10,10,0,0,1,16,2Zm1.9844,24.251-3.96883-.00019a2.00024,2.00024,0,0,0,3.96883.00019Zm6.00969-14.56142L7.99906,17.703,8,20.41423,4.164,24.25H27.835L24,20.41423V12Q24,11.8441,23.99409,11.68959ZM16,4a8.00011,8.00011,0,0,0-7.99619,7.75082L8,12l-.00094,3.566L23.6583,9.67962A8.00353,8.00353,0,0,0,16,4Z"/></g></g></svg>