<svg xmlns="http://www.w3.org/2000/svg" width="32" height="32" viewBox="0 0 32 32"><g id="Faktura"><path d="M11.79,12l-1.14,1.22v3.58H9V6.37h1.66v4.82l4.41-4.82h2l-4.25,4.54,4.3,5.93h-2Z"/><path d="M23.62,11.18v1l-1.27.23v-.77c0-.68-.24-1.14-1-1.14s-1.4.53-1.4,2v4.39H18.39V9.34H20v1a2.07,2.07,0,0,1,1.85-1.18A1.76,1.76,0,0,1,23.62,11.18Z"/><path d="M28.78,31H2.86V1.06H28.78ZM4.86,29H26.78V3.06H4.86Z"/><rect x="8.38" y="20.7" width="14.85" height="2"/><rect x="8.38" y="23.86" width="14.85" height="2"/></g></svg>