<svg xmlns="http://www.w3.org/2000/svg" width="32" height="32" viewBox="0 0 32 32"><g id="Bullseye"><path d="M26.44,8.62l-1.58-.08L25.39,8l3,.11,0-1.38-2.8-.14-.14-2.81L24,3.76l.1,2.7L23.57,7,23.5,5.67l-1.38,0,.09,2.54a10.76,10.76,0,1,0,1.72,1.72l2.53.09ZM15.54,25.3A8.73,8.73,0,1,1,20.88,9.69L19.4,11.17a6.54,6.54,0,0,0-3.86-1.25,6.68,6.68,0,1,0,5.3,2.64l1.47-1.48A8.71,8.71,0,0,1,15.54,25.3Zm4.66-8.73a4.66,4.66,0,1,1-4.66-4.65,4.58,4.58,0,0,1,2.41.69l-2,2.06a2.2,2.2,0,0,0-.36,0,1.94,1.94,0,1,0,1.94,1.94,2.11,2.11,0,0,0-.09-.56l2-2A4.68,4.68,0,0,1,20.2,16.57Z"/></g></svg>