<svg id="Layer_1" data-name="Layer 1" xmlns="http://www.w3.org/2000/svg" width="11.28889mm" height="11.28889mm" viewBox="0 0 32 32"><defs><style>.cls-1{fill-rule:evenodd;}</style></defs><g id="Atoms_Ikoner_Ui_Help" data-name="Atoms/Ikoner/Ui/Help"><g id="Help"><path id="Combined-Shape" d="M15.9999,1a15,15,0,1,1-15,15A15,15,0,0,1,15.9999,1Zm0,2a13,13,0,1,0,13,13A13.00062,13.00062,0,0,0,15.9999,3Zm-.0673,4.6026a4.87415,4.87415,0,0,1,1.059,9.6316l-.06562.0128.0006,1.6856h-2v-3.583h1.006A2.8735,2.8735,0,1,0,13.15219,11.745l-.0395.17215L11.15051,11.53A4.87577,4.87577,0,0,1,15.9326,7.60262Z"/><path id="Fill-4" class="cls-1" d="M17.6483,22.37592a1.7215,1.7215,0,1,1-1.722-1.722,1.722,1.722,0,0,1,1.722,1.722"/></g></g></svg>