<svg id="Layer_1" data-name="Layer 1" xmlns="http://www.w3.org/2000/svg" width="11.28889mm" height="11.28889mm" viewBox="0 0 32 32"><g id="Atoms_Ikoner_Ui_Message" data-name="Atoms/Ikoner/Ui/Message"><g id="message"><path id="Combined-Shape" d="M4,8v2H2V26.625h8.78921L13,28.835l2.21079-2.21H24V23h2v5.625H16.039L13,31.66423,9.96,28.625H0V8ZM32,2V21H22.039L19,24.03923,15.96,21H6V2ZM30,4H8V19h8.78921L19,21.21,21.21079,19H30ZM19.0625,9.5a2,2,0,0,1,.14919,3.99451L19.0625,13.5a2,2,0,0,1,0-4Zm5.5,0a2,2,0,0,1,.14919,3.99451L24.5625,13.5a2,2,0,0,1,0-4Zm-11.125,0a2,2,0,0,1,.14919,3.99451L13.4375,13.5a2,2,0,0,1,0-4Z"/></g></g></svg>