<svg xmlns="http://www.w3.org/2000/svg" width="32" height="32" viewBox="0 0 32 32"><defs><style>.cls-1{fill-rule:evenodd;}</style></defs><g id="Organization"><path class="cls-1" d="M27,28.86V.86H11v5H2v23H0v2H30v-2Zm-16,0H8v-6h3Zm4,0H13v-8H6v8H4v-21H15Zm10,0H17v-2h6v-2H17v-2h6v-2H17v-2h6v-2H17v-2h6v-2H17v-2h6v-2H17v-2h6v-2H15v1H13v-3H25Z"/><rect x="6" y="15.73" width="2" height="2.14"/><rect x="11" y="15.73" width="2" height="2.14"/><rect x="6" y="10.72" width="2" height="2.14"/><rect x="11" y="10.72" width="2" height="2.14"/></g></svg>