<?xml version="1.0" encoding="UTF-8"?>
<svg id="Layer_1" data-name="Layer 1" xmlns="http://www.w3.org/2000/svg" width="32" height="32" viewBox="0 0 32 32">
  <path d="M9.32259,4.98498L16.96422-.00394l.00035,4.02061c6.08131.28671,11.15556,4.32429,12.76763,10.03358l-1.94271.52072c-1.40432-4.75428-5.68823-8.27449-10.82476-8.559l.00036,3.96066-7.6425-4.98766Z"/>
  <path d="M31.01068,18.35266l.5499,9.10942-3.49315-1.99079c-3.26068,5.14125-9.28128,7.55009-15.03965,6.12324l.50969-1.94564c4.82581,1.1344,10.00554-.84403,12.79643-5.16559l-3.44106-1.9611,8.11785-4.16954Z"/>
  <path d="M8.54275,30.27233L.43942,26.07473l3.50001-1.97871c-2.7428-5.43521-1.72472-11.8394,2.4523-16.05215l1.40926,1.43501c-3.44786,3.56196-4.40444,9.02353-2.12461,13.63517l3.44781-1.94921-.58144,9.10749Z"/>
</svg>