<?xml version="1.0" encoding="UTF-8"?>
<svg id="Layer_1" data-name="Layer 1" xmlns="http://www.w3.org/2000/svg" width="32" height="32" viewBox="0 0 32 32">
  <path d="M22.67741,4.98498L15.03578-.00394l-.00035,4.02061c-6.08131.28671-11.15556,4.32429-12.76763,10.03358l1.94271.52072c1.40432-4.75428,5.68823-8.27449,10.82476-8.559l-.00036,3.96066,7.6425-4.98766Z"/>
  <path d="M.98932,18.35266l-.5499,9.10942,3.49315-1.99079c3.26068,5.14125,9.28128,7.55009,15.03965,6.12324l-.50969-1.94564c-4.82581,1.1344-10.00554-.84403-12.79643-5.16559l3.44106-1.9611L.98932,18.35266Z"/>
  <path d="M23.45725,30.27233l8.10333-4.19761-3.50001-1.97871c2.7428-5.43521,1.72472-11.8394-2.4523-16.05215l-1.40926,1.43501c3.44786,3.56196,4.40444,9.02353,2.12461,13.63517l-3.44781-1.94921.58144,9.10749Z"/>
</svg>