<?xml version="1.0" encoding="UTF-8"?>
<svg id="Layer_1" data-name="Layer 1" xmlns="http://www.w3.org/2000/svg" width="32" height="32" viewBox="0 0 32 32">
  <path d="M25.88599,19.94693l.00031,3.12933h-5.27057c2.63885-1.90906,4.36542-5.00507,4.36542-8.50397,0-5.79004-4.70996-10.50049-10.5-10.50049-4.5697,0-8.45575,2.93921-9.89551,7.0224l-2.98041.00024,3.99109,6.11328,3.99011-6.11401-2.85291.00031c1.33252-2.95599,4.30084-5.02222,7.74762-5.02222,4.68652,0,8.5,3.81348,8.5,8.50049,0,4.68652-3.81348,8.5-8.5,8.5-3.22552,0-6.01917-1.81714-7.45856-4.4715l-1.20111,1.85236c.69135,1.01544,1.55621,1.90198,2.54749,2.62311H0v2h25.88647l.00024,2.85193,6.11328-3.99109-6.11401-3.99017Z"/>
</svg>