<?xml version="1.0" encoding="UTF-8"?><svg id="Signing" xmlns="http://www.w3.org/2000/svg" width="11.28889mm" height="11.28889mm" viewBox="0 0 32 32"><rect x="4.8999" y="28.64016" width="22.00049" height="2"/><path d="m26.27,11.26002h0l2.7-2.7-5.64-5.65-4.11,4.11-10.29,10.29-2.07,2.07-1.96,7.59,7.59-1.96,1.13-1.13,11.06-11.03.68,1.09-2.23,2.26,1.42,1.41,3.34-3.38-1.76-2.82.14-.14v-.01Zm-2.95-5.52l2.82,2.82-1.28,1.28-2.82-2.82s1.28-1.28,1.28-1.28Zm-11.86,17.46l-3.77.97.97-3.77,3.75-3.75,2.8,2.8s-3.75,3.75-3.75,3.75Zm5.16-5.16l-2.8-2.8,6.81-6.8,2.82,2.82-6.82,6.79-.01-.01Z"/></svg>