<svg id="Layer_1" data-name="Layer 1" xmlns="http://www.w3.org/2000/svg" width="32" height="32" viewBox="0 0 32 32"><path d="M25.01758,25.74609H6.98242c-.11474,0-.229-.0039-.34277-.01074A6.01,6.01,0,0,1,3.938,14.57129,8.799,8.799,0,0,1,19.92773,10a6.016,6.016,0,0,1,7.19239,4.11621,6.00981,6.00981,0,0,1-1.79395,11.62012C25.22656,25.74219,25.12207,25.74609,25.01758,25.74609ZM12.72363,8.25342A6.80635,6.80635,0,0,0,5.9248,15.05225l.01612.76318-.59815.27393a4.01033,4.01033,0,0,0,1.42041,7.6499c.07422.00488.14649.00683.21924.00683H25.01758q.09815,0,.19629-.00586a4.01009,4.01009,0,0,0,.81152-7.87793l-.6084-.16162-.11719-.61816a4.01161,4.01161,0,0,0-5.42871-2.96826l-.80859.3247-.43262-.75585A6.82067,6.82067,0,0,0,12.72363,8.25342Z"/></svg>