<svg id="Layer_1" data-name="Layer 1" xmlns="http://www.w3.org/2000/svg" width="11.28889mm" height="11.28889mm" viewBox="0 0 32 32"><g id="Atoms_Ikoner_Ui_Smilies_Smile" data-name="Atoms/Ikoner/Ui/Smilies/Smile"><g id="Smille"><path id="Combined-Shape" d="M16,1A15,15,0,1,1,1,16,15,15,0,0,1,16,1Zm0,2A13,13,0,1,0,29,16,13,13,0,0,0,16,3ZM8,15a8,8,0,0,0,15.99619.24918L24,15h2a10,10,0,0,1-19.99616.2799L6,15Z"/><circle id="Oval" cx="12" cy="11.00002" r="2"/><circle id="Oval-2" data-name="Oval" cx="20" cy="11.00002" r="2"/></g></g></svg>