<svg id="Layer_1" data-name="Layer 1" xmlns="http://www.w3.org/2000/svg" width="11.28889mm" height="11.28889mm" viewBox="0 0 32 32"><g id="Atoms_Ikoner_Ui_Smilies_Sad" data-name="Atoms/Ikoner/Ui/Smilies/Sad"><g id="Sad"><path id="Combined-Shape" d="M16,1A15,15,0,1,1,1,16,15,15,0,0,1,16,1Zm0,2A13,13,0,1,0,29,16,13,13,0,0,0,16,3Zm0,12.964a10.00008,10.00008,0,0,1,8.83762,5.32059l.14016.27493-1.79556.8809A8,8,0,0,0,8.948,22.18656l-.13021.25391-1.79556-.8809A10,10,0,0,1,16,15.96405Z"/><circle id="Oval" cx="12" cy="11.96002" r="2"/><circle id="Oval-2" data-name="Oval" cx="20" cy="11.96002" r="2"/></g></g></svg>