<svg id="Layer_1" data-name="Layer 1" xmlns="http://www.w3.org/2000/svg" width="11.28889mm" height="11.28889mm" viewBox="0 0 32 32"><g id="Atoms_Ikoner_Ui_Thumb-up" data-name="Atoms/Ikoner/Ui/Thumb-up"><g id="Thumb-up"><path id="Combined-Shape" d="M24.33,1.98887a2.84607,2.84607,0,0,1,2.07494.892,3,3,0,0,1,.855,2.13h0l-.00147.13623L25.776,10.267l3.27619-.21649a3.00007,3.00007,0,0,1,2.2342,1.10964h0l.12118.16024a2.98881,2.98881,0,0,1,.41111,2.62408h0L27.60636,28.14,11.459,28.13988,11.46,30H2V11.29h9.46l-.001,2.37685L22.37845,2.75816A2.86014,2.86014,0,0,1,24.113,1.99711ZM9.46,13.29H4V28H9.46ZM24.33,3.98887a.88442.88442,0,0,0-.65318.29854h0L11.46,16.493V26.14H26.113L29.90781,13.3545a1,1,0,0,0-.06544-.7678h0l-.06943-.11391a.99662.99662,0,0,0-.6857-.425h0l-6.02468.406L25.253,4.88l-.00026-.02237a1.00747,1.00747,0,0,0-.20141-.48829h0l-.09251-.10716A.86.86,0,0,0,24.33,3.98887Z"/></g></g></svg>