<svg id="Layer_1" data-name="Layer 1" xmlns="http://www.w3.org/2000/svg" width="11.28889mm" height="11.28889mm" viewBox="0 0 32 32"><g id="Atoms_Ikoner_Ui_Thumb-down" data-name="Atoms Ikoner Ui Thumb-down"><g id="Thumb-down-"><path id="Combined-Shape" d="M11.46,2l-.001,1.86H27.60636l4.19729,14.149a3,3,0,0,1-2.7,3.99h0l-.11089-.00131L25.811,21.783l1.44749,5.07186.00145.13432a2.98527,2.98527,0,0,1-.83876,2.113,2.85935,2.85935,0,0,1-4.04129.14051q-.06-.056-.11671-.1153h0L11.459,18.332l.001,2.378H2V2ZM26.113,5.859H11.46v9.647L23.70118,27.73785a.86.86,0,0,0,.51075.26519h0l.11807.00814a.87538.87538,0,0,0,.64506-.29033,1,1,0,0,0,.285-.71h0L25.253,27.118l-2.14479-7.52137L29.048,19.997l.08557-.00811a1.00021,1.00021,0,0,0,.59567-.333h0l.07166-.09353a1.03018,1.03018,0,0,0,.10042-.93787h0ZM9.46,4H4V18.71H9.46Z"/></g></g></svg>