<svg id="Layer_1" data-name="Layer 1" xmlns="http://www.w3.org/2000/svg" width="11.28889mm" height="11.28889mm" viewBox="0 0 32 32"><g id="Atoms_Ikoner_Ui_Attachment" data-name="Atoms/Ikoner/Ui/Attachment"><g id="Attachment"><path id="Path" d="M14,0a4.99916,4.99916,0,0,1,4.99536,4.77709L19,4.9935l.1276,20.016a3.06722,3.06722,0,0,1-6.10988.1152L13,24.94V10h2l-.00242,14.87053a1.07649,1.07649,0,0,0,2.11813.179l.01431-.103L17,5a3,3,0,0,0-5.99491-.17628L11,5V25a5,5,0,0,0,9.99538.21689L21,25V8h2V25a7,7,0,0,1-13.99594.24065L9,25V5A5,5,0,0,1,14,0Z"/></g></g></svg>