<?xml version="1.0" encoding="UTF-8"?><svg id="Tool" xmlns="http://www.w3.org/2000/svg" width="11.28889mm" height="11.28889mm" viewBox="0 0 32 32"><path d="m7.6,29.10002l-4.9-4.9,11.5-11.5c-.2-.7-.3-1.4-.3-2.2,0-4.2,3.4-7.7,7.7-7.7,1,0,1.9.2,2.8.5l1.5.7-4.1,3.9.6,1.6,1.6.7,4.1-3.9.5,1.4c.4.9.6,1.9.6,2.9,0,4.2-3.4,7.7-7.7,7.7-.9,0-1.8-.1-2.6-.5l-11.3,11.3h0Zm-2-4.9l2.1,2.1,10-10,1-.8.6.3c.7.3,1.5.5,2.4.5,3.1,0,5.7-2.6,5.7-5.7v-.6l-2.8,2.6-3.6-1.5-1.5-3.7,2.5-2.5h-.5c-3.1,0-5.7,2.5-5.7,5.7,0,.7.1,1.5.4,2.1l.3.7-1.1.9-9.8,9.9h0Z"/></svg>