<?xml version="1.0" encoding="UTF-8"?><svg id="Eye" xmlns="http://www.w3.org/2000/svg" width="32" height="32" viewBox="0 0 32 32"><path d="m29.2,15.45c-.24-.29-6-7.12-13.19-7.12S3.11,15.17,2.88,15.46l-.52.63.51.63c.24.29,5.87,7.17,13.14,7.17s12.96-6.87,13.2-7.16l.52-.64-.53-.63Zm-13.22,6.39c-2.91,0-5.28-2.37-5.28-5.28s2.37-5.28,5.28-5.28,5.28,2.37,5.28,5.28-2.37,5.28-5.28,5.28Zm-10.99-5.75c.92-.97,2.89-2.85,5.41-4.21-1.06,1.27-1.71,2.9-1.71,4.67,0,1.16.28,2.25.76,3.23-2.08-1.29-3.68-2.84-4.47-3.69Zm17.48,3.76c.5-.99.79-2.11.79-3.29,0-1.81-.67-3.47-1.77-4.75,2.6,1.36,4.65,3.29,5.59,4.28-.82.87-2.48,2.46-4.62,3.76Z"/><circle cx="16.04" cy="16.57" r="2.58"/></svg>