<svg id="Layer_1" data-name="Layer 1" xmlns="http://www.w3.org/2000/svg" width="11.28889mm" height="11.28889mm" viewBox="0 0 32 32"><g id="Atoms_Ikoner_Ui_Location" data-name="Atoms/Ikoner/Ui/Location"><g id="Location"><path id="Combined-Shape" d="M15.5824.66432a6.942,6.942,0,0,1,6.00372,10.429l9.98105,7.13033-5.508,6.60794L19.661,25.745l-4.92094,5.90411L.30808,21.34153,5.816,14.7325l5.69607-.81618L9.72427,11.336A6.90785,6.90785,0,0,1,8.64612,7.91524L8.6394,7.60732A6.94265,6.94265,0,0,1,15.5824.66432Zm-9.25132,16.572L3.224,20.966l11.167,7.976,3.10808-3.7287Zm6.455-1.481-4.24.605,10.445,7.461,4.918-.703-7.036-5.026-1.21839,1.80362Zm7.69-2.996-2.483,3.676,7.809,5.578L28.65,18.598ZM15.5824,2.66432a4.94265,4.94265,0,0,0-4.943,4.943,4.89074,4.89074,0,0,0,.75,2.62145h0L15.634,16.354l4.11927-6.09341a4.90909,4.90909,0,0,0,.76406-2.3684h0l.00807-.28489A4.94329,4.94329,0,0,0,15.5824,2.66432ZM15.582,5.5a2,2,0,0,1,.14919,3.99451L15.582,9.5a2,2,0,0,1,0-4Z"/></g></g></svg>