<svg id="Layer_1" data-name="Layer 1" xmlns="http://www.w3.org/2000/svg" width="32" height="32" viewBox="0 0 32 32"><rect y="26" width="22" height="2"/><path d="M0,19v2H3v1H0v2H3v1H5V24H17v1h2V24h3V22H19V21h3V19Zm17,3H5V21H17Z"/><rect x="3" y="29" width="2" height="3"/><rect x="17" y="29" width="2" height="3"/><path d="M32,7a7,7,0,1,0-8,6.92V32h2V19.914l3.207-3.207-1.414-1.414L26,17.086V13.92A6.99435,6.99435,0,0,0,32,7ZM20,7a5,5,0,1,1,5,5A5.00567,5.00567,0,0,1,20,7ZM7.199,7.602,7.503,8h.998l.3-.399A3.97514,3.97514,0,0,1,12,6.003l-.001-2A5.94208,5.94208,0,0,0,8,5.528,5.95436,5.95436,0,0,0,4,4.003v2A3.97328,3.97328,0,0,1,7.199,7.602Z"/></svg>