<svg id="Layer_1" data-name="Layer 1" xmlns="http://www.w3.org/2000/svg" width="32" height="32" viewBox="0 0 32 32"><path d="M29.939,17.33056h-2.0743c0-.05906.00089-.12573-.00013-.19236q-.02931-1.91877-.06233-3.83746-.4857-.58272-.98547-1.15369c-.30836-.35166-.62339-.69747-.96485-1.07863l.70627,10.04H25.27612v.16211c0,1.247-.00135,2.62527-.00421,3.87231,0,0-.01176-.00579.02218.02017.03428.02621.16024.13779.18738.16493.3805.38041.75928.76257,1.14174,1.141q.71356.70608,1.4324,1.40682c.243.23684.4915.468.747.71074l-1.46009,1.42139c-.01782-.0142-.032-.02365-.044-.03533-.3147-.30579-.63093-.61-.94335-.91813q-1.1436-1.12779-2.28487-2.25794c-.26081-.25694-.57733-.55786-.83726-.81566h0c-.00259-1.11465-.00131-2.32228-.00131-3.43694V21.11328c-.31131,0-.66617-.00463-.96375.00263-.03431.00084.01908-.03882,0,0-.30978.63046-.65551,1.35724-.96572,1.98749-.45794.93045-.91578,1.861-1.38547,2.78552a.63623.63623,0,0,0-.03369.32162q.00014,1.85136.00006,3.70272V30.071H17.79594c0-.04669.03854-.09172.03854-.13674q0-2.23145.00287-4.46288.28134-.60116.57671-1.1957.69726-1.41168,1.3994-2.82093c.05393-.10825.12183-.20954.19613-.336l-.86757-.05016c.32774-4.485.72751-8.90207,1.05494-13.38276h.14629c1.71643,0,3.53674.00134,5.25317-.00185h0c.29892.35652.71263.81046,1.01776,1.1617q.71679.82512,1.438,1.64638.68953.78863,1.38,1.57646c.11465.13046.30391.32334.41393.45742l.00683.04324c.02172,1.05022.04286,2.17659.06062,3.2269.00772.45684.017.91365.02537,1.37048C29.93974,17.21281,29.939,17.25906,29.939,17.33056Zm-5.56225,1.75578-.69749-9.36967H22.09793l-.65939,9.36967Z"/><path d="M2.06026,1.89634h15.179V3.90691H4.11055V4.0966q0,11.93493,0,23.86986c0,.1807.00007.18078.177.18081q5.72587.00084,11.45176.00166h.41985v1.99816H2.06026Z"/><path d="M22.70094,1.86438a2.37678,2.37678,0,0,1,2.41024,2.38124,2.40878,2.40878,0,0,1-4.81736.02865A2.39184,2.39184,0,0,1,22.70094,1.86438Z"/><path d="M13.34816,5.73689,14.77354,7.164l-2.921,2.92055,2.92,2.91968L13.3527,14.426l-2.89878-2.8988-2.978,2.97844L6.04386,13.0728l2.96732-2.96747L5.99626,7.09412c.03528-.03761.06251-.06828.09145-.09723Q6.69526,6.389,7.30335,5.78163l.13818-.11285c.9266.92636,1.954,1.96135,2.87981,2.88854a1.14162,1.14162,0,0,1,.09132.12134l2.9355-2.94177"/></svg>