<?xml version="1.0" encoding="UTF-8"?><svg id="org" xmlns="http://www.w3.org/2000/svg" width="32" height="32" viewBox="0 0 32 32"><defs><style>.cls-1{stroke-width:0px;}</style></defs><rect class="cls-1" x="14.99963" y="6.5" width="3.99994" height="2"/><rect class="cls-1" x="15.99963" width="1.99994" height="4"/><polygon class="cls-1" points="9.50061 14.51392 7.50061 14.51392 7.50061 17 4.99951 17 4.99951 19 7.50061 19 7.50061 21.51392 9.50061 21.51392 9.50061 19 11.99951 19 11.99951 17 9.50061 17 9.50061 14.51392"/><rect class="cls-1" x="11.10936" y="2.13154" width="1.99996" height="3.99992" transform="translate(.62521 9.77244) rotate(-44.99876)"/><rect class="cls-1" x="19.85878" y="3.13153" width="3.99994" height="1.99994" transform="translate(3.4806 16.66616) rotate(-44.99876)"/><path class="cls-1" d="m32,20.0116c0-1.6543-1.3457-3-3-3h-.8457l-4.16559-7H0v19.35272h5.03156c.51837,1.90417,2.48224,3.02765,4.38647,2.50934,1.22205-.33264,2.17676-1.28729,2.5094-2.50934h9.12457c.51849,1.9043,2.48254,3.02771,4.3869,2.50928,1.22198-.3327,2.17664-1.28729,2.50934-2.50928h4.05176l-.00018-2.61835h.00018v-6.73438Zm-14.99963-8h5.84808l2.99066,5h-8.83875v-5Zm-7.25586,17.35272c-.53027.68091-1.51215.80304-2.19299.27277-.68091-.53033-.80304-1.51215-.27277-2.19312.53027-.68091,1.51215-.80298,2.19305-.27271.38019.29614.60254.75116.60248,1.23309-.00189.34747-.11774.68469-.32977.95996Zm16.02039,0c-.52991.6814-1.5119.8042-2.19324.27423-.6814-.52997-.8042-1.51196-.27423-2.19336.52991-.6814,1.5119-.80414,2.1933-.27417.38086.2962.60358.75177.60339,1.23431-.00195.34705-.11761.68396-.32928.95898h.00006Zm4.23364-2h-2.07629c-.56146-1.8902-2.54895-2.96741-4.43915-2.40588-1.15704.34369-2.06213,1.24878-2.40582,2.40588h-9.17474c-.56158-1.89032-2.54926-2.96747-4.43958-2.40582-1.15698.34375-2.06201,1.24878-2.40576,2.40582h-3.05646v-15.35272h12.99969v7h13.99957c.55176,0,1,.44824,1,1l-.00146,7.35272Z"/></svg>