<svg id="Layer_1" data-name="Layer 1" xmlns="http://www.w3.org/2000/svg" width="32" height="32" viewBox="0 0 32 32">
  <path d="M20.85449,11.44633v-3A5.47249,5.47249,0,0,0,18.93884,5.541a3.89538,3.89538,0,0,0,.02974-.75246,2.9024,2.9024,0,0,0-5.79712-.00049,3.90572,3.90572,0,0,0,.03026.75344,5.46643,5.46643,0,0,0-1.91409,2.90476h.00017l-.00017,0v3h-1V29.40438H21.85448v-17.958Zm-7.43076-3a4.50273,4.50273,0,0,1,1.40293-1.62614l-.00172-.00086a1.1931,1.1931,0,0,0,.4495-1.23877,2.17568,2.17568,0,0,1-.0764-.67134.872.872,0,1,1,1.744.00049,2.20729,2.20729,0,0,1-.07045.65267A1.18937,1.18937,0,0,0,17.318,6.81928l-.0029.0014a4.54842,4.54842,0,0,1,1.406,1.6256h.00011l-.00011,0H13.42373l-.00014,0Zm5.43076,2v1H13.28762v-1Zm1,16.95808H12.28762v-1.979h4v-2h-4v-2h4v-2h-4V17.393h4v-2h-4V13.44632h7.56687Z"/>
</svg>
