<?xml version="1.0" encoding="UTF-8"?>
<svg id="Layer_1" data-name="Layer 1" xmlns="http://www.w3.org/2000/svg" width="32" height="32" viewBox="0 0 32 32">
  <path d="M26.92285,6.26593h-14.10547v4.56921l-1.73877.49854h-5.05811l-.94336,9.57715h.97656v4.82324h2v-4.82324h1v4.82324h2v-4.82324h.97656l-.74353-7.55634,1.53064-.43884v4.42578h6.05273v8.39264h2v-8.39264h6.05273V6.26593ZM7.28418,18.91083l.54883-5.57715h1.44238l.54785,5.57715h-2.53906ZM24.92285,15.34143h-10.10547v-2.99927l2.02338-.58014-.52966-1.92865-1.49371.42828v-1.99573h10.10547v7.0755Z"/>
  <path d="M8.53564,10.26593c1.10455.01001,2.00806-.87732,2.01807-1.98187.00391-1.10913-.89093-2.01202-2.00012-2.01813-1.09747.00006-1.98987.88446-1.99982,1.98193-.01001,1.10455.87732,2.00806,1.98187,2.01807Z"/>
  <rect x="18.87012" y="10.81342" width="2" height="2"/>
</svg>