<svg id="Layer_1" data-name="Layer 1" xmlns="http://www.w3.org/2000/svg" width="32" height="32" viewBox="0 0 32 32"><path d="M26.26312,15.28937a9.955,9.955,0,0,0-1.98535-5.946,10.31638,10.31638,0,0,0-4.65051-3.471,9.96937,9.96937,0,0,0-2.5484-.57727c-.36438-.0332-.723-.04315-1.07886-.04168-.35583-.00147-.71448.00848-1.07886.04168a9.96937,9.96937,0,0,0-2.5484.57727,10.31638,10.31638,0,0,0-4.65051,3.471,9.955,9.955,0,0,0-1.98535,5.946c-.04132,1.208-.02472,9.49817-.02472,9.55328l1.87018-.00757v1.90253s3.84509.0105,5.63995.0105c0-2.87055-.02277-5.6261-.02277-8.49756-1.77929,0-3.82562.02124-5.6054.02124-.00006.027-.00013.00732-.00006-.00739.00177-.83129-.0199-1.60113-.01349-2.4328a8.5512,8.5512,0,0,1,.3667-2.91211,8.505,8.505,0,0,1,4.6889-5.11181A7.95386,7.95386,0,0,1,16,7.12946a7.95386,7.95386,0,0,1,3.36383.67822,8.505,8.505,0,0,1,4.6889,5.11181,8.5512,8.5512,0,0,1,.3667,2.91211c.00641.83167-.01526,1.60151-.01349,2.4328.00007.01471,0,.03443-.00006.00739-1.77978,0-3.82611-.02124-5.6054-.02124,0,2.87146-.02277,5.627-.02277,8.49756,1.79486,0,5.64-.0105,5.64-.0105V24.83508l1.87018.00757C26.28784,24.78754,26.30444,16.49738,26.26312,15.28937ZM9.46906,20.09357c.52642,0,1.403-.02,1.92822-.02,0,1.61175.00183,3.14477.00183,4.76147H9.46259C9.46259,23.22888,9.46906,21.71252,9.46906,20.09357Zm11.13183,4.74151c0-1.6167.00183-3.14972.00183-4.76147.52521,0,1.4018.02,1.92822.02,0,1.619.00647,3.13531.00647,4.74151Z"/></svg>