<?xml version="1.0" encoding="UTF-8"?><svg id="Layer_1" xmlns="http://www.w3.org/2000/svg" width="32" height="32" viewBox="0 0 32 32"><defs><style>.cls-1{fill:none;}</style></defs><rect class="cls-1" width="32" height="32"/><path d="m8.4,10.5h0c1.4,0,2.5-1.1,2.5-2.5s-1.1-2.5-2.5-2.5-2.5,1.1-2.5,2.5,1.1,2.5,2.5,2.5Z"/><polygon points="24.9 12.1 26.2 8.1 24.8 5.4 23.1 6.3 24 8.3 22.7 12.3 24.1 15 25.9 14.1 24.9 12.1"/><polygon points="20.7 12.1 22 8.1 20.7 5.4 18.9 6.3 19.9 8.3 18.6 12.3 19.9 15 21.7 14.1 20.7 12.1"/><path d="m0,0v32h32V0H0Zm30,30h-11v-11h7v11h2v-13h-11v13h-2.8v-8.4h-3.8l.2-1.6h0l.8-7.7-6.9.1-2.5,11.2h10.2v6.4H2V2h28v28ZM9.1,14.3l-.7,7.3h-3.9l1.5-7.3h3.1Z"/></svg>