<svg id="Layer_1" data-name="Layer 1" xmlns="http://www.w3.org/2000/svg" width="32" height="32" viewBox="0 0 32 32"><rect x="14.60662" y="3.9426" width="2" height="28.0574"/><circle cx="7.02964" cy="12.1666" r="2.5"/><path d="M12.05766,25.80957l-1.13183-9.25488h-7.792L2.002,25.80957l2.02734.17542V32h2V25.2207h2V32h2V25.98511ZM4.33305,23.2207l.57032-4.666H9.1563l.57031,4.666Z"/><path d="M28.07941,16.55469h-7.792l-1.13183,9.25488,1.13769.11963v3.2915h.88965V32h2V29.22168h2V32h2V29.2207h.89063V25.936l1.13769-.12647Zm-5.78614,2h3.78028v8.666H22.29327Z"/><circle cx="24.18341" cy="12.1665" r="2.5"/><path d="M27.4422,13.1665h-.56592v.56617a1.74129,1.74129,0,0,0,1.74,1.74h.56592v-.566a1.74006,1.74006,0,0,0-1.74-1.74017Z"/><path d="M19.18439,14.90662v.566h.56592a1.74129,1.74129,0,0,0,1.74-1.74V13.1665h-.56617a1.73986,1.73986,0,0,0-1.73975,1.74Z"/></svg>