<svg id="Layer_1" data-name="Layer 1" xmlns="http://www.w3.org/2000/svg" width="32" height="32" viewBox="0 0 32 32"><defs><style>.cls-1{fill:#1d1d1b;}</style></defs><path class="cls-1" d="M22.3111,20.64313a4,4,0,1,0,4,4A4,4,0,0,0,22.3111,20.64313Zm0,6.06a2.06,2.06,0,1,1,2.06005-2.06A2.06,2.06,0,0,1,22.3111,26.70313Z"/><path class="cls-1" d="M12.13141,20.64313a4,4,0,1,0,4,4h0A4,4,0,0,0,12.13141,20.64313Zm0,6.06a2.06,2.06,0,1,1,2.06006-2.06A2.06,2.06,0,0,1,12.13141,26.70313Z"/><path class="cls-1" d="M27.24744,11.30927l-.00513-.04212-.06763-.55292-.81415-6.65735H17.75439v6.65735H9.843l-.40033-3.248H4.843v2H7.66248l.22509,1.80157H7.88678l.99982,8.0013H26.27228l.81415-6.65734.11132-.9101Zm-7.493-5.25239H24.591l.56928,4.65735H19.75439ZM24.50275,17.2691H10.65613l-.57031-4.666h7.26367l-.001.00867H25.072Z"/></svg>