<svg id="Layer_1" data-name="Layer 1" xmlns="http://www.w3.org/2000/svg" width="32" height="32" viewBox="0 0 32 32"><path d="M12.01436,10.32813l3.01122-.07c0-.1362-.00114-.26939.00018-.40256.01-1.00733.02266-2.01463.0279-3.022.00066-.12707.0361-.17022.16483-.17188.92928-.012,1.85847-.03045,2.78769-.04659.0611-.00107.12224-.00014.20943-.00014V4.73426l5.15022.07068v1.4957l3.13583.05335v5.50972H29.7523c.00234.0445.00614.08448.00629.12447q.01543,3.98028.03038,7.96056a12.56445,12.56445,0,0,1-1.22938,5.48979,8.09506,8.09506,0,0,1-7.00417,4.76967,7.90874,7.90874,0,0,1-1.04181.02435,10.66366,10.66366,0,0,1-3.81492-1.01534,8.11237,8.11237,0,0,1-4.62529-5.85369,11.3485,11.3485,0,0,1-.22216-2.69219c.034-1.85337.05724-3.70694.08482-5.56043q.03453-2.32071.06913-4.64141C12.0058,10.42874,12.01036,10.38805,12.01436,10.32813Zm9.358,7.10167V6.78318h-1.1592L20.15189,17.4561H18.14528l-.05862-8.8227H17.04784L16.95452,17.55h-2.0211V12.28726h-.971c0,.46814.0053.91842-.00092,1.36855C13.93486,15.582,13.8999,17.508,13.878,19.4342a19.59753,19.59753,0,0,0,.10763,3.21643,6.10134,6.10134,0,0,0,1.97544,3.71123A7.2548,7.2548,0,0,0,18.8458,27.899a6.80522,6.80522,0,0,0,1.90633.3339,10.49319,10.49319,0,0,0,1.3316-.1125A5.60965,5.60965,0,0,0,26.047,25.73813a9.534,9.534,0,0,0,1.73192-5.50665c.04574-2.07068-.00536-4.14351-.01456-6.2154-.0002-.04461-.00567-.08919-.00887-.13646-.38773,0-.76133.00291-1.13482-.002-.095-.00126-.13051.03386-.13349.12361-.007.21265-.02512.42518-.02533.63777q-.003,3.02225-.00119,6.04449v.21084c-.20628.03125-.39957.06416-.59387.08934a5.30034,5.30034,0,0,0-2.43786.94038,2.57912,2.57912,0,0,0-1.10128,1.49666c-.06313.26494-.09241.53794-.13688.806H20.21816a4.35583,4.35583,0,0,1,.14858-1.25744,4.846,4.846,0,0,1,2.469-3.04115c.51493-.28156,1.067-.49526,1.63731-.75589V8.3246H23.5025l-.107,9.1052Z"/><path d="M6.61987,4.715,9.49535,1.83823l1.41758,1.417L8.04725,6.1192l2.8778,2.877L9.50338,10.41337,6.65605,7.5375l-2.985,2.98543L2.25543,9.1081,5.19125,6.17251,2.20358,3.185,3.64714,1.74151Z"/></svg>