<svg id="Layer_1" data-name="Layer 1" xmlns="http://www.w3.org/2000/svg" width="32" height="32" viewBox="0 0 32 32"><path d="M28.322,1.863a2.324,2.324,0,0,1-4.556-.89L21.909.61a2.331,2.331,0,0,1-2,1.749V0h-4a2.486,2.486,0,0,1-2.475,2.361A2.486,2.486,0,0,1,10.966,0H8.947A2.486,2.486,0,0,1,6.472,2.361,2.486,2.486,0,0,1,4,0H0V31.969H3.995a2.479,2.479,0,0,1,4.954,0h2.016a2.479,2.479,0,0,1,4.954,0h3.995V28.642a2.328,2.328,0,0,1,2.7,2.64L26.29,32,32,2.581Zm-10.4,28.108h-.534a4.462,4.462,0,0,0-7.431-.7,4.462,4.462,0,0,0-7.431.7H1.991V2h.546A4.469,4.469,0,0,0,6.472,4.359,4.456,4.456,0,0,0,9.957,2.678a4.456,4.456,0,0,0,3.485,1.681A4.469,4.469,0,0,0,17.376,2h.546V29.971Zm6.794-.314-.3-.058a4.278,4.278,0,0,0-4.505-2.958V13.166a1.47625,1.47625,0,0,0,.466.082,1.5,1.5,0,0,0,0-3,1.47625,1.47625,0,0,0-.466.082V4.356a4.285,4.285,0,0,0,2.41-.907,4.3,4.3,0,0,0,7.035.651l.307.06Z"/><ellipse cx="4.978" cy="11.489" rx="1.494" ry="1.499"/><ellipse cx="9.957" cy="11.489" rx="1.494" ry="1.499"/><ellipse cx="14.935" cy="11.489" rx="1.494" ry="1.499"/><ellipse cx="25.024" cy="12.661" rx="1.494" ry="1.499"/></svg>