<svg id="Layer_1" data-name="Layer 1" xmlns="http://www.w3.org/2000/svg" width="32" height="32" viewBox="0 0 32 32"><path d="M2.17167,29.40511V15.52541c4.29837,0,11.721.03,16.02874.03V11.15408h6.42395c0,4.36272-.0207,13.88044-.0207,18.251ZM22.5223,17.7196H4.25318v9.60526H22.5223Zm-.04325-4.29955H20.33659c0,.47909.00324,1.639.00324,2.10323.5051,0,1.63988.03211,2.13922.03211Z"/><path d="M12.83941,13.39669v-2.147c.05591-.0025,1.15612,0,1.20306,0,.84738-.00037,1.16209.01651,2.00945.01167h0c-.00805.4143.00051,1.00542,0,1.41987-.00006.04176.00283.67172,0,.72131C15.10247,13.40254,13.79532,13.39669,12.83941,13.39669Z"/><path d="M26.83768,13.39669v-2.147c.05591-.0025,1.15612,0,1.20306,0,.84738-.00037,1.16209.01651,2.00945.01167h0c-.00805.4143.00051,1.00542,0,1.41987-.00006.04176.00283.67172,0,.72131C29.10075,13.40254,27.79359,13.39669,26.83768,13.39669Z"/><path d="M22.50926,7.99292h-2.147c-.00251-.05591,0-1.15612,0-1.20306-.00037-.84738.01651-1.1621.01167-2.00945h0c.4143.008,1.00541-.00052,1.41986,0,.04177,0,.67172-.00284.72132,0C22.51512,5.72985,22.50926,7.037,22.50926,7.99292Z"/><path d="M18.15329,8.14179,16.68078,9.70426c-.0424-.03652-.84134-.79293-.87552-.82511-.61693-.5809-.83439-.809-1.45437-1.38666h0c.29-.296.68918-.732.9738-1.0333.02869-.03036.45864-.49079.49471-.52494C16.51036,6.58542,17.45763,7.48619,18.15329,8.14179Z"/><path d="M26.02982,9.69674,24.57111,8.12138c.03932-.03982.84831-.78547.88274-.81738.62152-.576.86391-.77743,1.48237-1.35669h0c.27557.30945.68347.73737.96468,1.04182.02833.03068.45846.49095.49007.52927C27.69432,8.16347,26.73121,9.04728,26.02982,9.69674Z"/><path d="M13.25489,26.25439a3.70444,3.70444,0,0,1-3.55455-2.9102,3.75049,3.75049,0,1,1,5.06574,2.64012A3.65376,3.65376,0,0,1,13.25489,26.25439Zm.0871-2.04157a3.71848,3.71848,0,0,0,.47219-.07269,1.6527,1.6527,0,0,0,1.25181-1.2916,1.598,1.598,0,0,0-.612-1.669,1.80532,1.80532,0,0,0-2.18926-.01507,1.63634,1.63634,0,0,0-.669,1.28324A1.73385,1.73385,0,0,0,13.342,24.21282Z"/><path d="M9.30737,2.63938l1.45807,1.45943L7.77425,7.08994l3.0077,2.96985L9.329,11.50928,6.37765,8.55969,3.319,11.62137,1.84421,10.13044l3.02763-3.0276L1.82621,4.06091l1.468-1.466L6.32441,5.6262Z"/></svg>