<svg id="Layer_1" data-name="Layer 1" xmlns="http://www.w3.org/2000/svg" width="32" height="32" viewBox="0 0 32 32"><path d="M5.47387,10.25866H10.7711c0-.05627-.00015-.10573,0-.15519.00241-.69263-.014-1.38595.01122-2.07775a5.04836,5.04836,0,0,1,1.72632-3.67454A5.02338,5.02338,0,0,1,15.3362,3.056a5.20479,5.20479,0,0,1,5.78288,4.14982A6.97046,6.97046,0,0,1,21.223,8.2997c.01672.60242.00473,1.20563.00484,1.80851,0,.04584,0,.09168,0,.15021h5.29832V29.30006q-.0798,0-.15979,0-3.43129-.00054-6.86259-.001-6.92022.00066-13.84045.00227c-.18938,0-.18942-.00006-.18942-.18408,0-6.34094,0-12.3373,0-18.67824ZM12.782,16.20639H10.766V12.2851H7.49821V27.35279H24.5147V12.28314H21.22492V16.2025H19.21648v-3.917H12.782Zm-.00054-5.95561h6.43645c.00156-.03316.00375-.0582.00376-.08324.00014-.64963.00427-1.29931-.00266-1.94887a3.381,3.381,0,0,0-.05722-.55968A3.19217,3.19217,0,0,0,15.6689,5.04944a3.12367,3.12367,0,0,0-2.61537,1.9,3.41415,3.41415,0,0,0-.2741,1.52353C12.78828,9.06214,12.78146,9.65157,12.78146,10.25078Z"/></svg>