<svg id="Layer_1" data-name="Layer 1" xmlns="http://www.w3.org/2000/svg" width="32" height="32" viewBox="0 0 32 32"><circle cx="16" cy="3" r="2.5"/><path d="M21.983,18.821,19.835,7h-7.67L10.017,18.821l1.967.357.02-.11v7.93225h1V32h2V27.00025h2V32h2V27.00025h1V19.106l.013.072ZM14.003,9h4V25.00025h-4Zm6.43-2.694h.566V5.74A1.74,1.74,0,0,0,19.259,4h-.566v.566A1.74125,1.74125,0,0,0,20.433,6.306Z"/><path d="M13.307,4.566V4h-.566a1.74,1.74,0,0,0-1.74,1.74v.566h.566A1.74125,1.74125,0,0,0,13.307,4.566Z"/></svg>