<svg id="Layer_1" data-name="Layer 1" xmlns="http://www.w3.org/2000/svg" width="32" height="32" viewBox="0 0 32 32"><path d="M17.098,27.72261h5.24829v2.13494H9.65914V27.70932H14.92c.02029-2.11692.04048-3.69376.06062-5.79528-.3568-.08131-.70967-.13541-1.0452-.24233a7.20375,7.20375,0,0,1-5.19492-5.61785,10.38892,10.38892,0,0,1-.1432-1.254c-.01028-.10751-.0092-.20155-.00917-.31071.00112-4.04361.02894-8.10375.02894-12.14736V2.14245H23.40685c0,.07287,0,.14082,0,.20878q.00219,6.088.00489,12.176A7.15726,7.15726,0,0,1,21.85612,19.13a7.25641,7.25641,0,0,1-4.58638,2.72132c-.09744.01671-.11839.06052-.11894.15016q-.01207,1.94382-.03044,3.88759c-.00638.72324-.01489.91624-.02231,1.63948C17.09749,27.58278,17.098,27.637,17.098,27.72261ZM10.7983,12.11544v.195c0,.83372-.00811,1.66755.00417,2.5011a4.701,4.701,0,0,0,.09184.93856,5.23791,5.23791,0,0,0,8.09223,3.13681A4.93854,4.93854,0,0,0,21.21864,14.747c.01838-.83833.00592-1.67732.00662-2.516a1.06753,1.06753,0,0,0-.01225-.11558Zm.00956-2.166H21.2175V4.2851H10.80786Z"/></svg>