<svg id="Layer_1" data-name="Layer 1" xmlns="http://www.w3.org/2000/svg" width="32" height="32" viewBox="0 0 32 32"><path d="M7.63732,9.79749q-.00274-2.26053-.007-4.521a3.47691,3.47691,0,0,1,.08935-.81763,2.6186,2.6186,0,0,1,.35645-.84735A3.17981,3.17981,0,0,1,9.44457,2.47693a4.68537,4.68537,0,0,1,1.62719-.403,5.08436,5.08436,0,0,1,1.98194.23316,3.54913,3.54913,0,0,1,1.57092.98181,2.42358,2.42358,0,0,1,.64917,1.57141.25513.25513,0,0,1-.136.01373q-.84008.00046-1.68.00061c-.115,0-.11011-.01361-.11011.10248q-.00036,1.0254,0,2.05066c0,.10974.001.1109.105.1109q2.8537.00027,5.70728,0c.10767,0,.10889-.001.10889-.107q0-1.0254.00024-2.05066c0-.12049.002-.10639-.10645-.10639q-.84612,0-1.69238-.00006c-.12622-.00006-.1272-.00018-.13049-.12182a4.16379,4.16379,0,0,0-.14465-.97382,4.58738,4.58738,0,0,0-1.689-2.48444,6.35606,6.35606,0,0,0-3.656-1.291L11.15233,0,11.0327.00012c-.23779.01618-.47436.04144-.71032.07715A6.40936,6.40936,0,0,0,8.61791.57874,5.34537,5.34537,0,0,0,6.51757,2.2301a4.68866,4.68866,0,0,0-.93946,2.82666c-.00342.22217.00318.44446.00366.66669q.004,1.36433.00672,2.72876.00165.98786.00268,1.97571c.00037.48266.00074,21.00865.0011,21.49138H7.64086C7.63964,31.22643,7.63842,10.4903,7.63732,9.79749Z"/><circle cx="13.45262" cy="9.90627" r="1"/><circle cx="16.45262" cy="9.90627" r="1"/><circle cx="19.29521" cy="9.90627" r="1"/><circle cx="11.95262" cy="13.90627" r="1"/><circle cx="14.95262" cy="13.90627" r="1"/><circle cx="17.95262" cy="13.90627" r="1"/><circle cx="20.95262" cy="13.90627" r="1"/></svg>