<svg id="Layer_1" data-name="Layer 1" xmlns="http://www.w3.org/2000/svg" width="32" height="32" viewBox="0 0 32 32"><path d="M5.43526,15.58124H21.7391v3.14092l4.82564-1.633V28.08191l-4.81633-1.627v2.54274H5.43526ZM19.73063,26.963V17.62339H7.4295V26.963Zm4.81793-1.70717V19.91578l-2.75639.93221a.52063.52063,0,0,0-.00667.05246c-.00036,1.11045.00082,2.22091-.00307,3.33135-.00031.08751.04253.10775.1062.12911q.8535.28626,1.70637.57447C23.9088,25.041,24.22272,25.14636,24.54856,25.25587Z"/><path d="M19.31919,10.33232l-1.44465,1.44307-3.10776-3.108-3.1829,3.18218-1.42336-1.42288L13.33669,7.2522,10.49864,4.41577l1.41254-1.41345,2.8042,2.805,2.78125-2.78123,1.45981,1.45994L16.21312,7.2283Z"/></svg>