<svg xmlns="http://www.w3.org/2000/svg" width="32" height="32" viewBox="0 0 32 32"><g id="aw"><path d="M16,1A15,15,0,1,0,31,16,15,15,0,0,0,16,1Zm0,28A12.99287,12.99287,0,0,1,6.13232,7.54639l6.2406,6.2406L8.97571,17.1842,10.31946,18.528l-3.61194,5.0542,5.026-3.64019,1.34375,1.34381,3.39722-3.39722,7.97912,7.97913A12.94316,12.94316,0,0,1,16,29ZM13.787,15.20105l1.27343,1.27344-1.98315,1.98315L11.80383,17.1842ZM15.20105,13.787l3.01843-3.0185,1.27344,1.27344-3.01843,3.01843ZM25.86768,24.45361l-7.97913-7.97912L22.321,12.04193l-1.34368-1.34369L22.47681,9.199l.80127.79357,1.4082-1.42089L21.6687,5.583l-1.4082,1.4209.79553.7879L19.56329,9.28418,18.21948,7.94037,13.787,12.37292,7.54639,6.13226A12.99289,12.99289,0,0,1,25.86768,24.45361Z"/><path d="M15.48352,21.53906l-1.06067,1.06067a1,1,0,0,0,1.41425,1.41419l1.06061-1.06067a1,1,0,0,0-1.41419-1.41419Z"/><path d="M23.25085,16.04761l-.35333.35333,1.41419,1.41425.35333-.35334a1,1,0,1,0-1.41419-1.41424Z"/><path d="M21.83429,17.46417a1,1,0,0,0,1.41425,1.41419l.35375-.35376-1.41424-1.41419Z"/><path d="M19.30505,25.43005a1,1,0,0,0-1.41418-1.41418l-.35333.35333,1.41418,1.41419Z"/><path d="M16.465,25.44177A1,1,0,0,0,17.87915,26.856l.35376-.35376L16.81873,25.088Z"/></g></svg>