<svg xmlns="http://www.w3.org/2000/svg" width="32" height="32" viewBox="0 0 32 32"><g id="aw"><path d="M16,1A15,15,0,1,0,31,16,15,15,0,0,0,16,1Zm0,28A12.983,12.983,0,0,1,6.13855,7.55261L7.92969,9.34375H6.20142v2H8.2359l.88086,6.82617h7.6391l1.22723,1.22724a2.98841,2.98841,0,1,0,3.989,3.98895l2.47528,2.47534A12.9332,12.9332,0,0,1,16,29ZM10.55725,13.71094h1.73963l2.459,2.459H10.87457Zm11.15827,0-.3172,2.459H17.584l-2.459-2.459Zm-3.41779-2V8.92188h3.207l.25263,2.78906Zm.9823,9.38965a.98313.98313,0,0,1,.67554.269l.04351.04346a.98684.98684,0,1,1-.719-.3125Zm6.58142,3.3468-4.452-4.452-.03595-.036L19.584,18.16992h3.57209l.70221-5.43652-.52741-5.81152H16.29773v4.78906H13.125L7.55261,6.13855A12.983,12.983,0,0,1,25.86145,24.44739Z"/><path d="M12.52753,19.10059a2.98877,2.98877,0,1,0,2.98828,2.98925A2.99223,2.99223,0,0,0,12.52753,19.10059Zm0,3.97753a.98877.98877,0,1,1,.98828-.98828A.98941.98941,0,0,1,12.52753,23.07812Z"/></g></svg>