<svg xmlns="http://www.w3.org/2000/svg" width="32" height="32" viewBox="0 0 32 32"><g id="aw"><path d="M16,1A15,15,0,1,0,31,16,15,15,0,0,0,16,1Zm0,28A12.983,12.983,0,0,1,6.13855,7.55261l6.97766,6.97766H5.25684v5.74317H18.85938l5.588,5.588A12.9332,12.9332,0,0,1,16,29Zm-.88379-12.46973,1.74317,1.74317H7.25684V16.53027Zm2.82813,0h3.166v1.74317H19.6875Zm7.91711,7.91712-4.174-4.17395h5.05566V14.53027H15.94434L7.55261,6.13855A12.983,12.983,0,0,1,25.86145,24.44739Zm-2.7511-6.17395V16.53027h1.63281v1.74317Z"/><path d="M22.11035,8.4751a2.63568,2.63568,0,0,1-2.63281-2.6333h-2a4.63829,4.63829,0,0,0,4.63281,4.6333,2.63558,2.63558,0,0,1,2.63281,2.63281h2A4.63786,4.63786,0,0,0,22.11035,8.4751Z"/></g></svg>