<svg xmlns="http://www.w3.org/2000/svg" width="32" height="32" viewBox="0 0 32 32"><g id="aw"><path d="M23.19574,9.6264a2.48608,2.48608,0,0,1-.11816.82856,1.70619,1.70619,0,0,1-1.27375,1.21429,1.59093,1.59093,0,0,1-1.50689-.47687,1.46173,1.46173,0,0,1-.23206-1.48681,2.895,2.895,0,0,1,.45831-.749,2.911,2.911,0,0,0,.715-1.60461,1.93373,1.93373,0,0,0-.22894-1.03479,2.32482,2.32482,0,0,1-.11774.60657,2.954,2.954,0,0,1-1.21973,1.2915,3.13421,3.13421,0,0,0-1.55828,1.90924,2.39908,2.39908,0,0,0,.60192,2.30847l.00428.00849A9.48641,9.48641,0,0,0,20.86682,14.087a9.39388,9.39388,0,0,0,2.2876-1.79883,1.99647,1.99647,0,0,0,.42279-1.41779c.00037-.0664.00348-.13586-.00079-.20843A1.872,1.872,0,0,0,23.19574,9.6264Z"/><path d="M13.97058,6.81335a1.00659,1.00659,0,0,1-.04779.33521.69038.69038,0,0,1-.51538.49127.64367.64367,0,0,1-.60962-.19287.59137.59137,0,0,1-.09387-.60156,1.17162,1.17162,0,0,1,.18536-.303,1.17768,1.17768,0,0,0,.28931-.64917.78218.78218,0,0,0-.09259-.41864.94134.94134,0,0,1-.04767.24536,1.19456,1.19456,0,0,1-.49347.52252,1.268,1.268,0,0,0-.63043.77246.97049.97049,0,0,0,.24353.9339l.00171.00348a3.83839,3.83839,0,0,0,.86865.66571,3.80068,3.80068,0,0,0,.92554-.72772.80751.80751,0,0,0,.171-.57361c.00018-.02686.0014-.055-.00031-.08435A.75708.75708,0,0,0,13.97058,6.81335Z"/><path d="M16,1A15,15,0,1,0,31,16,15,15,0,0,0,16,1Zm0,28A12.983,12.983,0,0,1,6.13855,7.55261L11.903,13.31708a6.43752,6.43752,0,0,0-2.86536,3.97827,5.86092,5.86092,0,0,0,1.47058,5.63983c.00568.00562.00568.0141.01038.02075a23.17928,23.17928,0,0,0,5.24554,4.02021,22.98125,22.98125,0,0,0,5.4989-4.299l3.18433,3.18433A12.9332,12.9332,0,0,1,16,29ZM13.805,16.27191a4.152,4.152,0,0,1,.33942-.71344l5.06964,5.06958a3.93285,3.93285,0,0,1-1.16058.44129,3.88668,3.88668,0,0,1-3.68158-1.16492A3.57138,3.57138,0,0,1,13.805,16.27191Zm12.05646,8.17548L22.20087,20.7868a7.58049,7.58049,0,0,0,.18506-1.66906c.00091-.16223.00848-.332-.0019-.50934a4.573,4.573,0,0,0-.93-2.52991,6.07392,6.07392,0,0,1-.28864,2.02429,4.96708,4.96708,0,0,1-.51922,1.12928l-5.32465-5.32465a6.45526,6.45526,0,0,0,1.3501-3.38574,4.72311,4.72311,0,0,0-.55933-2.528,5.67269,5.67269,0,0,1-.28772,1.48188,5.88147,5.88147,0,0,1-2.28595,2.64892l-5.986-5.986A12.983,12.983,0,0,1,25.86145,24.44739Z"/></g></svg>