<svg xmlns="http://www.w3.org/2000/svg" width="32" height="32" viewBox="0 0 32 32"><g id="aw"><path d="M16,1A15,15,0,1,0,31,16,15,15,0,0,0,16,1Zm4.17383,14.75537-1.639,1.36542-2.94641-2.94653,1.36523-1.6391ZM17.7171,10.56152l4.69013-.43506-.31348,4.812L19.93237,12.7771Zm-.7251,7.84461-3.5169,2.92981-2.10156-2.10156,2.92962-3.51722Zm4.55634-1.27661,2.19971,2.19958.7373-11.33935L13.43311,9.01465l2.14666,2.1466-1.36541,1.639L7.55273,6.13849a12.983,12.983,0,0,1,18.3086,18.309L19.909,18.495ZM6.13867,7.55249l6.79047,6.79065L8.75537,19.35352l1.61633,1.616-2.75256,2.7522L8.9873,25.09082,11.74048,22.338,13.356,23.95312l5.01007-4.173,6.08124,6.08136a12.983,12.983,0,0,1-18.3086-18.309Z"/></g></svg>