<svg xmlns="http://www.w3.org/2000/svg" width="32" height="32" viewBox="0 0 32 32"><g id="aw"><path d="M16,1A15,15,0,1,0,31,16,15,15,0,0,0,16,1Zm0,28A12.983,12.983,0,0,1,6.13855,7.55261L10.376,11.79v2.99219A5.62883,5.62883,0,0,0,15,20.312v3.32764H11.60742v2h8.78516v-2H17V20.312a5.56859,5.56859,0,0,0,1.4317-.46625l6.01569,6.01569A12.9332,12.9332,0,0,1,16,29ZM12.376,10.3833V8.86035h7.248V10.3833Zm7.248,2v2.39893a3.59982,3.59982,0,0,1-.97387,2.45385L13.79736,12.3833ZM16.8736,18.28766A3.58419,3.58419,0,0,1,16,18.40625a3.62813,3.62813,0,0,1-3.624-3.624V13.79Zm8.98785,6.15973-5.79291-5.79291A5.59907,5.59907,0,0,0,21.624,14.78223V6.86035H10.376V8.96191L7.55261,6.13855A12.983,12.983,0,0,1,25.86145,24.44739Z"/></g></svg>