<svg id="Layer_1" data-name="Layer 1" xmlns="http://www.w3.org/2000/svg" width="32" height="32" viewBox="0 0 32 32"><path d="M8.66125,30.38238H6.56477V22.68252H4.45608v7.72459H2.35261V22.67128H1.29709l1.151-12.63672h.15477c1.91433.00014,3.82875.01,5.74291-.00788a6.58132,6.58132,0,0,0,1.12411-.17723c.3556-.0664.70694-.156,1.063-.21973.12671-.0227.1522-.073.152-.19185q-.00507-3.82146-.00256-7.64293V1.59289h20.0206V17.13673H10.68657V11.747l-2.01176.4182.95736,10.4993H8.66125Zm19.932-15.34686V3.70054H12.79176V9.1573l3.8022-.79012a.65744.65744,0,0,1,.03016.08109q.1963.93282.39139,1.8659c.0173.0825-.0073.11769-.09886.1363-.9965.20257-1.99186.41074-2.98732.61839-.3812.07951-.76186.16162-1.14115.24219v3.72447ZM3.60605,20.54542H7.32662c-.25606-2.80645-.47467-5.60515-.73026-8.40648-.05508-.00316-.13471-.00362-.178-.00365-.63307-.00047-1.26617.00358-1.89916-.00346-.13413-.00149-.1267.00719-.1267.00719-.0269.386-.11013.93289-.145,1.31834q-.08016.88565-.15938,1.77139-.06566.72449-.13271,1.44883-.06662.73182-.1324,1.4637-.066.72435-.13281,1.4486C3.6616,19.90565,3.63452,20.22156,3.60605,20.54542Z"/><path d="M7.85955,6.00111a2.47425,2.47425,0,1,1-2.4743-2.49667A2.488,2.488,0,0,1,7.85955,6.00111Z"/><path d="M22.37021,10.04681c-.48382,0-1.6487.01149-2.128.01149,0-1.9901.06126-3.519.047-5.32456.6271,0,1.45527.01422,2.08989.01422C22.34164,6.603,22.38538,8.23221,22.37021,10.04681Z"/><path d="M22.36214,12.14474c0,.293.00295.65162.00753.94454-.00753.06021-.00753.064-.03763.064-.58593-.0032-1.47261-.00949-2.05854-.00629-.02245-.005-.01923-.03437-.01869-.12918.00337-.59076.00056-1.33021-.00271-1.921v-.01956c.58593.00345,1.27754.00912,1.86345.00474.03836,0,.24283-.0022.24283-.0022C22.3538,11.3727,22.36215,11.85176,22.36214,12.14474Z"/></svg>