<svg id="Layer_1" data-name="Layer 1" xmlns="http://www.w3.org/2000/svg" width="32" height="32" viewBox="0 0 32 32"><circle cx="15.99977" cy="12.95248" r="2.5"/><path d="M12.10255,16.46957,10.97267,25.7225,13,25.89865v6.01623h2V25.13559h2v6.77929h2v-6.016l2.02735-.17541-1.13184-9.25391Zm1.20117,6.666.57032-4.666h4.252l.57056,4.666Z"/><path d="M17.00032,6.58767V4.74649h-1a1.31177,1.31177,0,1,1,1.31152-1.312v0h2A3.312,3.312,0,1,0,14.9955,6.59024l-12.12409,6.438v5.45849H9.87629v-2H4.87141V14.23037l11.12891-5.9093,11.12793,5.9093v2.25635H22.12336v2h7.00489V13.02823Z"/></svg>