<svg id="Layer_1" data-name="Layer 1" xmlns="http://www.w3.org/2000/svg" width="32" height="32" viewBox="0 0 32 32"><path d="M29.34609,4.71871a9.065,9.065,0,0,0-12.81745,0l-.4662.4662-.4662-.4662A9.065,9.065,0,1,0,2.77879,17.53617L14.65388,29.41126l1.40856,1.40856L17.471,29.41126l11.8751-11.87509A9.065,9.065,0,0,0,29.34609,4.71871Zm-1.40856,11.4089L16.06244,28.00271,4.18734,16.12761A7.07266,7.07266,0,1,1,14.18769,6.12727L16.06244,8.002l1.87475-1.87475A7.07266,7.07266,0,1,1,27.93753,16.12761Z"/><polygon points="17.059 9.076 11.082 17.045 15.066 17.045 15.066 25.014 21.043 17.045 17.059 17.045 17.059 9.076"/></svg>