<svg id="Layer_1" data-name="Layer 1" xmlns="http://www.w3.org/2000/svg" width="32" height="32" viewBox="0 0 32 32"><path d="M25.331,9.163l.754-2.318L24.772,6.27,23.079,9.543l-2.196,2.909-1.216,1.612-.909.92L5.477,15,1.54,11.706l-1.064.993L4,16.251V30H6V27.541L9.376,23.02,22,25.765v4.218h2V19.316l.394-.525,1.212-1.616.951-1.267,2.342-.368A4.08981,4.08981,0,0,0,32,11.567V10.116ZM22,18.65v5.052L8.672,20.784,6,24.496V17l13.71-.017,1.385-1.492,1.871,1.871Zm6.501-5.069-3.057.477-1.267,1.689-1.866-1.866,2.132-2.824,5.538.791A2.06252,2.06252,0,0,1,28.501,13.581Z"/><polygon points="9.695 11.179 13.238 7.636 16.781 11.179 18.195 9.765 14.652 6.222 18.195 2.679 16.781 1.264 13.238 4.807 9.695 1.264 8.28 2.679 11.823 6.222 8.28 9.765 9.695 11.179"/></svg>