<?xml version="1.0" encoding="UTF-8"?><svg id="Layer_1" xmlns="http://www.w3.org/2000/svg" width="32" height="32" viewBox="0 0 32 32"><path d="M10.94396,2.30178v.19209c0,2.42231-.00075,4.84457,.00244,7.26688,.00017,.11299-.02408,.16081-.14456,.18239-.3385,.06064-.67253,.14578-1.01063,.20892-.35487,.06627-.71194,.16522-1.06883,.16852-1.82,.01695-3.64017,.0076-5.46035,.00749h-.14717c-.36566,4.01512-.7294,8.00818-1.09431,12.01494h1.00355v7.35521h1.99996v-7.34453h2.00495v7.32102h1.99334v-7.33814h.92311c-.30397-3.33411-.60678-6.6547-.91023-9.98266,.64212-.13353,1.26742-.26347,1.91279-.39764v5.12451H29.97944V2.30178H10.94396ZM4.21591,20.32176c.02704-.30792,.05281-.60829,.07997-.90855,.04161-.45915,.08449-.91818,.12628-1.37727,.04225-.46391,.08368-.92782,.12587-1.39172,.04184-.45921,.08461-.9183,.12622-1.37751,.05084-.5614,.10069-1.12286,.15152-1.68426,.03319-.36647,.11229-.88644,.13788-1.25349,0,0-.00708-.00824,.12047-.00679,.60185,.00667,1.20382,.00284,1.80572,.00325,.04114,.00006,.11682,.00046,.16922,.00348,.24298,2.66349,.45085,5.32449,.69429,7.99286h-3.53746Zm23.75766-5.23878H12.94624v-3.54123c.36061-.0766,.72256-.15466,1.08497-.23027,.9465-.19742,1.78181-.37785,2.7293-.57045l-.38446-1.96461c-1.20248,.24989-2.21322,.46542-3.42644,.71757V4.30569h15.02396V15.08298Z"/><path d="M5.91276,8.87721c1.29847-.0018,2.34832-1.06814,2.34734-2.38413-.00099-1.31814-1.04806-2.37467-2.35256-2.37386-1.3005,.00081-2.35447,1.06674-2.35221,2.37891,.00221,1.30978,1.06349,2.38088,2.35743,2.37908Z"/><path d="M16.2312,12.617c.45583,.45684,.91462,.91556,1.39178,1.39367l2.89412-2.89406c.93878,.93784,1.88247,1.88058,2.81741,2.81653,.45489-.45684,.91367-.91462,1.3802-1.38209l-2.83786-2.83786c.95143-.95042,1.89801-1.89707,2.83786-2.83686-.45879-.46074-.91852-.92141-1.38505-1.38794-.94174,.9447-1.88732,1.89128-2.85334,2.8592-.03392-.0465-.05626-.08627-.08728-.1183-.90002-.90096-1.80105-1.80105-2.70207-2.70106-.1251-.12705-.09986-.12805-.23182,.0039-.39379,.39272-.78751,.7865-1.18123,1.18123-.02819,.02813-.05437,.05726-.08828,.09414,.97175,.96987,1.93778,1.93583,2.92898,2.92703l-2.88342,2.88248Z"/></svg>