<svg id="Layer_1" data-name="Layer 1" xmlns="http://www.w3.org/2000/svg" width="32" height="32" viewBox="0 0 32 32"><defs><style>.cls-1{fill-rule:evenodd;}</style></defs><path class="cls-1" d="M16,1A15,15,0,1,1,1,16,15,15,0,0,1,16,1Zm0,2A13,13,0,1,0,29,16,13,13,0,0,0,16,3Z"/><path d="M14.15137,8.60918a1.79309,1.79309,0,0,1,1.76776-1.81805q.02511-.00035.05024,0a1.77413,1.77413,0,0,1,1.79556,1.75242q.00039.03282-.00042.06563a1.77332,1.77332,0,0,1-1.72887,1.81669q-.03312.00081-.06627.0004a1.79228,1.79228,0,0,1-1.818-1.7662Q14.151,8.63463,14.15137,8.60918Zm.52966,3.84223h2.57676V24.64615H14.681Z"/></svg>