<svg id="Layer_1" data-name="Layer 1" xmlns="http://www.w3.org/2000/svg" width="32" height="32" viewBox="0 0 32 32"><path d="M20.24511,16.55469h-7.792l-1.13183,9.25488,1.13769.11963v3.2915h.88965V32h2V29.22168h2V32h2V29.2207h.89063V25.936l1.13769-.12647Zm-5.78614,2h3.78028v8.666H14.459Z"/><circle cx="16.34911" cy="12.1665" r="2.5"/><path d="M19.6079,13.1665H19.042v.56617a1.74129,1.74129,0,0,0,1.74,1.74h.56592v-.566A1.74006,1.74006,0,0,0,19.608,13.1665Z"/><path d="M11.35009,14.90662v.566H11.916a1.74129,1.74129,0,0,0,1.74-1.74V13.1665h-.56617a1.73986,1.73986,0,0,0-1.73974,1.74Z"/><path d="M7.63732,9.79739q-.00274-2.26053-.007-4.521a3.47744,3.47744,0,0,1,.08935-.81763,2.6186,2.6186,0,0,1,.35645-.84735A3.17981,3.17981,0,0,1,9.44457,2.47683a4.68514,4.68514,0,0,1,1.62719-.403A5.08418,5.08418,0,0,1,13.0537,2.307a3.54913,3.54913,0,0,1,1.57092.98181,2.42358,2.42358,0,0,1,.64917,1.57141.25523.25523,0,0,1-.136.01374q-.84008.00045-1.68.00061c-.115,0-.11011-.01362-.11011.10247q-.00036,1.0254,0,2.05066c0,.10974.001.1109.105.1109q2.8537.00028,5.70728,0c.10767,0,.10889-.001.10889-.107q0-1.02538.00024-2.05066c0-.12048.002-.10638-.10645-.10638q-.84612,0-1.69238-.00007c-.12622-.00006-.1272-.00018-.13049-.12182a4.16387,4.16387,0,0,0-.14465-.97382,4.5873,4.5873,0,0,0-1.689-2.48443,6.35606,6.35606,0,0,0-3.656-1.291L11.15233-.0001,11.0327,0c-.23779.01618-.47436.04145-.71032.07715A6.40941,6.40941,0,0,0,8.61791.57864,5.34537,5.34537,0,0,0,6.51757,2.23a4.68866,4.68866,0,0,0-.93946,2.82666c-.00342.22217.00318.44446.00366.66669q.004,1.36433.00672,2.72876.00165.98786.00268,1.97571c.00037.48267.00074,21.00865.0011,21.49138H7.64086C7.63964,31.22633,7.63842,10.4902,7.63732,9.79739Z"/></svg>