<svg id="Layer_1" data-name="Layer 1" xmlns="http://www.w3.org/2000/svg" width="32" height="32" viewBox="0 0 32 32"><path d="M16.9998,6.58767V4.74649h-1a1.31177,1.31177,0,1,1,1.3125-1.312h2A3.312,3.312,0,1,0,14.995,6.59024l-12.12311,6.438v5.45849H9.87676v-2H4.87187V14.23037L15.9998,8.32107l11.12891,5.9093v2.25635H22.12383v2h7.00488V13.02823Z"/><path d="M12.104,16.46957l-1.13183,9.25488,1.13769.11963v3.29151h.88965v2.77929h2V29.13656h2v2.77832h2V29.13559h.89062V25.85092l1.1377-.12647L19.896,16.46957Zm5.78613,10.666H14.10985v-8.666h3.78027Z"/><circle cx="15.99999" cy="13.08145" r="2.5"/><path d="M20.99877,15.3876v-.566a1.74006,1.74006,0,0,0-1.74-1.74011h-.56592v.56616a1.74129,1.74129,0,0,0,1.74,1.74Z"/><path d="M13.30687,13.64761v-.56616h-.56616a1.73985,1.73985,0,0,0-1.73971,1.74v.56612h.56592A1.74128,1.74128,0,0,0,13.30687,13.64761Z"/></svg>