<svg id="Layer_1" data-name="Layer 1" xmlns="http://www.w3.org/2000/svg" width="32" height="32" viewBox="0 0 32 32"><path d="M19.89614,12.58189h-7.792L10.9723,21.83678l1.13769.11963v3.2915h.88965v2.7793h2V25.24889h2v2.77832h2v-2.7793h.89063V21.96324l1.13769-.12646Zm-5.78614,2h3.78028v8.666H14.11Z"/><circle cx="16.00014" cy="8.19371" r="2.5"/><path d="M19.25893,9.19371H18.693v.56616a1.74129,1.74129,0,0,0,1.74,1.74h.56592v-.566A1.74005,1.74005,0,0,0,19.259,9.19371Z"/><path d="M11.00112,10.93382v.566H11.567a1.74129,1.74129,0,0,0,1.74-1.74V9.19371h-.56617a1.73985,1.73985,0,0,0-1.73971,1.74Z"/></svg>