<svg id="Layer_1" data-name="Layer 1" xmlns="http://www.w3.org/2000/svg" width="32" height="32" viewBox="0 0 32 32"><polygon points="17.586 11.986 16.215 9.291 17.523 5.27 16.549 3.354 18.331 2.447 19.682 5.101 18.373 9.122 19.369 11.079 17.586 11.986"/><polygon points="12.783 11.986 11.412 9.291 12.72 5.27 11.746 3.354 13.528 2.447 14.878 5.101 13.57 9.122 14.565 11.079 12.783 11.986"/><rect x="3" y="27" width="26" height="2"/><path d="M5,14v1a10.07482,10.07482,0,0,0,20.1,1l1.9-.054v3L29,19V14Zm10.075,9.076A8.08709,8.08709,0,0,1,7.062,16H23.089A8.08883,8.08883,0,0,1,15.075,23.076Z"/></svg>