<svg id="Layer_1" data-name="Layer 1" xmlns="http://www.w3.org/2000/svg" width="32" height="32" viewBox="0 0 32 32"><path d="M29.9471,12.26007l-4.58717,8.13229L14.28438,13.98157c-.18272.19253-.36084.38232-.54123.56992q-1.66992,1.73657-3.33848,3.47444a.43788.43788,0,0,1-.352.143q-2.75971-.00662-5.51946-.0029H4.25041v12.6002H2.0529V1.23379H4.23419V15.94362h.249c1.54262,0,3.08526.00226,4.62784-.00487a.48509.48509,0,0,0,.31772-.113c.94294-.968,1.87639-1.9453,2.81185-2.92061a.74808.74808,0,0,0,.05143-.07408L6.55033,9.50514,11.1279,1.24562ZM23.435,11.03018,11.95674,4.31223,9.54591,8.66728l11.527,6.67023Zm-.447,5.41564,1.55147.89638L26.941,13.08332l-1.59752-.93515Z"/></svg>