<svg id="Layer_1" data-name="Layer 1" xmlns="http://www.w3.org/2000/svg" width="32" height="32" viewBox="0 0 32 32"><path d="M29.74561,27.14381H26.1025a1.64648,1.64648,0,0,1,.74471,1.4201,1.58078,1.58078,0,0,1-.5307,1.17011,1.60568,1.60568,0,0,1-2.27346-.10678,1.66519,1.66519,0,0,1,.30328-2.47593H18.9298a1.667,1.667,0,0,1,.87685.9023,1.61617,1.61617,0,1,1-3.06287.99826,1.66837,1.66837,0,0,1,.96014-1.90776H13.49387V9.736H16.503V9.31554c0-2.47066.00091-5.1.00094-7.57062a.38749.38749,0,0,1,.007-.04534c3.30171.00052,6.79163.0138,10.09334.0143h.07739V9.69327h3.064ZM15.536,11.82275V25.08808H27.58963V11.82275Zm9.14332-8.05141h-6.124v6.0064h6.124Z"/><path d="M9.64965,10.47589l-2.881-2.8808-3.06773,3.0681L2.27023,9.22869,5.33116,6.16837,2.25439,3.09448,3.695,1.65346,6.75165,4.71062l2.898-2.89838,1.44255,1.44265L8.22,6.12564l2.88782,2.88523Z"/></svg>