<svg id="Layer_1" data-name="Layer 1" xmlns="http://www.w3.org/2000/svg" width="32" height="32" viewBox="0 0 32 32"><defs><style>.cls-1{fill:#1d1d1b;}</style></defs><path class="cls-1" d="M0,0V32H32V0ZM29.95575,1.994a3.98334,3.98334,0,0,1-7.96655,0Zm-9.97168,0a3.98361,3.98361,0,0,1-7.9671,0Zm-8.9895,3.25976a5.9978,5.9978,0,0,0,9.99206.03266,5.9989,5.9989,0,0,0,3.98279,2.57287V23.40753H6.99146V7.85931A5.99729,5.99729,0,0,0,10.99457,5.25378ZM9.97223,1.994a3.98361,3.98361,0,0,1-7.9671,0ZM2.00513,6.42853a5.97694,5.97694,0,0,0,2.9812,1.43078V23.40753H2.00513ZM29.99487,30.00592H2.00513V25.40155H29.99487Zm0-6.59839H26.97455V7.85931a5.97514,5.97514,0,0,0,3.02032-1.46637Z"/></svg>