<svg id="Layer_1" data-name="Layer 1" xmlns="http://www.w3.org/2000/svg" width="32" height="32" viewBox="0 0 32 32"><path d="M29.04458,6.28464c0,.66846-.02227,1.36813-.02227,2.03985-1.45355,0-2.9746.02987-4.43734.02987,0,1.56024-.0249,3.3691-.0249,4.91911h5.63138v1.994H28.94613l-.8067,14.12472L19.0226,29.342l-.71525-14.02256h-1.482V13.305h5.69612c0-2.24045.00142-4.83733.00142-7.06179C24.66464,6.24319,26.90324,6.28464,29.04458,6.28464ZM26.2255,27.359l.68637-11.98548H20.33859l.612,11.98548Z"/><path d="M16.89111,29.39793,1.8088,29.44926c0-.05912-.00025-.10383,0-.14854.01191-1.85751.04054-3.92513.04054-5.78267,0-.061.01356-.061.01356-.061,2.51138-.00871,5.30405-.03447,7.81544-.04319,2.33168-.00809,4.83013-.0136,7.16181-.02169,0,0,.00933-.00467.00467.0373.01394,1.90809.03275,3.94833.04623,5.85642C16.89129,29.31506,16.89111,29.34422,16.89111,29.39793Zm-2.12819-3.946H3.93762v1.96187c.05741,0,.10967.00014.16193,0q4.09508-.01265,8.19015-.02524c.78441-.00236,1.56882-.00565,2.35322-.00327.10969.00033.14117-.03027.13848-.13551-.011-.43037-.0137-.86094-.01819-1.29146C14.76142,25.78611,14.76292,25.6139,14.76292,25.45191Z"/><path d="M16.68267,21.43793H16.516q-7.07333,0-14.14663,0c-.17438,0-.17827-.00021-.17381-.16958.01454-.55238.00139-1.10769.055-1.65639a6.77194,6.77194,0,0,1,1.13058-3.15572,7.11412,7.11412,0,0,1,4.64194-3.1368,7.23584,7.23584,0,0,1,8.43949,5.31136,6.92671,6.92671,0,0,1,.21894,1.62479C16.68735,20.6434,16.68267,21.03138,16.68267,21.43793Zm-2.137-2.026a5.19786,5.19786,0,0,0-10.20418,0Z"/><path d="M5.2672,7.01894l-3.021-3.01728c.03535-.03768.06263-.06841.09163-.09743Q2.9466,3.2951,3.55593,2.68652c.13611-.13578.1088-.13485.23948-.0042Q5.18812,4.07465,6.58,5.46782a1.142,1.142,0,0,1,.09151.12158L9.61293,2.6417l1.42826,1.43L8.1143,6.99813,11.0402,9.9237,9.61748,11.34835,6.71286,8.4437l-2.984,2.98445L2.29391,9.9924Z"/></svg>