<svg id="Layer_1" data-name="Layer 1" xmlns="http://www.w3.org/2000/svg" width="32" height="32" viewBox="0 0 32 32"><path d="M12.77361,8.80154c.0679-.00385.58.01223.62678.01219.64629-.00051.84881.00968,1.49506.005.103-.00074-.00375-.02213.0537.065a5.47462,5.47462,0,0,0,1.43511,1.28364,2.22844,2.22844,0,0,0,1.27028.37791,1.93024,1.93024,0,0,0,1.41042-.44594,4.55051,4.55051,0,0,0,1.00561-1.10684.39652.39652,0,0,0,.0398-.21471c.00226-1.24409-.00206-2.48821.00289-3.73229a3.67587,3.67587,0,0,1,.85-2.41447,3.31524,3.31524,0,0,1,2.55257-1.25877,3.49514,3.49514,0,0,1,3.46955,2.67891,5.1667,5.1667,0,0,1,.09782.53864c.01814.13177.018.26606.02669.40964H25.04309c-.02975-.16477-.04644-.32518-.08854-.47862a1.41,1.41,0,0,0-1.41731-1.06693A1.44016,1.44016,0,0,0,22.24281,4.618a2.42577,2.42577,0,0,0-.04184.46463c-.0029,1.26564.00014,2.53129-.00294,3.79692a.39467.39467,0,0,0,.10986.28813,4.67538,4.67538,0,0,0,1.43481,1.29824,2.311,2.311,0,0,0,2.322-.26011,6.29569,6.29569,0,0,0,1.21909-1.398l.0228-.00253c.66775-.00148,1.32819-.00478,1.99593-.01184a.62679.62679,0,0,1,.086.00874C27.5216,15.34212,25.681,21.66894,23.81253,28.21427H22.524v2.45146H20.39137V28.22381H19.11756C17.15785,21.70423,14.73549,15.32832,12.77361,8.80154Zm3.71389,3.44278c.02282.07821.03706.12825.052.17808q1.02668,3.41811,2.0536,6.83616c.676,2.24814,1.39483,4.64779,2.0689,6.8965,0,0-.01719,0,.043-.00573.42522-.008,1.0679-.01509,1.49309-.00638l.04683.00624c.29384-1.04732.6382-2.25793.93683-3.30391q1.27376-4.46133,2.54732-8.9227c.14939-.52333.29814-1.04684.45881-1.61109a3.65063,3.65063,0,0,1-2.70226.11514,5.64388,5.64388,0,0,1-2.32157-1.4441A3.94455,3.94455,0,0,1,16.4875,12.24432Z"/><path d="M7.13094,6.22912l2.9847-2.98547L11.58207,4.7102,8.617,7.672l2.9973,2.9971-1.48642,1.47648L7.15724,9.17044,4.098,12.23153,2.6202,10.75522,5.67177,7.70385,2.61153,4.64442,4.08021,3.17663Z"/></svg>