<svg id="Layer_1" data-name="Layer 1" xmlns="http://www.w3.org/2000/svg" width="32" height="32" viewBox="0 0 32 32">
  <g>
    <circle cx="26.94641" cy="2.75" r="2.5"/>
    <path d="M30.86639,7h-7.84L21.95038,19.917l1.993.166.005-.062V32h2V19h2V32h2V20.062l.002.021,1.993-.166Zm-6.666,10,.667-8h4.16l.667,8Z"/>
    <circle cx="9.96692" cy="5.45575" r="2.5"/>
    <path d="M13.8869,9.70569h-7.84L5.4397,16.99512H0v2H1V32H18.99817V18.99512h1v-2H14.49463ZM16.99817,30H3V18.999H16.99817ZM7.88788,11.70569h4.16l.441,5.28943H7.4469Z"/>
  </g>
</svg>
