<svg id="Layer_1" data-name="Layer 1" xmlns="http://www.w3.org/2000/svg" width="32" height="32" viewBox="0 0 32 32"><polygon points="27.772 3.132 25.772 3.132 25.772 9 21.772 9 26.772 14.507 31.772 9 27.772 9 27.772 3.132"/><polygon points="4.624 14.888 6.624 14.888 6.624 9.021 10.624 9.021 5.624 3.514 0.624 9.021 4.624 9.021 4.624 14.888"/><circle cx="17.5" cy="4.5" r="2.5"/><path d="M19.888,17.994A7.1086,7.1086,0,0,0,19,17.26V9H13.313l-2.392,6.221.706,1.646a7.00748,7.00748,0,1,0,9.883,3.572l1.49.352V28h2V19.209ZM13.079,15.18,14.687,11H17v5.294a6.92489,6.92489,0,0,0-3.499-.129ZM15,28a4.98587,4.98587,0,0,1-2.573-9.265l1.654,3.859,1.838-.787-1.602-3.738A4.969,4.969,0,0,1,15,18a5,5,0,0,1,0,10Z"/></svg>