<svg id="Layer_1" data-name="Layer 1" xmlns="http://www.w3.org/2000/svg" width="32" height="32" viewBox="0 0 32 32"><path d="M8.88493,2.91909,10.343,4.37852,7.35181,7.36965l3.00771,2.96985L8.90655,11.789,5.95521,8.8394l-3.0586,3.06168L1.42177,10.41015,4.4494,7.38255,1.40377,4.34061l1.46805-1.466L5.902,5.90591Z"/><path d="M30.5954,19.036c-.90991-.39905-2.19757-.9743-3.13147-1.37781-.05451-.04882-.895-4.20623-1.26416-6.03326-.11139-.55133-.2262-1.10205-.34314-1.67084H23.32288V6.49286H14.57666V9.9541H12.04291c-.11695.56879-.23175,1.11951-.34314,1.67084-.3692,1.827-1.20966,5.98444-1.26416,6.03326-.9339.40351-2.22156.97876-3.13147,1.37781.01507,2.53052-.00086,5.43744.011,7.968.00013.03631.07148-.056.075,0,1.07684,0,1.92865.015,3.01483.015v2.05481c2.78857-.01385,5.6665-.00067,8.54486.01233,2.87835-.013,5.75628-.02618,8.54486-.01233V27.019c1.08618,0,1.938-.015,3.01483-.015.00348-.056.07483.03631.07495,0C30.59625,24.47345,30.58032,21.56653,30.5954,19.036ZM10.43488,24.76923s-1.15308.00256-1.53528.00256c0,0,.01086-2.98627.00775-4.40979,0-.01172-.00141-.0069-.002-.00842l1.52955-.504Zm8.51489-16.431c.7699-.00843,1.53839-.017,2.31225-.017,0,.42017-.01574,1.22131-.01574,1.657-.77124,0-1.53327-.00854-2.29651-.017-.76325.00843-1.52527.017-2.29651.017,0-.43567-.01575-1.23681-.01575-1.657C17.41138,8.32129,18.17987,8.32983,18.94977,8.33826Zm-5.21942,3.71289H24.16919c.15558.76349.48346,2.386.48346,2.386-.55505.44947-.867.7721-1.41919,1.25165h-.37781c-1.263.018-2.59283.01483-3.90588.01654-1.31305-.00171-2.64289.00141-3.90589-.01654h-.3778c-.55219-.47955-.86414-.80218-1.41919-1.25165C13.24689,14.43713,13.57477,12.81464,13.73035,12.05115ZM18.94977,26.987c-2.20062-.015-6.56647-.01953-6.56647-.01953l.061-9.31751.26416-1.12585s1.09814.87115,1.55059,1.23926c1.47724.01721,3.08332.01513,4.69068.014,1.60736.00116,3.21344.00324,4.69067-.014.45246-.36811,1.5506-1.23926,1.5506-1.23926L25.4552,17.65l.061,9.31751S21.15039,26.972,18.94977,26.987Zm8.51489-2.21777V19.84955l1.52954.504c-.00061.00152-.002-.0033-.002.00842-.00312,1.42352.00775,4.40979.00775,4.40979C28.61774,24.77179,27.46466,24.76923,27.46466,24.76923Z"/><path d="M18.94977,20.11023c-1.18952-.008-2.36975-.01965-3.59363-.00183,0,.69818.00861,1.393.00861,2.08722,1.23169-.0185,2.40631-.01239,3.585-.009,1.17871-.00342,2.35333-.00953,3.585.009,0-.69422.00861-1.389.00861-2.08722C21.31952,20.09058,20.13928,20.10223,18.94977,20.11023Z"/></svg>