<?xml version="1.0" encoding="UTF-8"?>
<svg id="Layer_1" data-name="Layer 1" xmlns="http://www.w3.org/2000/svg" width="32" height="32" viewBox="0 0 32 32">
  <path d="M22.72656,9.50049c-.02539-.00049-.05078-.00049-.0752-.00049-2.34521,0-3.46637,1.20685-5.65137,3.80536.31702.37708.63544.76221.95605,1.15021.11346.13727.22797.27576.34302.41461,1.83746-2.19824,2.81244-3.37018,4.37378-3.37018,2.33594-.02002,4.32715,2.00781,4.32715,4.50049,0,2.48096-1.92578,4.49951-4.28516,4.49951-1.5083-.01288-3.55518-2.38416-5.41577-4.62982-.11505-.13885-.22955-.27734-.34302-.41461-.32062-.388-.63904-.77313-.95605-1.15021-2.18469-2.59857-4.30365-4.80585-6.63184-4.80585-3.49707-.00049-6.36816,2.8916-6.36816,6.50098,0,3.5835,2.82324,6.49951,6.30273,6.49951,1.40826-.01196,2.38153-.51562,3.42383-1.50433v1.50433h2v-5h-5v2h1.65417c-.68829.63531-1.33044.99353-2.08679,1-2.36816,0-4.29395-2.01855-4.29395-4.49951,0-2.48145,1.92578-4.5,4.31445-4.5,1.58582-.05359,3.54456,2.15088,5.38757,4.36841.23956.28827.47748.57684.71204.8606.19623.23749.3913.4729.58594.70691,2.22931,2.67969,4.36908,5.04382,6.70605,5.0636,3.4707,0,6.29395-2.91602,6.29395-6.49951,0-3.58398-2.82324-6.5-6.27344-6.5Z"/>
</svg>