<svg id="Layer_1" data-name="Layer 1" xmlns="http://www.w3.org/2000/svg" width="32" height="32" viewBox="0 0 32 32"><defs><style>.cls-1{fill:#1d1d1b;}</style></defs><path class="cls-1" d="M29.53016,22.78174V22.749h-.00268a4.91718,4.91718,0,0,0-1.11939-2.8291,5.45046,5.45046,0,0,0-4.34375-1.67871c-7.59375,0-9.44824-4.03516-9.51953-4.19824l-.25586-.6167H4.02723L2.59034,22.749l-.14221.92286V28h27.082V23.8A5.8174,5.8174,0,0,0,29.53016,22.78174ZM5.74208,15.42627h7.28711l.0039.00592-2.09765,2.09808,1.41406,1.41407L14.315,16.97888a9.66109,9.66109,0,0,0,.96912.80921L13.23817,19.834l1.41406,1.41407,2.40747-2.40741a16.10961,16.10961,0,0,0,7.00464,1.40057,3.59288,3.59288,0,0,1,2.82129.97559,2.877,2.877,0,0,1,.63965,1.53222H4.61415ZM27.53016,26H4.44813V24.749h23.082Z"/><path class="cls-1" d="M20.82225,11.722c.46863.469.94031.941,1.43189,1.43286q1.46613-1.46613,2.978-2.97839c.96594.96588,1.9364,1.93634,2.8988,2.89874q.70294-.70377,1.4198-1.42176Q28.102,10.20487,26.63085,8.73382q1.46868-1.46842,2.921-2.92054c-.4729-.47351-.94568-.94689-1.42542-1.42712-.96936.97144-1.94165,1.94574-2.93554,2.94177a1.12967,1.12967,0,0,0-.09131-.12133c-.92578-.92719-1.95313-1.96222-2.87976-2.88855l-.13819.11285q-.60846.607-1.21569,1.21527c-.02881.02893-.05616.05957-.09131.09723.99975.99853,1.99438,1.992,3.01489,3.01117C22.781,9.76305,21.78771,10.75646,20.82225,11.722Z"/></svg>