<svg id="Layer_1" data-name="Layer 1" xmlns="http://www.w3.org/2000/svg" width="32" height="32" viewBox="0 0 32 32"><circle cx="9.998" cy="2.75" r="2.5"/><path d="M6.07837,7,5.00171,19.917l1.99316.166L7,20.02148V32H9V19h2V32h2V19h1l.91852.00063L14.19171,10.281l4.95777,5.46868,1.48175-1.34326-6.7129-7.4046L13,7H6.07837ZM7.25171,17l.6665-8h4.16016l.6665,8Z"/><polygon points="27.563 18.994 25.502 19 24.241 30.003 19.793 30.003 18.531 18.994 16.471 19.003 18.009 32 19.195 32 20.022 32 24.341 32 24.341 31.991 26.025 31.991 27.563 18.994"/><circle cx="21" cy="20" r="1"/><rect x="22" y="22" width="2" height="2"/><rect x="21" y="27" width="2" height="2"/></svg>