<svg id="Layer_1" data-name="Layer 1" xmlns="http://www.w3.org/2000/svg" width="32" height="32" viewBox="0 0 32 32"><path d="M24.00157,16.2984s-.27393-1.88117-.41186-2.82794c-.6731.09729-1.32129.19092-1.99561.28833.12134.849.241,1.68536.3623,2.534H16.43746v2.04413H25.006V16.2984Z"/><path d="M11.919,6.68151A2.57377,2.57377,0,1,0,9.34768,4.10529v.01085A2.58684,2.58684,0,0,0,11.919,6.68151Z"/><path d="M27.77476,18.34845A1.87067,1.87067,0,1,0,25.99731,16.389q-.00211.04347-.00221.087A1.87363,1.87363,0,0,0,27.77476,18.34845Z"/><path d="M14.70518,13.74945,19.515,12.365l-.43658-1.94183-3.95038,1.131-2.63843-2.0228s.2987-.75976.37365-.96277c-.03967-.01922-5.298-2.272-5.298-2.272L7.44444,6.241l-.07361.15618S4.51695,12.296,3.08946,15.24524c-.27246.56323-.54407,1.12689-.8208,1.70007C2.93309,17.231,4.63,17.94775,4.63,17.94775s-.06519,7.96552-.0127,11.751c.00086.0636,0,.1272,0,.16846H6.80162c-.05188-3.67072.05163-7.31006,0-10.97693.637.27179,1.25452.53528,1.89355.808,1.03186-2.75159,2.01258-5.374,3.04078-8.11609l.03125-.085Zm-7.25171,3.0426c-.73974-.31653-1.47192-.62976-2.22558-.95215,1.09253-2.25757,2.1792-4.50287,3.27417-6.76544.54077.23175,1.05469.452,1.58911.681C9.21251,12.0993,8.33775,14.43323,7.45347,16.79205Z"/><rect x="11.7672" y="19.49603" width="17.96414" height="2"/></svg>