<svg id="Layer_1" data-name="Layer 1" xmlns="http://www.w3.org/2000/svg" width="32" height="32" viewBox="0 0 32 32"><path d="M19.29926,15.81,17.8852,14.3959a3.08911,3.08911,0,1,0-4.36866-4.36866L12.10248,8.61318A5.08889,5.08889,0,0,1,19.29926,15.81Z"/><path d="M14.50336,27.4706a4.56841,4.56841,0,0,1-4.0625-2.46289l1.77344-.92578a2.58041,2.58041,0,0,0,4.86914-1.1914l.0039-.62012a7.33734,7.33734,0,0,1,2.63379-5.47315A6.09853,6.09853,0,1,0,9.602,12.21181h-2a8.09919,8.09919,0,1,1,13.43848,6.08887,5.3682,5.3682,0,0,0-1.95313,3.9834l-.0039.61328A4.58391,4.58391,0,0,1,14.50336,27.4706Z"/><polygon points="24.885 2.002 27.705 2.002 23.035 6.682 21.625 5.262 24.885 2.002"/><polygon points="11.645 18.072 1.995 27.712 1.995 24.892 10.225 16.652 11.645 18.072"/><path d="M29.99261,19.955H27.392v7.33594H25.478V19.955H22.87738V18.21279h7.11523Z"/></svg>