<svg id="Layer_1" data-name="Layer 1" xmlns="http://www.w3.org/2000/svg" width="32" height="32" viewBox="0 0 32 32"><circle cx="6.998" cy="2.75" r="2.5"/><path d="M3.078,7,2.002,19.917l1.993.166L4,20.021V32H6V19H8V32h2V20.062l.002.021,1.993-.166L10.918,7ZM4.252,17l.667-8h4.16l.667,8Z"/><rect x="15" width="2" height="32"/><circle cx="24.997" cy="3" r="2.5"/><path d="M30.98,18.821,28.832,7h-7.67L19.014,18.821l1.967.357.02-.11v7.93225h1V32h2V27.00025h2V32h2V27.00025h1V19.106l.013.072ZM23,9h4V25.00025H23Zm6.43-2.694h.566V5.74A1.74,1.74,0,0,0,28.256,4H27.69v.566A1.74125,1.74125,0,0,0,29.43,6.306Z"/><path d="M22.304,4.566V4h-.566a1.74,1.74,0,0,0-1.74,1.74v.566h.566A1.74125,1.74125,0,0,0,22.304,4.566Z"/></svg>