<svg id="Layer_1" data-name="Layer 1" xmlns="http://www.w3.org/2000/svg" width="32" height="32" viewBox="0 0 32 32"><path d="M29.92156,29.97681H2.07844V2.02319H29.92156ZM11.03844,9.006v5.98812h5.962V20.9873h5.97735v6.98475H27.918V4.03539H4.082V9.006Zm-6.9531,2.0117v16.9381H20.952V22.97921H14.99477V17.00637h-.14916q-2.79335-.00012-5.58669-.00052c-.251-.00009-.22889.03065-.22894-.22012Q9.0295,13.98936,9.02981,11.193v-.17533Z"/><path d="M19.06591,18.922V16.90442c1.014,0,2.1433.05048,3.16416.05048.006-.017-.09654-.0844-.09058-.10135l-4.99767-5.01346L18.55,10.39589c1.72309,1.7289,3.70557,3.82245,5.43239,5.5551,0-1.15624-.01825-2.80019-.01825-3.96088h2.06257c.02692,2.23152-.02712,4.68706,0,6.9361C23.78388,18.95223,21.3216,18.89582,19.06591,18.922Z"/></svg>