<svg id="Layer_1" data-name="Layer 1" xmlns="http://www.w3.org/2000/svg" width="32" height="32" viewBox="0 0 32 32"><path d="M29.86986,29.875H2.13013V2.12652h.14246q8.48215.00016,16.96431.00023,5.22338-.00021,10.44674-.00171c.18609,0,.18621.00007.18621.189q0,13.69229,0,27.38457ZM4.11831,4.13184v23.7508h4.935V20.94608H15.001V15.01051c.069,0,.12593,0,.18288,0q2.79636.001,5.59272.00524c.1375.00041.17009-.03631.16976-.17109q-.0068-2.79637-.00306-5.59277v-.1883h6.92111V4.13184ZM16.99116,22.95263H11.05847v4.93712H27.86384V11.06323H22.9375V17.0058H16.99116Z"/><path d="M8.38942,13.23009l4.97393-4.96928c-.002-.01243.336-.30389.334-.31631-1.02158-.01179-2.4478.0527-3.46312.041,0-.67092.02049-1.33883.02049-2.0082,2.23933.02667,4.60572-.04715,6.84428-.02049-.0249,2.231.00136,4.69382-.02341,6.9135-.6698,0-1.296.01275-1.94381.01275,0-1.15393-.06147-2.3891-.06147-3.50411-1.70248,1.70244-3.54492,3.57759-5.249,5.28163Z"/></svg>