<svg id="Layer_1" data-name="Layer 1" xmlns="http://www.w3.org/2000/svg" width="32" height="32" viewBox="0 0 32 32"><path d="M15.2435,3.55545H18.978V5.41061H17.29169V6.58543h4.7089c.10294.47416,1.44574,6.74986,2.01688,9.42819A14.62877,14.62877,0,0,1,24.44,18.6291a7.029,7.029,0,0,1-.9626,3.82651,8.98329,8.98329,0,0,1-3.4914,3.51655c-.40325.21761-.84387.36531-1.26282.55507a.34359.34359,0,0,0-.1748.17628A2.4427,2.4427,0,0,1,13.898,26.794a.29108.29108,0,0,0-.16727-.1593,8.56136,8.56136,0,0,1-5.4275-4.50744,7.108,7.108,0,0,1-.708-2.56042,9.57177,9.57177,0,0,1,.37318-3.42527c.78578-3.12551,2.354-9.54607,2.3573-9.5505,1.50287.0041,4.822.00452,4.91781.00452Zm5.21092,4.95832h-.22893c-2.72257,0-5.6761-.00348-8.39866-.01026-.00225.003.00826-.036-.05767.23324-.6818,2.791-1.36246,5.58225-2.06276,8.3686a6.6371,6.6371,0,0,0-.13691,2.75912A5.80773,5.80773,0,0,0,11.38392,23.13,6.52244,6.52244,0,0,0,18.356,24.60744a6.31066,6.31066,0,0,0,3.156-2.6177,5.4801,5.4801,0,0,0,.87027-4.45847q-.75538-3.51189-1.50419-7.02522C20.737,9.8463,20.59739,9.18622,20.45442,8.51377Z"/><path d="M16.006,22.13912a1.48559,1.48559,0,0,1-.04084-2.9709q.02928-.00041.05854.00035a1.4853,1.4853,0,1,1-.0177,2.97055Z"/></svg>