<svg id="Layer_1" data-name="Layer 1" xmlns="http://www.w3.org/2000/svg" width="32" height="32" viewBox="0 0 32 32"><path d="M15.63873,2.1748V4.62988H8.67224L8.641,9.4082l2,.01368.01758-2.792h4.98016V25.34473H10.67517l.043-4.59082-2-.03516-.01563.61133h.00977l-.05664,6.01465h6.98309V29.8252l11.98535-2.66407V4.83887Zm9.98535,23.38282L17.642,27.33032V4.66968l7.98211,1.7727Z"/><polygon points="9.744 19.597 14.029 14.99 9.421 10.704 8.06 12.169 10.002 13.975 4.378 13.973 4.376 15.973 10.381 15.975 8.279 18.235 9.744 19.597"/><rect x="19.80557" y="15.99143" width="2.13228" height="2.00041" transform="translate(-0.05123 0.06312) rotate(-0.17307)"/></svg>