<svg id="Layer_1" data-name="Layer 1" xmlns="http://www.w3.org/2000/svg" width="32" height="32" viewBox="0 0 32 32">
  <g>
    <circle cx="16" cy="16" r="1.5"/>
    <circle cx="16.06976" cy="19.93323" r="1"/>
    <circle cx="16.06976" cy="12.06677" r="1"/>
    <path d="M20.342,18.46661a1,1,0,1,0-1.366.366A1,1,0,0,0,20.342,18.46661Z"/>
    <path d="M13.16351,13.16736a1,1,0,1,0,.366,1.366A1,1,0,0,0,13.16351,13.16736Z"/>
    <path d="M19.976,14.89941a1,1,0,1,0-1.366-.366A.99993.99993,0,0,0,19.976,14.89941Z"/>
    <path d="M12.16351,17.10059a1,1,0,1,0,1.366.366A1,1,0,0,0,12.16351,17.10059Z"/>
    <path d="M31.25214,17V15H29.31262a13.24077,13.24077,0,0,0-1.28674-4.78845l1.68286-.97162-1-1.732-1.6748.967a13.47164,13.47164,0,0,0-3.50885-3.50878l.967-1.67487-1.73206-1-.97162,1.68286A13.24079,13.24079,0,0,0,17,2.68738V.74786H15V2.68738a13.24079,13.24079,0,0,0-4.78839,1.28674L9.24,2.29126l-1.73206,1,.967,1.67487A13.47164,13.47164,0,0,0,4.96606,8.47491l-1.6748-.967-1,1.732,1.68286.97162A13.24077,13.24077,0,0,0,2.68738,15H.74786v2H2.68738a13.24085,13.24085,0,0,0,1.2868,4.78839L2.29126,22.76l1,1.73206,1.67493-.967a13.47263,13.47263,0,0,0,3.50872,3.50873l-.967,1.67493,1.73206,1,.97162-1.68286A13.24085,13.24085,0,0,0,15,29.31262v1.93946h2V29.31262a13.24085,13.24085,0,0,0,4.78839-1.2868L22.76,29.70868l1.73206-1-.967-1.67493A13.47263,13.47263,0,0,0,27.03381,23.525l1.67493.967,1-1.73206-1.68292-.97162A13.24085,13.24085,0,0,0,29.31262,17ZM16,27.36328A11.36328,11.36328,0,1,1,27.36328,16,11.3763,11.3763,0,0,1,16,27.36328Z"/>
    <circle cx="16" cy="8.13354" r="1.5"/>
    <circle cx="16" cy="23.86639" r="1.5"/>
    <path d="M11.49823,11.49823a1.5,1.5,0,1,0-2.12128,0A1.5,1.5,0,0,0,11.49823,11.49823Z"/>
    <path d="M20.50177,20.50171a1.5,1.5,0,1,0,2.12128,0A1.5,1.5,0,0,0,20.50177,20.50171Z"/>
    <circle cx="8.13354" cy="16" r="1.5"/>
    <circle cx="23.86646" cy="16" r="1.5"/>
    <path d="M9.377,20.50171a1.5,1.5,0,1,0,2.12128,0A1.5,1.5,0,0,0,9.377,20.50171Z"/>
    <path d="M22.62305,11.49823a1.5,1.5,0,1,0-2.12128,0A1.5,1.5,0,0,0,22.62305,11.49823Z"/>
  </g>
</svg>
