<svg id="Layer_1" data-name="Layer 1" xmlns="http://www.w3.org/2000/svg" width="32" height="32" viewBox="0 0 32 32">
  <g>
    <path d="M19.37012,8.59863,15.47559,23.40234H13.1582L10.00488,12.08008,6.68066,23.40234H4.3623L.4873,8.59863H2.957L5.6543,20.26172,8.86523,8.59863h2.31739l3.21093,11.6416,2.69727-11.6416Z"/>
    <path d="M21.74805,15.91992c0,3.541,1.84277,5.44141,4.3125,5.44141a3.856,3.856,0,0,0,3.68554-2.60059l1.76661,1.16114a5.72075,5.72075,0,0,1-5.54688,3.67968c-3.78125,0-6.53516-2.91992-6.53516-7.66113,0-4.60059,3.0586-7.542,6.64844-7.542a5.47489,5.47489,0,0,1,5.28125,3.34082l-1.9375,1.13965a3.571,3.571,0,0,0-3.34375-2.24024C23.83789,10.63867,21.74805,12.29883,21.74805,15.91992Z"/>
  </g>
</svg>
