<svg xmlns="http://www.w3.org/2000/svg" width="32" height="32" viewBox="0 0 32 32">
  <defs>
    <style>
      .cls-1 {
        fill: #fff;
      }
    </style>
  </defs>
  <g id="hvitbak">
    <rect class="cls-1" width="32" height="32"/>
  </g>
  <g id="artwork_sort" data-name="artwork sort">
    <g>
      <path d="M25.88989,24.72455a1.83206,1.83206,0,0,1-2.41437,1.38873c-.568-.15222-1.921-.51916-3.64868-.98871l.5149-1.92157,4.16906,1.11713.51764-1.93189-1.87726-.503-1.55407-5.78234-4.62433,2.52038,2.73749-7.2904L12.98706,9.59711,8.7182,18.01794,6.786,17.50024l-.51764,1.93183,2.90485.77832-.50281,1.87646c-2.32385-.63336-3.97131-1.08258-3.97131-1.08258l-.52619,1.92957s16.38007,4.46692,18.785,5.11126a3.81715,3.81715,0,0,0,3.01709-.31024,4.3306,4.3306,0,0,0,1.8518-2.51153ZM20.32483,19.0741l.59479,2.21319-3.12152-.83636Zm-6.281-7.13843,3.01172.77765-2.57232,6.84936-3.7909-1.01574Zm3.85309,12.66412c-2.319-.63092-4.975-1.35437-7.29687-1.98706l.505-1.8847,7.30481,1.95733Z"/>
      <path d="M17.3078,8.83813A2.5,2.5,0,1,0,15.54,5.77631,2.49993,2.49993,0,0,0,17.3078,8.83813Z"/>
    </g>
  </g>
</svg>
