<svg id="sorte" xmlns="http://www.w3.org/2000/svg" width="32" height="32" viewBox="0 0 32 32">
  <rect y="8" width="32" height="2"/>
  <rect y="14" width="32" height="2"/>
  <path d="M16,11a1,1,0,1,0,1,1,1,1,0,0,0-1-1Z"/>
  <path d="M10,11a1,1,0,1,0,1,1,1,1,0,0,0-1-1Z"/>
  <path d="M4,11a1,1,0,1,0,1,1,1,1,0,0,0-1-1Z"/>
  <path d="M22,11a1,1,0,1,0,1,1,1,1,0,0,0-1-1Z"/>
  <path d="M28,11a1,1,0,1,0,1,1,1,1,0,0,0-1-1Z"/>
  <path d="M16,18.33125l-2.828,2.828-.00086.00086a4,4,0,1,0,5.65686-.00086Zm1.414,7.07a2.04667,2.04667,0,0,1-2.828,0l-.001-.001a1.999,1.999,0,0,1,.001-2.827L16,21.15925l1.414,1.414.001.001A1.99905,1.99905,0,0,1,17.414,25.40126Z"/>
</svg>
