<svg id="Layer_1" data-name="Layer 1" xmlns="http://www.w3.org/2000/svg" width="32" height="32" viewBox="0 0 32 32">
  <polygon points="16 3.309 27.5 9.949 28.5 8.217 16 1 3.5 8.217 4.5 9.949 16 3.309"/>
  <g>
    <circle cx="16" cy="14.32965" r="2.5"/>
    <path d="M28,28.03094a4.95249,4.95249,0,0,0-6.63336-1.27215L19.835,18.32959h-7.67l-1.53363,8.43988A4.90328,4.90328,0,0,0,8,26a4.9974,4.9974,0,0,0-4,2.00293A4.9974,4.9974,0,0,0,0,26v2a3.00328,3.00328,0,0,1,3,3H5a3.00015,3.00015,0,0,1,6,0h2a3,3,0,0,1,6,0h2a3,3,0,0,1,6,0h2a3.00328,3.00328,0,0,1,3-3V26A4.98137,4.98137,0,0,0,28,28.03094ZM16,26a4.88914,4.88914,0,0,0-1.997.432V20.32959h4V26.4281A4.9571,4.9571,0,0,0,16,26Z"/>
  </g>
</svg>
