<svg id="Layer_1" data-name="Layer 1" xmlns="http://www.w3.org/2000/svg" width="32" height="32" viewBox="0 0 32 32">
  <g>
    <path d="M28,28.03094a4.97494,4.97494,0,0,0-8-.028,4.97494,4.97494,0,0,0-8,.028,4.97494,4.97494,0,0,0-8-.028A4.9974,4.9974,0,0,0,0,26v2a3.00328,3.00328,0,0,1,3,3H5a3,3,0,0,1,6,0h2a3,3,0,0,1,6,0h2a3,3,0,0,1,6,0h2a3.00328,3.00328,0,0,1,3-3V26A4.98137,4.98137,0,0,0,28,28.03094Z"/>
    <path d="M15.71082,5.54279a2.2714,2.2714,0,1,0-2.27088-2.27137A2.27379,2.27379,0,0,0,15.71082,5.54279Z"/>
    <path d="M11.30029,24.58832v-.0011a6.07894,6.07894,0,0,0,8.05011-7.59308l1.32111.30762v6.03937h1.99914V15.71954l-4.837-1.12872a6.181,6.181,0,0,0-.69971-.58386V6.93274h-5.0766L9.98779,12.40228l.55078,1.28565a6.10342,6.10342,0,0,0-3.03143,5.26288A6.03445,6.03445,0,0,0,7.83777,20.909L0,17.51123v2.17969L11.24207,24.5647ZM13.43152,8.93274h1.70337v4.13348a5.99931,5.99931,0,0,0-2.72656-.08191l-.29584-.62316ZM9.50623,18.95081A4.06074,4.06074,0,0,1,11.342,15.56067l1.39142,3.2464,1.838-.78723L13.23157,14.895a2.66554,2.66554,0,0,1,.36041-.029,4.08554,4.08554,0,1,1-4.08575,4.08484Z"/>
  </g>
</svg>
