<?xml version="1.0" encoding="UTF-8"?><svg id="Layer_1" xmlns="http://www.w3.org/2000/svg" width="32" height="32" viewBox="0 0 32 32"><path d="M20.80536,26.41937l-1.09991-1.09998c-.07721-.06293-.19995-.20001-.19995-.20001v-4.09985h1.29987l-.70001-9.99963c.40015,.40002,.66144,.72223,.99994,1.09991,.33374,.37238,.70007,.80005,1,1.20001,.06403,1.22742,.06403,2.46851,.1001,3.7998v.20001h2.09985l-.03632-1.5993c-.01703-1.00305-.04254-2.05713-.06366-3.2005-.14038-.18268-.29999-.40002-.39996-.5-.5-.49994-.90002-1.09991-1.40002-1.59991-.39984-.5-.89984-.99994-1.39984-1.59998-.30005-.39996-.70001-.79993-.99994-1.19995h-5.39996c-.3999,4.49982-.79993,8.89972-1.09985,13.39954l.8999,.09998c-.07617,.13007-.09906,.19403-.16284,.32269-.49994,.8999-.93707,1.87726-1.43707,2.77728l-.59998,1.19995v4.59979h1.99994v-3.8999c-.00787-.11816,0-.19989,0-.29993,.5-.89996,.99994-1.79993,1.49994-2.69995l1-1.99994h.99994v4.79993c.19995,.19989,.5,.49994,.80005,.79993l2.2998,2.29993,.90002,.89996,1.19989-1.39996-.69989-.69995c-.45172-.4483-.90002-.89996-1.40002-1.39996Zm-5.09979-7.39978l.69995-9.39966h1.60004l.69995,9.39966h-2.99994Z"/><path d="M17.00555,6.52002c1.29993,0,2.39984-1.09991,2.39984-2.3999s-1.09991-2.29993-2.39984-2.29993-2.40002,1.09998-2.40002,2.29993c0,1.29999,1.10004,2.3999,2.40002,2.3999Z"/><path d="M9.02466,15.5968c-.72852-.42084-1.57562-.53314-2.38959-.31439-.81195,.21771-1.49066,.73822-1.91156,1.46674-.86713,1.50287-.3501,3.4325,1.15283,4.3006,.49457,.28516,1.0351,.4209,1.56879,.4209,1.08881,0,2.14935-.56445,2.73132-1.57318,.42041-.72852,.53223-1.57709,.31445-2.38861-.21777-.81244-.73877-1.49213-1.46625-1.91205Zm-.58057,3.30066c-.15283,.26562-.40039,.45508-.69672,.53418-.29688,.08203-.60596,.03906-.87109-.11426-.54834-.31641-.73676-1.02045-.42041-1.5683,.15332-.26562,.40088-.45605,.69727-.53516,.09863-.02637,.19922-.03906,.29883-.03906,.19873,0,.39551,.05176,.5722,.1543,.26562,.15332,.45557,.40039,.53467,.69727,.07959,.2959,.03906,.60547-.11475,.87103Z"/></svg>