<svg xmlns="http://www.w3.org/2000/svg" width="32" height="32" viewBox="0 0 32 32">
  <defs>
    <style>
      .cls-1 {
        fill: #fff;
      }
    </style>
  </defs>
  <g id="hvitbak">
    <rect class="cls-1" width="32" height="32"/>
  </g>
  <g id="artwork_sort" data-name="artwork sort">
    <g>
      <path d="M13.12605,15.736a3.86892,3.86892,0,0,0,1.98731-3.48047c0-1.03222-.34082-4.39843-4.73633-4.39843H5.01277V24.71161h5.78906a4.97439,4.97439,0,0,0,3.85547-1.52734,4.8257,4.8257,0,0,0,1.16406-3.23145A4.51514,4.51514,0,0,0,13.12605,15.736Zm-2.58789-.56347H7.01375V9.78973H10.296a2.4697,2.4697,0,0,1,2.77539,2.64649C13.07136,14.25165,12.21883,15.17255,10.53816,15.17255ZM7.01375,17.05927h3.80859a2.66233,2.66233,0,0,1,2.87695,2.916c0,1.834-1.05078,2.80371-3.03906,2.80371H7.01375Z"/>
      <path d="M22.03144,7.85712h-4.999V24.71161h2.001V18.56708h2.877a5.08741,5.08741,0,0,0,5.4248-5.32129A5.0104,5.0104,0,0,0,22.03144,7.85712Zm.06152,8.7334H19.03339V9.87958H22.093c2.05078,0,3.18067,1.2041,3.18067,3.38867C25.27363,15.41083,24.14374,16.59052,22.093,16.59052Z"/>
      <path d="M0,0V32H32V0ZM30,30H2V2H30Z"/>
    </g>
  </g>
</svg>
