<svg id="Layer_1" data-name="Layer 1" xmlns="http://www.w3.org/2000/svg" width="32" height="32" viewBox="0 0 32 32"><defs><style>.cls-1{fill:#1d1d1b;}</style></defs><path class="cls-1" d="M28.4739,18.57744a3.1258,3.1258,0,0,0-1.92666-2.88311l-1.8563-6.57622A3.54122,3.54122,0,0,0,21.20208,6.4558H11.09172A3.56117,3.56117,0,0,0,7.60833,9.09838L5.678,15.61111A3.1262,3.1262,0,0,0,3.5261,18.57744v8.84677h.99473v4.08946h4.74l1.0924-4.08946H21.732l1.06652,4.08946h4.67432V27.42421H28.4739ZM5.5261,25.42421V18.57744a1.12245,1.12245,0,0,1,1.12119-1.1212H25.35271a1.12242,1.12242,0,0,1,1.12119,1.1212v6.84677ZM9.52927,9.65527l.00708-.0252A1.56435,1.56435,0,0,1,11.09172,8.4558H21.20208a1.56884,1.56884,0,0,1,1.54809,1.14576L24.402,15.45624H7.80989ZM7.725,29.51367H6.52083V27.42421H8.28311Zm17.74785,0h-1.129l-.54494-2.08946h1.67395Z"/><circle class="cls-1" cx="8.99711" cy="20.94887" r="1.52371"/><circle class="cls-1" cx="22.98602" cy="20.94887" r="1.52371"/></svg>