<svg xmlns="http://www.w3.org/2000/svg" width="32" height="32" viewBox="0 0 32 32">
  <defs>
    <style>
      .cls-1 {
        fill: #fff;
      }
    </style>
  </defs>
  <g id="hvitbak">
    <rect class="cls-1" width="32" height="32"/>
  </g>
  <g id="artwork_sort" data-name="artwork sort">
    <g>
      <path d="M12.129,15.758a3.86893,3.86893,0,0,0,1.98731-3.48047c0-1.03223-.34082-4.39844-4.73633-4.39844H4.01576V24.73361H9.80482a4.9744,4.9744,0,0,0,3.85547-1.52734,4.82568,4.82568,0,0,0,1.16406-3.23145A4.51513,4.51513,0,0,0,12.129,15.758Zm-2.58789-.56348H6.01674V9.81174H9.299a2.46969,2.46969,0,0,1,2.77539,2.64648C12.07435,14.27365,11.22181,15.19455,9.54115,15.19455ZM6.01674,17.08127H9.82533a2.66233,2.66233,0,0,1,2.877,2.916c0,1.834-1.05078,2.80371-3.03906,2.80371H6.01674Z"/>
      <path d="M21.2286,7.87912H16.047V24.73361H21.2286c3.918,0,6.76172-3.57226,6.76172-8.49414C27.99032,11.31662,25.21,7.87912,21.2286,7.87912ZM18.04793,9.924H20.9454c3.15332,0,4.96191,2.30176,4.96191,6.31543,0,4.03809-1.84766,6.44922-4.94238,6.44922h-2.917Z"/>
      <path d="M0,0V32H32V0ZM30,30H2V2H30Z"/>
    </g>
  </g>
</svg>
