<svg xmlns="http://www.w3.org/2000/svg" width="32" height="32" viewBox="0 0 32 32">
  <defs>
    <style>
      .cls-1 {
        fill: #fff;
      }
    </style>
  </defs>
  <g id="hvitbak">
    <rect class="cls-1" width="32" height="32"/>
  </g>
  <g id="artwork_sort" data-name="artwork sort">
    <g>
      <path d="M20.26392,3.42859,18.84106,2.00568a4.28988,4.28988,0,0,1-2.8424,1.09063,4.28992,4.28992,0,0,1-2.84241-1.09063L11.7334,3.42859a6.29464,6.29464,0,0,0,4.26526,1.66772A6.29466,6.29466,0,0,0,20.26392,3.42859Z"/>
      <path d="M22.41406,5.8006,21.00061,4.387a7.32659,7.32659,0,0,1-5.002,1.976,7.32661,7.32661,0,0,1-5.002-1.976L9.58325,5.8006A9.31928,9.31928,0,0,0,15.99866,8.363,9.31926,9.31926,0,0,0,22.41406,5.8006Z"/>
      <path d="M24.515,8.02368,23.10162,6.61023a10.29444,10.29444,0,0,1-7.103,2.845,10.29447,10.29447,0,0,1-7.103-2.845L7.4823,8.02368a12.28774,12.28774,0,0,0,8.51636,3.43158A12.28772,12.28772,0,0,0,24.515,8.02368Z"/>
      <circle cx="11.06061" cy="23.04565" r="1"/>
      <circle cx="20.93939" cy="23.04565" r="1"/>
      <path d="M24.59265,19.62311l-1.26306-4.26142a2.33,2.33,0,0,0-2.251-1.72924l-.01635.00006-.01191.00012H10.94965l-.01184-.00012-.01642-.00006a2.33,2.33,0,0,0-2.251,1.72924L7.40735,19.62311a2.0455,2.0455,0,0,0-1.408,1.94085V27.3526h.65088v2.67572H9.75165l.71478-2.67572H21.53357l.71478,2.67572h3.10144V27.3526h.65088V21.564A2.0455,2.0455,0,0,0,24.59265,19.62311ZM7.99933,25.3526l.00909-3.26569a1.57107,1.57107,0,0,1,.38129-1.032c.20178-.19025.83325-.71515.83325-.71515l1.365-4.40967.00775-.02618.007-.02637a.33971.33971,0,0,1,.34644-.24487h.00049l6.22979-.00012,3.87091.00012h.00049a.33971.33971,0,0,1,.34644.24487l.007.02637.00775.02618,1.365,4.40967s.63147.5249.83331.71515a1.57143,1.57143,0,0,1,.38129,1.032l.009,3.26569Z"/>
    </g>
  </g>
</svg>
