<svg id="sorte" xmlns="http://www.w3.org/2000/svg" width="32" height="32" viewBox="0 0 32 32">
  <g>
    <path d="M20.94452,8.5321a6.55445,6.55445,0,0,1-.251,1.76,4.59408,4.59408,0,0,1-2.7055,2.5791,3.4919,3.4919,0,0,1-3.20075-1.01275,3.10511,3.10511,0,0,1-.49286-3.15814A3.606,3.606,0,0,1,14.58954,8.08s1.98157-2.63123,2.19714-4.379a4.10669,4.10669,0,0,0-.48626-2.19788,4.93145,4.93145,0,0,1-.25019,1.28833c-.55591,1.58942-3.40936,3.33985-3.40936,3.33985A5.59645,5.59645,0,0,0,10.14972,9.59a5.09548,5.09548,0,0,0,1.2785,4.90332c.005.00488.005.01227.009.018a20.14877,20.14877,0,0,0,4.56048,3.49518,19.97689,19.97689,0,0,0,4.348-3.29163,5.4765,5.4765,0,0,0,1.40894-3.54046c.00464-.14093.00738-.28864-.00165-.44281A3.97607,3.97607,0,0,0,20.94452,8.5321Z"/>
    <path d="M22.8324,4.81567a1.62753,1.62753,0,0,0-.33094-.90033,2.161,2.161,0,0,1-.10272.72034,1.48338,1.48338,0,0,1-1.10742,1.05573,1.38307,1.38307,0,0,1-1.31006-.41462,1.2706,1.2706,0,0,1-.20178-1.2926,2.51834,2.51834,0,0,1,.39844-.65118,2.53087,2.53087,0,0,0,.62164-1.39508,1.68139,1.68139,0,0,0-.199-.89966,2.02027,2.02027,0,0,1-.10235.52734,2.5687,2.5687,0,0,1-1.06043,1.12287A2.7249,2.7249,0,0,0,18.083,4.34839a2.08582,2.08582,0,0,0,.52325,2.007l.00379.00732A8.24706,8.24706,0,0,0,20.47668,7.7934a8.16718,8.16718,0,0,0,1.98884-1.56391,1.73586,1.73586,0,0,0,.36755-1.2326C22.83344,4.93915,22.83612,4.87878,22.8324,4.81567Z"/>
    <polygon points="18.224 30.003 13.776 30.003 12.514 18.994 10.454 19.003 11.992 32 13.178 32 14.005 32 18.324 32 18.324 31.991 20.008 31.991 21.546 18.994 19.485 19 18.224 30.003"/>
    <circle cx="14.98297" cy="20" r="1"/>
    <rect x="15.98297" y="22" width="2" height="2"/>
    <rect x="14.98297" y="27" width="2" height="2"/>
  </g>
</svg>
