<svg xmlns="http://www.w3.org/2000/svg" width="32" height="32" viewBox="0 0 32 32">
  <defs>
    <style>
      .cls-1 {
        fill: #fff;
      }
    </style>
  </defs>
  <g id="hvitbak">
    <rect class="cls-1" width="32" height="32"/>
  </g>
  <g id="artwork_sort" data-name="artwork sort">
    <g>
      <path d="M21.70068,11.90253a7.53843,7.53843,0,0,1-.28863,2.02429,5.2845,5.2845,0,0,1-3.11194,2.96655,4.01649,4.01649,0,0,1-3.68158-1.16492,3.57141,3.57141,0,0,1-.56689-3.6325,4.14909,4.14909,0,0,1,.33941-.71344S16.67029,8.356,16.91827,6.3457a4.7231,4.7231,0,0,0-.55932-2.528,5.67316,5.67316,0,0,1-.28772,1.48187c-.63947,1.82819-3.92157,3.84155-3.92157,3.84155A6.43731,6.43731,0,0,0,9.2843,13.11938a5.86086,5.86086,0,0,0,1.47058,5.63984c.00568.00561.00568.0141.01038.02075a23.178,23.178,0,0,0,5.24554,4.0202A22.97778,22.97778,0,0,0,21.012,19.0141a6.29909,6.29909,0,0,0,1.62061-4.07233c.00531-.16211.00848-.332-.00189-.50934A4.57285,4.57285,0,0,0,21.70068,11.90253Z"/>
      <path d="M12.40631,3.77637a3.83763,3.83763,0,0,0,.86865.66571,3.80219,3.80219,0,0,0,.92554-.72772.80771.80771,0,0,0,.171-.57361c.00018-.02686.0014-.055-.0003-.08435a.75709.75709,0,0,0-.154-.419,1.00662,1.00662,0,0,1-.04779.33521.69021.69021,0,0,1-.51538.49127.64358.64358,0,0,1-.60962-.19287.59144.59144,0,0,1-.09387-.60157,1.1713,1.1713,0,0,1,.18537-.303,1.17758,1.17758,0,0,0,.2893-.64917.7819.7819,0,0,0-.09259-.41864A.93922.93922,0,0,1,13.285,1.544a1.19438,1.19438,0,0,1-.49347.52252,1.2679,1.2679,0,0,0-.63043.77246.97061.97061,0,0,0,.24353.9339Z"/>
      <path d="M23.82306,6.486a1.872,1.872,0,0,0-.38068-1.03558,2.4849,2.4849,0,0,1-.11816.82855,1.70611,1.70611,0,0,1-1.27374,1.2143,1.591,1.591,0,0,1-1.5069-.47687,1.46167,1.46167,0,0,1-.23206-1.48682,2.897,2.897,0,0,1,.45832-.749,2.91146,2.91146,0,0,0,.715-1.60461,1.93407,1.93407,0,0,0-.22894-1.03479,2.32529,2.32529,0,0,1-.11774.60656,2.95461,2.95461,0,0,1-1.21972,1.29151,3.13407,3.13407,0,0,0-1.55829,1.90924A2.39912,2.39912,0,0,0,18.962,8.257l.00433.00848a9.48757,9.48757,0,0,0,2.14709,1.64557,9.39468,9.39468,0,0,0,2.2876-1.79883,1.99646,1.99646,0,0,0,.42279-1.41778C23.82422,6.62805,23.82733,6.55859,23.82306,6.486Z"/>
      <path d="M12.99988,25.40411l2.00006-1.15472-3.6651-2.116-.00665-.00586a1,1,0,1,0-1,1.73206l-.00086.00152Z"/>
      <path d="M22.03784,22.49353a1.00006,1.00006,0,0,0-1.366-.366l-.00665.00586L17.46,23.98389,17.46,23.984,10.32178,28.1051l-.00006.00006-.04139.02387.00483.00836a.98972.98972,0,0,0,.98864,1.7124l.00653.01129L14.493,28.00623,14.493,28.0061l1.50409-.86834,4.7226,2.72332.00653-.01129a.98972.98972,0,0,0,.98864-1.7124l.00483-.00836-.04139-.02387-.00647-.00573-.00817-.00275L17.99713,25.983l3.67554-2.12195-.00086-.00152A1,1,0,0,0,22.03784,22.49353Z"/>
    </g>
  </g>
</svg>
