<svg id="sorte" xmlns="http://www.w3.org/2000/svg" width="32" height="32" viewBox="0 0 32 32">
  <g>
    <path d="M13.00121,19.004h6v-5a12,12,0,0,0-12-12v.00006H0v2H7.00121a9.99951,9.99951,0,0,1,9.949,8.99994h-2.019a8.00579,8.00579,0,0,0-7.93-7H0v2H7.00121a6,6,0,0,1,6,6Zm2-4h2v2h-2Z"/>
    <path d="M18.83007,23.17688l-.00086-.00085-2.828-2.828-2.828,2.828a4,4,0,1,0,5.65686.00085Zm-1.41388,4.24017-.001.001a2.04667,2.04667,0,0,1-2.828,0,1.99906,1.99906,0,0,1-.001-2.827l.001-.001,1.414-1.414,1.414,1.414A1.999,1.999,0,0,1,17.41619,27.41705Z"/>
  </g>
</svg>
