<svg id="Layer_1" data-name="Layer 1" xmlns="http://www.w3.org/2000/svg" width="32" height="32" viewBox="0 0 32 32"><defs><style>.cls-1{fill:#1d1d1b;}</style></defs><path class="cls-1" d="M15.49749,5.59345a.94034.94034,0,0,1,.45952-.91387,1.68986,1.68986,0,0,1,.61587-.21074h7.0708a2.98874,2.98874,0,0,0,2.81784,1.99353V5.44085H28.461V4.46649H26.46152V2.46935H28.461v-.9976H26.46152V.48633a2.98887,2.98887,0,0,0-2.81411,1.98251H16.52209l-.06406.002a3.09519,3.09519,0,0,0-2.96054,3.12256v2.857h2Z"/><path class="cls-1" d="M28.4739,18.57744a3.1258,3.1258,0,0,0-1.92666-2.88311l-1.8563-6.57622A3.54122,3.54122,0,0,0,21.20208,6.4558H17.47525v2h3.72683a1.56884,1.56884,0,0,1,1.54809,1.14576L24.402,15.45624H7.80989l1.71938-5.801.00708-.0252A1.56435,1.56435,0,0,1,11.09172,8.4558h.428v-2h-.428A3.56117,3.56117,0,0,0,7.60833,9.09838L5.678,15.61111A3.1262,3.1262,0,0,0,3.5261,18.57744v8.84677h.99473v4.08946h4.74l1.0924-4.08946H21.732l1.06652,4.08946h4.67432V27.42421H28.4739ZM5.5261,25.42421V18.57744a1.12245,1.12245,0,0,1,1.12119-1.1212H25.35271a1.12242,1.12242,0,0,1,1.12119,1.1212v6.84677ZM7.725,29.51367H6.52083V27.42421H8.28311Zm17.74785,0h-1.129l-.54494-2.08946h1.67395Z"/><circle class="cls-1" cx="8.99711" cy="20.94887" r="1.52371"/><circle class="cls-1" cx="22.98602" cy="20.94887" r="1.52371"/></svg>