<svg id="Layer_1" data-name="Layer 1" xmlns="http://www.w3.org/2000/svg" width="32" height="32" viewBox="0 0 32 32">
  <g>
    <path d="M5.7,13.9l3-3,2.9,2.9L13,12.4,10.1,9.5,13,6.6a18.47908,18.47908,0,0,0-1.4-1.4L8.7,8.1,8.6,8,5.8,5.2c-.2-.2-.1-.2-.3,0L4.3,6.4l-.1.1,3,3-3,3a19.19778,19.19778,0,0,1,1.5,1.4"/>
    <path d="M25.4,19.9,22.7,7.5l2-.4-.4-2-4,.8,1.3,5.8-1.9.4,1.3,6a7.00644,7.00644,0,0,0-2.5,4.3H11.7a3.45247,3.45247,0,0,0-3.4-2.5h-4v2h.9a4.19073,4.19073,0,0,0-.4,1.5,3.47822,3.47822,0,0,0,3.5,3.5,3.66945,3.66945,0,0,0,3.4-2.5h8.7v-1a4.61019,4.61019,0,0,1,2.8-4.3l.3,1.2a3.5318,3.5318,0,0,0-1.8,3.1,3.5,3.5,0,1,0,3.7-3.5Zm-17.1,5a1.5,1.5,0,1,1,1.5-1.5A1.47268,1.47268,0,0,1,8.3,24.9Zm16.9,0a1.5,1.5,0,1,1,1.5-1.5A1.538,1.538,0,0,1,25.2,24.9Z"/>
  </g>
</svg>
