<svg id="Layer_1" data-name="Layer 1" xmlns="http://www.w3.org/2000/svg" width="32" height="32" viewBox="0 0 32 32">
  <path d="M24.4,19.9,21.7,7.5l2-.4-.4-2-4,.8,1.3,5.8-1.9.4,1.3,6a7.00644,7.00644,0,0,0-2.5,4.3H10.7a3.45247,3.45247,0,0,0-3.4-2.5h-4v2h.9a4.19073,4.19073,0,0,0-.4,1.5,3.47822,3.47822,0,0,0,3.5,3.5,3.66945,3.66945,0,0,0,3.4-2.5h8.7v-1a4.61019,4.61019,0,0,1,2.8-4.3l.3,1.2a3.5318,3.5318,0,0,0-1.8,3.1,3.5,3.5,0,0,0,7,0A3.43785,3.43785,0,0,0,24.4,19.9Zm-17.1,5a1.5,1.5,0,0,1,0-3,1.538,1.538,0,0,1,1.5,1.5A1.47268,1.47268,0,0,1,7.3,24.9Zm16.9,0a1.5,1.5,0,1,1,1.5-1.5A1.538,1.538,0,0,1,24.2,24.9Z"/>
</svg>
