<?xml version="1.0" encoding="UTF-8"?><svg id="engangsgrill-avfallsbeholder" xmlns="http://www.w3.org/2000/svg" width="32" height="32" viewBox="0 0 32 32"><defs><style>.cls-1{opacity:0;}</style></defs><rect class="cls-1" width="32" height="32"/><g><path d="M5.3,.3c1.381,0,2.5,1.119,2.5,2.5s-1.119,2.5-2.5,2.5-2.5-1.119-2.5-2.5S3.919,.3,5.3,.3"/><path d="M15,7H1.3L.3,19.9l2,.2v11.9h2v-13h2v13h2v-13h1.9l-.7-8.7-.1-1.3h5.6v-2ZM2.5,17l.7-8H7.4l.6,8H2.5Z"/><polygon points="17 0 17 6 19 6 19 2 30 2 30 30 19 30 19 10 17 10 17 32 32 32 32 0 17 0"/><polygon points="28 28 21 28 20 26 29 26 28 28"/><polygon points="28 25 21 25 20 23 29 23 28 25"/></g><path d="M24.2,22.1c-.71082-.40252-1.33174-.88228-1.85146-1.41897l-.00366-.00732c-.65122-.7834-.64423-1.32508-.51905-1.99062,.15248-.8107,.76142-1.22687,1.34373-1.64637,.45845-.33061,.89193-.64257,1.05174-1.11367,.06026-.17779,.09122-.35358,.10155-.52304,.13717,.27034,.22407,.57431,.19743,.89227-.0536,.63857-.35291,1.03443-.6166,1.38368-.16047,.21241-.31229,.41284-.39519,.6459-.1678,.47743-.09489,.94454,.20009,1.28214,.30663,.35058,.81702,.51172,1.29945,.41118,.52038-.1082,.9209-.49008,1.09836-1.04708,.0819-.25669,.10787-.49807,.10188-.71448,.20176,.27267,.31229,.57165,.32827,.89293,.00366,.06259,.001,.12252,.00067,.17979-.00633,.88627-.36457,1.22254-.36457,1.22254-.54335,.58996-1.20456,1.116-1.97264,1.55115Z"/><path d="M25.78728,15.88231s-.16575-.15559-.16868-.56565c-.00015-.0265-.00139-.05422,.00031-.08318,.00739-.14865,.05854-.28699,.15189-.41315-.00277,.10013,.00924,.21181,.04714,.33058,.08211,.25772,.26742,.43441,.50819,.48447,.22321,.04652,.45936-.02804,.60124-.19025,.13648-.1562,.17022-.37233,.09258-.59323-.03836-.10783-.1086-.20057-.18285-.29885-.122-.16159-.26049-.34475-.28529-.64021-.01232-.14711,.02788-.28776,.09135-.41284,.00478,.07841,.0191,.15974,.04698,.242,.07394,.21797,.27451,.36231,.48663,.51528,.26942,.1941,.55117,.38665,.62173,.76175,.05792,.30794,.06116,.55857-.24016,.92103l-.00169,.00339c-.24046,.24832-.52776,.4703-.85664,.65654-.35538-.20134-.66131-.44473-.91272-.7177Z"/></svg>