<?xml version="1.0" encoding="UTF-8"?>
<svg id="Layer_1" xmlns="http://www.w3.org/2000/svg" width="32" height="32" viewBox="0 0 32 32">
  <path d="M17.23866,18.17999c-.82819,0-1.49951.67139-1.49951,1.49957,0,.82812.67133,1.49951,1.49951,1.49951s1.49951-.67139,1.49951-1.49951c0-.82819-.67133-1.49957-1.49951-1.49957Z"/>
  <path d="M32.00001,2.6148l-5.8349,8.57739.00031.00061-.00037-.00061-1.6532,2.41888-.7005,1.0249.0224-2.97034.0152-2.01508h-2.04364c-2.12616,0-4.74567,1.19104-7.37592,3.35376-2.67535,2.19983-5.08777,5.14624-6.97656,8.52075-.72412,1.29413-2.17059,4.5174-2.23187,4.65399l-1.25024,2.78918C3.02613,27.72997,1.55915,27.0003.00001,26.99999v2c1.65607.00183,2.99817,1.34387,3,3h2c0-1.65686,1.34314-3,3-3s3,1.34314,3,3h2c0-1.65686,1.34314-3,3-3s3,1.34314,3,3h2c0-1.65686,1.34314-3,3-3s3,1.34314,3,3h2c.00177-1.65613,1.34387-2.99817,3-3v-2c-1.57996.00433-3.06421.75793-4,2.03094-.62433-.85046-1.46954-1.4389-2.39752-1.75629.3775-.88782,1.14551-2.76715,1.80603-4.84998,1.40845-4.44122,1.53394-7.15881.40698-8.81177l-.42151-.61823,4.60602-6.80035v-3.57953ZM3.99519,28.99718h.00983c-.00153.00201-.00348.00372-.005.00574-.00153-.00201-.0033-.00372-.00482-.00574ZM23.54335,26.99718l-.0188.04272c-.86725.08081-1.72565.37177-2.47888.92468-.39819.2923-.75061.64221-1.04565,1.03833-1.64142-2.20343-4.75824-2.659-6.96167-1.01764-.39606.29504-.74603.64746-1.03833,1.04565-1.1864-1.61615-3.16382-2.29449-5.00726-1.91827l.05328-.11548s1.46307-3.26398,2.15204-4.4953c3.77179-6.73877,9.36328-10.85132,12.60724-10.85132h.0285l-.0719,9.5285,4.40112-6.43951c1.73035,2.5379-2.61969,12.25763-2.61969,12.25763Z"/>
  <polygon points="3.08601 10.34093 4.50166 11.75579 7.48665 8.77032 10.334 11.64623 11.75563 10.22906 8.87782 7.35204 11.74354 4.48809 10.32594 3.0711 7.45045 5.94787 4.47773 2.97436 3.03419 4.41784 6.02186 7.40533 3.08601 10.34093"/>
</svg>