<svg id="sorte" xmlns="http://www.w3.org/2000/svg" width="32" height="32" viewBox="0 0 32 32">
  <path d="M13.172,16.82789,16,19.65589l2.828-2.828a4,4,0,1,0-5.65686-.00086Zm1.413-4.241.001-.001a2.04667,2.04667,0,0,1,2.828,0,1.99905,1.99905,0,0,1,.001,2.827l-.001.001L16,16.82789l-1.414-1.414A1.999,1.999,0,0,1,14.58505,12.58686Z"/>
  <path d="M22.16613,11.85916l2.828,2.828,2.828-2.828a4,4,0,1,0-5.65686-.00086Zm1.413-4.241.001-.001a2.04667,2.04667,0,0,1,2.828,0,1.99906,1.99906,0,0,1,.001,2.827l-.001.001-1.414,1.414-1.414-1.414A1.999,1.999,0,0,1,23.57915,7.61813Z"/>
  <path d="M4.17793,11.85916l2.828,2.828,2.828-2.828a4,4,0,1,0-5.65686-.00086Zm1.413-4.241.001-.001a2.04667,2.04667,0,0,1,2.828,0,1.999,1.999,0,0,1,.001,2.827l-.001.001-1.414,1.414-1.414-1.414A1.999,1.999,0,0,1,5.591,7.61813Z"/>
  <path d="M29,27V21H3v6H0v2H32V27ZM5,27V23H27v4Z"/>
</svg>
