<?xml version="1.0" encoding="UTF-8"?><svg id="forbud" xmlns="http://www.w3.org/2000/svg" width="32" height="32" viewBox="0 0 32 32"><defs><style>.cls-1{stroke-width:0px;}</style></defs><path class="cls-1" d="M16,1C7.71576,1,1,7.7157,1,16s6.71576,15,15,15,15-6.71576,15-15S24.2843,1,16,1ZM29,16c0,3.22479-1.18726,6.17279-3.13855,8.44733L7.55243,6.13873c2.2746-1.95142,5.22266-3.13873,8.44757-3.13873,7.16821,0,13,5.83179,13,13ZM3,16c0-3.22473,1.18719-6.17261,3.13837-8.44714l18.30902,18.30853c-2.2746,1.95129-5.2226,3.13861-8.44739,3.13861-7.16821,0-13-5.83179-13-13Z"/></svg>