<svg id="Layer_1" data-name="Layer 1" xmlns="http://www.w3.org/2000/svg" width="32" height="32" viewBox="0 0 32 32"><path d="M32,19H27V11.444A3.987,3.987,0,0,0,29,8V0H3V8a3.987,3.987,0,0,0,2,3.444V24.142A3.99168,3.99168,0,1,0,9.859,29H25v3h2V21h5ZM23,2h4V8a2,2,0,0,1-4,0ZM17,2h4V8a2,2,0,0,1-4,0ZM11,2h4V8a2,2,0,0,1-4,0ZM5,2H9V8A2,2,0,0,1,5,8Zm5,8.618a3.94715,3.94715,0,0,0,6,0,3.94715,3.94715,0,0,0,6,0A3.9735,3.9735,0,0,0,25,12v7H7V12A3.9751,3.9751,0,0,0,10,10.618ZM6,30a2,2,0,1,1,2-2A2.002,2.002,0,0,1,6,30Zm19-3H9.859A3.98738,3.98738,0,0,0,7,24.141V21H25Z"/></svg>