<svg id="Layer_1" data-name="Layer 1" xmlns="http://www.w3.org/2000/svg" width="32" height="32" viewBox="0 0 32 32">
  <g>
    <path d="M16.99983,8.01754V5.369h-2v2.6485a5.10288,5.10288,0,0,0-4.0957,4.99506V27.79482h10.1914V13.0126A5.10288,5.10288,0,0,0,16.99983,8.01754Zm2.0957,17.77728h-6.1914V15.05654h6.1914V25.79482Zm-6.1914-12.73828V13.0126a3.0957,3.0957,0,1,1,6.1914,0v.04394Z"/>
    <path d="M9.31471,1.84237c-.971.974-1.946,1.95-2.942,2.948a1.17933,1.17933,0,0,0-.09-.122q-1.392-1.39344-2.786-2.785c-.129-.131-.103-.132-.239.004q-.609.60745-1.21795,1.218c-.02906.029-.056.059-.091.097,1.002,1,1.998,1.996,3.02,3.018l-2.973,2.972c.47.471.943.944,1.435,1.437l2.984-2.98395c.968.967,1.941,1.939,2.905,2.904.469-.471.942-.943,1.423-1.425l-2.926-2.926q1.47153-1.47,2.926-2.925C10.26973,2.79836,9.79573,2.32339,9.31471,1.84237Z"/>
    <polygon points="26.714 4.074 18.029 5.905 18.029 6.899 26.714 13.568 26.714 11.047 21.678 7.18 26.714 6.118 26.714 4.074"/>
  </g>
</svg>
