<svg xmlns="http://www.w3.org/2000/svg" width="32" height="32" viewBox="0 0 32 32">
  <defs>
    <style>
      .cls-1 {
        fill: #fff;
      }
    </style>
  </defs>
  <g id="hvitbak">
    <rect class="cls-1" width="32" height="32"/>
  </g>
  <g id="artwork_sort" data-name="artwork sort">
    <g>
      <polygon points="15.637 13.023 17.42 12.116 16.424 10.159 17.733 6.138 16.382 3.484 14.6 4.391 15.574 6.307 14.266 10.328 15.637 13.023"/>
      <polygon points="20.585 13.023 22.368 12.116 21.372 10.159 22.681 6.138 21.33 3.484 19.548 4.391 20.522 6.307 19.214 10.328 20.585 13.023"/>
      <polygon points="10.69 13.023 12.472 12.116 11.477 10.159 12.785 6.138 11.435 3.484 9.653 4.391 10.627 6.307 9.319 10.328 10.69 13.023"/>
      <path d="M2,15.04541v2H6v11H8v-3l16,.00165v3h2v-11h4v-2Zm22,8.00165H16.09943v-.00165H8v-6h7.90057v.00165H24Z"/>
    </g>
  </g>
</svg>
