<?xml version="1.0" encoding="UTF-8"?><svg id="Gående" xmlns="http://www.w3.org/2000/svg" width="11.28889mm" height="11.28889mm" viewBox="0 0 32 32"><path d="M22.1,17.4h-2.1v-.2c0-1.3,0-2.6-.1-3.8-.3-.4-.7-.8-1-1.2s-.6-.7-1-1.1l.7,10h-1.3v4.1h0s.2,.1,.2,.2l1.1,1.1c.5,.5,1,.9,1.4,1.4l.7,.7-1.2,1.4h0l-.9-.9-2.3-2.3c-.3-.3-.6-.6-.8-.8h0v-4.8h-1l-1,2c-.5,.9-1,1.8-1.5,2.7,0,.1-.1,.2,0,.3v3.9h-2v-4.6l.6-1.2c.5-.9,.9-1.9,1.4-2.8,.1-.1,.1-.2,.2-.3l-.9-.1c.3-4.5,.7-8.9,1.1-13.4h5.4c.3,.4,.7,.8,1,1.2,.5,.6,1,1.1,1.4,1.6,.5,.5,.9,1.1,1.4,1.6,.1,.1,.3,.3,.4,.5h0c0,1.1,0,2.2,.1,3.2v1.6Zm-5.6,1.7l-.7-9.4h-1.6l-.7,9.4h3Z"/><path d="M14.8,1.9c1.3,0,2.4,1,2.4,2.3h0c0,1.3-1.1,2.4-2.4,2.4s-2.4-1.1-2.4-2.4c0-1.2,1.1-2.3,2.4-2.3h0Z"/></svg>