<svg xmlns="http://www.w3.org/2000/svg" width="32" height="32" viewBox="0 0 32 32">
  <defs>
    <style>
      .cls-1 {
        fill: #fff;
      }
    </style>
  </defs>
  <g id="hvitbak">
    <rect class="cls-1" width="32" height="32"/>
  </g>
  <g id="artwork_sort" data-name="artwork sort">
    <path d="M27.60211,3.892,25.956,5.03839c.26.451,1.44287,2.65265.91083,4.51734a3.14592,3.14592,0,0,1-1.28863,1.7387,4.13068,4.13068,0,0,0-.01313-.97552,5.88961,5.88961,0,0,0-2.1535-3.50861L21.69818,8.00348a4.42684,4.42684,0,0,1,1.88641,2.59228,2.99787,2.99787,0,0,1-1.02526,2.40595c-.30286.19055-.59632.38367-.87653.58032a4.51016,4.51016,0,0,0-.30035-1.34027,5.507,5.507,0,0,0-2.16126-2.51331l-1.82294,1.26947a4.088,4.088,0,0,1,2.12873,1.9914,3.33238,3.33238,0,0,1-.28327,2.67847,10.09556,10.09556,0,0,0-1.78454,2.59008,5.0764,5.0764,0,0,0-2.66608.50226,9.757,9.757,0,0,0-2.00928-3.09234,3.33241,3.33241,0,0,1-.28326-2.67847,4.088,4.088,0,0,1,2.12872-1.9914L12.80634,9.72845a5.507,5.507,0,0,0-2.16126,2.51331,4.50954,4.50954,0,0,0-.30035,1.34027c-.28022-.19665-.57367-.38977-.87653-.58032a2.99789,2.99789,0,0,1-1.02527-2.40595,4.4269,4.4269,0,0,1,1.88642-2.59228L8.616,6.8103a5.88966,5.88966,0,0,0-2.15351,3.50861,4.13121,4.13121,0,0,0-.01312.97552,3.14592,3.14592,0,0,1-1.28863-1.7387c-.532-1.86469.65081-4.06635.91082-4.51734L4.42542,3.892c-.10663.17029-2.017,3.28076-1.19147,6.20129a5.39625,5.39625,0,0,0,3.01269,3.39844,15.55392,15.55392,0,0,1,6.02185,4.712,6.3363,6.3363,0,0,0-4.11-.02723c.29217,1.183,2.8772,2.42487,3.75177,2.81482a9.31263,9.31263,0,0,1-4.19055.94324l-.87891-.00488-.58984,4.334.77734.2666c.20215.06934,4.51758,1.54785,6.26563,2.05957A17.68914,17.68914,0,0,1,12.84045,32H14.847a17.42817,17.42817,0,0,0,.39911-3.91113,1.38529,1.38529,0,0,0-1.0039-1.3125c-.81055-.19825-3.96094-1.252-5.78809-1.873l.13574-1c1.46289-.09961,4.2627-.51172,5.4961-2.1875.01562-.01855,1.585-1.79394,3.45508-1.43262,1.95214.37891,2.82324,1.67188,2.82324,4.19336,0,.4375-.0166,1.23731-.03711,2.24317C20.29694,28.21716,20.25879,30.12952,20.249,32h1.99976c.01068-1.892.04968-3.82532.07837-5.24023.02051-1.02344.03711-1.83789.03711-2.28321a7.04394,7.04394,0,0,0-1.03046-4.00921c1.02-.859,2.72644-2.46967,2.81256-3.70093a7.31312,7.31312,0,0,0-3.59814.42346,17.68654,17.68654,0,0,1,5.23266-3.69812,5.39624,5.39624,0,0,0,3.0127-3.39844C29.61914,7.17279,27.70874,4.06232,27.60211,3.892Z"/>
  </g>
</svg>
