<svg xmlns="http://www.w3.org/2000/svg" width="32" height="32" viewBox="0 0 32 32">
  <defs>
    <style>
      .cls-1 {
        fill: #fff;
      }
    </style>
  </defs>
  <g id="hvitbak">
    <rect class="cls-1" width="32" height="32"/>
  </g>
  <g id="artwork_sort" data-name="artwork sort">
    <g>
      <path d="M17.64679,1.09473A14.99654,14.99654,0,1,0,14.37946,30.9093,14.99654,14.99654,0,0,0,17.64679,1.09473Zm2.58673,27.18341L16,24.04456l-4.23352,4.23358a12.98178,12.98178,0,0,1,.01623-24.56226L16,7.93323l4.21729-4.21735a12.98178,12.98178,0,0,1,.01623,24.56226Z"/>
      <polygon points="20.881 10.699 18.5 10.699 16.199 14.54 13.759 10.699 11.099 10.699 14.579 15.78 10.959 21.301 13.339 21.301 15.819 17.2 18.36 21.301 21.041 21.301 17.4 15.939 20.881 10.699"/>
    </g>
  </g>
</svg>
