<?xml version="1.0" encoding="UTF-8"?><svg id="Layer_1" xmlns="http://www.w3.org/2000/svg" width="11.28889mm" height="11.28889mm" viewBox="0 0 32 32"><path d="M29.939,17.33056h-2.0743c0-.05906,.00089-.12573-.00013-.19236-.01954-1.27918-.04032-2.55833-.06233-3.83746-.3238-.38848-.65229-.77304-.98547-1.15369-.30836-.35166-.62339-.69747-.96485-1.07863l.70627,10.04h-1.28207v.16211c0,1.247-.00135,2.62527-.00421,3.87231,0,0-.01176-.00579,.02218,.02017,.03428,.02621,.16024,.13779,.18738,.16493,.3805,.38041,.75928,.76257,1.14174,1.141,.47571,.47072,.95317,.93966,1.4324,1.40682,.243,.23684,.4915,.468,.747,.71074l-1.46009,1.42139c-.01782-.0142-.032-.02365-.044-.03533-.3147-.30579-.63093-.61-.94335-.91813-.7624-.75186-1.52402-1.50451-2.28487-2.25794-.26081-.25694-.57733-.55786-.83726-.81566h0c-.00259-1.11465-.00131-2.32228-.00131-3.43694v-1.43061c-.31131,0-.66617-.00463-.96375,.00263-.03431,.00084,.01908-.03882,0,0-.30978,.63046-.65551,1.35724-.96572,1.98749-.45794,.93045-.91578,1.861-1.38547,2.78552-.03874,.10252-.05035,.2133-.03369,.32162,.00009,1.23424,.00011,2.46848,.00006,3.70272v.15774h-2.04868v-.13674s.00096-2.97526,.00287-4.46288c.18756-.40077,.3798-.79934,.57671-1.1957,.46484-.94112,.93131-1.88143,1.3994-2.82093,.05393-.10825,.12183-.20954,.19613-.336l-.86757-.05016c.32774-4.485,.72751-8.90207,1.05494-13.38276h.14629c1.71643,0,3.53674,.00134,5.25317-.00185h0c.29892,.35652,.71263,.81046,1.01776,1.1617,.47786,.55008,.95719,1.09887,1.438,1.64638,.45969,.52575,.91969,1.05124,1.38,1.57646,.11465,.13046,.30391,.32334,.41393,.45742l.00683,.04324c.02172,1.05022,.04286,2.17659,.06062,3.2269,.00772,.45684,.017,.91365,.02537,1.37048,.00081,.04625,.00007,.0925,.00007,.164Zm-5.56225,1.75578l-.69749-9.36967h-1.58133l-.65939,9.36967h2.93821Z"/><path d="M22.70094,1.86438c1.31253-.01848,2.39153,1.03055,2.41001,2.34308,.00018,.01272,.00026,.02544,.00023,.03816-.00129,1.33033-1.08078,2.40774-2.41111,2.40645-1.31734-.00127-2.38931-1.06057-2.40625-2.3778-.01-1.32094,1.05273-2.39987,2.37367-2.40987,.01115-.00008,.0223-.00009,.03345-.00002Z"/><path d="M12.5593,11.64968l1.42538,1.42711-2.921,2.92055,2.92,2.91968-1.41984,1.42177-2.89878-2.8988-2.978,2.97844-1.43206-1.43284,2.96732-2.96747-3.01492-3.01121c.03528-.03761,.06251-.06828,.09145-.09723,.40503-.40526,.81025-.81035,1.21564-1.21526l.13818-.11285c.9266,.92636,1.954,1.96135,2.87981,2.88854,.0331,.03837,.06361,.07891,.09132,.12134l2.9355-2.94177"/><rect x="2.06026" y="28.071" width="2.00126" height="2"/><rect x="5.2074" y="28.071" width="2.00126" height="2"/><rect x="8.35453" y="28.071" width="2.00126" height="2"/><rect x="11.50167" y="28.071" width="2.00126" height="2"/><rect x="14.6488" y="28.071" width="2.00126" height="2"/><rect x="21.02362" y="28.071" width="2.00126" height="2"/></svg>