<svg xmlns="http://www.w3.org/2000/svg" width="32" height="32" viewBox="0 0 32 32">
  <defs>
    <style>
      .cls-1 {
        fill: #fff;
      }
    </style>
  </defs>
  <g id="hvitbak">
    <rect class="cls-1" width="32" height="32"/>
  </g>
  <g id="artwork_sort" data-name="artwork sort">
    <g>
      <circle cx="16.04883" cy="5.29498" r="2.5"/>
      <path d="M11.08136,18.20764l2.706,1.03888.00135-.0047,2.31561.88989.75781,5.4502,1.98047-.27539-.92187-6.63379L14.35431,17.31l1.57538-5.381,1.59692,2.39886,5.2627,1.17383.43554-1.95117-4.47949-1-2.08758-3.1084-.00861-.01282-.26453-.10168L12.00537,7.644l-4.38312,9.2356,1.47467.56616-.10254,4.79034L5.99927,28.69214l1.81445.8418,3.1709-6.83692Zm1.93622-8.0318,1.20575.46356-1.74549,5.962-2.123-.81506Z"/>
      <polygon points="30.916 0 29.739 1.302 27.61 3.484 24.237 7.769 24.923 13.514 23.28 19.059 21.359 21.013 21.968 25.04 19.614 26.198 14.068 26.863 9.873 28.993 8.604 32 10.776 32 11.432 30.444 14.658 28.807 20.19 28.144 24.163 26.188 23.486 21.702 25.056 20.105 26.958 13.686 26.321 8.353 29.079 4.843 31.197 2.671 32 1.783 32 0 30.916 0"/>
    </g>
  </g>
</svg>
