<svg xmlns="http://www.w3.org/2000/svg" width="32" height="32" viewBox="0 0 32 32">
  <defs>
    <style>
      .cls-1 {
        fill: #fff;
      }
    </style>
  </defs>
  <g id="hvitbak">
    <rect class="cls-1" width="32" height="32"/>
  </g>
  <g id="artwork_sort" data-name="artwork sort">
    <g>
      <rect x="12.48163" y="23.10318" width="7" height="2"/>
      <rect x="12.48163" y="26.10318" width="7" height="2"/>
      <polygon points="12.5 29.103 11.5 31.103 20.5 31.103 19.5 29.103 12.5 29.103"/>
      <path d="M28.58582,4.3295l-2.00232.02069L24.8277,7.44748l-1.23877-1.1001-2.00836-.01349.008,7.0589H20.25433c-.10949-.33185-.2315-.647-.36065-.95081a14.26026,14.26026,0,0,0-1.69031-2.79992c-.14008-.171-.279-.33777-.407-.47937A23.38463,23.38463,0,0,1,20.691,1.95279L18.99182.89712a26.60861,26.60861,0,0,0-3.01068,7.10346A26.58143,26.58143,0,0,0,12.97034.89712L11.27209,1.95376a23.20917,23.20917,0,0,1,2.89765,7.23535l.00207.01209c-.07391.08258-.14849.16766-.22686.26031a14.26728,14.26728,0,0,0-1.89789,3.12519c-.10639.2622-.21234.52508-.30518.80609h-1.3305l.00805-7.0589-2.00836.01349L7.1723,7.44748,5.4165,4.35019,3.41418,4.3295l-1.3283,7.36993,3.65283,3.69336h5.5357l.01221.00519a11.8749,11.8749,0,0,0,.35114,4.69751,15.34763,15.34763,0,0,0,.69909,2h7.32837c.06775-.15863.131-.31568.19214-.472a12.43364,12.43364,0,0,0,.85559-6.22516l.009-.00555h5.53937l3.65283-3.69336Zm-20.17444,9.061v.00232H6.57361L4.23846,11.0317l.64331-3.56933.55066.97137,1.21924,2.15082L8.41638,9.01748Zm9.86432,6.705H13.72638A9.35636,9.35636,0,0,1,16.001,10.1503,9.3575,9.3575,0,0,1,18.2757,20.09549Zm1.63836-5.11682a.846.846,0,0,1,.02387-.09955l.02972.127Zm5.51233-1.58588H23.58862v-.00232l-.005-4.373,1.76471,1.56708,1.21924-2.15082.55066-.97137.64331,3.56933Z"/>
    </g>
  </g>
</svg>
