<svg id="sorte" xmlns="http://www.w3.org/2000/svg" width="32" height="32" viewBox="0 0 32 32">
  <g>
    <path d="M14.78906,7.46106A1.69822,1.69822,0,0,1,15,8.079v2.094A2.99764,2.99764,0,0,0,13.00909,13H14v2h1V13h2v2h1V13h.98053A2.99633,2.99633,0,0,0,17,10.17816V8.03308l-.002-.06427A3.09729,3.09729,0,0,0,13.87854,5H0V7H13.87421A.941.941,0,0,1,14.78906,7.46106Z"/>
    <path d="M16,17.80939a4,4,0,1,0,4,4A4,4,0,0,0,16,17.80939Zm-1.5,5a1,1,0,1,1,1-1A1,1,0,0,1,14.5,22.80939Zm3,0a1,1,0,1,1,1-1A1,1,0,0,1,17.5,22.80939Z"/>
  </g>
</svg>
