<?xml version="1.0" encoding="UTF-8"?><svg id="Layer_1" xmlns="http://www.w3.org/2000/svg" width="32" height="32" viewBox="0 0 32 32"><path d="M26.60663,5.39337c-2.92896-2.92889-6.76776-4.39337-10.60663-4.39337s-7.67767,1.46448-10.60663,4.39337C-.46448,11.25128-.46448,20.74872,5.39337,26.60663c2.92896,2.92889,6.76782,4.39337,10.60663,4.39337s7.67767-1.46448,10.60663-4.39337c5.85785-5.85791,5.85785-15.35535,0-21.21326Zm-3.22192,16.57715c2.8147-3.4729,2.8147-8.46814,0-11.94104l2.47894-2.47894c4.159,4.84967,4.159,12.04926,0,16.89893l-2.47894-2.47894Zm-12.68591-.66931c-2.9231-2.9231-2.9231-7.67932,0-10.60242,1.41602-1.41595,3.29871-2.1958,5.30121-2.1958s3.88519,.77985,5.30121,2.1958c1.41595,1.41602,2.1958,3.29871,2.1958,5.30121s-.77985,3.88519-2.1958,5.30121c-1.41602,1.41595-3.29871,2.1958-5.30121,2.1958s-3.88519-.77985-5.30121-2.1958ZM24.45081,6.13495l-2.48029,2.48035c-1.73651-1.40741-3.85315-2.1123-5.97052-2.1123s-4.23401,.70496-5.97052,2.1123l-2.48029-2.48035c2.35413-2.02271,5.31451-3.13495,8.45081-3.13495s6.09674,1.11224,8.45081,3.13495ZM6.13495,7.54919l2.48035,2.48029c-2.8147,3.4729-2.8147,8.46814,0,11.94104l-2.48035,2.48029c-2.02271-2.35413-3.13495-5.31451-3.13495-8.45081s1.11224-6.09668,3.13495-8.45081Zm1.41425,18.31586l2.48029-2.48035c1.73651,1.40735,3.85321,2.1123,5.97052,2.1123s4.23401-.7049,5.97052-2.1123l2.48029,2.48035c-2.35413,2.02271-5.31451,3.13495-8.45081,3.13495s-6.09668-1.11224-8.45081-3.13495Z"/></svg>