<svg xmlns="http://www.w3.org/2000/svg" width="32" height="32" viewBox="0 0 32 32">
  <defs>
    <style>
      .cls-1 {
        fill: #fff;
      }
    </style>
  </defs>
  <g id="hvitbak">
    <rect class="cls-1" width="32" height="32"/>
  </g>
  <g id="artwork_sort" data-name="artwork sort">
    <g>
      <rect x="6.50385" y="11.97455" width="3" height="13.03558"/>
      <rect x="5.00385" y="26.02625" width="6" height="2"/>
      <path d="M9.50385,4.98267a1.5,1.5,0,0,0-3,0v1h3Z"/>
      <polygon points="11.482 7.01 8.135 7.01 4.135 11.01 7.482 11.01 11.482 7.01"/>
      <polygon points="20.486 7.01 16.486 11.01 19.833 11.01 23.833 7.01 20.486 7.01"/>
      <polygon points="14.31 7.01 10.31 11.01 13.657 11.01 17.658 7.01 14.31 7.01"/>
      <polygon points="26.661 7.01 22.661 11.01 26.009 11.01 30.009 7.01 26.661 7.01"/>
      <polygon points="2.001 7.01 2.001 10.316 5.306 7.01 2.001 7.01"/>
      <polygon points="28.837 11.01 32.001 11.01 32.001 7.846 28.837 11.01"/>
    </g>
  </g>
</svg>
