<svg xmlns="http://www.w3.org/2000/svg" width="32" height="32" viewBox="0 0 32 32">
  <defs>
    <style>
      .cls-1 {
        fill: #fff;
      }
    </style>
  </defs>
  <g id="hvitbak">
    <rect class="cls-1" width="32" height="32"/>
  </g>
  <g id="artwork_sort" data-name="artwork sort">
    <path d="M25.96826,19.98a4.93048,4.93048,0,0,0-1.51874.26117l-.88189-1.56781-.09375-.16675,1.1026-1.1026.73065-.73065.73743-.73743-1.01807-1.81006L22.55963,9.67792H17.35156v2h4.03815l1.32471,2.41632H17.24988L14.672,16.64655H10.21161l-.92688-1H1.36542v3.02679H9.398l-.00586.00586c.17578.17676,2.09473,2.28125,3.42578,3.74512v1.291H10.84961a5.001,5.001,0,1,0,.10779,2h8.57141V22.45166l2.477-2.47705.70117,1.24652A4.97392,4.97392,0,1,0,25.96826,19.98Zm-19.93652,8a3,3,0,1,1,2.71069-4.26465H6.02881v2h2.901A2.99766,2.99766,0,0,1,6.03174,27.98Zm11.49707-6.35644v2.09179H14.81787V21.65088l-.25976-.28613c-.34528-.3794-1.50757-1.65784-2.45215-2.69141h8.373ZM25.96826,27.98a2.98474,2.98474,0,0,1-2.25073-4.96246l1.37964,2.45269,1.74219-.98046-1.38263-2.45807a2.99645,2.99645,0,1,1,.51153,5.9483Z"/>
  </g>
</svg>
