<?xml version="1.0" encoding="UTF-8"?><svg id="Layer_1" xmlns="http://www.w3.org/2000/svg" width="11.28889mm" height="11.28889mm" viewBox="0 0 32 32"><defs><style>.cls-1{fill:#000;stroke-width:0px;}</style></defs><path class="cls-1" d="M23.64233,26.5105c-.38245-.37842-.76123-.76062-1.14172-1.14099-.02716-.02716-.15314-.13873-.18738-.16492-.034-.026-.02222-.0202-.02222-.0202.00287-1.24701.00421-2.62531.00421-3.87231v-.16211h1.2821l-.7063-10.03998c.34143.38116.65649.72693.96484,1.07861.33319.38068.66168.7652.98547,1.15369.02203,1.27911.04279,2.55829.06232,3.83746.00104.06665.00012.1333.00012.19238h2.07434c0-.07153.00073-.1178-.00006-.164-.00842-.45685-.0177-.91364-.02539-1.37048-.01776-1.05035-.03888-2.1767-.06061-3.22693l-.00684-.04321c-.11005-.13409-.29932-.32697-.41394-.45746-.46033-.52521-.92029-1.05066-1.38-1.57642-.48083-.54755-.96014-1.09631-1.43799-1.64642-.30511-.3512-.71887-.80518-1.01776-1.16168-1.71643.00317-3.53674.00183-5.25317.00183h-.1463c-.18695,2.55896-.39508,5.09967-.60236,7.64166h-3.23486c-.46161.92682-6.16443,12.47192-6.29407,12.74353h-2.04364v2h6.14838v-2h-1.81189c.25104-.50195,3.59564-7.2749,5.30652-10.74353h1.77191c-.09973,1.24573-.20331,2.48767-.29492,3.74115l.86755.05011c-.07428.12646-.14215.22778-.19611.336-.46808.93951-.93457,1.87982-1.39941,2.82098-.1969.3963-.38916.79492-.57672,1.19568-.00189,1.48761-.00287,4.46289-.00287,4.46289v.13672h2.04871v-.15771c.00006-1.23425,0-2.46851-.00006-3.70276-.01666-.10828-.00507-.21906.03369-.32159.46967-.92456.92755-1.8551,1.38544-2.78552.31024-.63025.65594-1.35706.96576-1.98749.29755-.00726.6524-.00262.96375-.00262v1.4306c0,1.11462-.00128,2.32227.00128,3.43695.25995.25775.57648.55872.83728.81561.76086.75348,1.52246,1.5061,2.28485,2.258.31244.30811.62866.6123.94336.91809.01202.01172.02618.02112.04401.03534l1.46008-1.42139c-.25549-.24274-.50397-.47388-.74701-.71075-.47919-.46716-.95667-.9361-1.43237-1.4068ZM18.45764,19.12787l.65942-9.36963h1.5813l.69751,9.36963h-2.93823Z"/><path class="cls-1" d="M19.71918,6.6936c1.33032.00128,2.40985-1.07611,2.41113-2.40643,0-.0127-.00006-.02545-.00024-.03815-.01849-1.31256-1.09747-2.36157-2.41003-2.34308-.01111-.00006-.02228-.00006-.03345,0-1.32092.01001-2.38367,1.08893-2.37366,2.40985.01697,1.31726,1.08893,2.37653,2.40625,2.37781Z"/><path class="cls-1" d="M5.10876,9.30969l1.43207,1.43286,2.97797-2.97845,2.8988,2.8988,1.41986-1.42175-2.92004-2.91968,2.92102-2.92059-1.42535-1.42706-2.93555,2.94177c-.02771-.04242-.05823-.08301-.09131-.12134-.92578-.92719-1.95319-1.96222-2.87982-2.88855l-.13818.11285c-.40533.40491-.81061.81-1.21564,1.21527-.02893.02893-.05615.05957-.09143.09723l3.01495,3.01117-2.96735,2.96747Z"/></svg>