<svg xmlns="http://www.w3.org/2000/svg" width="32" height="32" viewBox="0 0 32 32">
  <defs>
    <style>
      .cls-1 {
        fill: #fff;
      }
    </style>
  </defs>
  <g id="hvitbak">
    <rect class="cls-1" width="32" height="32"/>
  </g>
  <g id="artwork_sort" data-name="artwork sort">
    <g>
      <path d="M16.72357,11.20291H11.23236V27.99344h2.01953V21.7991h3.33545c3.65332,0,5.96777-2.13281,5.96777-5.26416C22.55511,13.38113,20.35394,11.20291,16.72357,11.20291Zm.06787,8.80371H13.25189V13.0408h3.53955c2.38282,0,3.67578,1.27051,3.67578,3.51709C20.46722,18.78152,19.17426,20.00662,16.79144,20.00662Z"/>
      <path d="M0,0V32H32V0ZM30,30H2V2H30Z"/>
      <polygon points="16 6.306 27.5 12.946 28.5 11.214 16 3.997 3.5 11.214 4.5 12.946 16 6.306"/>
    </g>
  </g>
</svg>
