<svg xmlns="http://www.w3.org/2000/svg" width="32" height="32" viewBox="0 0 32 32">
  <defs>
    <style>
      .cls-1 {
        fill: #fff;
      }
    </style>
  </defs>
  <g id="hvitbak">
    <rect class="cls-1" width="32" height="32"/>
  </g>
  <g id="artwork_sort" data-name="artwork sort">
    <g>
      <path d="M10.41421,8.24264,9,6.82843,7.58579,8.24264,6.17157,6.82843,9,4l2.82843,2.82843Z"/>
      <path d="M10.41421,16.59411,9,15.1799,7.58579,16.59411,6.17157,15.1799,9,12.35147l2.82843,2.82843Z"/>
      <path d="M10.41421,24.94558,9,23.53137,7.58579,24.94558,6.17157,23.53137,9,20.70294l2.82843,2.82843Z"/>
      <path d="M8,10.29706a1,1,0,1,1,1.00008,1A1.00039,1.00039,0,0,1,8,10.29706Z"/>
      <path d="M8,18.64853a1,1,0,1,1,1.00008,1A1.00039,1.00039,0,0,1,8,18.64853Z"/>
      <path d="M8,27a1,1,0,1,1,1.00008,1A1.00039,1.00039,0,0,1,8,27Z"/>
    </g>
    <g>
      <path d="M24.41421,8.24264,23,6.82843,21.58579,8.24264,20.17157,6.82843,23,4l2.82843,2.82843Z"/>
      <path d="M24.41421,16.59411,23,15.1799l-1.41421,1.41421L20.17157,15.1799,23,12.35147l2.82843,2.82843Z"/>
      <path d="M24.41421,24.94558,23,23.53137l-1.41421,1.41421-1.41422-1.41421L23,20.70294l2.82843,2.82843Z"/>
      <path d="M22,10.29706a1,1,0,1,1,1.00008,1A1.00039,1.00039,0,0,1,22,10.29706Z"/>
      <path d="M22,18.64853a1,1,0,1,1,1.00008,1A1.00039,1.00039,0,0,1,22,18.64853Z"/>
      <path d="M22,27a1,1,0,1,1,1.00008,1A1.00039,1.00039,0,0,1,22,27Z"/>
    </g>
    <g>
      <path d="M17.41421,28,16,26.58579,14.58579,28l-1.41422-1.41421L16,23.75736l2.82843,2.82843Z"/>
      <path d="M17.41421,11.29706,16,9.88284l-1.41421,1.41422L13.17157,9.88284,16,7.05442l2.82843,2.82842Z"/>
      <path d="M17.41421,19.64853,16,18.23431l-1.41421,1.41422-1.41422-1.41422L16,15.40589l2.82843,2.82842Z"/>
      <path d="M15,5a1,1,0,1,1,1.00008,1A1.00039,1.00039,0,0,1,15,5Z"/>
      <path d="M15,13.35147a1,1,0,1,1,1.00008,1A1.00039,1.00039,0,0,1,15,13.35147Z"/>
      <path d="M15,21.70294a1,1,0,1,1,1.00008,1A1.00039,1.00039,0,0,1,15,21.70294Z"/>
    </g>
  </g>
</svg>
