<svg id="sorte" xmlns="http://www.w3.org/2000/svg" width="32" height="32" viewBox="0 0 32 32">
  <g>
    <path d="M7.199,7.602,7.503,8h.998L8.801,7.601A3.97489,3.97489,0,0,1,12,6.003l-.001-2A5.942,5.942,0,0,0,8,5.528,5.95431,5.95431,0,0,0,4,4.003v2A3.97325,3.97325,0,0,1,7.199,7.602Z"/>
    <path d="M26,21v-.976l3.207-3.207-1.414-1.414L26,17.196v-2.2362a3.995,3.995,0,1,0-2,.01532V21H17.02887V14.95984a3.995,3.995,0,1,0-2,.01532V21H12.009a3.99879,3.99879,0,0,0-7.99756,0H1V31H31V21Zm-3.0246-9.89a2,2,0,1,1,2,1.99951A2.00229,2.00229,0,0,1,22.9754,11.11Zm-8.97113,0a2,2,0,1,1,2,1.99951A2.00229,2.00229,0,0,1,14.00427,11.11ZM8.01019,19.01184A2.00152,2.00152,0,0,1,10.009,21H6.01141A2.00153,2.00153,0,0,1,8.01019,19.01184ZM29,29H3V23H29Z"/>
  </g>
</svg>
