<?xml version="1.0" encoding="UTF-8"?><svg id="Layer_1" xmlns="http://www.w3.org/2000/svg" width="32" height="32" viewBox="0 0 32 32"><path d="M28,25.03094c-1.62592-2.21486-4.73949-2.69228-6.95435-1.06636-.39816.29229-.75058.64225-1.04565,1.03836-1.64139-2.20342-4.75822-2.65904-6.96164-1.01765-.39611.29507-.74607.64749-1.03836,1.04565-1.62592-2.21486-4.73949-2.69228-6.95435-1.06636-.39816.29229-.75058.64225-1.04565,1.03836-.94339-1.26046-2.4256-2.00266-4-2.00294v2c1.6561.00181,2.99819,1.34389,3,3h2c0-1.65685,1.34315-3,3-3s3,1.34315,3,3h2c0-1.65685,1.34315-3,3-3s3,1.34315,3,3h2c0-1.65685,1.34315-3,3-3s3,1.34315,3,3h2c.00181-1.65611,1.34389-2.99819,3-3v-2c-1.57997.00432-3.0642.75792-4,2.03094Z"/><rect x="5" y="12.5" width="22" height="2"/><path d="M5,5.5v2h3v1h-3v2h3v1h2v-1h12v1h2v-1h3v-2h-3v-1h3v-2H5ZM22,8.5h-12v-1h12v1Z"/><rect x="8" y="15.5" width="2" height="3"/><rect x="22" y="15.5" width="2" height="3"/></svg>