<?xml version="1.0" encoding="UTF-8"?><svg id="Layer_1" xmlns="http://www.w3.org/2000/svg" width="32" height="32" viewBox="0 0 32 32"><polygon points="2.44165 28.36053 2.83911 30.32147 10.27954 28.81445 10.27954 31.00018 12.27954 31.00018 12.27954 28.4093 18.9187 27.06458 18.9187 31.00018 20.9187 31.00018 20.9187 26.65948 27.55835 25.31464 27.55835 31 29.55835 31 29.55835 22.86932 2.44165 28.36053"/><path d="M15.32224,5.54278c1.25446,.00031,2.27161-1.01642,2.27191-2.27087s-1.01642-2.27161-2.27087-2.27191-2.27161,1.01642-2.27191,2.27087v.00055c.00134,1.25372,1.01715,2.26978,2.27087,2.27136Zm2.1228,9.04803l-.01624-.00903c-.21295-.2066-.44214-.39563-.68347-.56946V6.93273h-5.0766l-2.06903,5.4682,.55396,1.29156c-1.80646,1.05243-3.02393,3.00519-3.02393,5.24658,0,3.35425,2.71918,6.07343,6.07349,6.07343s6.07343-2.71918,6.07343-6.07343c0-.68018-.11676-1.33191-.323-1.9425l1.32843,.31v6.03455h2v-7.62158l-4.83704-1.12872Zm-4.39465-5.65808h1.69495v4.13806c-.49329-.12933-1.00824-.2052-1.54211-.2052-.40332,0-.79675,.04138-1.1781,.11639l-.26929-.62787,1.29456-3.42139Zm.15283,14.07977c-2.24615,0-4.07349-1.82733-4.07349-4.07343,0-1.41315,.72473-2.65851,1.82056-3.38934l1.39221,3.24603,1.84369-.77515-1.3444-3.13921c.17632-.01376,.23991-.01582,.36143-.01582,2.24609,0,4.07343,1.82733,4.07343,4.07349s-1.82733,4.07343-4.07343,4.07343Z"/></svg>