<?xml version="1.0" encoding="UTF-8"?><svg id="Layer_1" xmlns="http://www.w3.org/2000/svg" width="32" height="32" viewBox="0 0 32 32"><defs><style>.cls-1{fill:none;}</style></defs><g id="hvitbak"><rect class="cls-1" width="32" height="32"/></g><path d="m21.42267,22.02057h6.07843v-2.20001c.02979-.33875.02979-.67944.00006-1.01825v-.03271h-.00269c-.03979-1.03088-.4079-2.02209-1.05066-2.8291-1.15112-1.18317-2.76599-1.79755-4.41248-1.67871-8.46674,0-9.56763-5.25085-9.56763-5.25085h-7.97986v13.00964h16.93481Zm-14.93481-2v-9.00964h4.58105l.00391.00592c.45892.79913.99994,1.54822,1.61438,2.23499.19073.2088.4043.39557.63666.55676,0,0,.52863.34698,1.07422.65265.49969.27991,1.0174.51947,1.07678.54437,2.07208.88232,4.30902,1.31067,6.56042,1.25623,1.03235-.05988,2.04651.29077,2.82129.97559.35919.43677.58167.96967.63965,1.53217h.00488l.00006,1.25098H6.48785Z"/><rect x="4.46912" y="6.0047" width="8" height="2"/><path d="m5.47205,24.02246c-1.65063-.00031-2.98895,1.33759-2.98926,2.98828-.00024,1.65063,1.33765,2.98895,2.98828,2.98926,1.65063.00024,2.98901-1.33765,2.98926-2.98828-.00165-1.6499-1.33844-2.98712-2.98828-2.98926Zm.98828,2.98926c-.00061.54553-.44275.98761-.98828.98828-.54608.00024-.98895-.4422-.98926-.98828-.00024-.54608.4422-.98901.98828-.98926.54608-.00031.98901.4422.98926.98828v.00098Z"/><path d="m12.43604,24.02246c-1.65063-.00031-2.98901,1.33759-2.98926,2.98828-.00024,1.65063,1.33765,2.98895,2.98828,2.98926,1.65063.00024,2.98901-1.33765,2.98926-2.98828-.00165-1.6499-1.33844-2.98712-2.98828-2.98926Zm.98828,2.98926c-.00061.54553-.44275.98761-.98828.98828-.54608.00024-.98901-.4422-.98926-.98828s.4422-.98901.98828-.98926c.54608-.00031.98901.4422.98926.98828v.00098Z"/><path d="m19.40002,24.02246c-1.65063-.00031-2.98901,1.33759-2.98926,2.98828-.00031,1.65063,1.33765,2.98895,2.98828,2.98926,1.65063.00024,2.98895-1.33765,2.98926-2.98828-.00165-1.6499-1.33844-2.98712-2.98828-2.98926Zm.98828,2.98926c-.00061.54553-.44275.98761-.98828.98828-.54608.00024-.98901-.4422-.98926-.98828-.00031-.54608.4422-.98901.98828-.98926.54608-.00031.98895.4422.98926.98828v.00098Z"/><path d="m26.36401,24.02246c-1.6507-.00031-2.98901,1.33759-2.98926,2.98828-.00031,1.65063,1.33759,2.98895,2.98828,2.98926,1.65063.00024,2.98895-1.33765,2.98926-2.98828-.00165-1.6499-1.33844-2.98712-2.98828-2.98926Zm.98828,2.98926c-.00067.54553-.44275.98761-.98828.98828-.54608.00024-.98901-.4422-.98926-.98828-.00031-.54608.4422-.98901.98828-.98926.54608-.00031.98895.4422.98926.98828v.00098Z"/><path d="m29.55188,3.57593c-.4729-.47351-.94574-.9469-1.42548-1.42712-.96936.97144-1.94165,1.94574-2.93549,2.94177-.02771-.04248-.05823-.08301-.09131-.12134-.92578-.92719-1.95319-1.96222-2.87976-2.88855l-.13824.11285c-.40564.40466-.81085.80975-1.21564,1.21527-.02881.02893-.05621.05957-.09131.09723.99969.99854,1.99432,1.992,3.01483,3.01117-1.00848,1.00848-2.00177,2.00189-2.96722,2.96741.46863.46899.94031.94104,1.43188,1.43286.97742-.97742,1.97009-1.97021,2.97797-2.97839.96594.96588,1.9364,1.93634,2.8988,2.89874.46863-.46918.94189-.94305,1.4198-1.42175-.96582-.9657-1.93909-1.9389-2.91986-2.91962.97913-.97894,1.95276-1.95245,2.92102-2.92053Z"/></svg>