<?xml version="1.0" encoding="UTF-8"?><svg id="Layer_1" xmlns="http://www.w3.org/2000/svg" width="32" height="32" viewBox="0 0 32 32"><path d="M15.73459,4.89188c1.30652,0,2.41205-1.10553,2.41205-2.41211S17.04111,.16818,15.73459,.16818s-2.41211,1.10559-2.41211,2.31158c0,1.30658,1.10559,2.41211,2.41211,2.41211Z"/><path d="M22.33371,26.1008l-.46387,.81189-.909-.90912c-.40204-.5025-.9046-.90448-1.4071-1.40698l-1.10553-1.10559c-.0896-.07959-.20099-.20105-.20099-.20105v-3.82495h1.30652l-.70355-10.05042c.40204,.40204,.68512,.72906,1.00507,1.10553,.32544,.38287,.70355,.80408,1.005,1.20605,.04797,1.21643,.07629,2.508,.10059,3.81915v.20099h2.11053v-1.60803c-.05072-1.01166-.06836-2.10504-.10046-3.21613-.1413-.17694-.31042-.39392-.40204-.5025-.47174-.55908-.9046-1.10553-1.4071-1.60809-.40198-.5025-.90448-1.005-1.40698-1.60809-.30151-.40198-.70355-.80402-1.00507-1.20605h-5.42725c-.40198,4.52271-.80402,8.94489-1.10553,13.46759l.90448,.10046c-.07648,.14984-.0918,.17792-.17096,.31586-.46576,.93842-.95734,1.88776-1.43707,2.7998l-.60297,1.20605v3.72711h-.37952l-.86469-1.51349-1.74506,.99719,1.44177,2.52637h13.27405l1.44183-2.52637-1.74512-.99719ZM15.13156,8.00748h1.60809l.70355,9.44745h-3.01514l.70349-9.44745Zm.99731,19.60681h-3.20837v-3.32513c.5025-.90448,1.005-1.80902,1.50757-2.71362l1.005-2.01007h1.00507v4.52856c.20093,.20099,.5025,.50256,.80402,.80408l2.31158,2.31158,.4046,.4046h-3.82947Z"/><path d="M11.64639,29.97263c-.23059-.13324-.49872-.16876-.75635-.09949-.25702,.06891-.47186,.23364-.60504,.46423-.27448,.47571-.11084,1.08649,.36487,1.36127,.15656,.09021,.32764,.13318,.49658,.13318,.3446,0,.6803-.17865,.8645-.49792,.13306-.23059,.16846-.49921,.09955-.75604-.06891-.25714-.23383-.47229-.46411-.60522Z"/><path d="M21.40158,29.97263c-.23059-.13324-.49872-.16876-.75635-.09949-.25702,.06891-.47186,.23364-.60504,.46423-.27448,.47571-.11084,1.08649,.36487,1.36127,.15656,.09021,.32764,.13318,.49658,.13318,.3446,0,.6803-.17865,.8645-.49792,.13306-.23059,.16846-.49921,.09955-.75604-.06891-.25714-.23383-.47229-.46411-.60522Z"/></svg>