<svg xmlns="http://www.w3.org/2000/svg" width="32" height="32" viewBox="0 0 32 32">
  <defs>
    <style>
      .cls-1 {
        fill: #fff;
      }
    </style>
  </defs>
  <g id="hvitbak">
    <rect class="cls-1" width="32" height="32"/>
  </g>
  <g id="artwork_sort" data-name="artwork sort">
    <g>
      <path d="M29.07568,22.99414a1.8967,1.8967,0,0,1-1.97216,2.07764c-.55213,0-2.09424-.00373-4.15577-.00946V23.00244h4.07843v-4.2a5.81877,5.81877,0,0,0,.00007-1.01825v-.03272h-.00269a4.84071,4.84071,0,0,0-1.05066-2.8291,5.59452,5.59452,0,0,0-4.41248-1.67871c-8.46673,0-9.56762-5.25085-9.56762-5.25085H4.01294V23.00244H8.00781v2.01367c-3.43182-.01117-5.94189-.01953-5.94189-.01953l-.00684,2s22.55469.0752,25.04444.0752a3.82384,3.82384,0,0,0,2.80078-1.07617,4.51321,4.51321,0,0,0,1.17138-3.021ZM6.22675,9.9928H10.594l.00391.00592a13.24246,13.24246,0,0,0,1.61438,2.235,3.78452,3.78452,0,0,0,.63666.55677l-2.046,2.0459L12.217,16.25055l2.40747-2.40741c.12348.0553.25122.09228.37549.14435a15.77178,15.77178,0,0,0,6.56042,1.25622,3.91766,3.91766,0,0,1,2.82129.97559,2.87691,2.87691,0,0,1,.63965,1.53216H6.179ZM6.01294,21.00244v-1.251H25.02618l.00007,1.251Zm14.93481,4.05408c-3.3236-.00977-7.41235-.02258-10.93994-.03394V23.00244H20.94775Z"/>
      <rect x="3.99426" y="4.98651" width="8" height="2"/>
    </g>
  </g>
</svg>
