<svg id="Layer_1" data-name="Layer 1" xmlns="http://www.w3.org/2000/svg" width="32" height="32" viewBox="0 0 32 32">
  <g>
    <path d="M8.3,19.8h-4v2h.9a4.19073,4.19073,0,0,0-.4,1.5,3.47822,3.47822,0,0,0,3.5,3.5,3.66945,3.66945,0,0,0,3.4-2.5h8.7v-1A4.61019,4.61019,0,0,1,23.2,19l.3,1.2a3.5318,3.5318,0,0,0-1.8,3.1,3.5,3.5,0,1,0,3.7-3.5L22.7,7.5l2-.4-.4-2-4,.8L22.7,17a6.86835,6.86835,0,0,0-4.3,5.3H11.6A3.44823,3.44823,0,0,0,8.3,19.8Zm0,5.1a1.5,1.5,0,1,1,1.5-1.5A1.47268,1.47268,0,0,1,8.3,24.9Zm18.4-1.5a1.5,1.5,0,1,1-1.5-1.5A1.47268,1.47268,0,0,1,26.7,23.4Z"/>
    <path d="M4.3,12.5l1.4,1.4,3-3,2.9,2.9L13,12.4,10.1,9.5,13,6.6,11.6,5.2,8.7,8.1,8.6,8,5.8,5.2c-.2-.2-.1-.2-.3,0L4.3,6.4l-.1.1,3,3C6.2,10.5,5.2,11.5,4.3,12.5Z"/>
  </g>
</svg>
