<?xml version="1.0" encoding="UTF-8"?><svg id="Layer_1" xmlns="http://www.w3.org/2000/svg" width="32" height="32" viewBox="0 0 32 32"><path d="M0,26.0001v2c1.65613,.00183,2.99817,1.34393,3,3h2c0-1.6568,1.34314-3,3-3s3,1.3432,3,3h2c0-1.6568,1.34314-3,3-3s3,1.3432,3,3h2c0-1.6568,1.34314-3,3-3s3,1.3432,3,3h2c.00183-1.65607,1.34387-2.99817,3-3v-2c-1.57996,.00433-3.06421,.75793-4,2.03094-1.62592-2.21484-4.7395-2.69226-6.95435-1.06635-.39819,.2923-.75061,.64227-1.04565,1.03839-1.64142-2.20343-4.75824-2.65906-6.96167-1.0177-.39606,.2951-.74603,.64752-1.03833,1.04565-.75671-1.03082-1.83966-1.66748-3.00024-1.90869v-7.12231s3.00317,0,3.00317,0v-2h-1.74811s4.20282-4.20282,4.20282-4.20282l-3.91602-3.91504h6.45801v-3.44775s-3.90039-3.89941-3.90039-3.89941l-1.41406,1.41406,3.31445,3.31348v.61963s-6.94434,0-6.94434,0l-.68652,1.65576,4.26074,4.25928-4.20282,4.20282H.00281v2H6.99969s0,7.11176,0,7.11176c-.6853,.13885-1.35333,.41193-1.95404,.85291-.39819,.2923-.75061,.64227-1.04565,1.03839C3.05658,26.74259,1.5744,26.0004,0,26.0001Zm23.48132-7.91864l3.01495-3.01129c-.03528-.0376-.06256-.06824-.09149-.09723-.40503-.40521-.81024-.81036-1.21564-1.21527l-.13818-.11285c-.92657,.92639-1.95404,1.96136-2.87982,2.88861-.03308,.03833-.0636,.07892-.09131,.12134l-2.93555-2.94183-1.42542,1.42712,2.92102,2.92059-2.91998,2.91974,1.41986,1.42175,2.8988-2.8988,2.97803,2.97845,1.43207-1.43286-2.96735-2.96747Zm-.57355-10.75378c-.00031-1.25446-1.01746-2.27118-2.27191-2.27087s-2.27118,1.01746-2.27087,2.27191c.00159,1.25372,1.01764,2.26953,2.27136,2.27087h.00055c1.25446-.00031,2.27118-1.01746,2.27087-2.27191Z"/></svg>