<svg id="Layer_1" data-name="Layer 1" xmlns="http://www.w3.org/2000/svg" width="32" height="32" viewBox="0 0 32 32"><defs><style>.cls-1{fill:#1d1d1b;}</style></defs><path class="cls-1" d="M25.5,19a6.50585,6.50585,0,0,0-1.474.174l-2.152-6.121,2.935-.734-.484-1.94L19.26,11.645l1.046,2.976L9.514,16.215l5.002,8.28H12.914a6.49858,6.49858,0,1,0,.002,2h4.823l3.044-9.923.198-.029,1.189,3.382A6.49055,6.49055,0,1,0,25.5,19ZM6.5,30A4.5,4.5,0,1,1,11,25.5,4.50549,4.50549,0,0,1,6.5,30Zm9.96-6.155-3.679-6.091,5.811-.858ZM25.5,30A4.5,4.5,0,1,1,30,25.5,4.50549,4.50549,0,0,1,25.5,30Z"/><rect class="cls-1" x="6" y="12" width="6" height="2"/><circle class="cls-1" cx="6.5" cy="25.5" r="1.5"/><circle class="cls-1" cx="25.5" cy="25.5" r="1.5"/><polygon class="cls-1" points="5.469 9.915 9.012 6.372 12.555 9.915 13.969 8.501 10.426 4.958 13.969 1.415 12.555 0 9.012 3.543 5.469 0 4.054 1.415 7.597 4.958 4.054 8.501 5.469 9.915"/></svg>