<svg xmlns="http://www.w3.org/2000/svg" width="32" height="32" viewBox="0 0 32 32">
  <defs>
    <style>
      .cls-1 {
        fill: #fff;
      }
    </style>
  </defs>
  <g id="hvitbak">
    <rect class="cls-1" width="32" height="32"/>
  </g>
  <g id="artwork_sort" data-name="artwork sort">
    <path d="M20.57867,28.96313V18.8114l.017.00171a2,2,0,0,0,0-4l-.017.00171V12.96313H18.54352V3.03687h4v-2h-10v2h4v9.92626h-2v1.78742a4.01139,4.01139,0,0,0-4.04,3.15887l-.00977.06836.002,6.06348a1.23568,1.23568,0,0,1-.25782.80469,1.06937,1.06937,0,0,1-.793.24707,1.11432,1.11432,0,0,1-.82422-.25977,1.31414,1.31414,0,0,1-.29688-.84912V9.15747h-4v2h2l.001,12.792a3.30708,3.30708,0,0,0,.85156,2.2666,3.02853,3.02853,0,0,0,2.26856.877,2.95913,2.95913,0,0,0,2.26074-.88867,3.20742,3.20742,0,0,0,.78808-2.22022V18.14331c.07416-.3161.44709-1.25854,2.04981-1.39783V28.96313h-3v2H23.57867v-2Zm-4.03515,0v-14h2.03515v14Z"/>
  </g>
</svg>
