<svg id="Layer_1" data-name="Layer 1" xmlns="http://www.w3.org/2000/svg" width="32" height="32" viewBox="0 0 32 32"><path d="M16.92175,1.78955A15.192,15.192,0,0,0,2.08881,20.25623l9.61523-2.1316,7.41132,7.41187v4.674h2V16.03821L31.72571,13.686A15.18476,15.18476,0,0,0,16.92175,1.78955Zm2.19361,20.919L14.019,17.61139l5.09638-1.12982Zm1.93792-8.70508-11.026,2.44433L3.75476,17.83832A13.1832,13.1832,0,0,1,14.055,4.10522,13.15477,13.15477,0,0,1,29.1889,12.19983Z"/><path d="M13.09015,6.40479A12.78111,12.78111,0,0,0,8.86609,9.42188l-.38153.36883,1.37933,1.44794.39685-.38373a10.979,10.979,0,0,1,3.55487-2.58637A11.94952,11.94952,0,0,1,18.793,7.8114l.36944.01965.10175-1.99737-.36249-.01935A13.75748,13.75748,0,0,0,13.09015,6.40479Z"/></svg>