<svg id="Layer_1" data-name="Layer 1" xmlns="http://www.w3.org/2000/svg" width="32" height="32" viewBox="0 0 32 32"><path d="M25.5,13a6.50585,6.50585,0,0,0-1.474.174L21.874,7.053l2.935-.734-.484-1.94L19.26,5.645l1.046,2.976L9.514,10.215l5.002,8.28H12.914a6.49858,6.49858,0,1,0,.002,2h4.823l3.044-9.923.198-.029,1.189,3.382A6.49055,6.49055,0,1,0,25.5,13ZM6.5,24A4.5,4.5,0,1,1,11,19.5,4.50549,4.50549,0,0,1,6.5,24Zm9.96-6.155-3.679-6.091,5.811-.858ZM25.5,24A4.5,4.5,0,1,1,30,19.5,4.50549,4.50549,0,0,1,25.5,24Z"/><rect x="6" y="6" width="6" height="2"/><circle cx="6.5" cy="19.5" r="1.5"/><circle cx="25.5" cy="19.5" r="1.5"/></svg>