<svg xmlns="http://www.w3.org/2000/svg" width="32" height="32" viewBox="0 0 32 32">
  <defs>
    <style>
      .cls-1 {
        fill: #fff;
      }
    </style>
  </defs>
  <g id="hvitbak">
    <rect class="cls-1" width="32" height="32"/>
  </g>
  <g id="artwork_sort" data-name="artwork sort">
    <g>
      <path d="M25.50238,18.999a6.50744,6.50744,0,0,0-1.474.174l-2.152-6.121,2.935-.734-.484-1.94-5.065,1.266,1.046,2.976-10.792,1.594,5.002,8.28h-1.602a6.49881,6.49881,0,1,0,.00195,2h4.823l3.044-9.923.198-.029,1.189,3.382a6.49039,6.49039,0,1,0,3.33-.925Zm-19,11a4.5,4.5,0,1,1,4.5-4.5A4.5,4.5,0,0,1,6.50238,29.999Zm9.96-6.155-3.679-6.091,5.811-.858Zm9.04,6.155a4.5,4.5,0,1,1,4.5-4.5A4.5,4.5,0,0,1,25.50238,29.999Z"/>
      <rect x="6.00238" y="11.99902" width="6" height="2"/>
      <circle cx="6.50238" cy="25.49902" r="1.5"/>
      <circle cx="25.50238" cy="25.49902" r="1.5"/>
      <polygon points="16 3.166 31.223 9.6 32 7.763 16 1 0 7.763 0.776 9.6 16 3.166"/>
    </g>
  </g>
</svg>
