<svg id="Layer_1" data-name="Layer 1" xmlns="http://www.w3.org/2000/svg" width="32" height="32" viewBox="0 0 32 32"><path d="M24.712,5l-.263-5H7.551L7.288,5H4v7H6V7H7.183L6.496,20.057,7.653,27H24.347l1.157-6.943L24.817,7H26v5h2V5ZM23.446,19H8.554L9.186,7H22.815ZM22.551,2l.158,3H9.291l.158-3ZM9.347,25l-.185-1.113,3.338-.57V22H8.847L8.68,21H23.32l-.167,1H19.5v1.317l3.339.57L22.653,25Z"/><polygon points="7.823 32 9.977 32 11.177 28 9.023 28 7.823 32"/><polygon points="20.5 28 21.7 32 23.854 32 22.654 28 20.5 28"/></svg>