<svg id="Layer_1" data-name="Layer 1" xmlns="http://www.w3.org/2000/svg" width="32" height="32" viewBox="0 0 32 32"><path d="M9.08983,30.88706l3.71151-8.83842-1.5019-3.00578L1.16089,16.79051V14.73794l2.91334.665L4.06529,9.49075a5.552,5.552,0,0,1-.67094-.28925A4.05545,4.05545,0,0,1,1.7046,7.65587,4.26364,4.26364,0,1,1,6.17649,9.59511l-.1153.02187v6.22925l4.949,1.11226.02187-1.822-.1153-.03678a3.37036,3.37036,0,0,1-2.27123-2.62906,3.44384,3.44384,0,1,1,4.52656,2.61912l-.14313.04175v1.88856h5.95888v-7.92l5.00168-4.68759,4.98082,4.67168V17.036h1.983v1.9959h-12.873l1.313,3.02268L16.1898,28.89414H14.02592l3.14692-6.83954-1.35876-3.02467h-2.2275c.23259.48407,1.46512,3.02467,1.46512,3.02467l-3.90533,8.83246ZM24.01139,7.09725,21.06823,10.105l-.006,6.931h5.96385l-.02087-6.93795ZM4.57321,3.27939A2.157,2.157,0,0,0,3.281,4.52385,2.28018,2.28018,0,1,0,4.57321,3.27939ZM11.546,10.51852a1.35579,1.35579,0,0,0-.74847.67491,1.44327,1.44327,0,1,0,.74847-.67491Z"/></svg>