<svg xmlns="http://www.w3.org/2000/svg" width="32" height="32" viewBox="0 0 32 32">
  <defs>
    <style>
      .cls-1 {
        fill: #fff;
      }
    </style>
  </defs>
  <g id="hvitbak">
    <rect class="cls-1" width="32" height="32"/>
  </g>
  <g id="artwork_sort" data-name="artwork sort">
    <g>
      <path d="M0,0V32H32V0ZM30,30H2V2H30Z"/>
      <path d="M28.01758,17V15H19.858a3.95873,3.95873,0,0,0-.42492-1.01947l5.772-5.77155L23.791,6.79492l-5.7721,5.77167A3.95925,3.95925,0,0,0,17,12.142V3.98242H15V12.142a3.95931,3.95931,0,0,0-1.01855.42438l-5.772-5.77149L6.79541,8.209l5.77167,5.77124A3.9581,3.9581,0,0,0,12.142,15H3.98242v2H12.142a3.959,3.959,0,0,0,.42444,1.01862L6.79541,23.79,8.20947,25.2041l5.77075-5.77118A3.95883,3.95883,0,0,0,15,19.858v8.15961h2V19.858a3.95923,3.95923,0,0,0,1.01984-.42505L23.791,25.2041,25.20508,23.79l-5.77149-5.77149A3.95843,3.95843,0,0,0,19.858,17ZM16,18a2,2,0,1,1,2-2A2.00229,2.00229,0,0,1,16,18Z"/>
    </g>
  </g>
</svg>
