<svg xmlns="http://www.w3.org/2000/svg" width="32" height="32" viewBox="0 0 32 32">
  <defs>
    <style>
      .cls-1 {
        fill: #fff;
      }
    </style>
  </defs>
  <g id="hvitbak">
    <rect class="cls-1" width="32" height="32"/>
  </g>
  <g id="artwork_sort" data-name="artwork sort">
    <path d="M30.58789,19.21667c-.022-.11035-.55762-2.5874-3.9331-2.8457l-3.668-6.37671H1.93549V26.42468H5.08954a3.5733,3.5733,0,0,0,6.89569,0h7.94055a3.57354,3.57354,0,0,0,6.89606,0h3.78558V19.413ZM16.92627,12.01184l4.9209-.01465,2.47656,4.35962-7.39746.03076ZM9.80206,26.42468a1.56268,1.56268,0,1,1,.32978-.96A1.587,1.587,0,0,1,9.80206,26.42468Zm14.837,0a1.563,1.563,0,1,1,.32922-.959A1.5873,1.5873,0,0,1,24.639,26.42468Zm3.96838-2h-1.811a3.57039,3.57039,0,0,0-6.84516,0H11.96014a3.57063,3.57063,0,0,0-6.84552,0H3.93549V12.00085l10.99078-.01635v6.41089l11.14648-.0459c1.95459.001,2.4375.93652,2.53467,1.19922Z"/>
  </g>
</svg>
