<svg xmlns="http://www.w3.org/2000/svg" width="32" height="32" viewBox="0 0 32 32">
  <defs>
    <style>
      .cls-1 {
        fill: #fff;
      }
    </style>
  </defs>
  <g id="hvitbak">
    <rect class="cls-1" width="32" height="32"/>
  </g>
  <g id="artwork_sort" data-name="artwork sort">
    <g>
      <path d="M8.99762,7.12842a.94047.94047,0,0,1,.45953-.91388,1.68982,1.68982,0,0,1,.61591-.21076h7.0708a2.98861,2.98861,0,0,0,2.81781,1.99353V6.97583h1.99951V6.00146H19.96167V4.00433h1.99951V3.00671H19.96167V2.0213a2.98873,2.98873,0,0,0-2.81409,1.98248h-7.1253l-.06409.002A3.09522,3.09522,0,0,0,6.99762,7.12836v4.88342h2Z"/>
      <path d="M30.58789,19.21667c-.022-.11035-.55762-2.5874-3.9331-2.8457l-3.668-6.37677H9.99926v2.04486l4.927-.02093v6.37726l11.14648-.0459c1.95459.001,2.4375.93652,2.53467,1.19922v4.876h-1.811a3.57039,3.57039,0,0,0-6.84516,0H11.96014a3.57063,3.57063,0,0,0-6.84552,0H3.93549V11.99432L6,11.9881V9.9942H1.93549V26.42468H5.08954a3.5733,3.5733,0,0,0,6.89569,0h7.94055a3.57354,3.57354,0,0,0,6.89606,0h3.78558V19.413Zm-13.66162-2.8291V12.01178l4.9209-.01465,2.47656,4.35968ZM9.80206,26.42468a1.56268,1.56268,0,1,1,.32978-.96A1.587,1.587,0,0,1,9.80206,26.42468Zm14.837,0a1.563,1.563,0,1,1,.32922-.959A1.5873,1.5873,0,0,1,24.639,26.42468Z"/>
    </g>
  </g>
</svg>
