<svg xmlns="http://www.w3.org/2000/svg" width="32" height="32" viewBox="0 0 32 32">
  <defs>
    <style>
      .cls-1 {
        fill: #fff;
      }
    </style>
  </defs>
  <g id="hvitbak">
    <rect class="cls-1" width="32" height="32"/>
  </g>
  <g id="artwork_sort" data-name="artwork sort">
    <g>
      <rect x="3.47876" y="17.97345" width="3" height="7"/>
      <rect x="1.97876" y="25.98956" width="6" height="2"/>
      <rect x="24.00397" y="25.98956" width="6" height="2"/>
      <path d="M6.47876,4.946a1.5,1.5,0,0,0-3,0v1h3Z"/>
      <rect x="25.47876" y="17.97345" width="3" height="7"/>
      <path d="M28.47876,4.946a1.5,1.5,0,0,0-3,0v1h3Z"/>
      <polygon points="3.479 7.009 3.479 10.337 6.807 7.009 3.479 7.009"/>
      <polygon points="28.479 13.311 24.781 17.009 28.479 17.009 28.479 13.311"/>
      <polygon points="15.922 7.009 5.922 17.009 9.38 17.009 19.38 7.009 15.922 7.009"/>
      <polygon points="9.635 7.009 3.479 13.165 3.479 16.624 13.094 7.009 9.635 7.009"/>
      <polygon points="28.479 7.025 18.494 17.009 21.952 17.009 28.479 10.483 28.479 7.025"/>
      <polygon points="22.209 7.009 12.208 17.009 15.666 17.009 25.667 7.009 22.209 7.009"/>
    </g>
  </g>
</svg>
