<svg id="Layer_1" data-name="Layer 1" xmlns="http://www.w3.org/2000/svg" width="32" height="32" viewBox="0 0 32 32"><path d="M13.21,13.419,5.974,9.44l4.107-7.404H21.672l3.861,6.09-2.137,5.129-4.892-1.079L16.12,8.295Zm6.543-2.998,2.452.541,1.104-2.648L20.584,4.016H15.817ZM8.672,8.662l3.781,2.079,2.483-4.373L13.491,4.017H11.249ZM26.214,29.964h-6.99l-4.028-4.016,3.809-4.333,4.565-.126-2.983-5.082L27.65,12.13,32,19.377Zm-6.171-1.981H25.04l2.524-4.621-7.642.21-2.01,2.287ZM23.284,17.09l2.546,4.337,2.834-.078,1.053-1.926-2.743-4.567ZM14.267,29.964H5.794L0,19.873,3.698,13.15l5.512-.87,1.134,5.33L8.202,21.567l5.893-.042ZM6.942,27.983h5.303l-.091-4.463-5.028.036L5.803,26ZM2.273,19.852,4.644,23.98l3.611-6.673L7.663,14.53l-2.696.426Z"/></svg>