<svg id="Layer_1" data-name="Layer 1" xmlns="http://www.w3.org/2000/svg" width="32" height="32" viewBox="0 0 32 32"><path d="M3,1.085V11.66c0,7.656,4.682,14.758,12.524,18.997l.476.258.476-.257C24.318,26.418,29,19.317,29,11.661V1.085Zm13,27.55a24.57118,24.57118,0,0,1-5.561-4.262c-.005-.007-.005-.016-.011-.022a6.21334,6.21334,0,0,1-1.559-5.979c.458-2.435,2.287-3.685,4.036-4.945,1.377-.993,2.679-1.93,3.159-3.345a6.01442,6.01442,0,0,0,.305-1.571,5.00741,5.00741,0,0,1,.593,2.68,7.53851,7.53851,0,0,1-1.852,4.156,7.5001,7.5001,0,0,0-1.187,1.94,3.78623,3.78623,0,0,0,.601,3.851,4.12058,4.12058,0,0,0,3.903,1.235,4.41924,4.41924,0,0,0,3.299-3.145,6.43923,6.43923,0,0,0,.306-2.146,4.84757,4.84757,0,0,1,.986,2.682c.011.188.003.368.002.54-.019,2.662-1.095,3.672-1.095,3.672A24.32576,24.32576,0,0,1,16,28.635ZM27,11.661a17.20231,17.20231,0,0,1-1.989,7.947,7.25358,7.25358,0,0,0-2.517-4.973l-.285-.26H19.272l.487,1.341a4.40972,4.40972,0,0,1,.061,2.906,2.44313,2.44313,0,0,1-1.8,1.794,2.12159,2.12159,0,0,1-1.99-.595,1.79721,1.79721,0,0,1-.221-1.866,6.14561,6.14561,0,0,1,.896-1.402,9.46551,9.46551,0,0,0,2.249-5.194A8.50758,8.50758,0,0,0,16.376,5.1l-.296-.322H13.499l.5,1.348A5.03139,5.03139,0,0,1,14.17,9.44c-.274.808-1.275,1.529-2.435,2.364-1.868,1.346-4.134,2.915-4.827,6.174a5.85707,5.85707,0,0,0-.093,1.292A17.159,17.159,0,0,1,5,11.661V3.085H27Z"/></svg>