<svg id="Layer_1" data-name="Layer 1" xmlns="http://www.w3.org/2000/svg" width="32" height="32" viewBox="0 0 32 32"><path d="M8.837,21.012v1.793h6.451V20.838H11.773l1.991-1.902a3.926,3.926,0,0,0,1.512-2.88,2.93437,2.93437,0,0,0-3.232-2.872,3.1813,3.1813,0,0,0-3.267,2.789l-.032.286,2.04.315.041-.303c.039-.292.241-1.244,1.194-1.244a1.04951,1.04951,0,0,1,1.031.619,1.894,1.894,0,0,1-.731,1.948Zm11.254-7.604-3.879,5.864v1.706h4.062v1.827H22.34V20.978h1.229V19.099H22.34V13.408Zm.183,5.691H18.597l1.677-2.644Z"/><path d="M25.948,8.149,24.526,9.556A12.00979,12.00979,0,1,1,15.34,6.033V10L22,6.155V3.845L15.34,0V4.033A13.97228,13.97228,0,1,0,25.948,8.149Z"/></svg>