<svg id="Layer_1" data-name="Layer 1" xmlns="http://www.w3.org/2000/svg" width="32" height="32" viewBox="0 0 32 32"><path d="M26.941,16.565l1.469-1.469A8.84343,8.84343,0,0,0,15.903,2.59l-.403.403-.403-.403A8.84378,8.84378,0,0,0,2.59,15.097l1.815,1.815,9.682,9.682,1.412,1.412,1.065-1.065A7.99757,7.99757,0,1,0,26.941,16.565ZM15.5,25.182,5.818,15.5,4.003,13.685a6.84621,6.84621,0,0,1,9.682-9.682L15.5,5.818l1.815-1.815a6.84621,6.84621,0,0,1,9.682,9.682L25.182,15.5l-.533.533C24.435,16.016,24.219,16,24,16a8.00036,8.00036,0,0,0-8,8c0,.219.016.435.033.649ZM24,30a6,6,0,1,1,6-6A6.00732,6.00732,0,0,1,24,30Z"/><polygon points="25 20 23 20 23 23 20 23 20 25 23 25 23 28 25 28 25 25 28 25 28 23 25 23 25 20"/></svg>