<svg id="Layer_1" data-name="Layer 1" xmlns="http://www.w3.org/2000/svg" width="32" height="32" viewBox="0 0 32 32"><path d="M7.5,12.5C3.294,12.5,0,14.477,0,17V27.5C0,30.023,3.294,32,7.5,32S15,30.023,15,27.5V17C15,14.477,11.706,12.5,7.5,12.5Zm5.5,15c0,1.18-2.352,2.5-5.5,2.5S2,28.68,2,27.5v-.418A10.31908,10.31908,0,0,0,7.5,28.5,10.31908,10.31908,0,0,0,13,27.082ZM13,24c0,1.18-2.352,2.5-5.5,2.5S2,25.18,2,24v-.418A10.31908,10.31908,0,0,0,7.5,25,10.31908,10.31908,0,0,0,13,23.582Zm0-3.5c0,1.18-2.352,2.5-5.5,2.5S2,21.68,2,20.5v-.418A10.31908,10.31908,0,0,0,7.5,21.5,10.31908,10.31908,0,0,0,13,20.082Zm-5.5-1C4.352,19.5,2,18.18,2,17s2.352-2.5,5.5-2.5S13,15.82,13,17,10.648,19.5,7.5,19.5ZM24.5,0C20.294,0,17,1.977,17,4.5V22c0,2.523,3.294,4.5,7.5,4.5S32,24.523,32,22V4.5C32,1.977,28.706,0,24.5,0ZM30,22c0,1.18-2.353,2.5-5.5,2.5S19,23.18,19,22v-.418A10.31654,10.31654,0,0,0,24.5,23,10.31654,10.31654,0,0,0,30,21.582Zm0-3.5c0,1.18-2.353,2.5-5.5,2.5S19,19.68,19,18.5v-.418A10.31654,10.31654,0,0,0,24.5,19.5,10.31654,10.31654,0,0,0,30,18.082ZM30,15c0,1.18-2.353,2.5-5.5,2.5S19,16.18,19,15v-.418A10.31654,10.31654,0,0,0,24.5,16,10.31654,10.31654,0,0,0,30,14.582Zm0-3.5c0,1.18-2.353,2.5-5.5,2.5S19,12.68,19,11.5v-.418A10.31654,10.31654,0,0,0,24.5,12.5,10.31654,10.31654,0,0,0,30,11.082ZM30,8c0,1.18-2.353,2.5-5.5,2.5S19,9.18,19,8V7.582A10.31654,10.31654,0,0,0,24.5,9,10.31654,10.31654,0,0,0,30,7.582ZM24.5,7C21.353,7,19,5.68,19,4.5S21.353,2,24.5,2,30,3.32,30,4.5,27.647,7,24.5,7Z"/></svg>