<svg id="Layer_1" data-name="Layer 1" xmlns="http://www.w3.org/2000/svg" width="32" height="32" viewBox="0 0 32 32"><path d="M30.022,18.163l-3.027-2.154V15.5l-2-10h-4v-4h-10v4h-4l-2,10v.459L2.004,18.083,1.978,28.459l3.018.009V30.5h22V28.532l3.001.009ZM12.995,3.5h6v2h-6v-2Zm10.361,4,.868,4.341L21.633,14H9.909L7.764,11.855,8.635,7.5ZM3.983,26.465l.019-7.347.994-.706v8.056ZM24.995,28.5h-18V15.698l.297-1.487L9.081,16H22.357l2.313-1.927.325,1.626V28.5Zm3.007-1.965-1.006-.003V18.463l1.025.729Z"/><rect x="10.995" y="19.5" width="10" height="2"/></svg>