<svg id="Layer_1" data-name="Layer 1" xmlns="http://www.w3.org/2000/svg" width="419.99958mm" height="297.00008mm" viewBox="0 0 1190.55 841.89"><defs><style>.cls-1{fill:#034b45;}.cls-2{fill:#f9c66b;}.cls-3{fill:#a6a8ab;}.cls-4{fill:#231f20;}.cls-5{fill:#ff8274;}.cls-6{fill:#f7efdb;}.cls-7{fill:#404041;}.cls-8{fill:#d0bfae;}.cls-9{fill:#474648;}.cls-10{fill:#cfbeac;}.cls-11{fill:#b0f4ff;}.cls-12{fill:#69e8ff;}.cls-13{fill:#eaeaeb;}.cls-14{fill:#2a265a;}.cls-15{fill:#f9c663;}.cls-16{fill:#c7f6c9;}.cls-17{fill:#f8f0dd;}.cls-18{fill:#43f8b6;}</style></defs><title>Oslo-illustrasjoner_rgb</title><rect class="cls-1" x="132.356" y="180.23308" width="4.4681" height="4.4681" transform="translate(317.05718 47.87708) rotate(90)"/><rect class="cls-1" x="132.356" y="175.76498" width="4.4681" height="4.4681" transform="translate(312.58908 43.40898) rotate(90)"/><rect class="cls-1" x="132.48222" y="120.77707" width="4.09757" height="28.68296" transform="translate(269.64955 0.58756) rotate(90)"/><rect class="cls-1" x="132.48222" y="128.95335" width="4.09757" height="28.68296" transform="translate(277.82583 8.76383) rotate(90)"/><rect class="cls-1" x="132.48222" y="137.12962" width="4.09757" height="28.68296" transform="translate(286.0021 16.94011) rotate(90)"/><rect class="cls-2" x="132.48222" y="124.85578" width="4.09757" height="28.68296" transform="translate(273.72826 4.66626) rotate(90)"/><rect class="cls-2" x="132.48222" y="133.03206" width="4.09757" height="28.68296" transform="translate(281.90454 12.84254) rotate(90)"/><rect class="cls-2" x="132.48222" y="141.20833" width="4.09757" height="28.68296" transform="translate(290.08081 21.01882) rotate(90)"/><rect class="cls-2" x="132.48222" y="149.38461" width="4.09757" height="28.68296" transform="translate(298.25709 29.19509) rotate(90)"/><rect class="cls-1" x="132.48222" y="145.3059" width="4.09757" height="28.68296" transform="translate(294.17838 25.11638) rotate(90)"/><circle class="cls-1" cx="134.57114" cy="118.66548" r="14.37965"/><path class="cls-1" d="M148.95079,165.82879a14.37965,14.37965,0,1,1-28.7593,0"/><path class="cls-1" d="M148.87248,133.06977v24.52882a24.39372,24.39372,0,0,0,24.52882-24.52882Z"/><path class="cls-1" d="M120.18952,133.06977v24.52882A24.39372,24.39372,0,0,1,95.6607,133.06977Z"/><polygon class="cls-1" points="137.32 98.318 137.32 100.8 134.838 100.8 134.838 103.282 137.32 103.282 139.803 103.282 139.803 100.8 139.803 98.318 137.32 98.318"/><polygon class="cls-1" points="132.356 98.318 129.874 98.318 129.874 100.8 129.874 103.282 132.356 103.282 134.838 103.282 134.838 100.8 132.356 100.8 132.356 98.318"/><rect class="cls-1" x="270.11507" y="168.27863" width="4.4681" height="4.4681" transform="translate(585.49971 98.50343) rotate(135)"/><rect class="cls-1" x="273.2745" y="165.1192" width="4.4681" height="4.4681" transform="translate(588.65914 90.8759) rotate(135)"/><rect class="cls-1" x="303.73909" y="122.64894" width="4.09757" height="28.68296" transform="translate(618.8794 17.6326) rotate(135)"/><rect class="cls-1" x="297.95759" y="128.43044" width="4.09757" height="28.68296" transform="translate(613.0979 31.59037) rotate(135)"/><rect class="cls-1" x="292.17609" y="134.21194" width="4.09757" height="28.68296" transform="translate(607.3164 45.54815) rotate(135)"/><rect class="cls-2" x="300.855" y="125.53302" width="4.09757" height="28.68296" transform="translate(615.99532 24.59539) rotate(135)"/><rect class="cls-2" x="295.0735" y="131.31452" width="4.09757" height="28.68296" transform="translate(610.21382 38.55317) rotate(135)"/><rect class="cls-2" x="289.292" y="137.09602" width="4.09757" height="28.68296" transform="translate(604.43232 52.51094) rotate(135)"/><rect class="cls-2" x="283.5105" y="142.87752" width="4.09757" height="28.68296" transform="translate(598.65082 66.46872) rotate(135)"/><rect class="cls-1" x="286.39459" y="139.99344" width="4.09757" height="28.68296" transform="translate(601.5349 59.50592) rotate(135)"/><circle class="cls-1" cx="317.45033" cy="125.38473" r="14.37965"/><path class="cls-1" d="M294.26878,168.90217a14.37965,14.37965,0,1,1-20.33589-20.33589"/><path class="cls-1" d="M317.37754,145.68267,300.033,163.02716a24.39371,24.39371,0,0,0,34.689,0Z"/><path class="cls-1" d="M297.09562,125.40075l-17.34449,17.3445a24.39371,24.39371,0,0,1,0-34.689Z"/><polygon class="cls-1" points="333.782 112.941 332.027 114.696 330.272 112.941 328.517 114.696 330.272 116.451 332.027 118.206 333.782 116.451 335.538 114.696 333.782 112.941"/><polygon class="cls-1" points="330.272 109.43 328.517 107.675 326.761 109.43 325.006 111.186 326.762 112.941 328.517 114.696 330.272 112.941 328.517 111.186 330.272 109.43"/><rect class="cls-1" x="497.80132" y="168.45409" width="4.4681" height="4.4681" transform="translate(267.15171 -303.585) rotate(45)"/><rect class="cls-1" x="494.64189" y="165.29467" width="4.4681" height="4.4681" transform="translate(263.99229 -302.27632) rotate(45)"/><rect class="cls-1" x="464.46433" y="122.90792" width="4.09757" height="28.68296" transform="translate(233.68851 -289.67517) rotate(45)"/><rect class="cls-1" x="470.24583" y="128.68942" width="4.09757" height="28.68296" transform="translate(239.47001 -292.06994) rotate(45)"/><rect class="cls-1" x="476.02733" y="134.47092" width="4.09757" height="28.68296" transform="translate(245.25151 -294.46472) rotate(45)"/><rect class="cls-2" x="467.34841" y="125.79201" width="4.09757" height="28.68296" transform="translate(236.57259 -290.86979) rotate(45)"/><rect class="cls-2" x="473.12991" y="131.57351" width="4.09757" height="28.68296" transform="translate(242.35409 -293.26457) rotate(45)"/><rect class="cls-2" x="478.91141" y="137.35501" width="4.09757" height="28.68296" transform="translate(248.13559 -295.65934) rotate(45)"/><rect class="cls-2" x="484.69291" y="143.13651" width="4.09757" height="28.68296" transform="translate(253.91709 -298.05412) rotate(45)"/><rect class="cls-1" x="481.80883" y="140.25242" width="4.09757" height="28.68296" transform="translate(251.03301 -296.85949) rotate(45)"/><circle class="cls-1" cx="454.90742" cy="125.58694" r="14.37965"/><path class="cls-1" d="M498.42486,148.76849A14.37965,14.37965,0,1,1,478.089,169.10438"/><path class="cls-1" d="M475.20536,125.65974l17.34449,17.34449a24.39371,24.39371,0,0,0,0-34.689Z"/><path class="cls-1" d="M454.92344,145.94165l17.3445,17.3445a24.39373,24.39373,0,0,1-34.689,0Z"/><polygon class="cls-1" points="442.463 109.255 444.219 111.01 442.464 112.765 444.219 114.52 445.974 112.765 447.729 111.01 445.974 109.255 444.219 107.5 442.463 109.255"/><polygon class="cls-1" points="438.953 112.765 437.198 114.521 438.953 116.276 440.708 118.031 442.463 116.276 444.219 114.521 442.463 112.765 440.708 114.521 438.953 112.765"/><rect class="cls-3" x="731.73662" y="124.85578" width="4.09757" height="28.68296" transform="translate(872.98266 -594.58814) rotate(90)"/><rect class="cls-3" x="731.73662" y="133.03206" width="4.09757" height="28.68296" transform="translate(881.15894 -586.41186) rotate(90)"/><rect class="cls-3" x="731.73662" y="141.20833" width="4.09757" height="28.68296" transform="translate(889.33521 -578.23559) rotate(90)"/><rect class="cls-3" x="731.73662" y="149.38461" width="4.09757" height="28.68296" transform="translate(897.51149 -570.05931) rotate(90)"/><rect class="cls-4" x="731.6104" y="180.23308" width="4.4681" height="4.4681" transform="translate(916.31158 -551.37732) rotate(90)"/><rect class="cls-4" x="731.6104" y="175.76498" width="4.4681" height="4.4681" transform="translate(911.84348 -555.84543) rotate(90)"/><rect class="cls-4" x="731.73662" y="120.77707" width="4.09757" height="28.68296" transform="translate(868.90395 -598.66685) rotate(90)"/><rect class="cls-4" x="731.73662" y="128.95335" width="4.09757" height="28.68296" transform="translate(877.08023 -590.49057) rotate(90)"/><rect class="cls-4" x="731.73662" y="137.12962" width="4.09757" height="28.68296" transform="translate(885.2565 -582.3143) rotate(90)"/><rect class="cls-4" x="731.73662" y="145.3059" width="4.09757" height="28.68296" transform="translate(893.43278 -574.13802) rotate(90)"/><circle class="cls-4" cx="733.82554" cy="118.66548" r="14.37965"/><path class="cls-4" d="M748.20519,165.82879a14.37964,14.37964,0,1,1-28.75929,0"/><path class="cls-4" d="M748.12688,133.06977v24.52882a24.39372,24.39372,0,0,0,24.52882-24.52882Z"/><path class="cls-4" d="M719.44392,133.06977v24.52882a24.39372,24.39372,0,0,1-24.52882-24.52882Z"/><polygon class="cls-4" points="736.575 98.318 736.575 100.8 734.093 100.8 734.093 103.282 736.575 103.282 739.057 103.282 739.057 100.8 739.057 98.318 736.575 98.318"/><polygon class="cls-4" points="731.61 98.318 729.128 98.318 729.128 100.8 729.128 103.282 731.61 103.282 734.093 103.282 734.093 100.8 731.61 100.8 731.61 98.318"/><rect class="cls-3" x="873.52901" y="125.53302" width="4.09757" height="28.68296" transform="translate(355.35701 -578.1587) rotate(45)"/><rect class="cls-3" x="879.3105" y="131.31452" width="4.09757" height="28.68296" transform="translate(361.13851 -580.55347) rotate(45)"/><rect class="cls-3" x="885.092" y="137.09602" width="4.09757" height="28.68296" transform="translate(366.92001 -582.94825) rotate(45)"/><rect class="cls-3" x="890.8735" y="142.87752" width="4.09757" height="28.68296" transform="translate(372.70151 -585.34302) rotate(45)"/><rect class="cls-4" x="903.98191" y="168.19511" width="4.4681" height="4.4681" transform="translate(385.93613 -590.87391) rotate(45)"/><rect class="cls-4" x="900.82248" y="165.03568" width="4.4681" height="4.4681" transform="translate(382.7767 -589.56523) rotate(45)"/><rect class="cls-4" x="870.64492" y="122.64894" width="4.09757" height="28.68296" transform="translate(352.47292 -576.96407) rotate(45)"/><rect class="cls-4" x="876.42642" y="128.43044" width="4.09757" height="28.68296" transform="translate(358.25442 -579.35885) rotate(45)"/><rect class="cls-4" x="882.20792" y="134.21194" width="4.09757" height="28.68296" transform="translate(364.03592 -581.75362) rotate(45)"/><rect class="cls-4" x="887.98942" y="139.99344" width="4.09757" height="28.68296" transform="translate(369.81742 -584.1484) rotate(45)"/><circle class="cls-4" cx="861.08801" cy="125.32796" r="14.37965"/><path class="cls-4" d="M904.60546,148.50951a14.37965,14.37965,0,1,1-20.3359,20.33589"/><path class="cls-4" d="M881.386,125.40075l17.34449,17.3445a24.39373,24.39373,0,0,0,0-34.689Z"/><path class="cls-4" d="M861.104,145.68267l17.34449,17.34449a24.3937,24.3937,0,0,1-34.689,0Z"/><polygon class="cls-4" points="848.644 108.996 850.399 110.751 848.644 112.506 850.399 114.261 852.154 112.506 853.91 110.751 852.155 108.996 850.399 107.241 848.644 108.996"/><polygon class="cls-4" points="845.134 112.506 843.378 114.262 845.134 116.017 846.889 117.772 848.644 116.017 850.399 114.262 848.644 112.506 846.889 114.262 845.134 112.506"/><rect class="cls-3" x="1017.45976" y="125.27404" width="4.09757" height="28.68296" transform="translate(1839.13302 -482.5628) rotate(135)"/><rect class="cls-3" x="1011.67826" y="131.05554" width="4.09757" height="28.68296" transform="translate(1833.35152 -468.60503) rotate(135)"/><rect class="cls-3" x="1005.89676" y="136.83704" width="4.09757" height="28.68296" transform="translate(1827.57002 -454.64725) rotate(135)"/><rect class="cls-3" x="1000.11526" y="142.61854" width="4.09757" height="28.68296" transform="translate(1821.78852 -440.68948) rotate(135)"/><rect class="cls-4" x="986.71983" y="168.01964" width="4.4681" height="4.4681" transform="translate(1808.63741 -408.65476) rotate(135)"/><rect class="cls-4" x="989.87925" y="164.86022" width="4.4681" height="4.4681" transform="translate(1811.79684 -416.28229) rotate(135)"/><rect class="cls-4" x="1020.34384" y="122.38995" width="4.09757" height="28.68296" transform="translate(1842.0171 -489.52559) rotate(135)"/><rect class="cls-4" x="1014.56234" y="128.17145" width="4.09757" height="28.68296" transform="translate(1836.2356 -475.56782) rotate(135)"/><rect class="cls-4" x="1008.78084" y="133.95295" width="4.09757" height="28.68296" transform="translate(1830.4541 -461.61004) rotate(135)"/><rect class="cls-4" x="1002.99934" y="139.73445" width="4.09757" height="28.68296" transform="translate(1824.6726 -447.65227) rotate(135)"/><circle class="cls-4" cx="1034.05508" cy="125.12574" r="14.37965"/><path class="cls-4" d="M1010.87353,168.64319a14.37965,14.37965,0,1,1-20.33589-20.3359"/><path class="cls-4" d="M1033.98229,145.42369l-17.34449,17.34449a24.39371,24.39371,0,0,0,34.689,0Z"/><path class="cls-4" d="M1013.70037,125.14177l-17.34449,17.34449a24.39371,24.39371,0,0,1,0-34.689Z"/><polygon class="cls-4" points="1050.387 112.682 1048.632 114.437 1046.877 112.682 1045.122 114.437 1046.877 116.192 1048.632 117.947 1050.387 116.192 1052.142 114.437 1050.387 112.682"/><polygon class="cls-4" points="1046.877 109.171 1045.121 107.416 1043.366 109.171 1041.611 110.927 1043.366 112.682 1045.121 114.437 1046.877 112.682 1045.121 110.927 1046.877 109.171"/><rect class="cls-5" x="93.26989" y="320.38571" width="80" height="18"/><rect class="cls-6" x="93.26989" y="341.38571" width="80" height="44"/><rect class="cls-5" x="93.26989" y="385.42453" width="80" height="21.96118"/><rect class="cls-7" x="93.26989" y="338.38571" width="80" height="3"/><rect class="cls-7" x="93.26989" y="385.38571" width="80" height="4"/><rect class="cls-7" x="123.26989" y="389.38571" width="20" height="4"/><rect class="cls-7" x="123.26989" y="397.38571" width="20" height="4"/><rect class="cls-7" x="100.26989" y="324.38571" width="66.25961" height="9"/><rect class="cls-7" x="100.26989" y="407.38571" width="14" height="15"/><rect class="cls-7" x="153.26989" y="407.38571" width="13" height="15"/><polygon class="cls-8" points="115.27 341.386 110.27 341.386 93.27 341.386 93.27 357.386 93.27 363.386 93.27 385.386 115.27 385.386 115.27 363.386 173.27 363.386 173.27 341.386 115.27 341.386"/><circle class="cls-7" cx="109.26989" cy="399.38571" r="5"/><circle class="cls-6" cx="109.76989" cy="328.88571" r="2.5"/><circle class="cls-7" cx="157.26989" cy="399.38571" r="5"/><rect class="cls-6" x="104.26989" y="326.38571" width="2" height="5"/><rect class="cls-5" x="292.40389" y="320.38571" width="209" height="87"/><rect class="cls-7" x="296.40389" y="333.38571" width="30" height="71"/><rect class="cls-5" x="212.40389" y="320.38571" width="80" height="18"/><rect class="cls-6" x="212.40389" y="341.38571" width="80" height="44"/><rect class="cls-5" x="212.40389" y="385.42453" width="80" height="21.96118"/><rect class="cls-9" x="212.40389" y="338.38571" width="80" height="3"/><rect class="cls-6" x="299.40389" y="338.38571" width="11" height="61"/><rect class="cls-6" x="329.40389" y="338.38571" width="11" height="37"/><rect class="cls-6" x="344.40389" y="338.38571" width="21" height="37"/><rect class="cls-6" x="369.40389" y="338.38571" width="26" height="27"/><rect class="cls-6" x="436.40389" y="338.38571" width="26" height="27"/><rect class="cls-6" x="468.40389" y="338.38571" width="26" height="27"/><rect class="cls-9" x="474.40389" y="377.38571" width="20" height="4"/><rect class="cls-9" x="474.40389" y="385.38571" width="20" height="4"/><rect class="cls-9" x="474.40389" y="393.38571" width="20" height="4"/><rect class="cls-6" x="312.40389" y="338.38571" width="11" height="61"/><rect class="cls-7" x="401.40389" y="333.38571" width="30" height="71"/><rect class="cls-6" x="404.40389" y="338.38571" width="11" height="61"/><rect class="cls-6" x="417.40389" y="338.38571" width="11" height="61"/><rect class="cls-9" x="212.40389" y="385.38571" width="80" height="4"/><rect class="cls-9" x="242.40389" y="389.38571" width="20" height="4"/><rect class="cls-9" x="242.40389" y="397.38571" width="20" height="4"/><rect class="cls-7" x="219.40389" y="324.38571" width="66.25961" height="9"/><rect class="cls-7" x="291.40389" y="320.38571" width="210" height="4"/><polygon class="cls-8" points="234.404 341.386 212.404 341.386 212.404 363.386 212.404 385.386 234.404 385.386 234.404 363.386 292.404 363.386 292.404 341.386 234.404 341.386"/><circle class="cls-9" cx="228.40389" cy="399.38571" r="5"/><circle class="cls-6" cx="228.90389" cy="328.88571" r="2.5"/><circle class="cls-9" cx="276.40389" cy="399.38571" r="5"/><rect class="cls-6" x="223.40389" y="326.38571" width="2" height="5"/><path class="cls-7" d="M291.90389,407.38571a16,16,0,0,1-32,0"/><circle class="cls-7" cx="345.40389" cy="407.38571" r="16"/><circle class="cls-7" cx="453.40389" cy="407.38571" r="16"/><polygon class="cls-8" points="352.404 338.386 344.404 338.386 344.404 346.386 344.404 354.386 352.404 354.386 352.404 346.386 360.404 346.386 360.404 338.386 352.404 338.386"/><polygon class="cls-8" points="377.404 338.386 369.404 338.386 369.404 346.386 369.404 354.386 377.404 354.386 377.404 346.386 385.404 346.386 385.404 338.386 377.404 338.386"/><polygon class="cls-10" points="444.404 338.386 436.404 338.386 436.404 346.386 436.404 354.386 444.404 354.386 444.404 346.386 452.404 346.386 452.404 338.386 444.404 338.386"/><polygon class="cls-10" points="476.404 338.386 468.404 338.386 468.404 346.386 468.404 354.386 476.404 354.386 476.404 346.386 484.404 346.386 484.404 338.386 476.404 338.386"/><rect class="cls-11" x="282.89503" y="538.00588" width="229" height="121"/><rect class="cls-12" x="282.90622" y="601.00588" width="229.0137" height="28"/><rect class="cls-11" x="277.89503" y="645.00588" width="234.02488" height="14"/><rect class="cls-12" x="208.904" y="538.00588" width="73.99103" height="91"/><rect class="cls-6" x="211.89503" y="549.00588" width="68" height="77"/><circle class="cls-10" cx="214.39503" cy="544.50588" r="2.5"/><circle class="cls-13" cx="219.39503" cy="544.50588" r="2.5"/><circle class="cls-13" cx="272.39503" cy="544.50588" r="2.5"/><circle class="cls-10" cx="277.39503" cy="544.50588" r="2.5"/><path class="cls-14" d="M248.47836,606.00588a10.62555,10.62555,0,0,1,10.58744-10.41667,10.33235,10.33235,0,0,1,10.2459,10.41667"/><circle class="cls-15" cx="258.89503" cy="587.95032" r="6.94444"/><path class="cls-10" d="M251.95059,587.95032a6.94445,6.94445,0,1,0,13.88889,0Z"/><rect class="cls-14" x="220.89503" y="549.00588" width="50" height="11"/><rect class="cls-14" x="211.89503" y="606.00588" width="68" height="20"/><rect class="cls-11" x="208.904" y="629.00588" width="73.99103" height="16"/><polygon class="cls-12" points="286.895 659.006 217.895 659.006 208.895 645.006 278.895 645.006 286.895 659.006"/><rect class="cls-14" x="273.89503" y="638.00588" width="5" height="5"/><rect class="cls-10" x="346.89503" y="612.00588" width="24" height="4"/><rect class="cls-10" x="346.89503" y="619.00588" width="24" height="4"/><rect class="cls-10" x="477.89503" y="612.00588" width="24" height="4"/><rect class="cls-10" x="477.89503" y="619.00588" width="24" height="4"/><rect class="cls-14" x="212.89503" y="638.00588" width="5" height="5"/><rect class="cls-14" x="346.89503" y="560.00588" width="154.94737" height="46"/><rect class="cls-14" x="403.78977" y="606.00588" width="42.36842" height="46"/><rect class="cls-6" x="351.73714" y="565.5205" width="29.15789" height="35.77778"/><rect class="cls-6" x="378.36872" y="565.5205" width="24.21053" height="35.77778"/><rect class="cls-6" x="446.15819" y="565.5205" width="27.73684" height="35.77778"/><rect class="cls-6" x="472.78977" y="565.5205" width="24.21053" height="35.77778"/><rect class="cls-6" x="408.63187" y="565.5205" width="14.52632" height="58.64327"/><rect class="cls-6" x="426.78977" y="565.5205" width="14.52632" height="58.64327"/><rect class="cls-14" x="292.78977" y="560.00588" width="42.36842" height="92"/><rect class="cls-6" x="297.63187" y="565.5205" width="14.52632" height="58.64327"/><rect class="cls-6" x="315.78977" y="565.5205" width="14.52632" height="58.64327"/><rect class="cls-12" x="282.88133" y="538.00588" width="229.0137" height="7"/><rect class="cls-14" x="217.89503" y="659.00588" width="294.02488" height="4"/><rect class="cls-12" x="93.27886" y="538.00588" width="73.99103" height="91"/><rect class="cls-6" x="96.26989" y="549.00588" width="68" height="77"/><circle class="cls-10" cx="98.76989" cy="544.50588" r="2.5"/><circle class="cls-13" cx="103.76989" cy="544.50588" r="2.5"/><circle class="cls-13" cx="156.76989" cy="544.50588" r="2.5"/><circle class="cls-10" cx="161.76989" cy="544.50588" r="2.5"/><path class="cls-14" d="M132.85323,606.00588a10.62555,10.62555,0,0,1,10.58743-10.41667,10.33235,10.33235,0,0,1,10.2459,10.41667"/><circle class="cls-15" cx="143.26989" cy="587.95032" r="6.94444"/><path class="cls-10" d="M136.32545,587.95032a6.94445,6.94445,0,1,0,13.88889,0Z"/><rect class="cls-14" x="105.26989" y="549.00588" width="50" height="11"/><rect class="cls-14" x="96.26989" y="606.00588" width="68" height="20"/><rect class="cls-11" x="93.27886" y="629.00588" width="73.99103" height="16"/><polygon class="cls-12" points="158.27 659.006 102.27 659.006 93.27 645.006 167.27 645.006 158.27 659.006"/><rect class="cls-14" x="158.26989" y="638.00588" width="5" height="5"/><rect class="cls-14" x="97.26989" y="638.00588" width="5" height="5"/><rect class="cls-14" x="102.26989" y="659.00588" width="56" height="4"/><rect class="cls-16" x="694.9151" y="320.38571" width="80" height="18"/><rect class="cls-17" x="694.9151" y="341.38571" width="80" height="44"/><rect class="cls-16" x="694.9151" y="385.42453" width="80" height="21.96118"/><rect class="cls-1" x="694.9151" y="338.38571" width="80" height="3"/><rect class="cls-1" x="694.9151" y="385.38571" width="80" height="4"/><rect class="cls-1" x="724.9151" y="389.38571" width="20" height="4"/><rect class="cls-1" x="724.9151" y="397.38571" width="20" height="4"/><rect class="cls-1" x="701.9151" y="324.38571" width="66.25961" height="9"/><rect class="cls-1" x="701.9151" y="407.38571" width="14" height="15"/><rect class="cls-1" x="754.9151" y="407.38571" width="13" height="15"/><polygon class="cls-8" points="716.915 341.386 711.915 341.386 694.915 341.386 694.915 357.386 694.915 363.386 694.915 385.386 716.915 385.386 716.915 363.386 774.915 363.386 774.915 341.386 716.915 341.386"/><circle class="cls-1" cx="710.9151" cy="399.38571" r="5"/><circle class="cls-6" cx="711.4151" cy="328.88571" r="2.5"/><circle class="cls-1" cx="758.9151" cy="399.38571" r="5"/><rect class="cls-6" x="705.9151" y="326.38571" width="2" height="5"/><rect class="cls-16" x="894.0491" y="320.38571" width="209" height="87"/><rect class="cls-1" x="898.0491" y="333.38571" width="30" height="71"/><rect class="cls-16" x="814.0491" y="320.38571" width="80" height="18"/><rect class="cls-17" x="814.0491" y="341.38571" width="80" height="44"/><rect class="cls-16" x="814.0491" y="385.42453" width="80" height="21.96118"/><rect class="cls-9" x="814.0491" y="338.38571" width="80" height="3"/><rect class="cls-17" x="901.0491" y="338.38571" width="11" height="61"/><rect class="cls-17" x="931.0491" y="338.38571" width="11" height="37"/><rect class="cls-17" x="946.0491" y="338.38571" width="21" height="37"/><rect class="cls-17" x="971.0491" y="338.38571" width="26" height="27"/><rect class="cls-17" x="1038.0491" y="338.38571" width="26" height="27"/><rect class="cls-17" x="1070.0491" y="338.38571" width="26" height="27"/><rect class="cls-1" x="1076.0491" y="377.38571" width="20" height="4"/><rect class="cls-1" x="1076.0491" y="385.38571" width="20" height="4"/><rect class="cls-1" x="1076.0491" y="393.38571" width="20" height="4"/><rect class="cls-17" x="914.0491" y="338.38571" width="11" height="61"/><rect class="cls-1" x="1003.0491" y="333.38571" width="30" height="71"/><rect class="cls-17" x="1006.0491" y="338.38571" width="11" height="61"/><rect class="cls-17" x="1019.0491" y="338.38571" width="11" height="61"/><rect class="cls-1" x="814.0491" y="385.38571" width="80" height="4"/><rect class="cls-1" x="844.0491" y="389.38571" width="20" height="4"/><rect class="cls-1" x="844.0491" y="397.38571" width="20" height="4"/><rect class="cls-1" x="821.0491" y="324.38571" width="66.25961" height="9"/><rect class="cls-1" x="893.0491" y="320.38571" width="210" height="4"/><polygon class="cls-8" points="836.049 341.386 814.049 341.386 814.049 363.386 814.049 385.386 836.049 385.386 836.049 363.386 894.049 363.386 894.049 341.386 836.049 341.386"/><circle class="cls-1" cx="830.0491" cy="399.38571" r="5"/><circle class="cls-6" cx="830.5491" cy="328.88571" r="2.5"/><circle class="cls-1" cx="878.0491" cy="399.38571" r="5"/><rect class="cls-6" x="825.0491" y="326.38571" width="2" height="5"/><path class="cls-1" d="M893.5491,407.38571a16,16,0,0,1-32,0"/><circle class="cls-1" cx="947.0491" cy="407.38571" r="16"/><circle class="cls-1" cx="1055.0491" cy="407.38571" r="16"/><polygon class="cls-8" points="954.049 338.386 946.049 338.386 946.049 346.386 946.049 354.386 954.049 354.386 954.049 346.386 962.049 346.386 962.049 338.386 954.049 338.386"/><polygon class="cls-8" points="979.049 338.386 971.049 338.386 971.049 346.386 971.049 354.386 979.049 354.386 979.049 346.386 987.049 346.386 987.049 338.386 979.049 338.386"/><polygon class="cls-8" points="1046.049 338.386 1038.049 338.386 1038.049 346.386 1038.049 354.386 1046.049 354.386 1046.049 346.386 1054.049 346.386 1054.049 338.386 1046.049 338.386"/><polygon class="cls-8" points="1078.049 338.386 1070.049 338.386 1070.049 346.386 1070.049 354.386 1078.049 354.386 1078.049 346.386 1086.049 346.386 1086.049 338.386 1078.049 338.386"/><rect class="cls-16" x="884.54024" y="538.00588" width="229" height="121"/><rect class="cls-18" x="884.55142" y="601.00588" width="229.0137" height="28"/><rect class="cls-16" x="879.54024" y="645.00588" width="234.02488" height="14"/><rect class="cls-16" x="810.54921" y="538.00588" width="73.99103" height="91"/><rect class="cls-6" x="813.54024" y="549.00588" width="68" height="77"/><circle class="cls-1" cx="816.04024" cy="544.50588" r="2.5"/><circle class="cls-18" cx="821.04024" cy="544.50588" r="2.5"/><circle class="cls-18" cx="874.04024" cy="544.50588" r="2.5"/><circle class="cls-1" cx="879.04024" cy="544.50588" r="2.5"/><path class="cls-1" d="M850.12357,606.00588A10.62555,10.62555,0,0,1,860.711,595.58921a10.33235,10.33235,0,0,1,10.24591,10.41667"/><path class="cls-1" d="M867.48468,587.95032a6.94444,6.94444,0,0,0-13.88889,0"/><path class="cls-8" d="M853.59579,587.95032a6.94445,6.94445,0,1,0,13.88889,0Z"/><rect class="cls-1" x="822.54024" y="549.00588" width="50" height="11"/><rect class="cls-1" x="813.54024" y="606.00588" width="68" height="20"/><rect class="cls-16" x="810.54921" y="629.00588" width="73.99103" height="16"/><polygon class="cls-18" points="888.54 659.006 819.54 659.006 810.54 645.006 880.54 645.006 888.54 659.006"/><rect class="cls-1" x="875.54024" y="638.00588" width="5" height="5"/><rect class="cls-16" x="948.54024" y="612.00588" width="24" height="4"/><rect class="cls-16" x="948.54024" y="619.00588" width="24" height="4"/><rect class="cls-16" x="1079.54024" y="612.00588" width="24" height="4"/><rect class="cls-16" x="1079.54024" y="619.00588" width="24" height="4"/><rect class="cls-1" x="814.54024" y="638.00588" width="5" height="5"/><rect class="cls-1" x="948.54024" y="560.00588" width="154.94737" height="46"/><rect class="cls-1" x="1005.43498" y="606.00588" width="42.36842" height="46"/><rect class="cls-6" x="953.38234" y="565.5205" width="29.15789" height="35.77778"/><rect class="cls-6" x="980.01392" y="565.5205" width="24.21053" height="35.77778"/><rect class="cls-6" x="1047.8034" y="565.5205" width="27.73684" height="35.77778"/><rect class="cls-6" x="1074.43498" y="565.5205" width="24.21053" height="35.77778"/><rect class="cls-6" x="1010.27708" y="565.5205" width="14.52632" height="58.64327"/><rect class="cls-6" x="1028.43498" y="565.5205" width="14.52632" height="58.64327"/><rect class="cls-1" x="894.43498" y="560.00588" width="42.36842" height="92"/><rect class="cls-6" x="899.27708" y="565.5205" width="14.52632" height="58.64327"/><rect class="cls-6" x="917.43498" y="565.5205" width="14.52632" height="58.64327"/><rect class="cls-1" x="884.52654" y="538.00588" width="229.0137" height="7"/><rect class="cls-1" x="819.54024" y="659.00588" width="294.02488" height="4"/><rect class="cls-16" x="694.92407" y="538.00588" width="73.99103" height="91"/><rect class="cls-6" x="697.9151" y="549.00588" width="68" height="77"/><circle class="cls-1" cx="700.4151" cy="544.50588" r="2.5"/><circle class="cls-18" cx="705.4151" cy="544.50588" r="2.5"/><circle class="cls-18" cx="758.4151" cy="544.50588" r="2.5"/><circle class="cls-1" cx="763.4151" cy="544.50588" r="2.5"/><path class="cls-1" d="M734.49844,606.00588a10.62555,10.62555,0,0,1,10.58743-10.41667,10.33235,10.33235,0,0,1,10.2459,10.41667"/><path class="cls-1" d="M751.85955,587.95032a6.94445,6.94445,0,0,0-13.88889,0"/><path class="cls-8" d="M737.97066,587.95032a6.94445,6.94445,0,1,0,13.88889,0Z"/><rect class="cls-1" x="706.9151" y="549.00588" width="50" height="11"/><rect class="cls-1" x="696.79614" y="606.00588" width="70.23792" height="20.65821"/><rect class="cls-16" x="694.92407" y="629.00588" width="73.99103" height="16"/><polygon class="cls-18" points="759.915 659.006 703.915 659.006 694.915 645.006 768.915 645.006 759.915 659.006"/><rect class="cls-1" x="759.9151" y="638.00588" width="5" height="5"/><rect class="cls-1" x="698.9151" y="638.00588" width="5" height="5"/><rect class="cls-1" x="703.9151" y="659.00588" width="56" height="4"/></svg>