<svg id="Layer_1" data-name="Layer 1" xmlns="http://www.w3.org/2000/svg" width="419.99958mm" height="297.00008mm" viewBox="0 0 1190.55 841.89"><defs><style>.cls-1{fill:#d0bfae;}.cls-2{fill:#2a2859;}.cls-3{fill:#6ee7fd;}.cls-4{fill:#43f8b6;}.cls-5{fill:#034b45;}.cls-6{fill:#f8f0dd;}.cls-7{fill:#808184;}.cls-8{fill:#bbbdbf;}.cls-9{fill:#cfbeac;}.cls-10{fill:#f9c665;}.cls-11{fill:#b3f5ff;}.cls-12{fill:#c5f6c6;}.cls-13{fill:#2a265a;}.cls-14{fill:#fff;}.cls-15{fill:#f9c66b;}.cls-16{fill:#c7f6c9;}.cls-17{fill:#ff8274;}.cls-18{fill:#6fe9ff;}.cls-19{fill:#58595b;}</style></defs><title>Oslo-illustrasjoner_rgb</title><polygon class="cls-1" points="57.307 189.551 69.915 189.551 75.431 161.972 80.947 189.551 93.555 189.551 88.827 156.456 61.622 154.188 57.307 189.551"/><polygon class="cls-1" points="110.08 118.632 94.545 118.632 88.827 118.632 88.827 110.076 80.947 110.076 80.947 118.632 80.947 126.512 88.241 126.512 88.827 126.512 110.08 126.512 110.08 123.36 116.384 123.36 116.384 118.632 110.08 118.632"/><polygon class="cls-2" points="76.219 64.26 76.219 70.564 76.219 76.868 69.915 76.868 69.915 70.564 63.611 70.564 63.611 64.26 76.219 64.26"/><path class="cls-2" d="M62.03482,109.17567l-11.032,44.12792,10.6187.88487,27.2052,2.26709V126.51166h-7.88V110.076h7.88V83.86971C74.35324,83.86971,65.77091,93.17233,62.03482,109.17567Z"/><polygon class="cls-2" points="69.915 193.064 69.915 189.551 60.459 189.551 60.459 197.431 68.339 197.431 69.915 197.431 76.219 197.431 76.219 193.064 69.915 193.064"/><polygon class="cls-2" points="93.555 193.064 93.555 189.551 84.099 189.551 84.099 197.431 91.979 197.431 93.555 197.431 99.859 197.431 99.859 193.064 93.555 193.064"/><polygon class="cls-2" points="105.712 123.36 105.712 128.088 105.712 132.816 110.891 132.816 110.891 128.088 114.043 128.088 114.043 197.431 118.816 197.431 118.816 128.088 118.816 123.36 105.712 123.36"/><path class="cls-2" d="M106.16269,64.25978a14.972,14.972,0,0,0-29.94392,0Z"/><path class="cls-1" d="M76.21877,64.25978a14.972,14.972,0,0,0,29.94392,0Z"/><polygon class="cls-3" points="171.822 189.551 184.43 189.551 189.946 161.972 195.462 189.551 208.07 189.551 203.342 156.456 176.137 154.188 171.822 189.551"/><polygon class="cls-3" points="224.596 118.632 209.061 118.632 203.342 118.632 203.342 110.076 195.462 110.076 195.462 118.632 195.462 126.512 202.757 126.512 203.342 126.512 224.596 126.512 224.596 123.36 230.899 123.36 230.899 118.632 224.596 118.632"/><path class="cls-3" d="M190.73412,64.25978a14.972,14.972,0,0,0,29.94392,0Z"/><polygon class="cls-2" points="190.734 64.26 190.734 70.564 190.734 76.868 184.43 76.868 184.43 70.564 178.126 70.564 178.126 64.26 190.734 64.26"/><path class="cls-2" d="M176.55017,109.17567l-11.032,44.12792,10.6187.88487,27.2052,2.26709V126.51166h-7.88V110.076h7.88V83.86971C188.86858,83.86971,180.28626,93.17233,176.55017,109.17567Z"/><polygon class="cls-2" points="184.43 193.064 184.43 189.551 174.974 189.551 174.974 197.431 182.854 197.431 184.43 197.431 190.734 197.431 190.734 193.064 184.43 193.064"/><polygon class="cls-2" points="208.07 193.064 208.07 189.551 198.614 189.551 198.614 197.431 206.494 197.431 208.07 197.431 214.374 197.431 214.374 193.064 208.07 193.064"/><polygon class="cls-2" points="220.228 123.36 220.228 128.088 220.228 132.816 225.406 132.816 225.406 128.088 228.558 128.088 228.558 197.431 233.331 197.431 233.331 128.088 233.331 123.36 220.228 123.36"/><path class="cls-2" d="M220.678,64.25978a14.972,14.972,0,0,0-29.94392,0Z"/><polygon class="cls-4" points="286.338 189.551 298.945 189.551 304.461 161.972 309.977 189.551 322.585 189.551 317.857 156.456 290.652 154.188 286.338 189.551"/><polygon class="cls-4" points="339.111 118.632 323.576 118.632 317.857 118.632 317.857 110.076 309.977 110.076 309.977 118.632 309.977 126.512 317.272 126.512 317.857 126.512 339.111 126.512 339.111 123.36 345.415 123.36 345.415 118.632 339.111 118.632"/><path class="cls-4" d="M305.24947,64.25978a14.972,14.972,0,0,0,29.94392,0Z"/><polygon class="cls-5" points="305.249 64.26 305.249 70.564 305.249 76.868 298.945 76.868 298.945 70.564 292.642 70.564 292.642 64.26 305.249 64.26"/><path class="cls-5" d="M291.06552,109.17567l-11.032,44.12792,10.6187.88487,27.2052,2.26709V126.51166h-7.88V110.076h7.88V83.86971C303.38393,83.86971,294.80161,93.17233,291.06552,109.17567Z"/><polygon class="cls-5" points="298.945 193.064 298.945 189.551 289.49 189.551 289.49 197.431 297.369 197.431 298.945 197.431 305.249 197.431 305.249 193.064 298.945 193.064"/><polygon class="cls-5" points="322.585 193.064 322.585 189.551 313.129 189.551 313.129 197.431 321.009 197.431 322.585 197.431 328.889 197.431 328.889 193.064 322.585 193.064"/><polygon class="cls-5" points="334.743 123.36 334.743 128.088 334.743 132.816 339.921 132.816 339.921 128.088 343.073 128.088 343.073 197.431 347.846 197.431 347.846 128.088 347.846 123.36 334.743 123.36"/><path class="cls-5" d="M335.19339,64.25978a14.972,14.972,0,0,0-29.94392,0Z"/><polygon class="cls-1" points="400.853 189.551 413.461 189.551 418.977 161.972 424.493 189.551 437.101 189.551 432.373 156.456 405.168 154.188 400.853 189.551"/><polygon class="cls-1" points="453.626 118.632 438.091 118.632 432.373 118.632 432.373 110.076 424.493 110.076 424.493 118.632 424.493 126.512 431.787 126.512 432.373 126.512 453.626 126.512 453.626 123.36 459.93 123.36 459.93 118.632 453.626 118.632"/><path class="cls-1" d="M419.76482,64.25978a14.972,14.972,0,1,0,29.94392,0Z"/><polygon class="cls-6" points="419.765 64.26 419.765 70.564 419.765 76.868 413.461 76.868 413.461 70.564 407.157 70.564 407.157 64.26 419.765 64.26"/><path class="cls-5" d="M405.58087,109.17567l-11.032,44.12792,10.6187.88487,27.2052,2.26709V126.51166h-7.88V110.076h7.88V83.86971C417.89928,83.86971,409.317,93.17233,405.58087,109.17567Z"/><polygon class="cls-5" points="413.461 193.064 413.461 189.551 404.005 189.551 404.005 197.431 411.885 197.431 413.461 197.431 419.765 197.431 419.765 193.064 413.461 193.064"/><polygon class="cls-5" points="437.101 193.064 437.101 189.551 427.645 189.551 427.645 197.431 435.525 197.431 437.101 197.431 443.405 197.431 443.405 193.064 437.101 193.064"/><polygon class="cls-5" points="449.258 123.36 449.258 128.088 449.258 132.816 454.437 132.816 454.437 128.088 457.589 128.088 457.589 197.431 462.362 197.431 462.362 128.088 462.362 123.36 449.258 123.36"/><path class="cls-6" d="M449.70874,64.25978a14.972,14.972,0,1,0-29.94392,0Z"/><polygon class="cls-7" points="515.368 189.551 527.976 189.551 533.492 161.972 539.008 189.551 551.616 189.551 546.888 156.456 519.683 154.188 515.368 189.551"/><polygon class="cls-8" points="568.142 118.632 552.607 118.632 546.888 118.632 546.888 110.076 539.008 110.076 539.008 118.632 539.008 126.512 546.303 126.512 546.888 126.512 568.142 126.512 568.142 123.36 574.446 123.36 574.446 118.632 568.142 118.632"/><path class="cls-8" d="M534.28017,64.25978a14.972,14.972,0,0,0,29.94392,0Z"/><polygon points="534.28 64.26 534.28 70.564 534.28 76.868 527.976 76.868 527.976 70.564 521.672 70.564 521.672 64.26 534.28 64.26"/><path d="M520.09622,109.17567l-11.032,44.12792,10.6187.88487,27.2052,2.26709V126.51166h-7.88V110.076h7.88V83.86971C532.41463,83.86971,523.83231,93.17233,520.09622,109.17567Z"/><polygon points="527.976 193.064 527.976 189.551 518.52 189.551 518.52 197.431 526.4 197.431 527.976 197.431 534.28 197.431 534.28 193.064 527.976 193.064"/><polygon points="551.616 193.064 551.616 189.551 542.16 189.551 542.16 197.431 550.04 197.431 551.616 197.431 557.92 197.431 557.92 193.064 551.616 193.064"/><polygon points="563.774 123.36 563.774 128.088 563.774 132.816 568.952 132.816 568.952 128.088 572.104 128.088 572.104 197.431 576.877 197.431 576.877 128.088 576.877 123.36 563.774 123.36"/><path d="M564.22409,64.25978a14.972,14.972,0,0,0-29.94392,0Z"/><path class="cls-2" d="M919.18858,83.85991V118.612h26.78431v-9.45329C945.97289,94.68911,933.658,83.85991,919.18858,83.85991Z"/><polygon class="cls-9" points="933.369 189.512 945.973 189.512 941.606 153.724 945.973 118.612 919.189 118.612 933.369 189.512"/><polygon class="cls-2" points="928.642 189.512 928.642 193.023 920.764 193.023 920.764 197.389 928.642 197.389 945.973 197.389 945.973 189.512 928.642 189.512"/><polygon class="cls-9" points="919.189 110.059 919.189 118.612 913.472 118.612 897.941 118.612 891.639 118.612 891.639 123.339 897.941 123.339 897.941 126.49 919.189 126.49 919.774 126.49 927.066 126.49 927.066 110.059 919.189 110.059"/><path class="cls-2" d="M931.793,64.25553a14.9677,14.9677,0,1,0-29.93541,0"/><path class="cls-9" d="M901.85756,64.25553a14.96771,14.96771,0,1,0,29.93541,0"/><polygon class="cls-2" points="889.208 123.339 889.208 128.065 889.208 197.389 893.98 197.389 893.98 128.065 897.131 128.065 897.131 132.792 902.308 132.792 902.308 128.065 902.308 123.339 889.208 123.339"/><path class="cls-5" d="M828.35092,83.85991V118.612h26.78432v-9.45329C855.13524,94.68911,842.82031,83.85991,828.35092,83.85991Z"/><polygon class="cls-9" points="842.531 189.512 855.135 189.512 850.769 153.724 855.135 118.612 828.351 118.612 842.531 189.512"/><polygon class="cls-5" points="837.804 189.512 837.804 193.023 829.926 193.023 829.926 197.389 837.804 197.389 855.135 197.389 855.135 189.512 837.804 189.512"/><polygon class="cls-6" points="828.351 110.059 828.351 118.612 822.634 118.612 807.104 118.612 800.801 118.612 800.801 123.339 807.104 123.339 807.104 126.49 828.351 126.49 828.936 126.49 836.229 126.49 836.229 110.059 828.351 110.059"/><path class="cls-10" d="M840.95532,64.25553a14.9677,14.9677,0,1,0-29.93541,0"/><path class="cls-6" d="M811.01991,64.25553a14.96771,14.96771,0,1,0,29.93541,0"/><polygon class="cls-5" points="798.371 123.339 798.371 128.065 798.371 197.389 803.142 197.389 803.142 128.065 806.293 128.065 806.293 132.792 811.47 132.792 811.47 128.065 811.47 123.339 798.371 123.339"/><path d="M737.51327,83.85991V118.612h26.78432v-9.45329C764.29759,94.68911,751.98266,83.85991,737.51327,83.85991Z"/><polygon class="cls-7" points="751.693 189.512 764.298 189.512 759.931 153.724 764.298 118.612 737.513 118.612 751.693 189.512"/><polygon points="746.967 189.512 746.967 193.023 739.089 193.023 739.089 197.389 746.967 197.389 764.298 197.389 764.298 189.512 746.967 189.512"/><polygon class="cls-8" points="737.513 110.059 737.513 118.612 731.796 118.612 716.266 118.612 709.964 118.612 709.964 123.339 716.266 123.339 716.266 126.49 737.513 126.49 738.099 126.49 745.391 126.49 745.391 110.059 737.513 110.059"/><path d="M750.11767,64.25553a14.9677,14.9677,0,1,0-29.93541,0"/><path class="cls-8" d="M720.18226,64.25553a14.96771,14.96771,0,1,0,29.93541,0"/><polygon points="707.533 123.339 707.533 128.065 707.533 197.389 712.305 197.389 712.305 128.065 715.456 128.065 715.456 132.792 720.632 132.792 720.632 128.065 720.632 123.339 707.533 123.339"/><path class="cls-2" d="M1010.02623,83.85991V118.612h26.78431v-9.45329C1036.81054,94.68911,1024.49561,83.85991,1010.02623,83.85991Z"/><polygon class="cls-3" points="1024.206 189.512 1036.811 189.512 1032.444 153.724 1036.811 118.612 1010.026 118.612 1024.206 189.512"/><polygon class="cls-2" points="1019.48 189.512 1019.48 193.023 1011.602 193.023 1011.602 197.389 1019.48 197.389 1036.811 197.389 1036.811 189.512 1019.48 189.512"/><polygon class="cls-3" points="1010.026 110.059 1010.026 118.612 1004.309 118.612 988.779 118.612 982.477 118.612 982.477 123.339 988.779 123.339 988.779 126.49 1010.026 126.49 1010.611 126.49 1017.904 126.49 1017.904 110.059 1010.026 110.059"/><path class="cls-2" d="M1022.63062,64.25553a14.96771,14.96771,0,1,0-29.93541,0"/><path class="cls-3" d="M992.69521,64.25553a14.96771,14.96771,0,1,0,29.93541,0"/><polygon class="cls-2" points="980.046 123.339 980.046 128.065 980.046 197.389 984.817 197.389 984.817 128.065 987.969 128.065 987.969 132.792 993.145 132.792 993.145 128.065 993.145 123.339 980.046 123.339"/><path class="cls-5" d="M1100.86388,83.85991V118.612h26.78432v-9.45329C1127.6482,94.68911,1115.33326,83.85991,1100.86388,83.85991Z"/><polygon class="cls-4" points="1115.044 189.512 1127.648 189.512 1123.282 153.724 1127.648 118.612 1100.864 118.612 1115.044 189.512"/><polygon class="cls-5" points="1110.317 189.512 1110.317 193.023 1102.439 193.023 1102.439 197.389 1110.317 197.389 1127.648 197.389 1127.648 189.512 1110.317 189.512"/><polygon class="cls-4" points="1100.864 110.059 1100.864 118.612 1095.147 118.612 1079.616 118.612 1073.314 118.612 1073.314 123.339 1079.616 123.339 1079.616 126.49 1100.864 126.49 1101.449 126.49 1108.742 126.49 1108.742 110.059 1100.864 110.059"/><path class="cls-5" d="M1113.46827,64.25553a14.96771,14.96771,0,1,0-29.93541,0"/><path class="cls-4" d="M1083.53286,64.25553a14.9677,14.9677,0,1,0,29.93541,0"/><polygon class="cls-5" points="1070.883 123.339 1070.883 128.065 1070.883 197.389 1075.655 197.389 1075.655 128.065 1078.806 128.065 1078.806 132.792 1083.983 132.792 1083.983 128.065 1083.983 123.339 1070.883 123.339"/><path class="cls-2" d="M135.6417,555.99768l-.68552-8.43565v-6.7005H112.22273v8.06058l.50178,6.25649.45541,5.67956-.258,4.93029-.69918,13.361h6.70043l3.82873-19.144.58642-11.72719,3.96033,10.71969-.95726,9.06808-.95718,11.08337h6.70043l2.87155-15.31522C135.99822,558.32554,135.6417,555.99768,135.6417,555.99768Z"/><polygon class="cls-9" points="109.83 524.019 109.83 542.058 112.223 542.058 112.223 545.648 114.616 545.648 114.616 542.058 114.616 542.012 114.616 524.019 109.83 524.019"/><polygon class="cls-9" points="132.563 524.019 132.563 542.058 134.956 542.058 134.956 545.648 137.349 545.648 137.349 542.058 137.349 542.012 137.349 524.019 132.563 524.019"/><rect class="cls-9" x="115.21399" y="576.15828" width="3.58949" height="9.57198" transform="translate(-463.93553 697.95301) rotate(-90)"/><rect class="cls-9" x="128.37546" y="576.15828" width="3.58949" height="9.57198" transform="translate(-450.77407 711.11447) rotate(-90)"/><path class="cls-2" d="M114.01749,498.98422a9.572,9.572,0,0,1,19.144,0Z"/><path class="cls-2" d="M137.34676,524.06471A13.35191,13.35191,0,0,0,123.815,510.9491c-7.45868,0-13.95492,5.86827-13.98274,13.11561h-.00256l.00248.00175c-.00007.0149-.00248.02921-.00248.04411h.06054l4.72545,3.58949v13.16147h17.94745v-16.751h.06054l4.72545,3.58949v-3.63535Z"/><path class="cls-9" d="M114.01749,498.98422a9.572,9.572,0,1,0,19.144,0Z"/><path class="cls-2" d="M372.02936,555.99768l-.68552-8.43565v-6.7005H348.6104v8.06058l.50178,6.25649.4554,5.67956-.258,4.93029-.69917,13.361h6.70043l3.82873-19.144.58642-11.72719,3.96033,10.71969-.95726,9.06808-.95718,11.08337h6.70042l2.87155-15.31522C372.38589,558.32554,372.02936,555.99768,372.02936,555.99768Z"/><polygon class="cls-3" points="346.217 524.019 346.217 542.058 348.61 542.058 348.61 545.648 351.003 545.648 351.003 542.058 351.003 542.012 351.003 524.019 346.217 524.019"/><polygon class="cls-3" points="368.951 524.019 368.951 542.058 371.344 542.058 371.344 545.648 373.737 545.648 373.737 542.058 373.737 542.012 373.737 524.019 368.951 524.019"/><rect class="cls-3" x="351.60166" y="576.15828" width="3.58949" height="9.57198" transform="translate(-227.54787 934.34067) rotate(-90)"/><rect class="cls-3" x="364.76312" y="576.15828" width="3.58949" height="9.57198" transform="translate(-214.3864 947.50214) rotate(-90)"/><path class="cls-2" d="M350.40516,498.98422a9.572,9.572,0,0,1,19.14395,0Z"/><path class="cls-2" d="M373.73443,524.06471a13.35191,13.35191,0,0,0-13.53172-13.11561c-7.45869,0-13.95492,5.86827-13.98275,13.11561h-.00255l.00248.00175c-.00007.0149-.00248.02921-.00248.04411h.06054l4.72544,3.58949v13.16147h17.94746v-16.751h.06054l4.72545,3.58949v-3.63535Z"/><path class="cls-3" d="M350.40516,498.98422a9.572,9.572,0,1,0,19.14395,0Z"/><path class="cls-5" d="M608.417,555.99768l-.68552-8.43565v-6.7005H584.99806v8.06058l.50178,6.25649.45541,5.67956-.258,4.93029-.69918,13.361h6.70043l3.82873-19.144.58642-11.72719L600.074,558.998l-.95726,9.06808-.95718,11.08337H604.86l2.87155-15.31522C608.77355,558.32554,608.417,555.99768,608.417,555.99768Z"/><polygon class="cls-4" points="582.605 524.019 582.605 542.058 584.998 542.058 584.998 545.648 587.391 545.648 587.391 542.058 587.391 542.012 587.391 524.019 582.605 524.019"/><polygon class="cls-4" points="605.339 524.019 605.339 542.058 607.732 542.058 607.732 545.648 610.125 545.648 610.125 542.058 610.125 542.012 610.125 524.019 605.339 524.019"/><rect class="cls-4" x="587.98932" y="576.15828" width="3.58949" height="9.57198" transform="translate(8.8398 1170.72834) rotate(-90)"/><rect class="cls-4" x="601.15079" y="576.15828" width="3.58949" height="9.57198" transform="translate(22.00126 1183.8898) rotate(-90)"/><path class="cls-5" d="M586.79282,498.98422a9.572,9.572,0,0,1,19.144,0Z"/><path class="cls-5" d="M610.12209,524.06471a13.35191,13.35191,0,0,0-13.53172-13.11561c-7.45868,0-13.95492,5.86827-13.98274,13.11561h-.00256l.00248.00175c-.00007.0149-.00248.02921-.00248.04411h.06054l4.72545,3.58949v13.16147h17.94745v-16.751h.06054l4.72545,3.58949v-3.63535Z"/><path class="cls-4" d="M586.79282,498.98422a9.572,9.572,0,0,0,19.144,0Z"/><path class="cls-6" d="M844.80469,555.99768l-.68552-8.43565v-6.7005H821.38573v8.06058l.50178,6.25649.4554,5.67956-.258,4.93029-.69917,13.361h6.70043l3.82873-19.144.58642-11.72719,3.96033,10.71969-.95726,9.06808-.95718,11.08337h6.70042l2.87155-15.31522C845.16122,558.32554,844.80469,555.99768,844.80469,555.99768Z"/><polygon class="cls-1" points="818.993 524.019 818.993 542.058 821.386 542.058 821.386 545.648 823.779 545.648 823.779 542.058 823.779 542.012 823.779 524.019 818.993 524.019"/><polygon class="cls-1" points="841.726 524.019 841.726 542.058 844.119 542.058 844.119 545.648 846.512 545.648 846.512 542.058 846.512 542.012 846.512 524.019 841.726 524.019"/><rect class="cls-5" x="824.37699" y="576.15828" width="3.58949" height="9.57198" transform="translate(245.22746 1407.116) rotate(-90)"/><rect class="cls-5" x="837.53845" y="576.15828" width="3.58949" height="9.57198" transform="translate(258.38893 1420.27747) rotate(-90)"/><path class="cls-6" d="M823.18049,498.98422a9.572,9.572,0,0,1,19.144,0Z"/><path class="cls-5" d="M846.50976,524.06471A13.35191,13.35191,0,0,0,832.978,510.9491c-7.45868,0-13.95492,5.86827-13.98275,13.11561h-.00255l.00248.00175c-.00007.0149-.00248.02921-.00248.04411h.06054l4.72544,3.58949v13.16147h17.94746v-16.751h.06054l4.72545,3.58949v-3.63535Z"/><path class="cls-1" d="M823.18049,498.98422a9.572,9.572,0,1,0,19.144,0Z"/><path class="cls-7" d="M1081.19236,555.99768l-.68552-8.43565v-6.7005h-22.73345v8.06058l.50178,6.25649.45541,5.67956-.258,4.93029-.69918,13.361h6.70043l3.82873-19.144.58642-11.72719,3.96033,10.71969-.95725,9.06808-.95719,11.08337h6.70043l2.87155-15.31522C1081.54888,558.32554,1081.19236,555.99768,1081.19236,555.99768Z"/><polygon class="cls-8" points="1055.38 524.019 1055.38 542.058 1057.773 542.058 1057.773 545.648 1060.166 545.648 1060.166 542.058 1060.166 542.012 1060.166 524.019 1055.38 524.019"/><polygon class="cls-8" points="1078.114 524.019 1078.114 542.058 1080.507 542.058 1080.507 545.648 1082.9 545.648 1082.9 542.058 1082.9 542.012 1082.9 524.019 1078.114 524.019"/><rect x="1060.76465" y="576.15828" width="3.58949" height="9.57198" transform="translate(481.61513 1643.50367) rotate(-90)"/><rect x="1073.92612" y="576.15828" width="3.58949" height="9.57198" transform="translate(494.77659 1656.66513) rotate(-90)"/><path d="M1059.56815,498.98422a9.572,9.572,0,0,1,19.144,0Z"/><path d="M1082.89742,524.06471a13.35191,13.35191,0,0,0-13.53172-13.11561c-7.45868,0-13.95492,5.86827-13.98274,13.11561h-.00256l.00248.00175c-.00007.0149-.00248.02921-.00248.04411h.06054l4.72545,3.58949v13.16147h17.94745v-16.751h.06054l4.72545,3.58949v-3.63535Z"/><path class="cls-8" d="M1059.56815,498.98422a9.572,9.572,0,0,0,19.144,0Z"/><polygon class="cls-11" points="85.146 792.034 74.981 792.034 74.981 765.895 74.981 760.086 85.146 760.086 85.146 792.034"/><rect class="cls-11" x="86.59803" y="760.0863" width="10.16525" height="31.94792"/><polygon class="cls-2" points="66.268 665.695 60.459 665.695 60.459 671.503 60.459 677.312 66.268 677.312 66.268 671.503 72.076 671.503 72.076 665.695 66.268 665.695"/><polyline class="cls-12" points="64.815 701.999 72.076 701.999 72.076 707.808"/><polyline class="cls-12" points="98.215 701.999 105.476 701.999 105.476 707.808"/><path class="cls-2" d="M60.45881,760.08619H111.285L102.572,731.04263H98.21544V701.99907h7.26089a20.16594,20.16594,0,0,0-19.99723-20.3305c-11.04414,0-20.66375,9.10235-20.66375,20.3305h7.26089v29.04356Z"/><polygon class="cls-13" points="93.859 793.486 93.859 792.034 90.955 792.034 86.598 792.034 86.598 796.391 86.598 799.295 90.955 799.295 90.955 796.391 93.859 796.391 93.859 799.295 101.12 799.295 101.12 793.486 93.859 793.486"/><polygon class="cls-13" points="77.885 792.034 77.885 793.486 70.624 793.486 70.624 799.295 77.885 799.295 77.885 796.391 80.789 796.391 80.789 799.295 85.146 799.295 85.146 796.391 85.146 792.034 80.789 792.034 77.885 792.034"/><circle class="cls-13" cx="145.41124" cy="784.04724" r="15.24787"/><circle class="cls-14" cx="145.41124" cy="784.04724" r="10.89134"/><polygon class="cls-11" points="92.407 723.782 85.146 723.782 83.366 723.782 72.076 723.782 72.076 701.887 64.815 701.887 64.815 723.782 64.815 725.234 64.815 731.043 85.146 731.043 85.146 726.686 92.407 726.686 92.407 723.782"/><polygon class="cls-11" points="119.998 723.782 114.189 723.782 112.737 723.782 105.476 723.782 105.476 701.887 98.215 701.887 98.215 723.782 98.215 725.234 98.215 731.043 114.189 731.043 114.189 728.138 119.998 728.138 119.998 723.782"/><path class="cls-15" d="M181.35263,728.13827c0-17.64418-14.6666-31.94792-32.311-31.94792v39.20881h-26.1392v-8.71307H85.14584v33.4001h65.348v-.03652C167.483,759.29026,181.35263,745.296,181.35263,728.13827Zm-91.85026,7.26089v-4.35653h29.04356v4.35653Z"/><rect class="cls-13" x="143.23298" y="781.86897" width="4.35653" height="4.35653"/><circle class="cls-13" cx="104.75026" cy="784.04724" r="15.24787"/><circle class="cls-14" cx="104.75026" cy="784.04724" r="10.89134"/><rect class="cls-13" x="102.57199" y="781.86897" width="4.35653" height="4.35653"/><path class="cls-2" d="M72.07625,665.69473a14.52178,14.52178,0,1,1,29.04356,0Z"/><path class="cls-11" d="M72.07625,665.69473a14.52178,14.52178,0,0,0,29.04356,0Z"/><polygon class="cls-9" points="274.405 792.034 264.24 792.034 264.24 765.895 264.24 760.086 274.405 760.086 274.405 792.034"/><rect class="cls-9" x="275.85715" y="760.0863" width="10.16525" height="31.94792"/><polygon class="cls-15" points="255.527 665.695 249.718 665.695 249.718 671.503 249.718 677.312 255.527 677.312 255.527 671.503 261.335 671.503 261.335 665.695 255.527 665.695"/><polyline class="cls-12" points="254.074 701.999 261.335 701.999 261.335 707.808"/><polyline class="cls-12" points="287.475 701.999 294.735 701.999 294.735 707.808"/><path class="cls-15" d="M249.71793,760.08619h50.82623l-8.71307-29.04356h-4.35653V701.99907h7.26089a20.16594,20.16594,0,0,0-19.99723-20.3305c-11.04414,0-20.66376,9.10235-20.66376,20.3305h7.26089v29.04356Z"/><polygon class="cls-15" points="283.118 793.486 283.118 792.034 280.214 792.034 275.857 792.034 275.857 796.391 275.857 799.295 280.214 799.295 280.214 796.391 283.118 796.391 283.118 799.295 290.379 799.295 290.379 793.486 283.118 793.486"/><polygon class="cls-15" points="267.144 792.034 267.144 793.486 259.883 793.486 259.883 799.295 267.144 799.295 267.144 796.391 270.048 796.391 270.048 799.295 274.405 799.295 274.405 796.391 274.405 792.034 270.048 792.034 267.144 792.034"/><circle class="cls-5" cx="334.67036" cy="784.04724" r="15.24787"/><circle class="cls-14" cx="334.67036" cy="784.04724" r="10.89134"/><polygon class="cls-9" points="281.666 723.782 274.405 723.782 272.625 723.782 261.335 723.782 261.335 701.887 254.074 701.887 254.074 723.782 254.074 725.234 254.074 731.043 274.405 731.043 274.405 726.686 281.666 726.686 281.666 723.782"/><polygon class="cls-9" points="309.257 723.782 303.449 723.782 301.996 723.782 294.735 723.782 294.735 701.887 287.475 701.887 287.475 723.782 287.475 725.234 287.475 731.043 303.449 731.043 303.449 728.138 309.257 728.138 309.257 723.782"/><path class="cls-5" d="M370.61175,728.13827c0-17.64418-14.66661-31.94792-32.311-31.94792v39.20881H312.16158v-8.71307H274.405v33.4001h65.348v-.03652C356.74214,759.29026,370.61175,745.296,370.61175,728.13827Zm-91.85026,7.26089v-4.35653h29.04356v4.35653Z"/><rect class="cls-5" x="332.49209" y="781.86897" width="4.35653" height="4.35653"/><circle class="cls-5" cx="294.00937" cy="784.04724" r="15.24787"/><circle class="cls-14" cx="294.00937" cy="784.04724" r="10.89134"/><rect class="cls-5" x="291.83111" y="781.86897" width="4.35653" height="4.35653"/><path class="cls-15" d="M261.33537,665.69473a14.52178,14.52178,0,1,1,29.04356,0Z"/><path class="cls-9" d="M261.33537,665.69473a14.52178,14.52178,0,0,0,29.04356,0Z"/><polygon class="cls-9" points="463.664 792.034 453.499 792.034 453.499 765.895 453.499 760.086 463.664 760.086 463.664 792.034"/><rect class="cls-9" x="465.11626" y="760.0863" width="10.16525" height="31.94792"/><polygon class="cls-5" points="444.786 665.695 438.977 665.695 438.977 671.503 438.977 677.312 444.786 677.312 444.786 671.503 450.594 671.503 450.594 665.695 444.786 665.695"/><polyline class="cls-12" points="443.334 701.999 450.594 701.999 450.594 707.808"/><polyline class="cls-12" points="476.734 701.999 483.995 701.999 483.995 707.808"/><path class="cls-5" d="M438.977,760.08619h50.82623l-8.71307-29.04356h-4.35653V701.99907h7.26089a20.16594,20.16594,0,0,0-19.99723-20.3305c-11.04414,0-20.66375,9.10235-20.66375,20.3305h7.26089v29.04356Z"/><polygon class="cls-5" points="472.377 793.486 472.377 792.034 469.473 792.034 465.116 792.034 465.116 796.391 465.116 799.295 469.473 799.295 469.473 796.391 472.377 796.391 472.377 799.295 479.638 799.295 479.638 793.486 472.377 793.486"/><polygon class="cls-5" points="456.403 792.034 456.403 793.486 449.142 793.486 449.142 799.295 456.403 799.295 456.403 796.391 459.308 796.391 459.308 799.295 463.664 799.295 463.664 796.391 463.664 792.034 459.308 792.034 456.403 792.034"/><circle class="cls-5" cx="523.92947" cy="784.04724" r="15.24787"/><circle class="cls-14" cx="523.92947" cy="784.04724" r="10.89134"/><polygon class="cls-9" points="470.925 723.782 463.664 723.782 461.884 723.782 450.594 723.782 450.594 701.887 443.334 701.887 443.334 723.782 443.334 725.234 443.334 731.043 463.664 731.043 463.664 726.686 470.925 726.686 470.925 723.782"/><polygon class="cls-9" points="498.516 723.782 492.708 723.782 491.255 723.782 483.995 723.782 483.995 701.887 476.734 701.887 476.734 723.782 476.734 725.234 476.734 731.043 492.708 731.043 492.708 728.138 498.516 728.138 498.516 723.782"/><path class="cls-16" d="M559.87086,728.13827c0-17.64418-14.6666-31.94792-32.311-31.94792v39.20881H501.4207v-8.71307H463.66407v33.4001h65.348v-.03652C546.00125,759.29026,559.87086,745.296,559.87086,728.13827Zm-91.85026,7.26089v-4.35653h29.04356v4.35653Z"/><rect class="cls-5" x="521.75121" y="781.86897" width="4.35653" height="4.35653"/><circle class="cls-5" cx="483.26849" cy="784.04724" r="15.24787"/><circle class="cls-14" cx="483.26849" cy="784.04724" r="10.89134"/><rect class="cls-5" x="481.09022" y="781.86897" width="4.35653" height="4.35653"/><path class="cls-5" d="M450.59448,665.69473a14.52178,14.52178,0,1,1,29.04356,0Z"/><path class="cls-9" d="M450.59448,665.69473a14.52178,14.52178,0,1,0,29.04356,0Z"/><polygon class="cls-9" points="652.923 792.034 642.758 792.034 642.758 765.895 642.758 760.086 652.923 760.086 652.923 792.034"/><rect class="cls-9" x="654.37538" y="760.0863" width="10.16525" height="31.94792"/><polygon class="cls-17" points="634.045 665.695 628.236 665.695 628.236 671.503 628.236 677.312 634.045 677.312 634.045 671.503 639.854 671.503 639.854 665.695 634.045 665.695"/><polyline class="cls-12" points="632.593 701.999 639.854 701.999 639.854 707.808"/><polyline class="cls-12" points="665.993 701.999 673.254 701.999 673.254 707.808"/><path class="cls-17" d="M628.23616,760.08619h50.82623l-8.71307-29.04356h-4.35653V701.99907h7.26089a20.16594,20.16594,0,0,0-19.99723-20.3305c-11.04414,0-20.66376,9.10235-20.66376,20.3305h7.26089v29.04356Z"/><polygon class="cls-17" points="661.636 793.486 661.636 792.034 658.732 792.034 654.375 792.034 654.375 796.391 654.375 799.295 658.732 799.295 658.732 796.391 661.636 796.391 661.636 799.295 668.897 799.295 668.897 793.486 661.636 793.486"/><polygon class="cls-17" points="645.662 792.034 645.662 793.486 638.401 793.486 638.401 799.295 645.662 799.295 645.662 796.391 648.567 796.391 648.567 799.295 652.923 799.295 652.923 796.391 652.923 792.034 648.567 792.034 645.662 792.034"/><circle class="cls-5" cx="713.18859" cy="784.04724" r="15.24787"/><circle class="cls-14" cx="713.18859" cy="784.04724" r="10.89134"/><polygon class="cls-9" points="660.184 723.782 652.923 723.782 651.143 723.782 639.854 723.782 639.854 701.887 632.593 701.887 632.593 723.782 632.593 725.234 632.593 731.043 652.923 731.043 652.923 726.686 660.184 726.686 660.184 723.782"/><polygon class="cls-9" points="687.775 723.782 681.967 723.782 680.515 723.782 673.254 723.782 673.254 701.887 665.993 701.887 665.993 723.782 665.993 725.234 665.993 731.043 681.967 731.043 681.967 728.138 687.775 728.138 687.775 723.782"/><path class="cls-5" d="M749.13,728.13827c0-17.64418-14.66661-31.94792-32.311-31.94792v39.20881H690.67981v-8.71307H652.92318v33.4001h65.348v-.03652C735.26037,759.29026,749.13,745.296,749.13,728.13827Zm-91.85026,7.26089v-4.35653h29.04356v4.35653Z"/><rect class="cls-5" x="711.01032" y="781.86897" width="4.35653" height="4.35653"/><circle class="cls-5" cx="672.5276" cy="784.04724" r="15.24787"/><circle class="cls-14" cx="672.5276" cy="784.04724" r="10.89134"/><rect class="cls-5" x="670.34934" y="781.86897" width="4.35653" height="4.35653"/><path class="cls-17" d="M639.8536,665.69473a14.52178,14.52178,0,1,1,29.04356,0Z"/><path class="cls-9" d="M639.8536,665.69473a14.52178,14.52178,0,0,0,29.04356,0Z"/><polygon class="cls-6" points="842.182 792.034 832.017 792.034 832.017 765.895 832.017 760.086 842.182 760.086 842.182 792.034"/><rect class="cls-6" x="843.63449" y="760.0863" width="10.16525" height="31.94792"/><polygon class="cls-18" points="823.304 665.695 817.495 665.695 817.495 671.503 817.495 677.312 823.304 677.312 823.304 671.503 829.113 671.503 829.113 665.695 823.304 665.695"/><polyline class="cls-12" points="821.852 701.999 829.113 701.999 829.113 707.808"/><polyline class="cls-12" points="855.252 701.999 862.513 701.999 862.513 707.808"/><path class="cls-18" d="M817.49527,760.08619H868.3215l-8.71307-29.04356H855.2519V701.99907h7.26089a20.16594,20.16594,0,0,0-19.99723-20.3305c-11.04414,0-20.66376,9.10235-20.66376,20.3305h7.26089v29.04356Z"/><polygon class="cls-18" points="850.895 793.486 850.895 792.034 847.991 792.034 843.634 792.034 843.634 796.391 843.634 799.295 847.991 799.295 847.991 796.391 850.895 796.391 850.895 799.295 858.156 799.295 858.156 793.486 850.895 793.486"/><polygon class="cls-18" points="834.921 792.034 834.921 793.486 827.661 793.486 827.661 799.295 834.921 799.295 834.921 796.391 837.826 796.391 837.826 799.295 842.182 799.295 842.182 796.391 842.182 792.034 837.826 792.034 834.921 792.034"/><circle class="cls-2" cx="902.4477" cy="784.04724" r="15.24787"/><circle class="cls-14" cx="902.4477" cy="784.04724" r="10.89134"/><polygon class="cls-6" points="849.443 723.782 842.182 723.782 840.402 723.782 829.113 723.782 829.113 701.887 821.852 701.887 821.852 723.782 821.852 725.234 821.852 731.043 842.182 731.043 842.182 726.686 849.443 726.686 849.443 723.782"/><polygon class="cls-6" points="877.035 723.782 871.226 723.782 869.774 723.782 862.513 723.782 862.513 701.887 855.252 701.887 855.252 723.782 855.252 725.234 855.252 731.043 871.226 731.043 871.226 728.138 877.035 728.138 877.035 723.782"/><path class="cls-2" d="M938.38909,728.13827c0-17.64418-14.66661-31.94792-32.311-31.94792v39.20881h-26.1392v-8.71307H842.1823v33.4001h65.348v-.03652C924.51948,759.29026,938.38909,745.296,938.38909,728.13827Zm-91.85026,7.26089v-4.35653h29.04356v4.35653Z"/><rect class="cls-2" x="900.26943" y="781.86897" width="4.35653" height="4.35653"/><circle class="cls-2" cx="861.78672" cy="784.04724" r="15.24787"/><circle class="cls-14" cx="861.78672" cy="784.04724" r="10.89134"/><rect class="cls-2" x="859.60845" y="781.86897" width="4.35653" height="4.35653"/><path class="cls-18" d="M829.11271,665.69473a14.52178,14.52178,0,1,1,29.04356,0Z"/><path class="cls-6" d="M829.11271,665.69473a14.52178,14.52178,0,1,0,29.04356,0Z"/><polygon class="cls-8" points="1031.441 792.034 1021.276 792.034 1021.276 765.895 1021.276 760.086 1031.441 760.086 1031.441 792.034"/><rect class="cls-8" x="1032.89361" y="760.0863" width="10.16525" height="31.94792"/><polygon points="1012.563 665.695 1006.754 665.695 1006.754 671.503 1006.754 677.312 1012.563 677.312 1012.563 671.503 1018.372 671.503 1018.372 665.695 1012.563 665.695"/><polyline class="cls-12" points="1011.111 701.999 1018.372 701.999 1018.372 707.808"/><polyline class="cls-12" points="1044.511 701.999 1051.772 701.999 1051.772 707.808"/><path d="M1006.75438,760.08619h50.82624l-8.71307-29.04356H1044.511V701.99907h7.26089a20.16594,20.16594,0,0,0-19.99723-20.3305c-11.04414,0-20.66375,9.10235-20.66375,20.3305h7.26089v29.04356Z"/><polygon points="1040.154 793.486 1040.154 792.034 1037.25 792.034 1032.894 792.034 1032.894 796.391 1032.894 799.295 1037.25 799.295 1037.25 796.391 1040.154 796.391 1040.154 799.295 1047.415 799.295 1047.415 793.486 1040.154 793.486"/><polygon points="1024.181 792.034 1024.181 793.486 1016.92 793.486 1016.92 799.295 1024.181 799.295 1024.181 796.391 1027.085 796.391 1027.085 799.295 1031.441 799.295 1031.441 796.391 1031.441 792.034 1027.085 792.034 1024.181 792.034"/><circle cx="1091.70682" cy="784.04724" r="15.24787"/><circle class="cls-14" cx="1091.70682" cy="784.04724" r="10.89134"/><polygon class="cls-8" points="1038.702 723.782 1031.441 723.782 1029.661 723.782 1018.372 723.782 1018.372 701.887 1011.111 701.887 1011.111 723.782 1011.111 725.234 1011.111 731.043 1031.441 731.043 1031.441 726.686 1038.702 726.686 1038.702 723.782"/><polygon class="cls-8" points="1066.294 723.782 1060.485 723.782 1059.033 723.782 1051.772 723.782 1051.772 701.887 1044.511 701.887 1044.511 723.782 1044.511 725.234 1044.511 731.043 1060.485 731.043 1060.485 728.138 1066.294 728.138 1066.294 723.782"/><path class="cls-19" d="M1127.64821,728.13827c0-17.64418-14.66661-31.94792-32.311-31.94792v39.20881H1069.198v-8.71307h-37.75663v33.4001h65.348v-.03652C1113.77859,759.29026,1127.64821,745.296,1127.64821,728.13827Zm-91.85026,7.26089v-4.35653h29.04356v4.35653Z"/><rect x="1089.52855" y="781.86897" width="4.35653" height="4.35653"/><circle cx="1051.04583" cy="784.04724" r="15.24787"/><circle class="cls-14" cx="1051.04583" cy="784.04724" r="10.89134"/><rect x="1048.86756" y="781.86897" width="4.35653" height="4.35653"/><path d="M1018.37183,665.69473a14.52178,14.52178,0,1,1,29.04356,0Z"/><path class="cls-8" d="M1018.37183,665.69473a14.52178,14.52178,0,1,0,29.04356,0Z"/><polygon class="cls-2" points="66.27 292.11 60.459 292.11 60.459 297.921 60.459 303.731 66.27 303.731 66.27 297.921 72.08 297.921 72.08 292.11 66.27 292.11"/><path class="cls-2" d="M86.60737,356.7548H66.26959l5.81079,11.62159v49.39174h7.2635l4.35809-24.4054c.69514-3.85873,1.34045-8.87189,1.84549-13.27928l1.05991,19.82706v17.85762h7.26349l4.35809-24.4054c1.58145-8.77861,2.9054-23.53364,2.9054-23.53364V356.7548Z"/><polygon class="cls-9" points="64.817 327.701 64.817 362.566 67.722 362.566 67.722 368.376 72.08 368.376 72.08 362.566 72.08 327.701 64.817 327.701"/><polygon class="cls-9" points="98.229 327.701 98.229 362.566 101.134 362.566 101.134 369.829 105.492 369.829 105.492 362.566 105.492 327.701 98.229 327.701"/><path class="cls-2" d="M72.0804,292.10983a13.80064,13.80064,0,0,1,27.60127,0Z"/><path class="cls-2" d="M85.48805,307.36306c-11.0481,0-20.67116,9.10561-20.67116,20.33777l7.26349,5.8108V356.7548H98.229v-29.054l7.2635,5.8108v-5.8108A20.17316,20.17316,0,0,0,85.48805,307.36306Z"/><path class="cls-9" d="M72.0804,292.10983a13.80064,13.80064,0,1,0,27.60127,0Z"/><polygon class="cls-9" points="93.871 419.221 93.871 417.768 90.965 417.768 86.607 417.768 86.607 419.221 79.344 419.221 79.344 417.768 76.438 417.768 72.08 417.768 72.08 422.126 72.08 425.032 76.438 425.032 76.438 422.126 79.344 422.126 79.344 425.032 86.607 425.032 90.965 425.032 90.965 422.126 93.871 422.126 93.871 425.032 101.134 425.032 101.134 419.221 93.871 419.221"/><path class="cls-2" d="M174.09244,382.6317l-1.0404-11.90851v-11.063H138.18728v12.23338l.76146,9.495.69124,8.61972-.39155,7.48267-1.06115,20.27713h10.16889l5.81079-29.054.93321-18.66376,6.33028,17.13481-1.4527,13.76233-1.45269,16.82059h10.16888L173.052,394.525C174.63348,386.16449,174.09244,382.6317,174.09244,382.6317Z"/><polygon class="cls-9" points="152.714 420.674 152.714 417.768 138.187 417.768 138.187 425.032 149.809 425.032 152.714 425.032 157.072 425.032 157.072 420.674 152.714 420.674"/><polygon class="cls-9" points="173.052 420.674 173.052 417.768 158.525 417.768 158.525 425.032 170.147 425.032 173.052 425.032 177.41 425.032 177.41 420.674 173.052 420.674"/><polygon class="cls-9" points="164.336 329.042 164.336 364.018 168.694 364.018 168.694 370.723 173.052 370.723 173.052 364.018 173.052 362.566 173.052 329.042 164.336 329.042"/><path class="cls-2" d="M136.7346,291.38348a14.527,14.527,0,1,1,29.054,0Z"/><path class="cls-9" d="M136.7346,291.38348a14.527,14.527,0,1,0,29.054,0Z"/><path class="cls-2" d="M173.04645,329.04181a21.60858,21.60858,0,0,0-21.42765-21.67875c-11.80007,0-22.07731,9.69612-22.14177,21.67875h-.00594l.00576.0039c-.00018.03653-.00576.07129-.00576.10782h.16775l8.54844,5.69908v11.7333h18.88508v4.3581h-7.26349v4.35809H138.18728v4.3581h26.14857V329.15353h.16775l8.54844,5.69908v-5.8108Z"/><polygon class="cls-9" points="149.809 346.586 148.149 346.586 138.187 346.586 138.187 334.853 129.639 329.154 129.471 329.154 129.471 346.586 129.471 348.082 129.471 355.302 138.187 355.302 149.809 355.302 149.809 350.944 157.072 350.944 157.072 346.586 149.809 346.586"/><polygon class="cls-2" points="303.829 292.11 298.018 292.11 298.018 297.921 298.018 303.731 303.829 303.731 303.829 297.921 309.64 297.921 309.64 292.11 303.829 292.11"/><path class="cls-2" d="M324.16689,356.7548H303.82911l5.81079,11.62159v49.39174h7.26349l4.3581-24.4054c.69514-3.85873,1.34045-8.87189,1.84549-13.27928l1.05991,19.82706v17.85762h7.26349l4.35809-24.4054c1.58144-8.77861,2.9054-23.53364,2.9054-23.53364V356.7548Z"/><polygon class="cls-3" points="302.376 327.701 302.376 362.566 305.282 362.566 305.282 368.376 309.64 368.376 309.64 362.566 309.64 327.701 302.376 327.701"/><polygon class="cls-3" points="335.788 327.701 335.788 362.566 338.694 362.566 338.694 369.829 343.052 369.829 343.052 362.566 343.052 327.701 335.788 327.701"/><path class="cls-2" d="M309.63992,292.10983a13.80064,13.80064,0,0,1,27.60127,0Z"/><path class="cls-2" d="M323.04757,307.36306c-11.0481,0-20.67116,9.10561-20.67116,20.33777l7.26349,5.8108V356.7548h26.14857v-29.054l7.26349,5.8108v-5.8108A20.17315,20.17315,0,0,0,323.04757,307.36306Z"/><path class="cls-3" d="M309.63992,292.10983a13.80064,13.80064,0,1,0,27.60127,0Z"/><polygon class="cls-3" points="331.43 419.221 331.43 417.768 328.525 417.768 324.167 417.768 324.167 419.221 316.903 419.221 316.903 417.768 313.998 417.768 309.64 417.768 309.64 422.126 309.64 425.032 313.998 425.032 313.998 422.126 316.903 422.126 316.903 425.032 324.167 425.032 328.525 425.032 328.525 422.126 331.43 422.126 331.43 425.032 338.694 425.032 338.694 419.221 331.43 419.221"/><path class="cls-2" d="M411.652,382.6317l-1.0404-11.90851v-11.063H375.7468v12.23338l.76146,9.495.69124,8.61972L376.808,397.491l-1.06115,20.27713h10.16889l5.81079-29.054.9332-18.66376L398.99,387.18521l-1.4527,13.76233-1.4527,16.82059h10.16889l4.3581-23.24317C412.193,386.16449,411.652,382.6317,411.652,382.6317Z"/><polygon class="cls-3" points="390.274 420.674 390.274 417.768 375.747 417.768 375.747 425.032 387.368 425.032 390.274 425.032 394.632 425.032 394.632 420.674 390.274 420.674"/><polygon class="cls-3" points="410.612 420.674 410.612 417.768 396.085 417.768 396.085 425.032 407.706 425.032 410.612 425.032 414.97 425.032 414.97 420.674 410.612 420.674"/><polygon class="cls-3" points="401.895 329.042 401.895 364.018 406.253 364.018 406.253 370.723 410.612 370.723 410.612 364.018 410.612 362.566 410.612 329.042 401.895 329.042"/><path class="cls-2" d="M374.29411,291.38348a14.527,14.527,0,0,1,29.054,0Z"/><path class="cls-3" d="M374.29411,291.38348a14.527,14.527,0,1,0,29.054,0Z"/><path class="cls-2" d="M410.606,329.04181a21.60859,21.60859,0,0,0-21.42765-21.67875c-11.80007,0-22.07731,9.69612-22.14177,21.67875h-.00594l.00576.0039c-.00018.03653-.00576.07129-.00576.10782h.16775l8.54844,5.69908v11.7333h18.88508v4.3581h-7.2635v4.35809H375.7468v4.3581h26.14857V329.15353h.16775l8.54844,5.69908v-5.8108Z"/><polygon class="cls-3" points="387.368 346.586 385.708 346.586 375.747 346.586 375.747 334.853 367.198 329.154 367.031 329.154 367.031 346.586 367.031 348.082 367.031 355.302 375.747 355.302 387.368 355.302 387.368 350.944 394.632 350.944 394.632 346.586 387.368 346.586"/><polygon class="cls-5" points="535.578 292.11 535.578 297.921 535.578 303.731 541.389 303.731 541.389 297.921 547.199 297.921 547.199 292.11 535.578 292.11"/><path class="cls-5" d="M561.7264,356.7548H541.38863l5.81079,11.62159v49.39174h7.26349l4.3581-24.4054c.69514-3.85873,1.34044-8.87189,1.84548-13.27928l1.05991,19.82706v17.85762h7.2635l4.35809-24.4054c1.58144-8.77861,2.9054-23.53364,2.9054-23.53364V356.7548Z"/><polygon class="cls-4" points="539.936 327.701 539.936 362.566 542.841 362.566 542.841 368.376 547.199 368.376 547.199 362.566 547.199 327.701 539.936 327.701"/><polygon class="cls-4" points="573.348 327.701 573.348 362.566 576.253 362.566 576.253 369.829 580.611 369.829 580.611 362.566 580.611 327.701 573.348 327.701"/><path class="cls-5" d="M547.19944,292.10983a13.80064,13.80064,0,0,1,27.60127,0Z"/><path class="cls-5" d="M560.60709,307.36306c-11.0481,0-20.67116,9.10561-20.67116,20.33777l7.26349,5.8108V356.7548H573.348v-29.054l7.26349,5.8108v-5.8108A20.17316,20.17316,0,0,0,560.60709,307.36306Z"/><path class="cls-4" d="M547.19944,292.10983a13.80064,13.80064,0,1,0,27.60127,0Z"/><polygon class="cls-4" points="568.99 419.221 568.99 417.768 566.084 417.768 561.726 417.768 561.726 419.221 554.463 419.221 554.463 417.768 551.558 417.768 547.199 417.768 547.199 422.126 547.199 425.032 551.558 425.032 551.558 422.126 554.463 422.126 554.463 425.032 561.726 425.032 566.084 425.032 566.084 422.126 568.99 422.126 568.99 425.032 576.253 425.032 576.253 419.221 568.99 419.221"/><path class="cls-5" d="M649.21148,382.6317l-1.0404-11.90851v-11.063H613.30631v12.23338l.76147,9.495.69123,8.61972-.39154,7.48267-1.06116,20.27713H623.4752l5.8108-29.054.9332-18.66376,6.33029,17.13481-1.4527,13.76233-1.4527,16.82059H643.813l4.3581-23.24317C649.75252,386.16449,649.21148,382.6317,649.21148,382.6317Z"/><polygon class="cls-4" points="627.833 420.674 627.833 417.768 613.306 417.768 613.306 425.032 624.928 425.032 627.833 425.032 632.191 425.032 632.191 420.674 627.833 420.674"/><polygon class="cls-4" points="648.171 420.674 648.171 417.768 633.644 417.768 633.644 425.032 645.266 425.032 648.171 425.032 652.529 425.032 652.529 420.674 648.171 420.674"/><polygon class="cls-4" points="639.455 329.042 639.455 364.018 643.813 364.018 643.813 370.723 648.171 370.723 648.171 364.018 648.171 362.566 648.171 329.042 639.455 329.042"/><path class="cls-5" d="M611.85363,291.38348a14.527,14.527,0,0,1,29.054,0Z"/><path class="cls-4" d="M611.85363,291.38348a14.527,14.527,0,1,0,29.054,0Z"/><path class="cls-5" d="M648.16549,329.04181a21.6086,21.6086,0,0,0-21.42766-21.67875c-11.80007,0-22.0773,9.69612-22.14176,21.67875h-.006l.00577.0039c-.00018.03653-.00577.07129-.00577.10782h.16776l8.54843,5.69908v11.7333h18.88508v4.3581H624.9279v4.35809H613.30631v4.3581h26.14858V329.15353h.16775l8.54844,5.69908v-5.8108Z"/><polygon class="cls-4" points="624.928 346.586 623.268 346.586 613.306 346.586 613.306 334.853 604.758 329.154 604.59 329.154 604.59 346.586 604.59 348.082 604.59 355.302 613.306 355.302 624.928 355.302 624.928 350.944 632.191 350.944 632.191 346.586 624.928 346.586"/><polygon class="cls-6" points="773.137 292.11 773.137 297.921 773.137 303.731 778.948 303.731 778.948 297.921 784.759 297.921 784.759 292.11 773.137 292.11"/><path class="cls-6" d="M799.28592,356.7548H778.94814l5.8108,11.62159v49.39174h7.26349l4.35809-24.4054c.69514-3.85873,1.34045-8.87189,1.84549-13.27928l1.05991,19.82706v17.85762h7.26349l4.3581-24.4054c1.58144-8.77861,2.9054-23.53364,2.9054-23.53364V356.7548Z"/><polygon class="cls-1" points="777.495 327.701 777.495 362.566 780.401 362.566 780.401 368.376 784.759 368.376 784.759 362.566 784.759 327.701 777.495 327.701"/><polygon class="cls-1" points="810.908 327.701 810.908 362.566 813.813 362.566 813.813 369.829 818.171 369.829 818.171 362.566 818.171 327.701 810.908 327.701"/><path class="cls-6" d="M784.759,292.10983a13.80063,13.80063,0,0,1,27.60127,0Z"/><path class="cls-5" d="M798.16661,307.36306c-11.0481,0-20.67116,9.10561-20.67116,20.33777l7.26349,5.8108V356.7548h26.14857v-29.054l7.26349,5.8108v-5.8108A20.17316,20.17316,0,0,0,798.16661,307.36306Z"/><path class="cls-1" d="M784.759,292.10983a13.80064,13.80064,0,1,0,27.60127,0Z"/><polygon class="cls-5" points="806.549 419.221 806.549 417.768 803.644 417.768 799.286 417.768 799.286 419.221 792.022 419.221 792.022 417.768 789.117 417.768 784.759 417.768 784.759 422.126 784.759 425.032 789.117 425.032 789.117 422.126 792.022 422.126 792.022 425.032 799.286 425.032 803.644 425.032 803.644 422.126 806.549 422.126 806.549 425.032 813.813 425.032 813.813 419.221 806.549 419.221"/><path class="cls-6" d="M886.771,382.6317l-1.04041-11.90851v-11.063H850.86583v12.23338l.76146,9.495.69124,8.61972L851.927,397.491l-1.06115,20.27713h10.16889l5.81079-29.054.93321-18.66376,6.33029,17.13481-1.4527,13.76233-1.4527,16.82059H881.3725l4.35809-23.24317C887.312,386.16449,886.771,382.6317,886.771,382.6317Z"/><polygon class="cls-5" points="865.393 420.674 865.393 417.768 850.866 417.768 850.866 425.032 862.487 425.032 865.393 425.032 869.751 425.032 869.751 420.674 865.393 420.674"/><polygon class="cls-5" points="885.731 420.674 885.731 417.768 871.204 417.768 871.204 425.032 882.825 425.032 885.731 425.032 890.089 425.032 890.089 420.674 885.731 420.674"/><polygon class="cls-1" points="877.014 329.042 877.014 364.018 881.372 364.018 881.372 370.723 885.731 370.723 885.731 364.018 885.731 362.566 885.731 329.042 877.014 329.042"/><path class="cls-6" d="M849.41315,291.38348a14.527,14.527,0,0,1,29.054,0Z"/><path class="cls-1" d="M849.41315,291.38348a14.527,14.527,0,1,0,29.054,0Z"/><path class="cls-5" d="M885.725,329.04181a21.6086,21.6086,0,0,0-21.42766-21.67875c-11.80007,0-22.07731,9.69612-22.14177,21.67875h-.00594l.00577.0039c-.00018.03653-.00577.07129-.00577.10782h.16776l8.54843,5.69908v11.7333h18.88508v4.3581h-7.26349v4.35809H850.86583v4.3581H877.0144V329.15353h.16776l8.54843,5.69908v-5.8108Z"/><polygon class="cls-1" points="862.487 346.586 860.827 346.586 850.866 346.586 850.866 334.853 842.317 329.154 842.15 329.154 842.15 346.586 842.15 348.082 842.15 355.302 850.866 355.302 862.487 355.302 862.487 350.944 869.751 350.944 869.751 346.586 862.487 346.586"/><polygon points="1010.697 292.11 1010.697 297.921 1010.697 303.731 1016.508 303.731 1016.508 297.921 1022.318 297.921 1022.318 292.11 1010.697 292.11"/><path class="cls-7" d="M1036.84544,356.7548h-20.33778l5.8108,11.62159v49.39174h7.26349l4.35809-24.4054c.69514-3.85873,1.34045-8.87189,1.84549-13.27928l1.05991,19.82706v17.85762h7.26349l4.3581-24.4054c1.58144-8.77861,2.90539-23.53364,2.90539-23.53364V356.7548Z"/><polygon class="cls-8" points="1015.055 327.701 1015.055 362.566 1017.96 362.566 1017.96 368.376 1022.318 368.376 1022.318 362.566 1022.318 327.701 1015.055 327.701"/><polygon class="cls-8" points="1048.467 327.701 1048.467 362.566 1051.372 362.566 1051.372 369.829 1055.731 369.829 1055.731 362.566 1055.731 327.701 1048.467 327.701"/><path d="M1022.31847,292.10983a13.80064,13.80064,0,0,1,27.60127,0Z"/><path d="M1035.72612,307.36306c-11.04809,0-20.67116,9.10561-20.67116,20.33777l7.2635,5.8108V356.7548H1048.467v-29.054l7.26349,5.8108v-5.8108A20.17316,20.17316,0,0,0,1035.72612,307.36306Z"/><path class="cls-8" d="M1022.31847,292.10983a13.80064,13.80064,0,1,0,27.60127,0Z"/><polygon points="1044.109 419.221 1044.109 417.768 1041.204 417.768 1036.845 417.768 1036.845 419.221 1029.582 419.221 1029.582 417.768 1026.677 417.768 1022.318 417.768 1022.318 422.126 1022.318 425.032 1026.677 425.032 1026.677 422.126 1029.582 422.126 1029.582 425.032 1036.845 425.032 1041.204 425.032 1041.204 422.126 1044.109 422.126 1044.109 425.032 1051.372 425.032 1051.372 419.221 1044.109 419.221"/><path class="cls-7" d="M1124.33051,382.6317l-1.0404-11.90851v-11.063h-34.86476v12.23338l.76146,9.495.69124,8.61972-.39155,7.48267-1.06115,20.27713h10.16889l5.81079-29.054.93321-18.66376,6.33028,17.13481-1.45269,13.76233-1.4527,16.82059H1118.932l4.35809-23.24317C1124.87155,386.16449,1124.33051,382.6317,1124.33051,382.6317Z"/><polygon points="1102.952 420.674 1102.952 417.768 1088.425 417.768 1088.425 425.032 1100.047 425.032 1102.952 425.032 1107.31 425.032 1107.31 420.674 1102.952 420.674"/><polygon points="1123.29 420.674 1123.29 417.768 1108.763 417.768 1108.763 425.032 1120.385 425.032 1123.29 425.032 1127.648 425.032 1127.648 420.674 1123.29 420.674"/><polygon class="cls-8" points="1114.574 329.042 1114.574 364.018 1118.932 364.018 1118.932 370.723 1123.29 370.723 1123.29 364.018 1123.29 362.566 1123.29 329.042 1114.574 329.042"/><path d="M1086.97267,291.38348a14.527,14.527,0,0,1,29.054,0Z"/><path class="cls-8" d="M1086.97267,291.38348a14.527,14.527,0,1,0,29.054,0Z"/><path d="M1123.28453,329.04181a21.6086,21.6086,0,0,0-21.42766-21.67875c-11.80007,0-22.07731,9.69612-22.14177,21.67875h-.00594l.00576.0039c-.00017.03653-.00576.07129-.00576.10782h.16776l8.54843,5.69908v11.7333h18.88508v4.3581h-7.26349v4.35809h-11.62159v4.3581h26.14857V329.15353h.16776l8.54843,5.69908v-5.8108Z"/><polygon class="cls-8" points="1100.047 346.586 1098.387 346.586 1088.425 346.586 1088.425 334.853 1079.877 329.154 1079.709 329.154 1079.709 346.586 1079.709 348.082 1079.709 355.302 1088.425 355.302 1100.047 355.302 1100.047 350.944 1107.31 350.944 1107.31 346.586 1100.047 346.586"/><rect class="cls-2" x="174.07354" y="491.14645" width="2.37677" height="2.37677" transform="translate(647.32412 716.53923) rotate(135)"/><rect class="cls-2" x="172.39292" y="492.82707" width="2.37677" height="2.37677" transform="translate(645.64349 720.59662) rotate(135)"/><rect class="cls-2" x="174.07354" y="494.5077" width="2.37677" height="2.37677" transform="translate(649.70088 722.27725) rotate(135)"/><rect class="cls-2" x="148.16321" y="494.41805" width="2.37677" height="2.37677" transform="translate(-306.7026 250.76729) rotate(-45)"/><rect class="cls-2" x="149.84384" y="492.73742" width="2.37677" height="2.37677" transform="translate(-305.02197 251.46342) rotate(-45)"/><rect class="cls-2" x="148.16321" y="491.05679" width="2.37677" height="2.37677" transform="translate(-304.32583 249.7828) rotate(-45)"/><path class="cls-2" d="M150.17154,555.91062l.68775-8.46311v-6.72232h22.80745V548.812l-.50341,6.27685-.45689,5.69806.25885,4.94634.70145,13.40448H166.9445l-3.8412-19.20628L162.515,548.1661l-3.97322,10.75459.96037,9.0976.9603,11.11946h-6.72224l-2.8809-15.36508C149.81385,558.24606,150.17154,555.91062,150.17154,555.91062Z"/><polygon class="cls-9" points="176.068 523.827 176.068 541.926 173.667 541.926 173.667 545.527 171.266 545.527 171.266 541.926 171.266 541.88 171.266 523.827 176.068 523.827"/><polygon class="cls-9" points="153.26 523.827 153.26 541.926 150.859 541.926 150.859 545.527 148.459 545.527 148.459 541.926 148.459 541.88 148.459 523.827 153.26 523.827"/><rect class="cls-9" x="167.06457" y="576.13686" width="3.60118" height="9.60314" transform="translate(-412.07327 749.80359) rotate(-90)"/><rect class="cls-9" x="153.86026" y="576.13686" width="3.60118" height="9.60314" transform="translate(-425.27758 736.59927) rotate(-90)"/><path class="cls-2" d="M171.86614,498.71155a9.60314,9.60314,0,0,0-19.20628,0"/><path class="cls-2" d="M148.46092,523.87369a13.39538,13.39538,0,0,1,13.57578-13.15831c7.483,0,14.00035,5.88738,14.02826,13.15831h.00257l-.00249.00176c.00007.01494.00249.0293.00249.04425h-.06074l-4.74083,3.60118v13.20431H153.26007V523.9197h-.06073l-4.74084,3.60118v-3.64719Z"/><path class="cls-9" d="M152.65986,498.71155a9.60314,9.60314,0,0,0,19.20628,0"/><rect class="cls-2" x="411.27014" y="491.14645" width="2.37677" height="2.37677" transform="translate(1052.24403 548.81591) rotate(135)"/><rect class="cls-2" x="409.58951" y="492.82707" width="2.37677" height="2.37677" transform="translate(1050.56341 552.8733) rotate(135)"/><rect class="cls-2" x="411.27014" y="494.5077" width="2.37677" height="2.37677" transform="translate(1054.6208 554.55393) rotate(135)"/><rect class="cls-2" x="385.3598" y="494.41805" width="2.37677" height="2.37677" transform="translate(-237.22932 418.49061) rotate(-45)"/><rect class="cls-2" x="387.04043" y="492.73742" width="2.37677" height="2.37677" transform="translate(-235.5487 419.18674) rotate(-45)"/><rect class="cls-2" x="385.3598" y="491.05679" width="2.37677" height="2.37677" transform="translate(-234.85256 417.50612) rotate(-45)"/><path class="cls-2" d="M387.36813,555.91062l.68775-8.46311v-6.72232h22.80746V548.812l-.50341,6.27685-.45689,5.69806.25885,4.94634.70145,13.40448H404.1411l-3.8412-19.20628-.58833-11.76537-3.97322,10.75459.96037,9.0976.9603,11.11946h-6.72224l-2.8809-15.36508C387.01045,558.24606,387.36813,555.91062,387.36813,555.91062Z"/><path class="cls-2" d="M409.06274,498.71155a9.60314,9.60314,0,0,0-19.20628,0"/><path class="cls-2" d="M385.65752,523.87369a13.39538,13.39538,0,0,1,13.57577-13.15831c7.483,0,14.00035,5.88738,14.02827,13.15831h.00256l-.00249.00176c.00007.01494.00249.0293.00249.04425h-.06074l-4.74083,3.60118v13.20431H390.45667V523.9197h-.06074l-4.74083,3.60118v-3.64719Z"/><polygon class="cls-3" points="413.264 523.827 413.264 541.926 410.863 541.926 410.863 545.527 408.463 545.527 408.463 541.926 408.463 541.88 408.463 523.827 413.264 523.827"/><polygon class="cls-3" points="390.457 523.827 390.457 541.926 388.056 541.926 388.056 545.527 385.655 545.527 385.655 541.926 385.655 541.88 385.655 523.827 390.457 523.827"/><rect class="cls-3" x="404.26117" y="576.13686" width="3.60118" height="9.60314" transform="translate(-174.87667 987.00018) rotate(-90)"/><rect class="cls-3" x="391.05685" y="576.13686" width="3.60118" height="9.60314" transform="translate(-188.08099 973.79587) rotate(-90)"/><path class="cls-3" d="M389.85646,498.71155a9.60314,9.60314,0,0,0,19.20628,0"/><rect class="cls-5" x="647.08992" y="491.14645" width="2.37677" height="2.37677" transform="translate(1454.81359 382.06614) rotate(135)"/><rect class="cls-5" x="645.4093" y="492.82707" width="2.37677" height="2.37677" transform="translate(1453.13296 386.12353) rotate(135)"/><rect class="cls-5" x="647.08992" y="494.5077" width="2.37677" height="2.37677" transform="translate(1457.19035 387.80416) rotate(135)"/><rect class="cls-5" x="621.17959" y="494.41805" width="2.37677" height="2.37677" transform="translate(-168.15931 585.24038) rotate(-45)"/><rect class="cls-5" x="622.86022" y="492.73742" width="2.37677" height="2.37677" transform="translate(-166.47868 585.93652) rotate(-45)"/><rect class="cls-5" x="621.17959" y="491.05679" width="2.37677" height="2.37677" transform="translate(-165.78254 584.25589) rotate(-45)"/><path class="cls-5" d="M623.18792,555.91062l.68775-8.46311v-6.72232h22.80745V548.812l-.50341,6.27685-.45688,5.69806.25884,4.94634.70145,13.40448h-6.72224l-3.84119-19.20628-.58833-11.76537-3.97322,10.75459.96037,9.0976.9603,11.11946h-6.72224l-2.8809-15.36508C622.83024,558.24606,623.18792,555.91062,623.18792,555.91062Z"/><path class="cls-5" d="M644.88252,498.71155a9.60313,9.60313,0,1,0-19.20627,0"/><path class="cls-5" d="M621.4773,523.87369a13.39539,13.39539,0,0,1,13.57578-13.15831c7.483,0,14.00035,5.88738,14.02826,13.15831h.00257l-.00249.00176c.00007.01494.00249.0293.00249.04425h-.06074l-4.74083,3.60118v13.20431H626.27645V523.9197h-.06073l-4.74083,3.60118v-3.64719Z"/><polygon class="cls-4" points="649.084 523.827 649.084 541.926 646.683 541.926 646.683 545.527 644.282 545.527 644.282 541.926 644.282 541.88 644.282 523.827 649.084 523.827"/><polygon class="cls-4" points="626.276 523.827 626.276 541.926 623.876 541.926 623.876 545.527 621.475 545.527 621.475 541.926 621.475 541.88 621.475 523.827 626.276 523.827"/><rect class="cls-4" x="640.08095" y="576.13686" width="3.60118" height="9.60314" transform="translate(60.94312 1222.81997) rotate(-90)"/><rect class="cls-4" x="626.87664" y="576.13686" width="3.60118" height="9.60314" transform="translate(47.7388 1209.61565) rotate(-90)"/><path class="cls-4" d="M625.67625,498.71155a9.60313,9.60313,0,1,0,19.20627,0"/><rect class="cls-5" x="883.04544" y="491.14645" width="2.37677" height="2.37677" transform="translate(1857.61485 215.22039) rotate(135)"/><rect class="cls-5" x="881.36481" y="492.82707" width="2.37677" height="2.37677" transform="translate(1855.93423 219.27778) rotate(135)"/><rect class="cls-5" x="883.04544" y="494.5077" width="2.37677" height="2.37677" transform="translate(1859.99162 220.95841) rotate(135)"/><rect class="cls-5" x="857.13511" y="494.41805" width="2.37677" height="2.37677" transform="translate(-99.04954 752.08612) rotate(-45)"/><rect class="cls-5" x="858.81573" y="492.73742" width="2.37677" height="2.37677" transform="translate(-97.36891 752.78226) rotate(-45)"/><rect class="cls-5" x="857.13511" y="491.05679" width="2.37677" height="2.37677" transform="translate(-96.67277 751.10163) rotate(-45)"/><path class="cls-6" d="M859.14344,555.91062l.68775-8.46311v-6.72232h22.80745V548.812l-.50341,6.27685-.45689,5.69806.25885,4.94634.70145,13.40448H875.9164l-3.8412-19.20628-.58832-11.76537-3.97323,10.75459.96038,9.0976.9603,11.11946h-6.72225l-2.88089-15.36508C858.78575,558.24606,859.14344,555.91062,859.14344,555.91062Z"/><path class="cls-5" d="M880.838,498.71155a9.60314,9.60314,0,1,0-19.20628,0"/><path class="cls-5" d="M857.43282,523.87369a13.39538,13.39538,0,0,1,13.57578-13.15831c7.483,0,14.00035,5.88738,14.02826,13.15831h.00257l-.0025.00176c.00008.01494.0025.0293.0025.04425h-.06074l-4.74083,3.60118v13.20431H862.232V523.9197h-.06074l-4.74083,3.60118v-3.64719Z"/><polygon class="cls-1" points="885.039 523.827 885.039 541.926 882.639 541.926 882.639 545.527 880.238 545.527 880.238 541.926 880.238 541.88 880.238 523.827 885.039 523.827"/><polygon class="cls-1" points="862.232 523.827 862.232 541.926 859.831 541.926 859.831 545.527 857.43 545.527 857.43 541.926 857.43 541.88 857.43 523.827 862.232 523.827"/><rect class="cls-5" x="876.03647" y="576.13686" width="3.60118" height="9.60314" transform="translate(296.89863 1458.77549) rotate(-90)"/><rect class="cls-5" x="862.83215" y="576.13686" width="3.60118" height="9.60314" transform="translate(283.69432 1445.57117) rotate(-90)"/><path class="cls-1" d="M861.63176,498.71155a9.60314,9.60314,0,1,0,19.20628,0"/><rect x="1123.04496" y="491.14645" width="2.37677" height="2.37677" transform="translate(2267.31965 45.51511) rotate(135)"/><rect x="1121.36433" y="492.82707" width="2.37677" height="2.37677" transform="translate(2265.63903 49.5725) rotate(135)"/><rect x="1123.04496" y="494.5077" width="2.37677" height="2.37677" transform="translate(2269.69642 51.25313) rotate(135)"/><rect x="1097.13462" y="494.41805" width="2.37677" height="2.37677" transform="translate(-28.75531 921.79141) rotate(-45)"/><rect x="1098.81525" y="492.73742" width="2.37677" height="2.37677" transform="translate(-27.07468 922.48755) rotate(-45)"/><rect x="1097.13462" y="491.05679" width="2.37677" height="2.37677" transform="translate(-26.37854 920.80692) rotate(-45)"/><path class="cls-7" d="M1099.143,555.91062l.68775-8.46311v-6.72232h22.80746V548.812l-.50341,6.27685-.45689,5.69806.25885,4.94634.70145,13.40448h-6.72224l-3.8412-19.20628-.58833-11.76537-3.97322,10.75459.96037,9.0976.9603,11.11946h-6.72224l-2.8809-15.36508C1098.78527,558.24606,1099.143,555.91062,1099.143,555.91062Z"/><path d="M1120.83756,498.71155a9.60314,9.60314,0,1,0-19.20628,0"/><path d="M1097.43234,523.87369a13.39538,13.39538,0,0,1,13.57577-13.15831c7.483,0,14.00035,5.88738,14.02827,13.15831h.00256l-.00249.00176c.00007.01494.00249.0293.00249.04425h-.06074l-4.74083,3.60118v13.20431h-18.00588V523.9197h-.06074l-4.74083,3.60118v-3.64719Z"/><polygon class="cls-8" points="1125.039 523.827 1125.039 541.926 1122.638 541.926 1122.638 545.527 1120.237 545.527 1120.237 541.926 1120.237 541.88 1120.237 523.827 1125.039 523.827"/><polygon class="cls-8" points="1102.231 523.827 1102.231 541.926 1099.831 541.926 1099.831 545.527 1097.43 545.527 1097.43 541.926 1097.43 541.88 1097.43 523.827 1102.231 523.827"/><rect x="1116.03599" y="576.13686" width="3.60118" height="9.60314" transform="translate(536.89815 1698.775) rotate(-90)"/><rect x="1102.83167" y="576.13686" width="3.60118" height="9.60314" transform="translate(523.69383 1685.57069) rotate(-90)"/><path class="cls-8" d="M1101.63128,498.71155a9.60314,9.60314,0,1,0,19.20628,0"/></svg>