<svg id="Layer_1" data-name="Layer 1" xmlns="http://www.w3.org/2000/svg" width="419.99958mm" height="297.00008mm" viewBox="0 0 1190.55 841.89"><defs><style>.cls-1{fill:#004b45;}.cls-2{fill:#f9c663;}.cls-3{fill:#ff8274;}.cls-4{fill:#f9c66b;}.cls-5{fill:#c7f6c9;}.cls-6{fill:#43f8b6;}.cls-7{fill:#fff;}.cls-8{fill:#f8f0dd;}.cls-9{fill:#d0bfae;}.cls-10{fill:#cfbeac;}.cls-11{fill:#034b45;}</style></defs><title>Oslo-illustrasjoner_rgb</title><rect class="cls-1" x="185.24427" y="495.79101" width="4.45477" height="92.06528"/><circle class="cls-1" cx="175.59227" cy="539.10857" r="9.65201"/><circle class="cls-1" cx="199.35105" cy="558.90027" r="9.65201"/><circle class="cls-1" cx="177.81965" cy="510.64024" r="7.42462"/><circle class="cls-1" cx="197.12366" cy="529.94426" r="7.42462"/><circle class="cls-2" cx="107.28577" cy="459.41037" r="8.16708"/><rect class="cls-1" x="162.97041" y="433.4242" width="49.00249" height="49.00249" transform="translate(-268.89301 266.68574) rotate(-45)"/><rect class="cls-1" x="162.97041" y="433.4242" width="49.00249" height="49.00249"/><path class="cls-1" d="M281.05676,445.30361l-14.36,14.35982-14.35982-14.35982a20.40742,20.40742,0,0,0-.06888,28.7887l-.07614.07614a20.59439,20.59439,0,0,0,29.00986,0l-.07614-.07614A20.40742,20.40742,0,0,0,281.05676,445.30361Z"/><rect class="cls-1" x="264.46946" y="483.91161" width="4.45477" height="87.61051"/><circle class="cls-1" cx="254.81746" cy="534.6538" r="9.65201"/><circle class="cls-1" cx="278.57624" cy="535.14149" r="9.65201"/><circle class="cls-1" cx="257.04484" cy="506.18547" r="7.42462"/><circle class="cls-1" cx="276.34886" cy="506.18547" r="7.42462"/><rect class="cls-1" x="105.05838" y="486.88146" width="4.45477" height="84.64066"/><circle class="cls-1" cx="95.40637" cy="534.6538" r="9.65201"/><circle class="cls-1" cx="119.16516" cy="535.14149" r="9.65201"/><circle class="cls-1" cx="97.63376" cy="506.18547" r="7.42462"/><circle class="cls-1" cx="116.93777" cy="506.18547" r="7.42462"/><polygon class="cls-2" points="271.027 446.673 266.697 451.003 262.367 446.673 258.037 451.003 262.367 455.333 266.697 459.663 271.027 455.333 275.356 451.003 271.027 446.673"/><circle class="cls-2" cx="187.47166" cy="459.41037" r="9.65201"/><rect class="cls-1" x="185.24427" y="457.18298" width="4.45477" height="4.45477"/><polygon class="cls-1" points="113.968 467.577 113.968 486.881 133.272 486.881 113.968 467.577"/><polygon class="cls-2" points="133.272 486.881 133.272 467.577 113.968 467.577 133.272 486.881"/><polygon class="cls-1" points="113.968 451.243 133.272 451.243 133.272 431.939 113.968 451.243"/><polygon class="cls-2" points="133.272 431.939 113.968 431.939 113.968 451.243 133.272 431.939"/><polygon class="cls-1" points="100.604 451.243 100.604 431.939 81.3 431.939 100.604 451.243"/><polygon class="cls-2" points="81.3 431.939 81.3 451.243 100.604 451.243 81.3 431.939"/><polygon class="cls-1" points="100.604 467.577 81.3 467.577 81.3 486.881 100.604 467.577"/><polygon class="cls-2" points="81.3 486.881 100.604 486.881 100.604 467.577 81.3 486.881"/><rect class="cls-1" x="599.6392" y="720.57929" width="4.45477" height="92.06528"/><circle class="cls-1" cx="589.98719" cy="763.89686" r="9.65201"/><circle class="cls-1" cx="613.74598" cy="783.68856" r="9.65201"/><circle class="cls-1" cx="592.21458" cy="735.42853" r="7.42462"/><circle class="cls-1" cx="611.51859" cy="754.73254" r="7.42462"/><circle class="cls-2" cx="521.68069" cy="684.19866" r="8.16708"/><rect class="cls-3" x="577.36534" y="658.21249" width="49.00249" height="49.00249" transform="translate(-306.46887 625.54617) rotate(-45)"/><rect class="cls-3" x="577.36534" y="658.21249" width="49.00249" height="49.00249"/><path class="cls-4" d="M695.45169,670.09189l-14.36,14.35983-14.35983-14.35983a20.40743,20.40743,0,0,0-.06888,28.78871l-.07613.07613a20.59438,20.59438,0,0,0,29.00985,0l-.07613-.07613A20.40743,20.40743,0,0,0,695.45169,670.09189Z"/><rect class="cls-1" x="678.86439" y="708.6999" width="4.45477" height="87.61051"/><circle class="cls-1" cx="669.21239" cy="759.44209" r="9.65201"/><circle class="cls-1" cx="692.97117" cy="759.92978" r="9.65201"/><circle class="cls-1" cx="671.43977" cy="730.97376" r="7.42462"/><circle class="cls-1" cx="690.74378" cy="730.97376" r="7.42462"/><rect class="cls-1" x="519.45331" y="711.66975" width="4.45477" height="84.64066"/><circle class="cls-1" cx="509.8013" cy="759.44209" r="9.65201"/><circle class="cls-1" cx="533.56008" cy="759.92978" r="9.65201"/><circle class="cls-1" cx="512.02869" cy="730.97376" r="7.42462"/><circle class="cls-1" cx="531.3327" cy="730.97376" r="7.42462"/><polygon class="cls-3" points="685.421 671.462 681.092 675.791 676.762 671.462 672.432 675.791 676.762 680.121 681.092 684.451 685.421 680.121 689.751 675.791 685.421 671.462"/><circle class="cls-2" cx="601.86658" cy="684.19866" r="9.65201"/><rect class="cls-1" x="599.6392" y="681.97127" width="4.45477" height="4.45477"/><polygon class="cls-1" points="528.363 692.366 528.363 711.67 547.667 711.67 528.363 692.366"/><polygon class="cls-5" points="547.667 711.67 547.667 692.366 528.363 692.366 547.667 711.67"/><polygon class="cls-1" points="528.363 676.032 547.667 676.032 547.667 656.728 528.363 676.032"/><polygon class="cls-5" points="547.667 656.728 528.363 656.728 528.363 676.032 547.667 656.728"/><polygon class="cls-1" points="514.999 676.032 514.999 656.728 495.695 656.728 514.999 676.032"/><polygon class="cls-5" points="495.695 656.728 495.695 676.032 514.999 676.032 495.695 656.728"/><polygon class="cls-1" points="514.999 692.366 495.695 692.366 495.695 711.67 514.999 692.366"/><polygon class="cls-5" points="495.695 711.67 514.999 711.67 514.999 692.366 495.695 711.67"/><rect class="cls-6" x="469.9673" y="495.79101" width="4.45477" height="92.06528"/><circle class="cls-6" cx="460.31529" cy="539.10857" r="9.65201"/><circle class="cls-6" cx="484.07408" cy="558.90027" r="9.65201"/><circle class="cls-6" cx="462.54268" cy="510.64024" r="7.42462"/><circle class="cls-6" cx="481.84669" cy="529.94426" r="7.42462"/><circle class="cls-5" cx="392.00879" cy="459.41037" r="8.16708"/><rect class="cls-6" x="447.69344" y="433.4242" width="49.00249" height="49.00249" transform="translate(-185.49957 468.01532) rotate(-45)"/><rect class="cls-6" x="447.69344" y="433.4242" width="49.00249" height="49.00249"/><path class="cls-6" d="M565.77979,445.30361l-14.36,14.35982L537.06,445.30361a20.40742,20.40742,0,0,0-.06888,28.7887l-.07613.07614a20.59438,20.59438,0,0,0,29.00985,0l-.07613-.07614A20.40742,20.40742,0,0,0,565.77979,445.30361Z"/><rect class="cls-6" x="549.19249" y="483.91161" width="4.45477" height="87.61051"/><circle class="cls-6" cx="539.54049" cy="534.6538" r="9.65201"/><circle class="cls-6" cx="563.29927" cy="535.14149" r="9.65201"/><circle class="cls-6" cx="541.76787" cy="506.18547" r="7.42462"/><circle class="cls-6" cx="561.07188" cy="506.18547" r="7.42462"/><rect class="cls-6" x="389.78141" y="486.88146" width="4.45477" height="84.64066"/><circle class="cls-6" cx="380.1294" cy="534.6538" r="9.65201"/><circle class="cls-6" cx="403.88819" cy="535.14149" r="9.65201"/><circle class="cls-6" cx="382.35679" cy="506.18547" r="7.42462"/><circle class="cls-6" cx="401.6608" cy="506.18547" r="7.42462"/><polygon class="cls-5" points="555.75 446.673 551.42 451.003 547.09 446.673 542.76 451.003 547.09 455.333 551.42 459.663 555.75 455.333 560.079 451.003 555.75 446.673"/><circle class="cls-5" cx="472.19469" cy="459.41037" r="9.65201"/><rect class="cls-7" x="469.9673" y="457.18298" width="4.45477" height="4.45477"/><polygon class="cls-6" points="398.691 467.577 398.691 486.881 417.995 486.881 398.691 467.577"/><polygon class="cls-5" points="417.995 486.881 417.995 467.577 398.691 467.577 417.995 486.881"/><polygon class="cls-6" points="398.691 451.243 417.995 451.243 417.995 431.939 398.691 451.243"/><polygon class="cls-5" points="417.995 431.939 398.691 431.939 398.691 451.243 417.995 431.939"/><polygon class="cls-6" points="385.327 451.243 385.327 431.939 366.023 431.939 385.327 451.243"/><polygon class="cls-5" points="366.023 431.939 366.023 451.243 385.327 451.243 366.023 431.939"/><polygon class="cls-6" points="385.327 467.577 366.023 467.577 366.023 486.881 385.327 467.577"/><polygon class="cls-5" points="366.023 486.881 385.327 486.881 385.327 467.577 366.023 486.881"/><rect class="cls-4" x="754.69033" y="495.79101" width="4.45477" height="92.06528"/><circle class="cls-4" cx="745.03832" cy="539.10857" r="9.65201"/><circle class="cls-4" cx="768.7971" cy="558.90027" r="9.65201"/><circle class="cls-4" cx="747.26571" cy="510.64024" r="7.42462"/><circle class="cls-4" cx="766.56972" cy="529.94426" r="7.42462"/><circle class="cls-8" cx="676.73182" cy="459.41037" r="8.16708"/><rect class="cls-4" x="732.41647" y="433.4242" width="49.00249" height="49.00249" transform="translate(-102.10612 669.34491) rotate(-45)"/><rect class="cls-4" x="732.41647" y="433.4242" width="49.00249" height="49.00249"/><path class="cls-4" d="M850.50282,445.30361l-14.36,14.35982L821.783,445.30361a20.40742,20.40742,0,0,0-.06888,28.7887l-.07613.07614a20.59438,20.59438,0,0,0,29.00985,0l-.07613-.07614A20.40742,20.40742,0,0,0,850.50282,445.30361Z"/><rect class="cls-4" x="833.91552" y="483.91161" width="4.45477" height="87.61051"/><circle class="cls-4" cx="824.26352" cy="534.6538" r="9.65201"/><circle class="cls-4" cx="848.0223" cy="535.14149" r="9.65201"/><circle class="cls-4" cx="826.4909" cy="506.18547" r="7.42462"/><circle class="cls-4" cx="845.79491" cy="506.18547" r="7.42462"/><rect class="cls-4" x="674.50444" y="486.88146" width="4.45477" height="84.64066"/><circle class="cls-4" cx="664.85243" cy="534.6538" r="9.65201"/><circle class="cls-4" cx="688.61121" cy="535.14149" r="9.65201"/><circle class="cls-4" cx="667.07982" cy="506.18547" r="7.42462"/><circle class="cls-4" cx="686.38383" cy="506.18547" r="7.42462"/><polygon class="cls-8" points="840.473 446.673 836.143 451.003 831.813 446.673 827.483 451.003 831.813 455.333 836.143 459.663 840.473 455.333 844.802 451.003 840.473 446.673"/><circle class="cls-8" cx="756.91771" cy="459.41037" r="9.65201"/><rect class="cls-7" x="754.69033" y="457.18298" width="4.45477" height="4.45477"/><polygon class="cls-4" points="683.414 467.577 683.414 486.881 702.718 486.881 683.414 467.577"/><polygon class="cls-8" points="702.718 486.881 702.718 467.577 683.414 467.577 702.718 486.881"/><polygon class="cls-4" points="683.414 451.243 702.718 451.243 702.718 431.939 683.414 451.243"/><polygon class="cls-8" points="702.718 431.939 683.414 431.939 683.414 451.243 702.718 431.939"/><polygon class="cls-4" points="670.05 451.243 670.05 431.939 650.746 431.939 670.05 451.243"/><polygon class="cls-8" points="650.746 431.939 650.746 451.243 670.05 451.243 650.746 431.939"/><polygon class="cls-4" points="670.05 467.577 650.746 467.577 650.746 486.881 670.05 467.577"/><polygon class="cls-8" points="650.746 486.881 670.05 486.881 670.05 467.577 650.746 486.881"/><rect class="cls-3" x="1039.41336" y="495.79101" width="4.45477" height="92.06528"/><circle class="cls-3" cx="1029.76135" cy="539.10857" r="9.65201"/><circle class="cls-3" cx="1053.52013" cy="558.90027" r="9.65201"/><circle class="cls-3" cx="1031.98874" cy="510.64024" r="7.42462"/><circle class="cls-3" cx="1051.29275" cy="529.94426" r="7.42462"/><circle class="cls-9" cx="961.45485" cy="459.41037" r="8.16708"/><rect class="cls-3" x="1017.1395" y="433.4242" width="49.00249" height="49.00249" transform="translate(-18.71268 870.67449) rotate(-45)"/><rect class="cls-3" x="1017.1395" y="433.4242" width="49.00249" height="49.00249"/><path class="cls-3" d="M1135.22585,445.30361l-14.36,14.35982L1106.506,445.30361a20.40742,20.40742,0,0,0-.06888,28.7887l-.07613.07614a20.59438,20.59438,0,0,0,29.00985,0l-.07613-.07614A20.40742,20.40742,0,0,0,1135.22585,445.30361Z"/><rect class="cls-3" x="1118.63855" y="483.91161" width="4.45477" height="87.61051"/><circle class="cls-3" cx="1108.98654" cy="534.6538" r="9.65201"/><circle class="cls-3" cx="1132.74533" cy="535.14149" r="9.65201"/><circle class="cls-3" cx="1111.21393" cy="506.18547" r="7.42462"/><circle class="cls-3" cx="1130.51794" cy="506.18547" r="7.42462"/><rect class="cls-3" x="959.22747" y="486.88146" width="4.45477" height="84.64066"/><circle class="cls-3" cx="949.57546" cy="534.6538" r="9.65201"/><circle class="cls-3" cx="973.33424" cy="535.14149" r="9.65201"/><circle class="cls-3" cx="951.80285" cy="506.18547" r="7.42462"/><circle class="cls-3" cx="971.10686" cy="506.18547" r="7.42462"/><polygon class="cls-9" points="1125.196 446.673 1120.866 451.003 1116.536 446.673 1112.207 451.003 1116.536 455.333 1120.866 459.663 1125.196 455.333 1129.525 451.003 1125.196 446.673"/><circle class="cls-8" cx="1041.64074" cy="459.41037" r="9.65201"/><rect class="cls-9" x="1039.41336" y="457.18298" width="4.45477" height="4.45477"/><polygon class="cls-3" points="968.137 467.577 968.137 486.881 987.441 486.881 968.137 467.577"/><polygon class="cls-8" points="987.441 486.881 987.441 467.577 968.137 467.577 987.441 486.881"/><polygon class="cls-3" points="968.137 451.243 987.441 451.243 987.441 431.939 968.137 451.243"/><polygon class="cls-8" points="987.441 431.939 968.137 431.939 968.137 451.243 987.441 431.939"/><polygon class="cls-3" points="954.773 451.243 954.773 431.939 935.469 431.939 954.773 451.243"/><polygon class="cls-8" points="935.469 431.939 935.469 451.243 954.773 451.243 935.469 431.939"/><polygon class="cls-3" points="954.773 467.577 935.469 467.577 935.469 486.881 954.773 467.577"/><polygon class="cls-8" points="935.469 486.881 954.773 486.881 954.773 467.577 935.469 486.881"/><circle class="cls-2" cx="108.79475" cy="328.84446" r="8.64133"/><rect class="cls-1" x="167.71293" y="301.34931" width="51.848" height="51.848" transform="translate(-174.70223 232.77812) rotate(-45)"/><rect class="cls-1" x="167.71293" y="301.34931" width="51.848" height="51.848"/><path class="cls-1" d="M292.6564,313.91853l-15.19387,15.19368-15.19368-15.19368A21.59246,21.59246,0,0,0,262.196,344.379l-.08055.08055a21.79024,21.79024,0,0,0,30.69441,0l-.08055-.08055A21.59246,21.59246,0,0,0,292.6564,313.91853Z"/><polygon class="cls-2" points="282.044 315.368 277.463 319.949 272.881 315.368 268.3 319.949 272.881 324.53 277.463 329.111 282.044 324.53 286.625 319.949 282.044 315.368"/><circle class="cls-2" cx="193.63693" cy="328.84446" r="10.21248"/><rect class="cls-1" x="191.2802" y="326.48773" width="4.71345" height="4.71345"/><polygon class="cls-1" points="115.865 337.486 115.865 357.911 136.29 357.911 115.865 337.486"/><polygon class="cls-2" points="136.29 357.911 136.29 337.486 115.865 337.486 136.29 357.911"/><polygon class="cls-1" points="115.865 320.203 136.29 320.203 136.29 299.778 115.865 320.203"/><polygon class="cls-2" points="136.29 299.778 115.865 299.778 115.865 320.203 136.29 299.778"/><polygon class="cls-1" points="101.725 320.203 101.725 299.778 81.3 299.778 101.725 320.203"/><polygon class="cls-2" points="81.3 299.778 81.3 320.203 101.725 320.203 81.3 299.778"/><polygon class="cls-1" points="101.725 337.486 81.3 337.486 81.3 357.911 101.725 337.486"/><polygon class="cls-2" points="81.3 357.911 101.725 357.911 101.725 337.486 81.3 357.911"/><circle class="cls-5" cx="393.51778" cy="328.84446" r="8.64133"/><rect class="cls-6" x="452.43596" y="301.34931" width="51.848" height="51.848" transform="translate(-91.30879 434.1077) rotate(-45)"/><rect class="cls-6" x="452.43596" y="301.34931" width="51.848" height="51.848"/><path class="cls-6" d="M577.37943,313.91853l-15.19387,15.19368-15.19368-15.19368A21.59246,21.59246,0,0,0,546.919,344.379l-.08055.08055a21.79024,21.79024,0,0,0,30.69441,0l-.08055-.08055A21.59246,21.59246,0,0,0,577.37943,313.91853Z"/><polygon class="cls-5" points="566.767 315.368 562.186 319.949 557.605 315.368 553.023 319.949 557.605 324.53 562.186 329.111 566.767 324.53 571.348 319.949 566.767 315.368"/><circle class="cls-5" cx="478.35996" cy="328.84446" r="10.21248"/><rect class="cls-7" x="476.00323" y="326.48773" width="4.71345" height="4.71345"/><polygon class="cls-6" points="400.588 337.486 400.588 357.911 421.013 357.911 400.588 337.486"/><polygon class="cls-5" points="421.013 357.911 421.013 337.486 400.588 337.486 421.013 357.911"/><polygon class="cls-6" points="400.588 320.203 421.013 320.203 421.013 299.778 400.588 320.203"/><polygon class="cls-5" points="421.013 299.778 400.588 299.778 400.588 320.203 421.013 299.778"/><polygon class="cls-6" points="386.448 320.203 386.448 299.778 366.023 299.778 386.448 320.203"/><polygon class="cls-5" points="366.023 299.778 366.023 320.203 386.448 320.203 366.023 299.778"/><polygon class="cls-6" points="386.448 337.486 366.023 337.486 366.023 357.911 386.448 337.486"/><polygon class="cls-5" points="366.023 357.911 386.448 357.911 386.448 337.486 366.023 357.911"/><circle class="cls-9" cx="678.24081" cy="328.84446" r="8.64133"/><rect class="cls-4" x="737.15899" y="301.34931" width="51.848" height="51.848" transform="translate(-7.91534 635.43729) rotate(-45)"/><rect class="cls-4" x="737.15899" y="301.34931" width="51.848" height="51.848"/><path class="cls-4" d="M862.10246,313.91853l-15.19387,15.19368-15.19368-15.19368A21.59245,21.59245,0,0,0,831.642,344.379l-.08056.08055a21.79026,21.79026,0,0,0,30.69442,0l-.08055-.08055A21.59246,21.59246,0,0,0,862.10246,313.91853Z"/><polygon class="cls-8" points="851.49 315.368 846.909 319.949 842.328 315.368 837.746 319.949 842.328 324.53 846.909 329.111 851.49 324.53 856.071 319.949 851.49 315.368"/><circle class="cls-8" cx="763.08299" cy="328.84446" r="10.21248"/><rect class="cls-4" x="760.72626" y="326.48773" width="4.71345" height="4.71345"/><polygon class="cls-4" points="685.311 337.486 685.311 357.911 705.736 357.911 685.311 337.486"/><polygon class="cls-8" points="705.736 357.911 705.736 337.486 685.311 337.486 705.736 357.911"/><polygon class="cls-4" points="685.311 320.203 705.736 320.203 705.736 299.778 685.311 320.203"/><polygon class="cls-8" points="705.736 299.778 685.311 299.778 685.311 320.203 705.736 299.778"/><polygon class="cls-4" points="671.171 320.203 671.171 299.778 650.746 299.778 671.171 320.203"/><polygon class="cls-8" points="650.746 299.778 650.746 320.203 671.171 320.203 650.746 299.778"/><polygon class="cls-4" points="671.171 337.486 650.746 337.486 650.746 357.911 671.171 337.486"/><polygon class="cls-8" points="650.746 357.911 671.171 357.911 671.171 337.486 650.746 357.911"/><circle class="cls-9" cx="962.96383" cy="328.84446" r="8.64133"/><rect class="cls-3" x="1021.88201" y="301.34931" width="51.848" height="51.848" transform="translate(75.4781 836.76687) rotate(-45)"/><rect class="cls-3" x="1021.88201" y="301.34931" width="51.848" height="51.848"/><path class="cls-3" d="M1146.82549,313.91853l-15.19388,15.19368-15.19368-15.19368a21.59246,21.59246,0,0,0-.07288,30.46043l-.08055.08055a21.79026,21.79026,0,0,0,30.69442,0l-.08055-.08055A21.59246,21.59246,0,0,0,1146.82549,313.91853Z"/><polygon class="cls-9" points="1136.213 315.368 1131.632 319.949 1127.051 315.368 1122.469 319.949 1127.051 324.53 1131.632 329.111 1136.213 324.53 1140.794 319.949 1136.213 315.368"/><circle class="cls-8" cx="1047.80601" cy="328.84446" r="10.21248"/><rect class="cls-9" x="1045.44929" y="326.48773" width="4.71345" height="4.71345"/><polygon class="cls-3" points="970.034 337.486 970.034 357.911 990.459 357.911 970.034 337.486"/><polygon class="cls-8" points="990.459 357.911 990.459 337.486 970.034 337.486 990.459 357.911"/><polygon class="cls-3" points="970.034 320.203 990.459 320.203 990.459 299.778 970.034 320.203"/><polygon class="cls-8" points="990.459 299.778 970.034 299.778 970.034 320.203 990.459 299.778"/><polygon class="cls-3" points="955.894 320.203 955.894 299.778 935.469 299.778 955.894 320.203"/><polygon class="cls-8" points="935.469 299.778 935.469 320.203 955.894 320.203 935.469 299.778"/><polygon class="cls-3" points="955.894 337.486 935.469 337.486 935.469 357.911 955.894 337.486"/><polygon class="cls-8" points="935.469 357.911 955.894 357.911 955.894 337.486 935.469 357.911"/><rect class="cls-10" x="116.9895" y="116.10639" width="5.1523" height="55.30153"/><rect class="cls-10" x="198.56762" y="143.65641" width="5.1523" height="27.75152"/><circle class="cls-11" cx="97.23901" cy="131.90694" r="19.75049"/><circle class="cls-11" cx="141.8923" cy="131.90694" r="19.75049"/><circle class="cls-11" cx="119.56565" cy="95.84082" r="18.89178"/><rect class="cls-10" x="313.91883" y="143.92898" width="5.1523" height="27.47895"/><circle class="cls-11" cx="316.49498" cy="114.7326" r="27.47895"/><rect class="cls-10" x="361.14827" y="159.38589" width="5.1523" height="12.02204"/><circle class="cls-4" cx="363.72442" cy="137.91796" r="19.75049"/><polygon class="cls-11" points="207.216 82.899 201.144 76.827 195.072 82.899 189 88.971 195.072 95.043 201.144 88.971 207.216 95.043 213.288 88.971 207.216 82.899"/><polygon class="cls-11" points="225.431 113.286 219.359 107.214 213.287 101.142 207.215 107.213 201.144 101.142 195.078 107.207 189.012 101.142 182.94 107.214 176.868 113.286 182.94 119.358 189.006 113.292 195.072 119.358 195.078 119.351 195.084 119.358 201.15 113.292 207.215 119.358 207.215 119.357 207.216 119.358 213.288 113.286 219.359 119.358 225.431 113.286"/><polygon class="cls-11" points="237.574 137.584 231.503 131.512 225.43 125.44 219.359 131.512 213.287 125.44 207.215 131.512 201.144 125.44 195.078 131.506 189.012 125.44 182.941 131.512 176.87 125.44 170.797 131.512 164.725 137.584 170.797 143.656 176.869 137.585 182.94 143.656 182.941 143.656 182.942 143.656 189.007 137.591 195.072 143.656 195.078 143.65 195.084 143.656 201.15 137.591 207.215 143.656 207.215 143.656 207.216 143.656 213.287 137.585 219.358 143.656 219.359 143.656 219.359 143.656 225.431 137.585 231.503 143.656 237.574 137.584"/><rect class="cls-8" x="495.27789" y="116.10639" width="5.1523" height="55.30153"/><rect class="cls-8" x="576.85601" y="143.65641" width="5.1523" height="27.75152"/><circle class="cls-6" cx="475.5274" cy="131.90694" r="19.75049"/><circle class="cls-6" cx="520.18069" cy="131.90694" r="19.75049"/><circle class="cls-6" cx="497.85404" cy="95.84082" r="18.89178"/><rect class="cls-8" x="692.20722" y="143.92898" width="5.1523" height="27.47895"/><circle class="cls-6" cx="694.78337" cy="114.7326" r="27.47895"/><rect class="cls-8" x="739.43666" y="159.38589" width="5.1523" height="12.02204"/><circle class="cls-5" cx="742.01281" cy="137.91796" r="19.75049"/><polygon class="cls-6" points="585.504 82.899 579.432 76.827 573.36 82.899 567.288 88.971 573.36 95.043 579.432 88.971 585.504 95.043 591.576 88.971 585.504 82.899"/><polygon class="cls-6" points="603.72 113.286 597.648 107.214 591.575 101.142 585.504 107.213 579.432 101.142 573.366 107.207 567.301 101.142 561.228 107.214 555.156 113.286 561.228 119.358 567.294 113.292 573.36 119.358 573.366 119.351 573.373 119.358 579.438 113.292 585.503 119.358 585.504 119.357 585.504 119.358 591.576 113.286 597.648 119.358 603.72 113.286"/><polygon class="cls-6" points="615.863 137.584 609.791 131.512 603.719 125.44 597.647 131.512 591.575 125.44 585.504 131.512 579.432 125.44 573.366 131.506 567.301 125.44 561.229 131.512 555.158 125.44 549.086 131.512 543.014 137.584 549.086 143.656 555.157 137.585 561.228 143.656 561.229 143.656 561.23 143.656 567.295 137.591 573.36 143.656 573.366 143.65 573.373 143.656 579.438 137.591 585.503 143.656 585.504 143.656 585.504 143.656 591.575 137.585 597.646 143.656 597.647 143.656 597.648 143.656 603.719 137.585 609.791 143.656 615.863 137.584"/><rect class="cls-8" x="886.66301" y="116.10639" width="5.1523" height="55.30153"/><rect class="cls-8" x="968.24114" y="143.65641" width="5.1523" height="27.75152"/><circle class="cls-4" cx="866.91252" cy="131.90694" r="19.75049"/><circle class="cls-4" cx="911.56581" cy="131.90694" r="19.75049"/><circle class="cls-4" cx="889.23917" cy="95.84082" r="18.89178"/><rect class="cls-8" x="1083.59234" y="143.92898" width="5.1523" height="27.47895"/><circle class="cls-4" cx="1086.16849" cy="114.7326" r="27.47895"/><rect class="cls-8" x="1130.82178" y="159.38589" width="5.1523" height="12.02204"/><circle class="cls-9" cx="1133.39793" cy="137.91796" r="19.75049"/><polygon class="cls-4" points="976.889 82.899 970.817 76.827 964.745 82.899 958.673 88.971 964.745 95.043 970.817 88.971 976.889 95.043 982.961 88.971 976.889 82.899"/><polygon class="cls-4" points="995.105 113.286 989.033 107.214 982.961 101.142 976.889 107.213 970.817 101.142 964.751 107.207 958.686 101.142 952.613 107.214 946.541 113.286 952.613 119.358 958.679 113.292 964.745 119.358 964.751 119.351 964.758 119.358 970.823 113.292 976.888 119.358 976.889 119.357 976.889 119.358 982.961 113.286 989.033 119.358 995.105 113.286"/><polygon class="cls-4" points="1007.248 137.584 1001.176 131.512 995.104 125.44 989.032 131.512 982.961 125.44 976.889 131.512 970.817 125.44 964.751 131.506 958.686 125.44 952.614 131.512 946.543 125.44 940.471 131.512 934.399 137.584 940.471 143.656 946.542 137.585 952.613 143.656 952.614 143.656 952.615 143.656 958.68 137.591 964.745 143.656 964.751 143.65 964.758 143.656 970.823 137.591 976.888 143.656 976.889 143.656 976.889 143.656 982.961 137.585 989.032 143.656 989.032 143.656 989.033 143.656 995.104 137.585 1001.176 143.656 1007.248 137.584"/></svg>