<svg id="Layer_1" data-name="Layer 1" xmlns="http://www.w3.org/2000/svg" width="419.99958mm" height="297.00008mm" viewBox="0 0 1190.55 841.89"><defs><style>.cls-1{fill:#d0bfae;}.cls-2{fill:#2a2859;}.cls-3{fill:#ff8274;}.cls-4{fill:#f9c66b;}.cls-5{fill:#034b45;}.cls-6{fill:#43f8b6;}.cls-7{fill:#fff;}.cls-8{fill:#c7f6c9;}.cls-9{fill:#f8f0dd;}.cls-10{fill:#b3f5ff;}.cls-11{fill:#6fe9ff;}.cls-12{fill:#044c45;}</style></defs><title>Oslo-illustrasjoner_rgb</title><polygon class="cls-1" points="915.819 241.594 915.819 276.459 912.913 276.459 912.913 283.722 908.555 283.722 908.555 276.459 908.555 241.594 915.819 241.594"/><path class="cls-2" d="M959.36866,251.30326c-4.01319-17.19007-12.747-27.853-27.12378-29.69165a19.9436,19.9436,0,0,0-23.68958,19.98217v5.81079l7.26349-5.81079v29.054H912.9134v13.07434s1.324,14.755,2.90539,23.53363l4.3581,24.40539h7.26348V313.8035l.34784-6.50647,2.52839-.21069c.00982.055.01934.1148.02917.16937l4.35809,24.40539h7.26349V306.11545l17.89087-1.49091,12.57868-1.04821Z"/><path class="cls-1" d="M941.96735,206.00281a13.80064,13.80064,0,1,1-27.60127,0Z"/><polygon class="cls-1" points="920.177 333.114 920.177 331.661 923.082 331.661 927.44 331.661 927.44 333.114 934.704 333.114 934.704 331.661 937.609 331.661 941.967 331.661 941.967 336.019 941.967 338.925 937.609 338.925 937.609 336.019 934.704 336.019 934.704 338.925 927.44 338.925 923.082 338.925 923.082 336.019 920.177 336.019 920.177 338.925 912.913 338.925 912.913 333.114 920.177 333.114"/><path class="cls-2" d="M941.96735,206.00278c0-.15064-.01776-.29669-.02252-.44617-.00818-.259-.01642-.51727-.03918-.77588-.0185-.21038-.04816-.41693-.076-.62451-.032-.2384-.06427-.47619-.10889-.71325-.04144-.22077-.0932-.43708-.145-.654-.05206-.218-.10443-.43518-.16742-.65118-.0661-.22669-.142-.4483-.21924-.67-.06988-.20069-.13965-.40082-.21924-.59906-.09222-.22986-.19458-.45356-.29864-.67707-.08484-.18231-.16864-.36438-.262-.54394-.1222-.235-.25544-.46222-.39057-.689-.09546-.16016-.18793-.32086-.29053-.47821-.15594-.23913-.324-.46844-.49407-.697-.078-.105-.14429-.21509-.22571-.31848-.02753-.035-.059-.06482-.08673-.09943-.17469-.21722-.3617-.42285-.54895-.629-.12482-.13769-.24543-.28057-.37464-.41217-.16565-.16821-.34271-.324-.51672-.48358-.163-.14972-.3219-.30536-.49072-.446-.15009-.125-.31049-.23706-.46582-.35571-.2016-.15381-.39978-.31318-.6081-.45466-.16241-.11047-.3349-.20623-.5022-.30981-.20874-.12891-.41387-.26465-.62817-.38165-.2312-.12671-.47327-.2348-.71234-.34839-.15863-.075-.31329-.15961-.47424-.22839-.294-.1261-.59827-.23157-.90241-.33741-.11389-.03949-.22485-.08789-.33966-.12433-.29034-.09246-.58911-.16424-.88745-.23767-.13806-.034-.274-.07641-.4129-.10614-.25116-.05352-.50849-.08844-.76447-.12811-.19617-.03058-.391-.06769-.58832-.08978-.21136-.02344-.42669-.0315-.6408-.04529-.24915-.01636-.49768-.03485-.7475-.03772-.05036-.00055-.099-.00757-.14948-.00757-.14941,0-.29431.01764-.44262.02234-.261.00818-.52161.01648-.78229.03949-.20722.01825-.41058.04755-.615.07489-.24219.03235-.48358.06525-.72443.1106-.21619.04071-.428.09137-.64044.142-.22308.0531-.44544.10682-.66644.17133-.22071.06445-.43647.13849-.65247.2135-.20709.0719-.41351.144-.618.2262-.22235.08941-.43884.18853-.65533.28906-.18995.08819-.37952.17548-.56647.27289-.226.11773-.44458.246-.663.37573-.16912.1004-.33862.19818-.50457.30658-.22852.14923-.44751.31012-.66639.47229-.11273.08337-.23065.15478-.34155.24213l.00659.00836a13.76491,13.76491,0,0,0-5.26818,10.83325h13.79956l8.53888,10.84277a13.76475,13.76475,0,0,0,5.25146-10.84277Z"/><polygon class="cls-1" points="1019.515 241.594 1019.515 276.459 1016.61 276.459 1016.61 283.722 1012.251 283.722 1012.251 276.459 1012.251 241.594 1019.515 241.594"/><path class="cls-3" d="M1063.06481,251.30326c-4.01319-17.19007-12.747-27.853-27.12378-29.69165a19.9436,19.9436,0,0,0-23.68958,19.98217v5.81079l7.26349-5.81079v29.054h-2.90539v13.07434s1.324,14.755,2.90539,23.53363l4.3581,24.40539h7.26348V313.8035l.34784-6.50647,2.52838-.21069c.00983.055.01935.1148.02918.16937L1038.4,331.6611h7.26349V306.11545l17.89087-1.49091,12.57868-1.04821Z"/><path class="cls-1" d="M1045.6635,206.00281a13.80064,13.80064,0,1,1-27.60127,0Z"/><polygon class="cls-1" points="1023.873 333.114 1023.873 331.661 1026.778 331.661 1031.137 331.661 1031.137 333.114 1038.4 333.114 1038.4 331.661 1041.305 331.661 1045.664 331.661 1045.664 336.019 1045.664 338.925 1041.305 338.925 1041.305 336.019 1038.4 336.019 1038.4 338.925 1031.137 338.925 1026.778 338.925 1026.778 336.019 1023.873 336.019 1023.873 338.925 1016.61 338.925 1016.61 333.114 1023.873 333.114"/><path class="cls-4" d="M1045.6635,206.00278c0-.15064-.01776-.29669-.02252-.44617-.00818-.259-.01642-.51727-.03918-.77588-.0185-.21038-.04816-.41693-.076-.62451-.032-.2384-.06427-.47619-.10889-.71325-.04144-.22077-.0932-.43708-.145-.654-.05206-.218-.10443-.43518-.16742-.65118-.0661-.22669-.142-.4483-.21924-.67-.06988-.20069-.13965-.40082-.21924-.59906-.09222-.22986-.19458-.45356-.29864-.67707-.08484-.18231-.16864-.36438-.262-.54394-.1222-.235-.25544-.46222-.39057-.689-.09546-.16016-.18793-.32086-.29053-.47821-.15594-.23913-.324-.46844-.49408-.697-.078-.105-.14428-.21509-.2257-.31848-.02753-.035-.059-.06482-.08673-.09943-.17469-.21722-.3617-.42285-.54895-.629-.12482-.13769-.24543-.28057-.37464-.41217-.16565-.16821-.34271-.324-.51672-.48358-.163-.14972-.3219-.30536-.49072-.446-.15009-.125-.31049-.23706-.46583-.35571-.20159-.15381-.39978-.31318-.60809-.45466-.16241-.11047-.3349-.20623-.5022-.30981-.20874-.12891-.41388-.26465-.62817-.38165-.2312-.12671-.47327-.2348-.71234-.34839-.15863-.075-.31329-.15961-.47424-.22839-.294-.1261-.59827-.23157-.90241-.33741-.11389-.03949-.22485-.08789-.33966-.12433-.29034-.09246-.58911-.16424-.88745-.23767-.13806-.034-.274-.07641-.4129-.10614-.25116-.05352-.50849-.08844-.76447-.12811-.19617-.03058-.391-.06769-.58832-.08978-.21136-.02344-.42669-.0315-.6408-.04529-.24915-.01636-.49769-.03485-.7475-.03772-.05036-.00055-.099-.00757-.14948-.00757-.14941,0-.29431.01764-.44262.02234-.26105.00818-.52161.01648-.78229.03949-.20722.01825-.41059.04755-.61505.07489-.24219.03235-.48358.06525-.72443.1106-.21619.04071-.428.09137-.64044.142-.22308.0531-.44544.10682-.66644.17133-.22071.06445-.43647.13849-.65247.2135-.20709.0719-.41351.144-.618.2262-.22235.08941-.43884.18853-.65534.28906-.18994.08819-.37951.17548-.56646.27289-.226.11773-.44458.246-.663.37573-.16913.1004-.33862.19818-.50457.30658-.22852.14923-.44751.31012-.66639.47229-.11273.08337-.23065.15478-.34155.24213l.00659.00836a13.76492,13.76492,0,0,0-5.26819,10.83325h13.79956l8.53888,10.84277a13.76473,13.76473,0,0,0,5.25147-10.84277Z"/><polygon class="cls-1" points="812.123 241.594 812.123 276.459 809.217 276.459 809.217 283.722 804.859 283.722 804.859 276.459 804.859 241.594 812.123 241.594"/><path class="cls-5" d="M855.67251,251.30326c-4.01318-17.19007-12.747-27.853-27.12378-29.69165a19.9436,19.9436,0,0,0-23.68958,19.98217v5.81079l7.26349-5.81079v29.054h-2.90539v13.07434s1.324,14.755,2.90539,23.53363l4.3581,24.40539h7.26349V313.8035l.34783-6.50647,2.52839-.21069c.00982.055.01934.1148.02917.16937l4.35809,24.40539h7.26349V306.11545l17.89087-1.49091,12.57868-1.04821Z"/><path class="cls-1" d="M838.2712,206.00281a13.80064,13.80064,0,1,1-27.60127,0Z"/><polygon class="cls-1" points="816.481 333.114 816.481 331.661 819.386 331.661 823.744 331.661 823.744 333.114 831.008 333.114 831.008 331.661 833.913 331.661 838.271 331.661 838.271 336.019 838.271 338.925 833.913 338.925 833.913 336.019 831.008 336.019 831.008 338.925 823.744 338.925 819.386 338.925 819.386 336.019 816.481 336.019 816.481 338.925 809.217 338.925 809.217 333.114 816.481 333.114"/><path class="cls-6" d="M838.2712,206.00278c0-.15064-.01776-.29669-.02252-.44617-.00818-.259-.01642-.51727-.03918-.77588-.0185-.21038-.04816-.41693-.076-.62451-.032-.2384-.06427-.47619-.10889-.71325-.04144-.22077-.0932-.43708-.145-.654-.05206-.218-.10443-.43518-.16742-.65118-.0661-.22669-.142-.4483-.21924-.67-.06988-.20069-.13964-.40082-.21923-.59906-.09223-.22986-.19458-.45356-.29865-.67707-.08484-.18231-.16864-.36438-.262-.54394-.1222-.235-.25544-.46222-.39057-.689-.09546-.16016-.18792-.32086-.29052-.47821-.156-.23913-.324-.46844-.49408-.697-.078-.105-.14429-.21509-.22571-.31848-.02753-.035-.059-.06482-.08673-.09943-.17469-.21722-.3617-.42285-.54895-.629-.12482-.13769-.24543-.28057-.37464-.41217-.16565-.16821-.34271-.324-.51672-.48358-.163-.14972-.3219-.30536-.49072-.446-.15009-.125-.31049-.23706-.46582-.35571-.2016-.15381-.39978-.31318-.6081-.45466-.16241-.11047-.3349-.20623-.50219-.30981-.20874-.12891-.41388-.26465-.62818-.38165-.2312-.12671-.47326-.2348-.71234-.34839-.15863-.075-.31329-.15961-.47424-.22839-.294-.1261-.59827-.23157-.90241-.33741-.11389-.03949-.22485-.08789-.33966-.12433-.29034-.09246-.58911-.16424-.88745-.23767-.13806-.034-.274-.07641-.4129-.10614-.25116-.05352-.50849-.08844-.76447-.12811-.19616-.03058-.391-.06769-.58832-.08978-.21136-.02344-.42669-.0315-.6408-.04529-.24915-.01636-.49768-.03485-.7475-.03772-.05035-.00055-.099-.00757-.14948-.00757-.14941,0-.29431.01764-.44262.02234-.261.00818-.52161.01648-.78229.03949-.20721.01825-.41058.04755-.615.07489-.24219.03235-.48358.06525-.72443.1106-.21618.04071-.428.09137-.64044.142-.22308.0531-.44543.10682-.66644.17133-.22071.06445-.43647.13849-.65247.2135-.20709.0719-.41351.144-.618.2262-.22235.08941-.43884.18853-.65533.28906-.19.08819-.37952.17548-.56647.27289-.226.11773-.44458.246-.663.37573-.16912.1004-.33862.19818-.50457.30658-.22852.14923-.44751.31012-.66638.47229-.11274.08337-.23066.15478-.34156.24213l.00659.00836A13.76491,13.76491,0,0,0,810.67,206.00278h13.79956l8.53888,10.84277a13.76475,13.76475,0,0,0,5.25146-10.84277Z"/><path class="cls-5" d="M566.50927,296.52468l-1.04041-11.90851v-11.063H530.6041v12.23338l.76146,9.495.69124,8.61972-.39155,7.48267-1.06115,20.27713H540.773l5.8108-29.054.9332-18.66377,6.33029,17.13482-1.4527,13.76233-1.4527,16.82058h10.16889l4.35809-23.24317C567.0503,300.05748,566.50927,296.52468,566.50927,296.52468Z"/><polygon class="cls-6" points="545.131 334.567 545.131 331.661 530.604 331.661 530.604 338.925 542.226 338.925 545.131 338.925 549.489 338.925 549.489 334.567 545.131 334.567"/><polygon class="cls-6" points="565.469 334.567 565.469 331.661 550.942 331.661 550.942 338.925 562.563 338.925 565.469 338.925 569.827 338.925 569.827 334.567 565.469 334.567"/><polygon class="cls-1" points="556.753 242.935 556.753 277.911 561.111 277.911 561.111 284.616 565.469 284.616 565.469 277.911 565.469 276.459 565.469 242.935 556.753 242.935"/><path class="cls-5" d="M529.15142,205.27647a14.527,14.527,0,1,1,29.054,0Z"/><path class="cls-1" d="M529.15142,205.27647a14.527,14.527,0,0,0,29.054,0Z"/><path class="cls-5" d="M565.46328,242.93479A21.6086,21.6086,0,0,0,544.03562,221.256c-11.80007,0-22.07731,9.69612-22.14177,21.67875h-.00594l.00577.00391c-.00018.03653-.00577.07128-.00577.10781h.16776l8.54843,5.69908v11.7333h18.88508v4.3581h-7.26349v4.35809H530.6041v4.3581h26.14857V243.04651h.16776l8.54843,5.69908v-5.8108Z"/><polygon class="cls-1" points="542.226 260.479 540.566 260.479 530.604 260.479 530.604 248.746 522.056 243.047 521.888 243.047 521.888 260.479 521.888 261.975 521.888 269.195 530.604 269.195 542.226 269.195 542.226 264.837 549.489 264.837 549.489 260.479 542.226 260.479"/><circle class="cls-5" cx="605.42302" cy="325.09417" r="15.24787"/><circle class="cls-7" cx="605.42302" cy="325.09417" r="10.89134"/><path class="cls-8" d="M641.36441,269.1852c0-17.64417-14.66661-31.94791-32.311-31.94791v39.2088h-26.1392V267.733H545.15762v33.40009h65.348v-.03652C627.4948,300.33719,641.36441,286.343,641.36441,269.1852Zm-91.85026,7.26089v-4.35653h29.04356v4.35653Z"/><rect class="cls-5" x="603.24475" y="322.9159" width="4.35653" height="4.35653"/><circle class="cls-5" cx="564.76204" cy="325.09417" r="15.24787"/><circle class="cls-7" cx="564.76204" cy="325.09417" r="10.89134"/><rect class="cls-5" x="562.58377" y="322.9159" width="4.35653" height="4.35653"/><path class="cls-5" d="M211.14531,296.52468l-1.04041-11.90851v-11.063H175.24014v12.23338l.76146,9.495.69124,8.61972-.39155,7.48267-1.06115,20.27713H185.409l5.81079-29.054.93321-18.66377,6.33029,17.13482-1.4527,13.76233-1.4527,16.82058h10.16889l4.35809-23.24317C211.68634,300.05748,211.14531,296.52468,211.14531,296.52468Z"/><polygon class="cls-6" points="189.767 334.567 189.767 331.661 175.24 331.661 175.24 338.925 186.862 338.925 189.767 338.925 194.125 338.925 194.125 334.567 189.767 334.567"/><polygon class="cls-6" points="210.105 334.567 210.105 331.661 195.578 331.661 195.578 338.925 207.2 338.925 210.105 338.925 214.463 338.925 214.463 334.567 210.105 334.567"/><polygon class="cls-1" points="201.389 242.935 201.389 277.911 205.747 277.911 205.747 284.616 210.105 284.616 210.105 277.911 210.105 276.459 210.105 242.935 201.389 242.935"/><path class="cls-5" d="M173.78746,205.27647a14.527,14.527,0,1,1,29.054,0Z"/><path class="cls-1" d="M173.78746,205.27647a14.527,14.527,0,0,0,29.054,0Z"/><path class="cls-5" d="M210.09932,242.93479A21.6086,21.6086,0,0,0,188.67166,221.256c-11.80007,0-22.07731,9.69612-22.14177,21.67875H166.524l.00576.00391c-.00017.03653-.00576.07128-.00576.10781h.16776l8.54843,5.69908v11.7333h18.88508v4.3581h-7.26349v4.35809H175.24014v4.3581h26.14857V243.04651h.16776l8.54843,5.69908v-5.8108Z"/><polygon class="cls-1" points="186.862 260.479 185.202 260.479 175.24 260.479 175.24 248.746 166.692 243.047 166.524 243.047 166.524 260.479 166.524 261.975 166.524 269.195 175.24 269.195 186.862 269.195 186.862 264.837 194.125 264.837 194.125 260.479 186.862 260.479"/><circle class="cls-5" cx="250.05906" cy="325.09417" r="15.24787"/><circle class="cls-7" cx="250.05906" cy="325.09417" r="10.89134"/><path class="cls-8" d="M286.00045,269.1852c0-17.64417-14.66661-31.94791-32.311-31.94791v39.2088H227.55028V267.733H189.79366v33.40009h65.348v-.03652C272.13084,300.33719,286.00045,286.343,286.00045,269.1852Zm-91.85026,7.26089v-4.35653h29.04356v4.35653Z"/><rect class="cls-5" x="247.88079" y="322.9159" width="4.35653" height="4.35653"/><circle class="cls-5" cx="209.39807" cy="325.09417" r="15.24787"/><circle class="cls-7" cx="209.39807" cy="325.09417" r="10.89134"/><rect class="cls-5" x="207.21981" y="322.9159" width="4.35653" height="4.35653"/><path class="cls-5" d="M136.20743,270.64778H115.86965l5.8108,11.62159v49.39174h7.26349l4.35809-24.4054c.69514-3.85873,1.34045-8.87189,1.84549-13.27928l1.05991,19.82706v17.85762h7.26349l4.3581-24.4054c1.58144-8.77861,2.90539-23.53364,2.90539-23.53364V270.64778Z"/><polygon class="cls-1" points="114.417 241.594 114.417 276.459 117.322 276.459 117.322 282.269 121.68 282.269 121.68 276.459 121.68 241.594 114.417 241.594"/><polygon class="cls-1" points="147.829 241.594 147.829 276.459 150.734 276.459 150.734 283.722 155.093 283.722 155.093 276.459 155.093 241.594 147.829 241.594"/><path class="cls-5" d="M121.68046,206.00281a13.80064,13.80064,0,0,1,27.60127,0Z"/><path class="cls-4" d="M135.08811,221.256c-11.04809,0-20.67116,9.10561-20.67116,20.33777l7.2635,5.8108v23.24317H147.829v-29.054l7.26349,5.8108v-5.8108A20.17316,20.17316,0,0,0,135.08811,221.256Z"/><path class="cls-1" d="M121.68046,206.00281a13.80064,13.80064,0,1,0,27.60127,0Z"/><polygon class="cls-1" points="143.471 333.114 143.471 331.661 140.566 331.661 136.207 331.661 136.207 333.114 128.944 333.114 128.944 331.661 126.039 331.661 121.68 331.661 121.68 336.019 121.68 338.925 126.039 338.925 126.039 336.019 128.944 336.019 128.944 338.925 136.207 338.925 140.566 338.925 140.566 336.019 143.471 336.019 143.471 338.925 150.734 338.925 150.734 333.114 143.471 333.114"/><path class="cls-9" d="M317.28341,312.18327l-.68551-8.43565v-6.7005H293.86445v8.06058l.50178,6.25649.4554,5.67956-.258,4.93029-.69918,13.361h6.70043l3.82873-19.14395.58642-11.72719,3.96033,10.71969-.95726,9.06808-.95718,11.08337h6.70043l2.87155-15.31522C317.63994,314.51113,317.28341,312.18327,317.28341,312.18327Z"/><polygon class="cls-1" points="291.471 280.204 291.471 298.244 293.864 298.244 293.864 301.833 296.257 301.833 296.257 298.244 296.257 298.198 296.257 280.204 291.471 280.204"/><polygon class="cls-1" points="314.205 280.204 314.205 298.244 316.598 298.244 316.598 301.833 318.991 301.833 318.991 298.244 318.991 298.198 318.991 280.204 314.205 280.204"/><rect class="cls-5" x="296.85571" y="332.34387" width="3.58949" height="9.57198" transform="translate(-38.47941 635.78031) rotate(-90)"/><rect class="cls-5" x="310.01717" y="332.34387" width="3.58949" height="9.57198" transform="translate(-25.31794 648.94178) rotate(-90)"/><path class="cls-9" d="M295.65921,255.16981a9.572,9.572,0,0,1,19.144,0Z"/><path class="cls-4" d="M318.98848,280.2503a13.35191,13.35191,0,0,0-13.53172-13.11561c-7.45868,0-13.95492,5.86827-13.98275,13.11561h-.00255l.00248.00175c-.00007.0149-.00248.02921-.00248.04411h.06054l4.72545,3.58949v13.16147H314.2049v-16.751h.06054l4.72545,3.58949V280.2503Z"/><path class="cls-1" d="M295.65921,255.16981a9.572,9.572,0,1,0,19.144,0Z"/><rect class="cls-5" x="355.52416" y="247.33204" width="2.37677" height="2.37677" transform="translate(784.67688 172.01703) rotate(135)"/><rect class="cls-5" x="353.84354" y="249.01266" width="2.37677" height="2.37677" transform="translate(782.99625 176.07442) rotate(135)"/><rect class="cls-5" x="355.52416" y="250.69329" width="2.37677" height="2.37677" transform="translate(787.05364 177.75505) rotate(135)"/><rect class="cls-5" x="329.61383" y="250.60364" width="2.37677" height="2.37677" transform="translate(-81.15412 307.66066) rotate(-45)"/><rect class="cls-5" x="331.29446" y="248.92301" width="2.37677" height="2.37677" transform="translate(-79.47349 308.3568) rotate(-45)"/><rect class="cls-5" x="329.61383" y="247.24238" width="2.37677" height="2.37677" transform="translate(-78.77735 306.67617) rotate(-45)"/><path class="cls-1" d="M331.62216,312.09621l.68775-8.46311v-6.72232h22.80745v8.08683l-.50341,6.27685-.45689,5.69806.25885,4.94634.70145,13.40448h-6.72224l-3.84119-19.20628-.58833-11.76537-3.97322,10.75459.96037,9.0976.9603,11.11946h-6.72224l-2.8809-15.36508C331.26447,314.43165,331.62216,312.09621,331.62216,312.09621Z"/><path class="cls-5" d="M353.31676,254.89714a9.60314,9.60314,0,0,0-19.20628,0"/><path class="cls-5" d="M329.91154,280.05928A13.39538,13.39538,0,0,1,343.48732,266.901c7.483,0,14.00035,5.88738,14.02826,13.15831h.00257l-.00249.00176c.00007.01494.00249.0293.00249.04425h-.06074l-4.74083,3.60118v13.20431H334.71069V280.10529H334.65l-4.74084,3.60118v-3.64719Z"/><polygon class="cls-9" points="357.518 280.013 357.518 298.111 355.117 298.111 355.117 301.712 352.717 301.712 352.717 298.111 352.717 298.065 352.717 280.013 357.518 280.013"/><polygon class="cls-9" points="334.711 280.013 334.711 298.111 332.31 298.111 332.31 301.712 329.909 301.712 329.909 298.111 329.909 298.065 329.909 280.013 334.711 280.013"/><rect class="cls-5" x="348.51519" y="332.32245" width="3.60118" height="9.60314" transform="translate(13.19176 687.4398) rotate(-90)"/><rect class="cls-5" x="335.31088" y="332.32245" width="3.60118" height="9.60314" transform="translate(-0.01255 674.23548) rotate(-90)"/><path class="cls-9" d="M334.11048,254.89714a9.60314,9.60314,0,0,0,19.20628,0"/><path class="cls-2" d="M249.99923,469.32364H147.88063v10.36011h7.97677c-16.9012,16.9012-24.5872,36.74523-24.5872,51.4677v21.10228A17.03651,17.03651,0,0,0,114.417,569.227v45.65313H409.6772V604.52l-.22017-26.97775c0-12.6471-10.25684-20.28628-10.25684-20.28628L368.2397,526.30426h-5.18005s-45.7333-29.84251-62.16068-41.44045C300.899,484.86381,280.40359,469.32364,249.99923,469.32364Z"/><path class="cls-10" d="M368.24715,526.30692a17.94278,17.94278,0,0,0,25.37492,25.37493"/><circle class="cls-10" cx="212.68657" cy="541.75097" r="5.09326"/><circle class="cls-11" cx="319.84386" cy="563.33401" r="5.09326"/><rect class="cls-10" x="222.8001" y="536.65772" width="9.74524" height="5.02028"/><rect class="cls-11" x="215.41735" y="539.0202" width="9.74524" height="5.02028" transform="translate(-321.24037 761.82031) rotate(-90)"/><circle class="cls-10" cx="155.75225" cy="541.67799" r="10.52654"/><path class="cls-10" d="M114.417,569.107a16.85325,16.85325,0,0,1,16.85325-16.85324V569.107Z"/><path class="cls-10" d="M167.29244,568.27356a41.43348,41.43348,0,1,0,41.43344,41.43349A41.43348,41.43348,0,0,0,167.29244,568.27356Zm.23465,67.33672A25.87424,25.87424,0,1,1,193.40128,609.736,25.87424,25.87424,0,0,1,167.52709,635.61028Z"/><path class="cls-10" d="M348.48785,568.27356a41.43348,41.43348,0,1,0,41.4335,41.43349A41.4335,41.4335,0,0,0,348.48785,568.27356Zm0,67.33672A25.87424,25.87424,0,1,1,374.3621,609.736,25.8742,25.8742,0,0,1,348.48785,635.61028Z"/><circle class="cls-2" cx="167.52707" cy="609.73604" r="25.87425" transform="translate(-439.21959 431.68594) rotate(-58.28253)"/><circle class="cls-2" cx="348.48787" cy="609.73604" r="25.87421" transform="translate(-109.01776 76.90358) rotate(-10.90071)"/><path class="cls-10" d="M194.957,479.67174h.79293l55.85434.17a67.438,67.438,0,0,1,37.80282,11.54155c5.52128,3.8981,16.77373,11.42035,27.43937,18.48824a8.97609,8.97609,0,0,1-4.95052,16.459L194.957,526.423a23.37561,23.37561,0,0,1,0-46.75122"/><path class="cls-5" d="M657.47019,469.32364H555.35159v10.36011h7.97677c-16.9012,16.9012-24.58721,36.74523-24.58721,51.4677v21.10228A17.03651,17.03651,0,0,0,521.88791,569.227v45.65313H817.14816V604.52l-.22017-26.97775c0-12.6471-10.25684-20.28628-10.25684-20.28628l-30.96049-30.95174H770.5306s-45.73329-29.84251-62.16067-41.44045C708.36993,484.86381,687.87455,469.32364,657.47019,469.32364Z"/><path class="cls-6" d="M775.7181,526.30692A17.94279,17.94279,0,0,0,801.093,551.68185"/><circle class="cls-6" cx="620.15753" cy="541.75097" r="5.09326"/><circle class="cls-6" cx="727.31481" cy="563.33401" r="5.09326"/><rect class="cls-6" x="630.27106" y="536.65772" width="9.74524" height="5.02028"/><rect class="cls-6" x="622.88831" y="539.0202" width="9.74524" height="5.02028" transform="translate(86.23059 1169.29126) rotate(-90)"/><circle class="cls-6" cx="563.22321" cy="541.67799" r="10.52654"/><path class="cls-6" d="M521.88791,569.107a16.85325,16.85325,0,0,1,16.85324-16.85324V569.107Z"/><path class="cls-9" d="M574.7634,568.27356a41.43348,41.43348,0,1,0,41.43344,41.43349A41.43349,41.43349,0,0,0,574.7634,568.27356Zm.23465,67.33672A25.87424,25.87424,0,1,1,600.87224,609.736,25.87424,25.87424,0,0,1,574.99805,635.61028Z"/><path class="cls-9" d="M755.95881,568.27356a41.43348,41.43348,0,1,0,41.4335,41.43349A41.4335,41.4335,0,0,0,755.95881,568.27356Zm0,67.33672A25.87424,25.87424,0,1,1,781.83306,609.736,25.8742,25.8742,0,0,1,755.95881,635.61028Z"/><circle class="cls-12" cx="574.99803" cy="609.73604" r="25.87425" transform="translate(-245.96877 778.30143) rotate(-58.28253)"/><circle class="cls-12" cx="755.95883" cy="609.73604" r="25.87421" transform="translate(-101.66549 153.95942) rotate(-10.90071)"/><path class="cls-9" d="M602.428,479.67174h.79293l55.85434.17a67.438,67.438,0,0,1,37.80282,11.54155c5.52128,3.8981,16.77373,11.42035,27.43937,18.48824a8.97609,8.97609,0,0,1-4.95052,16.459L602.428,526.423a23.37561,23.37561,0,0,1,0-46.75122"/><rect class="cls-11" x="934.20146" y="485.67879" width="32.26276" height="32.26276"/><polygon class="cls-11" points="934.201 517.941 934.201 485.679 918.183 501.81 934.201 517.941"/><polygon class="cls-11" points="966.464 485.679 966.464 517.941 982.483 501.81 966.464 485.679"/><circle class="cls-2" cx="936.8888" cy="496.49607" r="2.68348"/><path class="cls-11" d="M994.47905,497.81133l-3.99884,3.99884,3.99884,3.999-3.99884,3.99864-7.99768-7.99768,7.99768-7.99748Z"/><path class="cls-2" d="M958.28416,497.81123l-3.99884,3.99884,3.99884,3.999-3.99884,3.99864-7.99769-7.99768,7.99769-7.99748Z"/><rect class="cls-2" x="951.64735" y="533.60333" width="32.26276" height="32.26276"/><polygon class="cls-2" points="951.647 565.866 951.647 533.603 935.629 549.735 951.647 565.866"/><polygon class="cls-2" points="983.91 533.603 983.91 565.866 999.928 549.735 983.91 533.603"/><circle class="cls-11" cx="954.33469" cy="544.42061" r="2.68348"/><path class="cls-2" d="M1011.92494,545.73587l-3.99884,3.99884,3.99884,3.999-3.99884,3.99864-7.99768-7.99768,7.99768-7.99748Z"/><path class="cls-11" d="M975.73005,545.73576l-3.99884,3.99884,3.99884,3.99905-3.99884,3.99864-7.99768-7.99769,7.99768-7.99747Z"/><rect class="cls-10" x="1015.85545" y="469.32364" width="32.26276" height="32.26276"/><polygon class="cls-10" points="1015.855 501.586 1015.855 469.324 999.837 485.455 1015.855 501.586"/><polygon class="cls-10" points="1048.118 469.324 1048.118 501.586 1064.137 485.455 1048.118 469.324"/><circle class="cls-2" cx="1018.54279" cy="480.14092" r="2.68348"/><path class="cls-10" d="M1076.13305,481.45618l-3.99885,3.99884,3.99885,3.999-3.99885,3.99864-7.99768-7.99768,7.99768-7.99748Z"/><path class="cls-11" d="M1039.1796,483.04323l-2.33916,2.33916,2.33916,2.33928-2.33916,2.339-4.67832-4.67832,4.67832-4.6782Z"/><path class="cls-11" d="M1047.05522,483.04323l-2.33916,2.33916,2.33916,2.33928-2.33916,2.339-4.67831-4.67832,4.67831-4.6782Z"/><path class="cls-11" d="M1043.21969,475.01419l-2.33916,2.33915,2.33916,2.33928-2.33916,2.339-4.67832-4.67832,4.67832-4.67819Z"/><path class="cls-11" d="M1043.27448,490.86771l-2.33916,2.33916,2.33916,2.33928-2.33916,2.339-4.67831-4.67832,4.67831-4.6782Z"/></svg>