<svg id="Layer_1" data-name="Layer 1" xmlns="http://www.w3.org/2000/svg" width="419.99958mm" height="297.00008mm" viewBox="0 0 1190.55 841.89"><defs><style>.cls-1{fill:#2b275a;}.cls-2{fill:#f7efdb;}.cls-3{fill:#cfbeac;}.cls-4{fill:#f9c663;}.cls-5{fill:#2a265a;}.cls-6{fill:#034b45;}.cls-7{fill:#c7f6c9;}.cls-8{fill:#ff8274;}.cls-9{fill:#6fe9ff;}.cls-10{fill:#2a2859;}.cls-11{fill:#b3f5ff;}</style></defs><title>Oslo-illustrasjoner_rgb</title><rect class="cls-1" x="202.6282" y="149.01735" width="75.62238" height="75.62238"/><path class="cls-2" d="M236.42278,196.96226a4.01662,4.01662,0,1,1,4.01722,4.01662A3.97754,3.97754,0,0,1,236.42278,196.96226Zm.68312-26.028h6.667l-.84251,19.76189h-4.98077Z"/><rect class="cls-3" x="278.25059" y="149.01735" width="75.62238" height="75.62238"/><path class="cls-1" d="M326.44458,178.92734c0,5.06107-3.93572,7.71205-8.11353,8.95724l-.08029,2.81157h-4.82018l-.32119-6.02492c3.77513-.44193,6.74849-1.84772,6.74849-5.302a3.29483,3.29483,0,0,0-3.61573-3.37394c-2.69053,0-4.3384,1.56638-5.34151,4.01661l-5.22166-1.96816a11.09907,11.09907,0,0,1,10.76451-7.5916C322.22722,170.45218,326.44458,173.54509,326.44458,178.92734Zm-6.62745,18.03492a4.01662,4.01662,0,1,1-4.016-4.01661A3.95271,3.95271,0,0,1,319.81713,196.96226Z"/><polygon class="cls-3" points="290.597 260.239 290.597 293.293 294.716 293.293 294.716 299.629 298.834 299.629 298.834 293.293 298.834 291.92 298.834 260.239 290.597 260.239"/><polygon class="cls-3" points="257.65 260.239 257.65 293.293 261.768 293.293 261.768 299.629 265.887 299.629 265.887 293.293 265.887 291.92 265.887 260.239 257.65 260.239"/><circle class="cls-4" cx="278.24197" cy="224.65164" r="13.72822"/><path class="cls-3" d="M264.51375,224.65164a13.72822,13.72822,0,0,0,27.45644,0Z"/><path class="cls-5" d="M298.829,260.23934a20.42043,20.42043,0,0,0-20.24943-20.48677c-11.15123,0-20.86346,9.163-20.92432,20.48677h-.00567l.00555.00369c-.00024.0345-.00555.06735-.00555.10188h.15854l8.07845,5.3857v23.44355h24.71075V260.34491h.15855l8.07845,5.3857v-5.49127Z"/><rect class="cls-1" x="48.67021" y="149.16385" width="93.81797" height="93.81797"/><rect class="cls-2" x="61.93775" y="199.23092" width="13.59065" height="13.59065"/><rect class="cls-4" x="88.65487" y="185.65227" width="13.59065" height="27.1693"/><rect class="cls-2" x="115.53897" y="162.71699" width="13.59065" height="50.10457"/><polygon class="cls-3" points="93.091 267.911 93.091 269.494 93.091 278.992 110.446 278.893 110.446 282.151 109.711 287.142 109.711 287.302 93.091 287.302 91.664 287.302 84.78 287.302 84.78 278.992 84.78 267.911 88.935 267.911 88.935 260.986 93.091 260.986 93.091 267.911"/><circle class="cls-4" cx="112.94005" cy="242.99009" r="13.8508"/><path class="cls-3" d="M99.08925,242.99009a13.8508,13.8508,0,1,0,27.7016,0Z"/><path class="cls-5" d="M142.14782,275.2345a20.53236,20.53236,0,0,0-20.09521-17.00863c-11.25093,0-21.04978,9.24479-21.1112,20.66968h-.00569l.00554.00371c-.00015.03483-.00554.068-.00554.1028h.16l8.15053-.10879V299.2547h24.93142V275.54808l2.13759-.62,3.8752.85251.8524.34879.38755-.31C141.42425,274.56985,142.36189,276.42262,142.14782,275.2345Z"/><polygon class="cls-3" points="142.488 276.34 142.488 242.991 138.333 242.991 138.333 236.598 134.178 236.598 134.178 242.991 134.178 244.376 134.178 276.34 142.488 276.34"/><rect class="cls-1" x="399.55657" y="149.57851" width="82.67252" height="82.67252"/><rect class="cls-2" x="482.22909" y="149.57851" width="82.67252" height="82.67252"/><rect class="cls-2" x="411.24795" y="193.69767" width="11.9761" height="11.9761"/><rect class="cls-4" x="434.79111" y="181.73215" width="11.9761" height="23.94162"/><rect class="cls-2" x="458.48141" y="161.52156" width="11.9761" height="44.15222"/><polygon class="cls-3" points="462.364 257.217 462.364 258.799 462.364 268.297 479.719 268.199 479.719 271.457 478.985 276.448 478.985 276.608 462.364 276.608 460.937 276.608 454.053 276.608 454.053 268.297 454.053 257.217 458.208 257.217 458.208 250.291 462.364 250.291 462.364 257.217"/><circle class="cls-4" cx="482.21316" cy="232.29557" r="13.8508"/><path class="cls-3" d="M468.36236,232.29557a13.8508,13.8508,0,0,0,27.7016,0Z"/><path class="cls-5" d="M511.42092,264.54a20.53235,20.53235,0,0,0-20.09521-17.00863c-11.25092,0-21.04978,9.24479-21.1112,20.66968h-.00569l.00554.00371c-.00015.03483-.00554.068-.00554.1028h.16l8.15053-.1088v20.36144h24.93142V264.85356l2.13759-.62,3.8752.85251.8524.34879.38755-.31C510.69736,263.87532,511.635,265.7281,511.42092,264.54Z"/><polygon class="cls-3" points="511.761 265.645 511.761 232.297 507.606 232.297 507.606 225.904 503.451 225.904 503.451 232.297 503.451 233.682 503.451 265.645 511.761 265.645"/><path class="cls-1" d="M518.61028,198.53159a4.01662,4.01662,0,1,1,4.01721,4.01661A3.97755,3.97755,0,0,1,518.61028,198.53159Zm.68312-26.028h6.667l-.84251,19.76189h-4.98077Z"/><rect class="cls-6" x="786.16163" y="149.01735" width="75.62238" height="75.62238"/><path class="cls-2" d="M819.9562,196.96226a4.01662,4.01662,0,1,1,4.01722,4.01662A3.97754,3.97754,0,0,1,819.9562,196.96226Zm.68312-26.028h6.667l-.84251,19.76189H821.483Z"/><rect class="cls-2" x="861.78401" y="149.01735" width="75.62238" height="75.62238"/><path class="cls-6" d="M909.978,178.92734c0,5.06107-3.93572,7.71205-8.11353,8.95724l-.08029,2.81157H896.964l-.32119-6.02492c3.77513-.44193,6.74849-1.84772,6.74849-5.302a3.29483,3.29483,0,0,0-3.61573-3.37394c-2.69053,0-4.3384,1.56638-5.3415,4.01661l-5.22166-1.96816a11.09905,11.09905,0,0,1,10.7645-7.5916C905.76064,170.45218,909.978,173.54509,909.978,178.92734Zm-6.62744,18.03492a4.01662,4.01662,0,1,1-4.016-4.01661A3.95272,3.95272,0,0,1,903.35056,196.96226Z"/><polygon class="cls-3" points="874.131 260.239 874.131 293.293 878.249 293.293 878.249 299.629 882.368 299.629 882.368 293.293 882.368 291.92 882.368 260.239 874.131 260.239"/><polygon class="cls-3" points="841.183 260.239 841.183 293.293 845.302 293.293 845.302 299.629 849.42 299.629 849.42 293.293 849.42 291.92 849.42 260.239 841.183 260.239"/><circle class="cls-7" cx="861.77539" cy="224.65164" r="13.72822"/><path class="cls-3" d="M848.04717,224.65164a13.72822,13.72822,0,0,0,27.45644,0Z"/><path class="cls-6" d="M882.36242,260.23934A20.42043,20.42043,0,0,0,862.113,239.75257c-11.15123,0-20.86346,9.163-20.92432,20.48677H841.183l.00555.00369c-.00024.0345-.00555.06735-.00555.10188h.15855l8.07844,5.3857v23.44355h24.71075V260.34491h.15855l8.07845,5.3857v-5.49127Z"/><rect class="cls-6" x="632.20363" y="149.16385" width="93.81797" height="93.81797"/><rect class="cls-2" x="645.47117" y="199.23092" width="13.59065" height="13.59065"/><rect class="cls-7" x="672.18829" y="185.65227" width="13.59065" height="27.1693"/><rect class="cls-2" x="699.07239" y="162.71699" width="13.59065" height="50.10457"/><polygon class="cls-3" points="676.624 267.911 676.624 269.494 676.624 278.992 693.979 278.893 693.979 282.151 693.245 287.142 693.245 287.302 676.624 287.302 675.197 287.302 668.313 287.302 668.313 278.992 668.313 267.911 672.469 267.911 672.469 260.986 676.624 260.986 676.624 267.911"/><circle class="cls-7" cx="696.47347" cy="242.99009" r="13.8508"/><path class="cls-3" d="M682.62267,242.99009a13.8508,13.8508,0,1,0,27.7016,0Z"/><path class="cls-6" d="M725.68124,275.2345A20.53235,20.53235,0,0,0,705.586,258.22587c-11.25093,0-21.04978,9.24479-21.1112,20.66968h-.00569l.00554.00371c-.00015.03483-.00554.068-.00554.1028h.16l8.15053-.10879V299.2547h24.93142V275.54808l2.13759-.62,3.8752.85251.8524.34879.38755-.31C724.95768,274.56985,725.89531,276.42262,725.68124,275.2345Z"/><polygon class="cls-3" points="726.022 276.34 726.022 242.991 721.866 242.991 721.866 236.598 717.711 236.598 717.711 242.991 717.711 244.376 717.711 276.34 726.022 276.34"/><rect class="cls-6" x="983.08999" y="149.57851" width="82.67252" height="82.67252"/><rect class="cls-2" x="1065.76251" y="149.57851" width="82.67252" height="82.67252"/><rect class="cls-2" x="994.78137" y="193.69767" width="11.9761" height="11.9761"/><rect class="cls-7" x="1018.32453" y="181.73215" width="11.9761" height="23.94162"/><rect class="cls-2" x="1042.01483" y="161.52156" width="11.9761" height="44.15222"/><polygon class="cls-3" points="1045.897 257.217 1045.897 258.799 1045.897 268.297 1063.252 268.199 1063.252 271.457 1062.518 276.448 1062.518 276.608 1045.897 276.608 1044.47 276.608 1037.587 276.608 1037.587 268.297 1037.587 257.217 1041.742 257.217 1041.742 250.291 1045.897 250.291 1045.897 257.217"/><circle class="cls-7" cx="1065.74658" cy="232.29557" r="13.8508"/><path class="cls-3" d="M1051.89578,232.29557a13.8508,13.8508,0,0,0,27.7016,0Z"/><path class="cls-6" d="M1094.95434,264.54a20.53235,20.53235,0,0,0-20.09521-17.00863c-11.25092,0-21.04977,9.24479-21.11119,20.66968h-.0057l.00555.00371c-.00015.03483-.00555.068-.00555.1028h.16l8.15053-.1088v20.36144h24.93141V264.85356l2.13759-.62,3.8752.85251.8524.34879.38755-.31C1094.23078,263.87532,1095.16842,265.7281,1094.95434,264.54Z"/><polygon class="cls-3" points="1095.295 265.645 1095.295 232.297 1091.139 232.297 1091.139 225.904 1086.984 225.904 1086.984 232.297 1086.984 233.682 1086.984 265.645 1095.295 265.645"/><path class="cls-6" d="M1102.1437,198.53159a4.01662,4.01662,0,1,1,4.01722,4.01661A3.97755,3.97755,0,0,1,1102.1437,198.53159Zm.68312-26.028h6.667l-.84251,19.76189h-4.98077Z"/><rect class="cls-8" x="202.6282" y="515.14256" width="75.62238" height="75.62238"/><path class="cls-2" d="M236.42278,563.08747a4.01662,4.01662,0,1,1,4.01722,4.01662A3.97754,3.97754,0,0,1,236.42278,563.08747Zm.68312-26.028h6.667l-.84251,19.76189h-4.98077Z"/><rect class="cls-2" x="278.25059" y="515.14256" width="75.62238" height="75.62238"/><path class="cls-1" d="M326.44458,545.05255c0,5.06107-3.93572,7.712-8.11353,8.95724l-.08029,2.81157h-4.82018l-.32119-6.02492c3.77513-.44193,6.74849-1.84772,6.74849-5.302a3.29483,3.29483,0,0,0-3.61573-3.37394c-2.69053,0-4.3384,1.56637-5.34151,4.01661L305.679,544.169a11.09907,11.09907,0,0,1,10.76451-7.5916C322.22722,536.57739,326.44458,539.6703,326.44458,545.05255Zm-6.62745,18.03492a4.01662,4.01662,0,1,1-4.016-4.01661A3.95271,3.95271,0,0,1,319.81713,563.08747Z"/><polygon class="cls-3" points="290.597 626.365 290.597 659.418 294.716 659.418 294.716 665.754 298.834 665.754 298.834 659.418 298.834 658.045 298.834 626.365 290.597 626.365"/><polygon class="cls-3" points="257.65 626.365 257.65 659.418 261.768 659.418 261.768 665.754 265.887 665.754 265.887 659.418 265.887 658.045 265.887 626.365 257.65 626.365"/><circle class="cls-1" cx="278.24197" cy="590.77685" r="13.72822"/><path class="cls-3" d="M264.51375,590.77685a13.72822,13.72822,0,0,0,27.45644,0Z"/><path class="cls-8" d="M298.829,626.36455a20.42043,20.42043,0,0,0-20.24943-20.48677c-11.15123,0-20.86346,9.163-20.92432,20.48677h-.00567l.00555.00369c-.00024.0345-.00555.06735-.00555.10188h.15854l8.07845,5.3857v23.44355h24.71075V626.47012h.15855l8.07845,5.3857v-5.49127Z"/><rect class="cls-8" x="48.67021" y="515.28906" width="93.81797" height="93.81797"/><rect class="cls-2" x="61.93775" y="565.35613" width="13.59065" height="13.59065"/><rect class="cls-1" x="88.65487" y="551.77748" width="13.59065" height="27.1693"/><rect class="cls-2" x="115.53897" y="528.8422" width="13.59065" height="50.10457"/><polygon class="cls-3" points="93.091 634.036 93.091 635.619 93.091 645.117 110.446 645.018 110.446 648.277 109.711 653.267 109.711 653.427 93.091 653.427 91.664 653.427 84.78 653.427 84.78 645.117 84.78 634.036 88.935 634.036 88.935 627.111 93.091 627.111 93.091 634.036"/><circle class="cls-2" cx="112.94005" cy="609.1153" r="13.8508"/><path class="cls-3" d="M99.08925,609.1153a13.8508,13.8508,0,0,0,27.7016,0Z"/><path class="cls-8" d="M142.14782,641.35971a20.53236,20.53236,0,0,0-20.09521-17.00863c-11.25093,0-21.04978,9.24479-21.1112,20.66968h-.00569l.00554.00371c-.00015.03483-.00554.068-.00554.1028h.16l8.15053-.10879v20.36143h24.93142V641.67329l2.13759-.62,3.8752.85251.8524.34879.38755-.31C141.42425,640.69506,142.36189,642.54783,142.14782,641.35971Z"/><polygon class="cls-3" points="142.488 642.465 142.488 609.116 138.333 609.116 138.333 602.724 134.178 602.724 134.178 609.116 134.178 610.502 134.178 642.465 142.488 642.465"/><rect class="cls-8" x="399.55657" y="515.70372" width="82.67252" height="82.67252"/><rect class="cls-2" x="482.22909" y="515.70372" width="82.67252" height="82.67252"/><rect class="cls-2" x="411.24795" y="559.82288" width="11.9761" height="11.9761"/><rect class="cls-1" x="434.79111" y="547.85736" width="11.9761" height="23.94162"/><rect class="cls-2" x="458.48141" y="527.64677" width="11.9761" height="44.15222"/><polygon class="cls-3" points="462.364 623.342 462.364 624.924 462.364 634.422 479.719 634.324 479.719 637.582 478.985 642.573 478.985 642.733 462.364 642.733 460.937 642.733 454.053 642.733 454.053 634.422 454.053 623.342 458.208 623.342 458.208 616.416 462.364 616.416 462.364 623.342"/><circle class="cls-1" cx="482.21316" cy="598.42078" r="13.8508"/><path class="cls-3" d="M468.36236,598.42078a13.8508,13.8508,0,0,0,27.7016,0Z"/><path class="cls-8" d="M511.42092,630.66519a20.53235,20.53235,0,0,0-20.09521-17.00863c-11.25092,0-21.04978,9.24479-21.1112,20.66968h-.00569l.00554.00371c-.00015.03483-.00554.068-.00554.1028h.16l8.15053-.1088v20.36144h24.93142V630.97877l2.13759-.62,3.8752.85251.8524.34879.38755-.31C510.69736,630.00053,511.635,631.8533,511.42092,630.66519Z"/><polygon class="cls-3" points="511.761 631.77 511.761 598.422 507.606 598.422 507.606 592.029 503.451 592.029 503.451 598.422 503.451 599.807 503.451 631.77 511.761 631.77"/><path class="cls-1" d="M518.61028,564.6568a4.01662,4.01662,0,1,1,4.01721,4.01661A3.97755,3.97755,0,0,1,518.61028,564.6568Zm.68312-26.028h6.667l-.84251,19.76189h-4.98077Z"/><rect class="cls-9" x="786.16163" y="515.14256" width="75.62238" height="75.62238"/><path class="cls-10" d="M819.9562,563.08747a4.01662,4.01662,0,1,1,4.01722,4.01662A3.97754,3.97754,0,0,1,819.9562,563.08747Zm.68312-26.028h6.667l-.84251,19.76189H821.483Z"/><rect class="cls-2" x="861.78401" y="515.14256" width="75.62238" height="75.62238"/><path class="cls-10" d="M909.978,545.05255c0,5.06107-3.93572,7.712-8.11353,8.95724l-.08029,2.81157H896.964l-.32119-6.02492c3.77513-.44193,6.74849-1.84772,6.74849-5.302a3.29483,3.29483,0,0,0-3.61573-3.37394c-2.69053,0-4.3384,1.56637-5.3415,4.01661l-5.22166-1.96816a11.09905,11.09905,0,0,1,10.7645-7.5916C905.76064,536.57739,909.978,539.6703,909.978,545.05255Zm-6.62744,18.03492a4.01662,4.01662,0,1,1-4.016-4.01661A3.95272,3.95272,0,0,1,903.35056,563.08747Z"/><polygon class="cls-2" points="874.131 626.365 874.131 659.418 878.249 659.418 878.249 665.754 882.368 665.754 882.368 659.418 882.368 658.045 882.368 626.365 874.131 626.365"/><polygon class="cls-2" points="841.183 626.365 841.183 659.418 845.302 659.418 845.302 665.754 849.42 665.754 849.42 659.418 849.42 658.045 849.42 626.365 841.183 626.365"/><path class="cls-10" d="M875.50361,590.77685a13.72822,13.72822,0,0,0-27.45644,0"/><path class="cls-2" d="M848.04717,590.77685a13.72822,13.72822,0,0,0,27.45644,0Z"/><path class="cls-10" d="M882.36242,626.36455A20.42043,20.42043,0,0,0,862.113,605.87778c-11.15123,0-20.86346,9.163-20.92432,20.48677H841.183l.00555.00369c-.00024.0345-.00555.06735-.00555.10188h.15855l8.07844,5.3857v23.44355h24.71075V626.47012h.15855l8.07845,5.3857v-5.49127Z"/><rect class="cls-9" x="632.20363" y="515.28906" width="93.81797" height="93.81797"/><rect class="cls-2" x="645.47117" y="565.35613" width="13.59065" height="13.59065"/><rect class="cls-10" x="672.18829" y="551.77748" width="13.59065" height="27.1693"/><rect class="cls-2" x="699.07239" y="528.8422" width="13.59065" height="50.10457"/><polygon class="cls-2" points="676.624 634.036 676.624 635.619 676.624 645.117 693.979 645.018 693.979 648.277 693.245 653.267 693.245 653.427 676.624 653.427 675.197 653.427 668.313 653.427 668.313 645.117 668.313 634.036 672.469 634.036 672.469 627.111 676.624 627.111 676.624 634.036"/><path class="cls-10" d="M710.32427,609.1153a13.8508,13.8508,0,1,0-27.7016,0"/><path class="cls-2" d="M682.62267,609.1153a13.8508,13.8508,0,1,0,27.7016,0Z"/><path class="cls-11" d="M725.68124,641.35971A20.53235,20.53235,0,0,0,705.586,624.35108c-11.25093,0-21.04978,9.24479-21.1112,20.66968h-.00569l.00554.00371c-.00015.03483-.00554.068-.00554.1028h.16l8.15053-.10879v20.36143h24.93142V641.67329l2.13759-.62,3.8752.85251.8524.34879.38755-.31C724.95768,640.69506,725.89531,642.54783,725.68124,641.35971Z"/><polygon class="cls-2" points="726.022 642.465 726.022 609.116 721.866 609.116 721.866 602.724 717.711 602.724 717.711 609.116 717.711 610.502 717.711 642.465 726.022 642.465"/><rect class="cls-9" x="983.08999" y="515.70372" width="82.67252" height="82.67252"/><rect class="cls-11" x="1065.76251" y="515.70372" width="82.67252" height="82.67252"/><rect class="cls-10" x="994.78137" y="559.82288" width="11.9761" height="11.9761"/><rect class="cls-2" x="1018.32453" y="547.85736" width="11.9761" height="23.94162"/><rect class="cls-10" x="1042.01483" y="527.64677" width="11.9761" height="44.15222"/><polygon class="cls-2" points="1045.897 623.342 1045.897 624.924 1045.897 634.422 1063.252 634.324 1063.252 637.582 1062.518 642.573 1062.518 642.733 1045.897 642.733 1044.47 642.733 1037.587 642.733 1037.587 634.422 1037.587 623.342 1041.742 623.342 1041.742 616.416 1045.897 616.416 1045.897 623.342"/><path class="cls-10" d="M1079.59738,598.42078a13.8508,13.8508,0,0,0-27.7016,0"/><path class="cls-2" d="M1051.89578,598.42078a13.8508,13.8508,0,0,0,27.7016,0Z"/><path class="cls-10" d="M1094.95434,630.66519a20.53235,20.53235,0,0,0-20.09521-17.00863c-11.25092,0-21.04977,9.24479-21.11119,20.66968h-.0057l.00555.00371c-.00015.03483-.00555.068-.00555.1028h.16l8.15053-.1088v20.36144h24.93141V630.97877l2.13759-.62,3.8752.85251.8524.34879.38755-.31C1094.23078,630.00053,1095.16842,631.8533,1094.95434,630.66519Z"/><polygon class="cls-2" points="1095.295 631.77 1095.295 598.422 1091.139 598.422 1091.139 592.029 1086.984 592.029 1086.984 598.422 1086.984 599.807 1086.984 631.77 1095.295 631.77"/><path class="cls-10" d="M1102.1437,564.6568a4.01662,4.01662,0,1,1,4.01722,4.01661A3.97755,3.97755,0,0,1,1102.1437,564.6568Zm.68312-26.028h6.667l-.84251,19.76189h-4.98077Z"/></svg>