<svg id="Layer_1" data-name="Layer 1" xmlns="http://www.w3.org/2000/svg" width="419.99958mm" height="297.00008mm" viewBox="0 0 1190.55 841.89"><defs><style>.cls-1{fill:#2a2859;}.cls-2{fill:#6fe9ff;}.cls-3{fill:#ff8274;}.cls-4{fill:#b3f5ff;}.cls-5{fill:#f9c66b;}.cls-6{fill:#d0bfae;}.cls-7{fill:#f8f0dd;}.cls-8{fill:#c7f6c9;}.cls-9{fill:#43f8b6;}</style></defs><title>Oslo-illustrasjoner_rgb</title><rect class="cls-1" x="235.94216" y="374.65907" width="34.61772" height="31.3128"/><rect class="cls-2" x="218.38041" y="406.07058" width="69.69822" height="25.67725"/><rect class="cls-2" x="227.3926" y="387.50151" width="51.91723" height="25.67725"/><rect class="cls-3" x="246.30959" y="361.75459" width="15.02752" height="12.70387"/><rect class="cls-1" x="229.97317" y="394.13433" width="45.14462" height="6.6506"/><rect class="cls-1" x="221.8962" y="408.88406" width="62.89163" height="6.6506"/><polygon class="cls-4" points="253.041 495.658 218.635 495.908 209.39 438.126 253.041 403.856 253.041 495.658"/><polygon class="cls-1" points="253.041 496.121 287.862 496.37 297.218 438.588 253.041 404.318 253.041 496.121"/><path class="cls-1" d="M551.45687,197.22981h-59.6627v3.72741h2.86992c-8.9022,5.90034-14.02235,10.62573-16.96409,15.03068-1.75815,2.63264-3.882,11.07892-3.882,11.07892a6.12948,6.12948,0,0,0-6.06354,6.10673v16.42531H608.90662v-3.72741l-.07921-9.70619a9.85716,9.85716,0,0,0-3.69026-7.2987l-11.13913-11.136h-1.8637s-16.45416-10.73689-22.36449-14.90965A32.66922,32.66922,0,0,0,551.45687,197.22981Z"/><path class="cls-5" d="M594.0007,217.73154a6.45555,6.45555,0,0,0,9.12952,9.12952"/><circle class="cls-5" cx="510.11038" cy="223.28808" r="1.83248"/><circle class="cls-5" cx="482.43368" cy="220.8001" r="3.14516"/><circle class="cls-5" cx="576.58592" cy="231.05334" r="1.83248"/><rect class="cls-5" x="541.4812" y="221.07808" width="3.50619" height="1.80622"/><rect class="cls-5" x="538.82499" y="221.92807" width="3.50619" height="1.80622" transform="translate(317.74691 763.40927) rotate(-90)"/><path class="cls-5" d="M467.75444,233.13036a6.06354,6.06354,0,0,1,6.06354-6.06354v6.06354Z"/><path d="M486.77825,232.83051a14.90715,14.90715,0,1,0,14.90713,14.90716A14.90715,14.90715,0,0,0,486.77825,232.83051Zm.08442,24.22675a9.30917,9.30917,0,1,1,9.30915-9.30917A9.30917,9.30917,0,0,1,486.86267,257.05726Z"/><path d="M586.8916,232.83051a14.90716,14.90716,0,0,0-14.90713,14.90716c0,8.233,5.84269,14.90714,14.07566,14.90714s15.73863-6.67415,15.73863-14.90714A14.90715,14.90715,0,0,0,586.8916,232.83051Zm0,24.22675a9.30917,9.30917,0,1,1,9.30917-9.30917A9.30916,9.30916,0,0,1,586.8916,257.05726Z"/><circle class="cls-6" cx="486.86267" cy="247.74809" r="9.30917"/><circle class="cls-6" cx="586.89161" cy="247.74809" r="9.30915" transform="translate(-36.2614 115.45596) rotate(-10.90071)"/><path class="cls-7" d="M508.73155,200.9529h.28528l43.01751.06116a24.26321,24.26321,0,0,1,13.60089,4.15247c1.98648,1.40248,6.03494,4.10887,9.87228,6.6518a3.22946,3.22946,0,0,1-1.78113,5.92171l-69.99483.03325a8.4102,8.4102,0,0,1-8.4102-8.41019c0-4.64483,8.76538-8.4102,13.4102-8.4102"/><rect class="cls-2" x="678.66548" y="118.56471" width="278.28673" height="110.49176"/><path class="cls-1" d="M962.49669,158.58494h42.04168a13.35585,13.35585,0,0,1,13.35585,13.35585v78.2103a0,0,0,0,1,0,0H962.49669a0,0,0,0,1,0,0V158.58494A0,0,0,0,1,962.49669,158.58494Z"/><path class="cls-7" d="M972.2416,165.968h27.07085a11.09731,11.09731,0,0,1,11.09731,11.09731v20.9511a0,0,0,0,1,0,0H972.2416a0,0,0,0,1,0,0V165.968A0,0,0,0,1,972.2416,165.968Z"/><ellipse cx="991.70984" cy="246.56126" rx="16.07847" ry="15.16125"/><ellipse class="cls-6" cx="992.14563" cy="246.41243" rx="8.4922" ry="8.00774"/><rect class="cls-1" x="894.55439" y="236.25217" width="68.02321" height="14.3217"/><rect class="cls-1" x="735.46943" y="229.59325" width="213.69081" height="9.90399"/><ellipse cx="902.11391" cy="247.01747" rx="16.07847" ry="15.16125"/><ellipse cx="934.69425" cy="247.3293" rx="16.07847" ry="15.16125"/><ellipse class="cls-6" cx="902.01997" cy="247.00237" rx="8.4922" ry="8.00774"/><ellipse class="cls-6" cx="934.69031" cy="247.37989" rx="8.4922" ry="8.00774"/><ellipse cx="757.94592" cy="247.02549" rx="16.07847" ry="15.16125"/><ellipse class="cls-6" cx="758.2204" cy="247.1228" rx="8.4922" ry="8.00774"/><ellipse cx="793.84871" cy="247.48356" rx="16.07847" ry="15.16125"/><ellipse cx="827.17914" cy="247.3293" rx="16.07847" ry="15.16125"/><ellipse class="cls-6" cx="793.25953" cy="247.65938" rx="8.4922" ry="8.00774"/><ellipse class="cls-6" cx="826.96159" cy="247.0574" rx="8.4922" ry="8.00774"/><rect class="cls-2" x="678.66548" y="118.56471" width="278.28673" height="110.49176"/><path class="cls-1" d="M962.49669,158.58494h42.04168a13.35585,13.35585,0,0,1,13.35585,13.35585v78.2103a0,0,0,0,1,0,0H962.49669a0,0,0,0,1,0,0V158.58494A0,0,0,0,1,962.49669,158.58494Z"/><path class="cls-7" d="M972.2416,165.968h27.07085a11.09731,11.09731,0,0,1,11.09731,11.09731v20.9511a0,0,0,0,1,0,0H972.2416a0,0,0,0,1,0,0V165.968A0,0,0,0,1,972.2416,165.968Z"/><ellipse cx="991.70984" cy="246.56126" rx="16.07847" ry="15.16125"/><ellipse class="cls-6" cx="992.14563" cy="246.41243" rx="8.4922" ry="8.00774"/><rect class="cls-1" x="894.55439" y="236.25217" width="68.02321" height="14.3217"/><rect class="cls-1" x="735.46943" y="229.59325" width="213.69081" height="9.90399"/><ellipse cx="902.11391" cy="247.01747" rx="16.07847" ry="15.16125"/><ellipse cx="934.69425" cy="247.3293" rx="16.07847" ry="15.16125"/><ellipse class="cls-6" cx="902.01997" cy="247.00237" rx="8.4922" ry="8.00774"/><ellipse class="cls-6" cx="934.69031" cy="247.37989" rx="8.4922" ry="8.00774"/><ellipse cx="757.94592" cy="247.02549" rx="16.07847" ry="15.16125"/><ellipse class="cls-6" cx="758.2204" cy="247.1228" rx="8.4922" ry="8.00774"/><ellipse cx="793.84871" cy="247.48356" rx="16.07847" ry="15.16125"/><ellipse cx="827.17914" cy="247.3293" rx="16.07847" ry="15.16125"/><ellipse class="cls-6" cx="793.25953" cy="247.65938" rx="8.4922" ry="8.00774"/><ellipse class="cls-6" cx="826.96159" cy="247.0574" rx="8.4922" ry="8.00774"/><path d="M335.02928,229.27445c0,16.39582,14.09546,29.6872,31.48316,29.6872s31.48315-13.29138,31.48315-29.6872Z"/><rect x="272.51983" y="216.66911" width="72.58943" height="9.03944" transform="translate(128.51815 -113.15251) rotate(26.05168)"/><polygon class="cls-5" points="309.758 238.545 172.656 237.658 181.086 208.374 202.827 199.944 272.043 200.831 309.758 238.545"/><polygon class="cls-5" points="268.863 202.69 224.509 203.957 224.509 167.207 265.061 167.207 268.863 202.69"/><rect class="cls-5" x="209.96912" y="178.97363" width="9.03944" height="21.63987"/><rect class="cls-5" x="271.32773" y="198.1482" width="12.26996" height="16.34509"/><path d="M216.897,215.79237a23.42623,23.42623,0,0,0-23.42619,23.42623c0,12.938,9.18165,23.42621,22.11955,23.42621s24.73286-10.48826,24.73286-23.42621A23.42621,23.42621,0,0,0,216.897,215.79237Zm0,38.07175A14.62913,14.62913,0,1,1,231.52615,239.235,14.62911,14.62911,0,0,1,216.897,253.86412Z"/><path d="M297.67692,215.79237a23.42623,23.42623,0,0,0-23.42619,23.42623c0,12.938,9.18165,23.42621,22.11955,23.42621s24.73287-10.48826,24.73287-23.42621A23.42622,23.42622,0,0,0,297.67692,215.79237Zm0,38.07175A14.62913,14.62913,0,1,1,312.30605,239.235,14.62911,14.62911,0,0,1,297.67692,253.86412Z"/><circle class="cls-6" cx="216.89703" cy="239.23499" r="14.62911" transform="translate(-41.32756 45.33356) rotate(-10.90071)"/><circle class="cls-6" cx="297.67693" cy="239.23499" r="14.62911" transform="translate(-39.86999 60.60966) rotate(-10.90071)"/><polygon class="cls-7" points="260.041 199.27 232.879 198.986 232.879 174.177 258.149 174.177 260.041 199.27"/><rect class="cls-2" x="418.69049" y="424.91926" width="30.9354" height="71.42651"/><rect class="cls-1" x="448.90725" y="424.91507" width="123.63581" height="71.45474"/><rect class="cls-2" x="460.22745" y="458.39898" width="6.40696" height="6.40696"/><rect class="cls-2" x="472.46611" y="458.39898" width="6.40696" height="6.40696"/><rect class="cls-2" x="460.22745" y="445.58506" width="6.40696" height="6.40696"/><rect class="cls-2" x="472.46611" y="445.58506" width="6.40696" height="6.40696"/><rect class="cls-2" x="460.22745" y="432.77113" width="6.40696" height="6.40696"/><rect class="cls-2" x="472.46611" y="432.77113" width="6.40696" height="6.40696"/><rect class="cls-2" x="496.94342" y="458.11553" width="6.40696" height="6.40696"/><rect class="cls-2" x="484.70477" y="458.36174" width="6.40696" height="6.40696"/><rect class="cls-2" x="484.70477" y="445.54781" width="6.40696" height="6.40696"/><rect class="cls-2" x="496.94342" y="445.54781" width="6.40696" height="6.40696"/><rect class="cls-2" x="484.70477" y="432.73388" width="6.40696" height="6.40696"/><rect class="cls-2" x="496.94342" y="432.73388" width="6.40696" height="6.40696"/><rect class="cls-2" x="472.46611" y="483.49547" width="6.40696" height="12.85406"/><rect class="cls-2" x="484.70477" y="483.49547" width="6.40696" height="12.85406"/><rect class="cls-1" x="438.60296" y="470.89802" width="6.40696" height="12.85406"/><rect class="cls-1" x="438.60296" y="451.95189" width="6.40696" height="12.85406"/><rect class="cls-1" x="438.60296" y="432.77113" width="6.40696" height="12.85406"/><rect class="cls-2" x="517.11919" y="392.45484" width="11.51691" height="32.4633"/><rect class="cls-1" x="537.51951" y="379.12758" width="11.51691" height="46.80202"/><path d="M789.608,444.4094a6.52207,6.52207,0,0,0-10.83875-.02667l-.28271-.19055a6.52006,6.52006,0,0,0-8.60156-9.32929,6.52029,6.52029,0,0,0-11.73584-5.2398,6.51808,6.51808,0,1,0-12.75171-2.60126,6.50991,6.50991,0,0,0-9.62207,4.15277,6.50046,6.50046,0,0,0-9.15882-1.26984,6.52364,6.52364,0,1,0-12.5719,3.3863l-.18823.19268a6.51688,6.51688,0,0,0-8.12842,8.31745l-.54834.56109a6.52438,6.52438,0,1,0,1.9856,10.91242l4.95862,2.94421,76.16162.81024-1.40125-3.07122a6.48324,6.48324,0,0,0,2.72376-9.54853Z"/><rect class="cls-1" x="694.01541" y="451.93976" width="101.20323" height="44.43005"/><rect class="cls-2" x="700.43995" y="456.21914" width="3.18421" height="33.66161"/><rect class="cls-2" x="707.98506" y="456.17367" width="3.18421" height="33.66161"/><rect class="cls-2" x="715.21309" y="456.17138" width="3.18421" height="33.66161"/><rect class="cls-2" x="722.32716" y="456.17138" width="3.18421" height="33.66161"/><rect class="cls-2" x="729.12606" y="456.20554" width="3.18421" height="33.66161"/><rect class="cls-2" x="735.79905" y="456.25889" width="3.18421" height="33.66161"/><rect class="cls-2" x="742.34613" y="456.22474" width="3.18421" height="33.66161"/><rect class="cls-2" x="748.89321" y="456.22474" width="3.18421" height="33.66161"/><rect class="cls-2" x="755.44029" y="456.2506" width="3.18421" height="33.66161"/><rect class="cls-2" x="761.86147" y="456.19808" width="3.18421" height="33.66161"/><rect class="cls-2" x="768.15674" y="456.19808" width="3.18421" height="33.66161"/><rect class="cls-2" x="774.32611" y="456.2506" width="3.18421" height="33.66161"/><rect class="cls-2" x="780.62138" y="456.20816" width="3.18421" height="33.66161"/><rect class="cls-2" x="786.66484" y="456.19738" width="3.18421" height="33.66161"/><rect class="cls-1" x="916.691" y="451.93976" width="101.20323" height="44.43005"/><rect class="cls-2" x="923.11553" y="456.21914" width="3.18421" height="33.66161"/><rect class="cls-2" x="930.66064" y="456.17367" width="3.18421" height="33.66161"/><rect class="cls-2" x="937.88867" y="456.17138" width="3.18421" height="33.66161"/><rect class="cls-2" x="945.00275" y="456.17138" width="3.18421" height="33.66161"/><rect class="cls-2" x="951.80164" y="456.20554" width="3.18421" height="33.66161"/><rect class="cls-2" x="958.47463" y="456.25889" width="3.18421" height="33.66161"/><rect class="cls-2" x="965.02171" y="456.22474" width="3.18421" height="33.66161"/><rect class="cls-2" x="971.56879" y="456.22474" width="3.18421" height="33.66161"/><rect class="cls-2" x="978.11588" y="456.2506" width="3.18421" height="33.66161"/><rect class="cls-2" x="984.53705" y="456.19808" width="3.18421" height="33.66161"/><rect class="cls-2" x="990.83232" y="456.19808" width="3.18421" height="33.66161"/><rect class="cls-2" x="997.00169" y="456.2506" width="3.18421" height="33.66161"/><rect class="cls-2" x="1003.29696" y="456.20816" width="3.18421" height="33.66161"/><rect class="cls-2" x="1009.34042" y="456.19738" width="3.18421" height="33.66161"/><circle class="cls-7" cx="600.18471" cy="683.31843" r="40"/><rect x="585.18471" y="693.31843" width="10" height="10"/><rect x="595.18471" y="693.31843" width="10" height="10"/><rect x="605.18471" y="693.31843" width="10" height="10"/><circle cx="590.18471" cy="668.31843" r="5"/><circle cx="610.18471" cy="668.31843" r="5"/><circle class="cls-8" cx="754.65688" cy="683.32529" r="40"/><polygon points="747.586 701.182 754.657 708.253 761.728 701.182 768.799 694.111 761.728 687.04 754.657 694.111 747.586 687.04 740.515 694.111 747.586 701.182"/><circle cx="744.65688" cy="668.31843" r="5"/><circle cx="764.65688" cy="668.31843" r="5"/><circle class="cls-3" cx="283.62868" cy="683.32529" r="40"/><polygon points="290.7 664.868 287.164 668.404 290.7 671.94 294.235 675.475 297.771 671.94 294.235 668.404 297.771 664.868 294.235 661.333 290.7 664.868"/><polygon points="276.558 671.94 280.093 668.404 276.558 664.868 273.022 661.333 269.487 664.868 273.022 668.404 269.487 671.94 273.022 675.475 276.558 671.94"/><polygon points="290.7 691.276 283.629 684.205 276.558 691.276 269.487 698.347 276.558 705.418 283.629 698.347 290.7 705.418 297.771 698.347 290.7 691.276"/><circle class="cls-9" cx="906.92132" cy="683.32529" r="40"/><polygon points="891.315 670.522 894.85 674.058 898.386 670.522 901.921 666.987 898.386 663.451 894.85 666.987 891.315 663.451 887.779 666.987 891.315 670.522"/><polygon points="915.457 670.522 918.992 674.058 922.528 670.522 926.063 666.987 922.528 663.451 918.992 666.987 915.457 663.451 911.921 666.987 915.457 670.522"/><polygon points="899.85 701.182 906.921 708.253 913.992 701.182 921.063 694.111 913.992 687.04 906.921 694.111 899.85 687.04 892.779 694.111 899.85 701.182"/><circle class="cls-5" cx="440.36492" cy="683.32529" r="40"/><polygon points="447.436 691.276 440.365 684.205 433.294 691.276 426.223 698.347 433.294 705.418 440.365 698.347 447.436 705.418 454.507 698.347 447.436 691.276"/><circle cx="430.36492" cy="668.31843" r="5"/><circle cx="450.36492" cy="668.31843" r="5"/></svg>