<svg id="Layer_1" data-name="Layer 1" xmlns="http://www.w3.org/2000/svg" width="419.99958mm" height="297.00008mm" viewBox="0 0 1190.55 841.89"><defs><style>.cls-1{fill:#231f20;}.cls-2{fill:#bbbdbf;}.cls-3{fill:#e6e7e8;}.cls-4{fill:#2a2859;}.cls-5{fill:#d0bfae;}.cls-6{fill:#f8f0dd;}.cls-7{fill:#c7f6c9;}.cls-8{fill:#034b45;}.cls-9{fill:#43f8b6;}.cls-10{fill:#ff8274;}.cls-11{fill:#f9c66b;}.cls-12{fill:#6fe9ff;}.cls-13{fill:#b3f5ff;}</style></defs><title>Oslo-illustrasjoner_rgb</title><path class="cls-1" d="M456.50518,119.12242l-.87146-.51691L443.395,128.92777,429.52013,139.7772a3.80124,3.80124,0,0,0-.44531,5.24805l12.34674,15.94488-4.05377,15.43109h5l7.3684-16.08282,4.46491-16.91718,5.00275-13.22918C460.91436,126.2086,459.97783,121.37144,456.50518,119.12242Zm-13.31555,35.125-5.53779-8.356,7.76215-7.19934Z"/><polygon class="cls-1" points="443.307 111.294 430.368 103.401 423.368 103.401 423.368 113.401 430.368 113.401 430.368 121.401 443.395 128.928 455.634 118.606 443.307 111.294"/><path class="cls-1" d="M407.36779,95.42211a8,8,0,1,1,16,0"/><rect class="cls-1" x="423.36779" y="103.40122" width="7" height="10"/><polygon class="cls-2" points="437.819 176.401 433.368 176.401 433.368 178.401 431.346 178.401 431.346 180.813 433.368 180.813 433.368 180.814 437.819 180.814 442.368 180.814 442.368 176.401 437.819 176.401"/><path class="cls-2" d="M407.36779,95.42211a8,8,0,0,0,16,0Z"/><polygon class="cls-2" points="430.368 124.401 415.368 136.401 413.368 136.401 413.368 133.401 423.368 123.401 423.368 113.401 430.368 113.401 430.368 124.401"/><rect class="cls-2" x="410.36779" y="133.40122" width="3" height="3"/><rect class="cls-2" x="407.36779" y="133.40122" width="3" height="3"/><rect class="cls-2" x="407.36779" y="136.40122" width="3" height="3"/><path class="cls-1" d="M123.86779,148.40122a21.5,21.5,0,1,0,21.5,21.5A21.5,21.5,0,0,0,123.86779,148.40122Zm0,39.92853a18.42856,18.42856,0,1,1,18.42859-18.42853A18.42854,18.42854,0,0,1,123.86779,188.32975Z"/><polygon class="cls-1" points="255.368 158.401 255.368 160.401 240.368 160.401 240.368 164.401 255.368 164.401 255.368 166.401 271.368 166.401 271.368 158.401 255.368 158.401"/><path class="cls-1" d="M190.86779,148.40122a21.5,21.5,0,1,0,21.5,21.5A21.5,21.5,0,0,0,190.86779,148.40122Zm0,39.92853a18.42856,18.42856,0,1,1,18.42859-18.42853A18.42854,18.42854,0,0,1,190.86779,188.32975Z"/><rect class="cls-1" x="150.36781" y="180.73063" width="6" height="1.67059"/><rect class="cls-1" x="180.36781" y="142.40122" width="22" height="4"/><polygon class="cls-1" points="320.368 160.401 320.368 153.401 320.368 146.401 316.368 146.401 316.368 153.401 317.368 153.401 317.368 160.401 314.368 160.401 314.368 164.401 317.368 164.401 317.368 171.401 316.368 171.401 316.368 178.401 317.368 178.401 320.368 178.401 320.368 171.401 320.368 164.401 343.368 164.401 343.368 160.401 320.368 160.401"/><path class="cls-1" d="M123.36781,95.42211a8,8,0,0,1,16,0"/><path class="cls-2" d="M123.36781,95.42211a8,8,0,0,0,16,0Z"/><path class="cls-2" d="M161.58068,138.69206l-2.10755,14.7387-5.65454-7.53936,7.76209-7.19934-10.58948-3.1673-5.30933,4.22339a3.78653,3.78653,0,0,0-.4436,5.228l12.35,15.994-4.22046,15.43109h-4v2h-2.02161v2.41162h2.02161v.00123h9v-4.41285l7.70227-16.37347,4.29773-16.62653Z"/><rect class="cls-1" x="189.36781" y="168.40122" width="3" height="3"/><polygon class="cls-1" points="126.368 136.401 126.368 138.352 125.368 138.352 125.368 168.401 128.368 168.401 128.368 139.401 130.368 139.401 130.368 142.401 133.368 142.401 133.368 139.401 133.368 139.294 133.368 136.401 126.368 136.401"/><rect class="cls-1" x="122.36779" y="168.40122" width="3" height="3"/><polygon class="cls-1" points="143.368 91.401 139.368 91.401 139.368 95.401 143.368 95.401 143.368 99.401 147.368 99.401 147.368 95.401 147.368 91.401 143.368 91.401"/><polygon class="cls-2" points="139.368 113.401 139.368 123.401 129.368 133.401 126.368 133.401 123.368 133.401 123.368 136.401 123.368 139.401 126.368 139.401 126.368 136.401 129.368 136.401 131.368 136.401 146.368 124.401 146.368 113.401 139.368 113.401"/><path class="cls-2" d="M309.89672,153.40122h7.47107v-5h-13l-24,3v.00061l-.0127-.00061a11,11,0,0,0,0,22l.0127-.00061v.00061l24,3h13v-5h-13v-18Z"/><rect class="cls-3" x="316.36781" y="149.40122" width="5" height="3" transform="translate(469.76904 -167.96659) rotate(90)"/><rect class="cls-3" x="316.36781" y="172.40122" width="5" height="3" transform="translate(492.76904 -144.96659) rotate(90)"/><path class="cls-1" d="M170.46276,117.91258l-24.095-14.51136h-7v10h7v7.98719l13.194,7.53936-8.48182,6.597,19.28785,7.87646,5.00427-13.124A9.40706,9.40706,0,0,0,170.46276,117.91258Z"/><path class="cls-1" d="M407.86779,148.40122a21.5,21.5,0,1,0,21.5,21.5A21.5,21.5,0,0,0,407.86779,148.40122Zm0,39.92853a18.42856,18.42856,0,1,1,18.42859-18.42853A18.42854,18.42854,0,0,1,407.86779,188.32975Z"/><path class="cls-1" d="M474.86779,148.40122a21.5,21.5,0,1,0,21.5,21.5A21.5,21.5,0,0,0,474.86779,148.40122Zm0,39.92853a18.42856,18.42856,0,1,1,18.42859-18.42853A18.42854,18.42854,0,0,1,474.86779,188.32975Z"/><rect class="cls-1" x="434.36781" y="180.73063" width="6" height="1.67059"/><rect class="cls-1" x="464.36781" y="142.40122" width="22" height="4"/><rect class="cls-1" x="473.36781" y="168.40122" width="3" height="3"/><polygon class="cls-1" points="410.368 136.401 410.368 138.352 409.368 138.352 409.368 168.401 412.368 168.401 412.368 139.401 414.368 139.401 414.368 142.401 417.368 142.401 417.368 139.401 417.368 139.294 417.368 136.401 410.368 136.401"/><rect class="cls-1" x="406.36779" y="168.40122" width="3" height="3"/><circle class="cls-1" cx="308.86781" cy="162.468" r="7.5"/><path class="cls-4" d="M1049.09969,119.12242l-.87146-.51691-12.23871,10.32226-13.87487,10.84943a3.80126,3.80126,0,0,0-.44532,5.24805l12.34675,15.94488-4.05378,15.43109h5l7.36841-16.08282,4.46491-16.91718,5.00274-13.22918C1053.50887,126.2086,1052.57235,121.37144,1049.09969,119.12242Zm-13.31555,35.125-5.53778-8.356,7.76215-7.19934Z"/><polygon class="cls-4" points="1035.901 111.294 1022.962 103.401 1015.962 103.401 1015.962 113.401 1022.962 113.401 1022.962 121.401 1035.99 128.928 1048.228 118.606 1035.901 111.294"/><path class="cls-4" d="M999.9623,95.42211a8,8,0,0,1,16,0"/><rect class="cls-4" x="1015.9623" y="103.40122" width="7" height="10"/><polygon class="cls-5" points="1030.413 176.401 1025.962 176.401 1025.962 178.401 1023.941 178.401 1023.941 180.813 1025.962 180.813 1025.962 180.814 1030.413 180.814 1034.962 180.814 1034.962 176.401 1030.413 176.401"/><path class="cls-5" d="M999.9623,95.42211a8,8,0,1,0,16,0Z"/><polygon class="cls-5" points="1022.962 124.401 1007.962 136.401 1005.962 136.401 1005.962 133.401 1015.962 123.401 1015.962 113.401 1022.962 113.401 1022.962 124.401"/><rect class="cls-5" x="1002.9623" y="133.40122" width="3" height="3"/><rect class="cls-5" x="999.9623" y="133.40122" width="3" height="3"/><rect class="cls-5" x="999.9623" y="136.40122" width="3" height="3"/><polygon class="cls-4" points="847.962 158.401 847.962 160.401 832.962 160.401 832.962 164.401 847.962 164.401 847.962 166.401 863.962 166.401 863.962 158.401 847.962 158.401"/><rect class="cls-4" x="742.96233" y="180.73063" width="6" height="1.67059"/><polygon class="cls-4" points="912.962 160.401 912.962 153.401 912.962 146.401 908.962 146.401 908.962 153.401 909.962 153.401 909.962 160.401 906.962 160.401 906.962 164.401 909.962 164.401 909.962 171.401 908.962 171.401 908.962 178.401 909.962 178.401 912.962 178.401 912.962 171.401 912.962 164.401 935.962 164.401 935.962 160.401 912.962 160.401"/><path class="cls-4" d="M715.96233,95.42211a8,8,0,1,1,16,0"/><path class="cls-4" d="M716.4623,148.40122a21.5,21.5,0,1,0,21.5,21.5A21.5,21.5,0,0,0,716.4623,148.40122Zm0,39.92853a18.42856,18.42856,0,1,1,18.42859-18.42853A18.42854,18.42854,0,0,1,716.4623,188.32975Z"/><path class="cls-4" d="M783.4623,148.40122a21.5,21.5,0,1,0,21.5,21.5A21.5,21.5,0,0,0,783.4623,148.40122Zm0,39.92853a18.42856,18.42856,0,1,1,18.42859-18.42853A18.42854,18.42854,0,0,1,783.4623,188.32975Z"/><rect class="cls-4" x="772.96233" y="142.40122" width="22" height="4"/><rect class="cls-4" x="781.96233" y="168.40122" width="3" height="3"/><polygon class="cls-4" points="718.962 136.401 718.962 138.352 717.962 138.352 717.962 168.401 720.962 168.401 720.962 139.401 722.962 139.401 722.962 142.401 725.962 142.401 725.962 139.401 725.962 139.294 725.962 136.401 718.962 136.401"/><rect class="cls-4" x="714.9623" y="168.40122" width="3" height="3"/><polygon class="cls-4" points="735.962 91.401 731.962 91.401 731.962 95.401 735.962 95.401 735.962 99.401 739.962 99.401 739.962 95.401 739.962 91.401 735.962 91.401"/><path class="cls-5" d="M715.96233,95.42211a8,8,0,0,0,16,0Z"/><path class="cls-5" d="M754.17519,138.69206l-2.10754,14.7387-5.65454-7.53936,7.76208-7.19934-10.58947-3.1673-5.30933,4.22339a3.7865,3.7865,0,0,0-.4436,5.228l12.35,15.994-4.22046,15.43109h-4v2h-2.0216v2.41162h2.0216v.00123h9v-4.41285l7.70227-16.37347,4.29773-16.62653Z"/><polygon class="cls-5" points="731.962 113.401 731.962 123.401 721.962 133.401 718.962 133.401 715.962 133.401 715.962 136.401 715.962 139.401 718.962 139.401 718.962 136.401 721.962 136.401 723.962 136.401 738.962 124.401 738.962 113.401 731.962 113.401"/><path class="cls-5" d="M902.49123,153.40122h7.47107v-5h-13l-24,3v.00061l-.01269-.00061a11,11,0,0,0,0,22l.01269-.00061v.00061l24,3h13v-5h-13v-18Z"/><rect class="cls-6" x="908.96233" y="149.40122" width="5" height="3" transform="translate(1062.36355 -760.5611) rotate(90)"/><rect class="cls-6" x="908.96233" y="172.40122" width="5" height="3" transform="translate(1085.36355 -737.5611) rotate(90)"/><path class="cls-4" d="M763.05727,117.91258l-24.095-14.51136h-7v10h7v7.98719l13.194,7.53936-8.48181,6.597,19.28784,7.87646,5.00428-13.124A9.40707,9.40707,0,0,0,763.05727,117.91258Z"/><path class="cls-4" d="M1000.4623,148.40122a21.5,21.5,0,1,0,21.5,21.5A21.5,21.5,0,0,0,1000.4623,148.40122Zm0,39.92853a18.42856,18.42856,0,1,1,18.42859-18.42853A18.42854,18.42854,0,0,1,1000.4623,188.32975Z"/><path class="cls-4" d="M1067.4623,148.40122a21.5,21.5,0,1,0,21.5,21.5A21.5,21.5,0,0,0,1067.4623,148.40122Zm0,39.92853a18.42856,18.42856,0,1,1,18.42859-18.42853A18.42854,18.42854,0,0,1,1067.4623,188.32975Z"/><rect class="cls-4" x="1026.96233" y="180.73063" width="6" height="1.67059"/><rect class="cls-4" x="1056.96233" y="142.40122" width="22" height="4"/><rect class="cls-4" x="1065.96233" y="168.40122" width="3" height="3"/><polygon class="cls-4" points="1002.962 136.401 1002.962 138.352 1001.962 138.352 1001.962 168.401 1004.962 168.401 1004.962 139.401 1006.962 139.401 1006.962 142.401 1009.962 142.401 1009.962 139.401 1009.962 139.294 1009.962 136.401 1002.962 136.401"/><rect class="cls-4" x="998.9623" y="168.40122" width="3" height="3"/><circle class="cls-4" cx="901.46233" cy="162.468" r="7.5"/><polygon class="cls-7" points="437.819 365.438 433.368 365.438 433.368 367.438 431.346 367.438 431.346 369.849 433.368 369.849 433.368 369.851 437.819 369.851 442.368 369.851 442.368 365.438 437.819 365.438"/><path class="cls-7" d="M407.36779,284.45853a8,8,0,0,0,16,0Z"/><polygon class="cls-7" points="430.368 313.438 415.368 325.438 413.368 325.438 413.368 322.438 423.368 312.438 423.368 302.438 430.368 302.438 430.368 313.438"/><rect class="cls-7" x="410.36779" y="322.43764" width="3" height="3"/><rect class="cls-7" x="407.36779" y="322.43764" width="3" height="3"/><rect class="cls-7" x="407.36779" y="325.43764" width="3" height="3"/><path class="cls-8" d="M123.86779,337.43764a21.5,21.5,0,1,0,21.5,21.5A21.5,21.5,0,0,0,123.86779,337.43764Zm0,39.92853a18.42856,18.42856,0,1,1,18.42859-18.42853A18.42854,18.42854,0,0,1,123.86779,377.36617Z"/><polygon class="cls-8" points="255.368 347.438 255.368 349.438 240.368 349.438 240.368 353.438 255.368 353.438 255.368 355.438 271.368 355.438 271.368 347.438 255.368 347.438"/><path class="cls-8" d="M190.86779,337.43764a21.5,21.5,0,1,0,21.5,21.5A21.5,21.5,0,0,0,190.86779,337.43764Zm0,39.92853a18.42856,18.42856,0,1,1,18.42859-18.42853A18.42854,18.42854,0,0,1,190.86779,377.36617Z"/><rect class="cls-8" x="150.36781" y="369.76705" width="6" height="1.67059"/><rect class="cls-8" x="180.36781" y="331.43764" width="22" height="4"/><polygon class="cls-8" points="320.368 349.438 320.368 342.438 320.368 335.438 316.368 335.438 316.368 342.438 317.368 342.438 317.368 349.438 314.368 349.438 314.368 353.438 317.368 353.438 317.368 360.438 316.368 360.438 316.368 367.438 317.368 367.438 320.368 367.438 320.368 360.438 320.368 353.438 343.368 353.438 343.368 349.438 320.368 349.438"/><path class="cls-8" d="M123.36781,284.45853a8,8,0,0,1,16,0"/><path class="cls-7" d="M123.36781,284.45853a8,8,0,0,0,16,0Z"/><path class="cls-7" d="M161.58068,327.72847l-2.10755,14.73871-5.65454-7.53937,7.76209-7.19934-10.58948-3.16729-5.30933,4.22338a3.78654,3.78654,0,0,0-.4436,5.228l12.35,15.994-4.22046,15.43109h-4v2h-2.02161v2.41162h2.02161v.00122h9v-4.41284l7.70227-16.37347,4.29773-16.62653Z"/><rect class="cls-8" x="189.36781" y="357.43764" width="3" height="3"/><polygon class="cls-8" points="126.368 325.438 126.368 327.388 125.368 327.388 125.368 357.438 128.368 357.438 128.368 328.438 130.368 328.438 130.368 331.438 133.368 331.438 133.368 328.438 133.368 328.331 133.368 325.438 126.368 325.438"/><rect class="cls-8" x="122.36779" y="357.43764" width="3" height="3"/><polygon class="cls-8" points="143.368 280.438 139.368 280.438 139.368 284.438 143.368 284.438 143.368 288.438 147.368 288.438 147.368 284.438 147.368 280.438 143.368 280.438"/><polygon class="cls-7" points="139.368 302.438 139.368 312.438 129.368 322.438 126.368 322.438 123.368 322.438 123.368 325.438 123.368 328.438 126.368 328.438 126.368 325.438 129.368 325.438 131.368 325.438 146.368 313.438 146.368 302.438 139.368 302.438"/><path class="cls-7" d="M309.89672,342.43764h7.47107v-5h-13l-24,3v.00061l-.0127-.00061a11,11,0,0,0,0,22l.0127-.00061v.00061l24,3h13v-5h-13v-18Z"/><rect class="cls-6" x="316.36781" y="338.43764" width="5" height="3" transform="translate(658.80545 21.06983) rotate(90)"/><rect class="cls-6" x="316.36781" y="361.43764" width="5" height="3" transform="translate(681.80545 44.06983) rotate(90)"/><path class="cls-8" d="M170.46276,306.949l-24.095-14.51135h-7v10h7v7.98718l13.194,7.53937-8.48182,6.597,19.28785,7.87646,5.00427-13.124A9.40708,9.40708,0,0,0,170.46276,306.949Z"/><path class="cls-8" d="M407.86779,337.43764a21.5,21.5,0,1,0,21.5,21.5A21.5,21.5,0,0,0,407.86779,337.43764Zm0,39.92853a18.42856,18.42856,0,1,1,18.42859-18.42853A18.42854,18.42854,0,0,1,407.86779,377.36617Z"/><path class="cls-8" d="M474.86779,337.43764a21.5,21.5,0,1,0,21.5,21.5A21.5,21.5,0,0,0,474.86779,337.43764Zm0,39.92853a18.42856,18.42856,0,1,1,18.42859-18.42853A18.42854,18.42854,0,0,1,474.86779,377.36617Z"/><path class="cls-8" d="M456.50518,308.15883l-.87146-.5169L443.395,317.96419l-13.87488,10.84943a3.80123,3.80123,0,0,0-.44531,5.248l12.34674,15.94489-4.05377,15.43109h5l7.3684-16.08282,4.46491-16.91718,5.00275-13.22919C460.91436,315.245,459.97783,310.40786,456.50518,308.15883Zm-13.31555,35.125-5.53779-8.356,7.76215-7.19934Z"/><path class="cls-8" d="M407.36779,284.45853a8,8,0,0,1,16,0"/><polygon class="cls-8" points="443.307 300.331 430.368 292.438 423.368 292.438 423.368 302.438 430.368 302.438 430.368 310.438 443.395 317.964 455.634 307.642 443.307 300.331"/><rect class="cls-8" x="423.36779" y="292.43764" width="7" height="10"/><rect class="cls-8" x="434.36781" y="369.76705" width="6" height="1.67059"/><rect class="cls-8" x="464.36781" y="331.43764" width="22" height="4"/><rect class="cls-8" x="473.36781" y="357.43764" width="3" height="3"/><polygon class="cls-8" points="410.368 325.438 410.368 327.388 409.368 327.388 409.368 357.438 412.368 357.438 412.368 328.438 414.368 328.438 414.368 331.438 417.368 331.438 417.368 328.438 417.368 328.331 417.368 325.438 410.368 325.438"/><rect class="cls-8" x="406.36779" y="357.43764" width="3" height="3"/><circle class="cls-8" cx="308.86781" cy="351.50441" r="7.5"/><path class="cls-9" d="M1049.09969,308.15883l-.87146-.5169-12.23871,10.32226-13.87487,10.84943a3.80124,3.80124,0,0,0-.44532,5.248l12.34675,15.94489-4.05378,15.43109h5l7.36841-16.08282,4.46491-16.91718,5.00274-13.22919C1053.50887,315.245,1052.57235,310.40786,1049.09969,308.15883Zm-13.31555,35.125-5.53778-8.356,7.76215-7.19934Z"/><polygon class="cls-9" points="1035.901 300.331 1022.962 292.438 1015.962 292.438 1015.962 302.438 1022.962 302.438 1022.962 310.438 1035.99 317.964 1048.228 307.642 1035.901 300.331"/><path class="cls-9" d="M999.9623,284.45853a8,8,0,0,1,16,0"/><rect class="cls-9" x="1015.9623" y="292.43764" width="7" height="10"/><polygon class="cls-7" points="1030.413 365.438 1025.962 365.438 1025.962 367.438 1023.941 367.438 1023.941 369.849 1025.962 369.849 1025.962 369.851 1030.413 369.851 1034.962 369.851 1034.962 365.438 1030.413 365.438"/><path class="cls-7" d="M999.9623,284.45853a8,8,0,0,0,16,0Z"/><polygon class="cls-7" points="1022.962 313.438 1007.962 325.438 1005.962 325.438 1005.962 322.438 1015.962 312.438 1015.962 302.438 1022.962 302.438 1022.962 313.438"/><rect class="cls-7" x="1002.9623" y="322.43764" width="3" height="3"/><rect class="cls-7" x="999.9623" y="322.43764" width="3" height="3"/><rect class="cls-7" x="999.9623" y="325.43764" width="3" height="3"/><polygon class="cls-9" points="847.962 347.438 847.962 349.438 832.962 349.438 832.962 353.438 847.962 353.438 847.962 355.438 863.962 355.438 863.962 347.438 847.962 347.438"/><rect class="cls-9" x="742.96233" y="369.76705" width="6" height="1.67059"/><polygon class="cls-9" points="912.962 349.438 912.962 342.438 912.962 335.438 908.962 335.438 908.962 342.438 909.962 342.438 909.962 349.438 906.962 349.438 906.962 353.438 909.962 353.438 909.962 360.438 908.962 360.438 908.962 367.438 909.962 367.438 912.962 367.438 912.962 360.438 912.962 353.438 935.962 353.438 935.962 349.438 912.962 349.438"/><path class="cls-9" d="M715.96233,284.45853a8,8,0,0,1,16,0"/><path class="cls-9" d="M716.4623,337.43764a21.5,21.5,0,1,0,21.5,21.5A21.5,21.5,0,0,0,716.4623,337.43764Zm0,39.92853a18.42856,18.42856,0,1,1,18.42859-18.42853A18.42854,18.42854,0,0,1,716.4623,377.36617Z"/><path class="cls-9" d="M783.4623,337.43764a21.5,21.5,0,1,0,21.5,21.5A21.5,21.5,0,0,0,783.4623,337.43764Zm0,39.92853a18.42856,18.42856,0,1,1,18.42859-18.42853A18.42854,18.42854,0,0,1,783.4623,377.36617Z"/><rect class="cls-9" x="772.96233" y="331.43764" width="22" height="4"/><rect class="cls-9" x="781.96233" y="357.43764" width="3" height="3"/><polygon class="cls-9" points="718.962 325.438 718.962 327.388 717.962 327.388 717.962 357.438 720.962 357.438 720.962 328.438 722.962 328.438 722.962 331.438 725.962 331.438 725.962 328.438 725.962 328.331 725.962 325.438 718.962 325.438"/><rect class="cls-9" x="714.9623" y="357.43764" width="3" height="3"/><polygon class="cls-9" points="735.962 280.438 731.962 280.438 731.962 284.438 735.962 284.438 735.962 288.438 739.962 288.438 739.962 284.438 739.962 280.438 735.962 280.438"/><path class="cls-7" d="M715.96233,284.45853a8,8,0,0,0,16,0Z"/><path class="cls-7" d="M754.17519,327.72847l-2.10754,14.73871-5.65454-7.53937,7.76208-7.19934-10.58947-3.16729-5.30933,4.22338a3.78652,3.78652,0,0,0-.4436,5.228l12.35,15.994-4.22046,15.43109h-4v2h-2.0216v2.41162h2.0216v.00122h9v-4.41284l7.70227-16.37347,4.29773-16.62653Z"/><polygon class="cls-7" points="731.962 302.438 731.962 312.438 721.962 322.438 718.962 322.438 715.962 322.438 715.962 325.438 715.962 328.438 718.962 328.438 718.962 325.438 721.962 325.438 723.962 325.438 738.962 313.438 738.962 302.438 731.962 302.438"/><path class="cls-7" d="M902.49123,342.43764h7.47107v-5h-13l-24,3v.00061l-.01269-.00061a11,11,0,0,0,0,22l.01269-.00061v.00061l24,3h13v-5h-13v-18Z"/><rect class="cls-6" x="908.96233" y="338.43764" width="5" height="3" transform="translate(1251.39997 -571.52469) rotate(90)"/><rect class="cls-6" x="908.96233" y="361.43764" width="5" height="3" transform="translate(1274.39997 -548.52469) rotate(90)"/><path class="cls-9" d="M763.05727,306.949l-24.095-14.51135h-7v10h7v7.98718l13.194,7.53937-8.48181,6.597,19.28784,7.87646,5.00428-13.124A9.40708,9.40708,0,0,0,763.05727,306.949Z"/><path class="cls-9" d="M1000.4623,337.43764a21.5,21.5,0,1,0,21.5,21.5A21.5,21.5,0,0,0,1000.4623,337.43764Zm0,39.92853a18.42856,18.42856,0,1,1,18.42859-18.42853A18.42854,18.42854,0,0,1,1000.4623,377.36617Z"/><path class="cls-9" d="M1067.4623,337.43764a21.5,21.5,0,1,0,21.5,21.5A21.5,21.5,0,0,0,1067.4623,337.43764Zm0,39.92853a18.42856,18.42856,0,1,1,18.42859-18.42853A18.42854,18.42854,0,0,1,1067.4623,377.36617Z"/><rect class="cls-9" x="1026.96233" y="369.76705" width="6" height="1.67059"/><rect class="cls-9" x="1056.96233" y="331.43764" width="22" height="4"/><rect class="cls-9" x="1065.96233" y="357.43764" width="3" height="3"/><polygon class="cls-9" points="1002.962 325.438 1002.962 327.388 1001.962 327.388 1001.962 357.438 1004.962 357.438 1004.962 328.438 1006.962 328.438 1006.962 331.438 1009.962 331.438 1009.962 328.438 1009.962 328.331 1009.962 325.438 1002.962 325.438"/><rect class="cls-9" x="998.9623" y="357.43764" width="3" height="3"/><circle class="cls-9" cx="901.46233" cy="351.50441" r="7.5"/><path class="cls-10" d="M456.50518,497.19525l-.87146-.51691L443.395,507.00061,429.52013,517.85a3.80124,3.80124,0,0,0-.44531,5.24805L441.42156,539.043l-4.05377,15.43109h5l7.3684-16.08283,4.46491-16.91717,5.00275-13.22919C460.91436,504.28143,459.97783,499.44427,456.50518,497.19525Zm-13.31555,35.125-5.53779-8.356,7.76215-7.19934Z"/><polygon class="cls-10" points="443.307 489.367 430.368 481.474 423.368 481.474 423.368 491.474 430.368 491.474 430.368 499.474 443.395 507.001 455.634 496.678 443.307 489.367"/><path class="cls-10" d="M407.36779,473.495a8,8,0,0,1,16,0"/><rect class="cls-10" x="423.36779" y="481.47406" width="7" height="10"/><polygon class="cls-5" points="437.819 554.474 433.368 554.474 433.368 556.474 431.346 556.474 431.346 558.886 433.368 558.886 433.368 558.887 437.819 558.887 442.368 558.887 442.368 554.474 437.819 554.474"/><path class="cls-5" d="M407.36779,473.495a8,8,0,0,0,16,0Z"/><polygon class="cls-5" points="430.368 502.474 415.368 514.474 413.368 514.474 413.368 511.474 423.368 501.474 423.368 491.474 430.368 491.474 430.368 502.474"/><rect class="cls-5" x="410.36779" y="511.47406" width="3" height="3"/><rect class="cls-5" x="407.36779" y="511.47406" width="3" height="3"/><rect class="cls-5" x="407.36779" y="514.47406" width="3" height="3"/><path class="cls-10" d="M123.86779,526.47406a21.5,21.5,0,1,0,21.5,21.5A21.5,21.5,0,0,0,123.86779,526.47406Zm0,39.92852a18.42856,18.42856,0,1,1,18.42859-18.42852A18.42854,18.42854,0,0,1,123.86779,566.40258Z"/><polygon class="cls-10" points="255.368 536.474 255.368 538.474 240.368 538.474 240.368 542.474 255.368 542.474 255.368 544.474 271.368 544.474 271.368 536.474 255.368 536.474"/><path class="cls-10" d="M190.86779,526.47406a21.5,21.5,0,1,0,21.5,21.5A21.5,21.5,0,0,0,190.86779,526.47406Zm0,39.92852a18.42856,18.42856,0,1,1,18.42859-18.42852A18.42854,18.42854,0,0,1,190.86779,566.40258Z"/><rect class="cls-10" x="150.36781" y="558.80347" width="6" height="1.67059"/><rect class="cls-10" x="180.36781" y="520.47406" width="22" height="4"/><polygon class="cls-10" points="320.368 538.474 320.368 531.474 320.368 524.474 316.368 524.474 316.368 531.474 317.368 531.474 317.368 538.474 314.368 538.474 314.368 542.474 317.368 542.474 317.368 549.474 316.368 549.474 316.368 556.474 317.368 556.474 320.368 556.474 320.368 549.474 320.368 542.474 343.368 542.474 343.368 538.474 320.368 538.474"/><path class="cls-10" d="M123.36781,473.495a8,8,0,0,1,16,0"/><path class="cls-5" d="M123.36781,473.495a8,8,0,0,0,16,0Z"/><path class="cls-5" d="M161.58068,516.76489l-2.10755,14.73871-5.65454-7.53937,7.76209-7.19934-10.58948-3.1673-5.30933,4.22339a3.78654,3.78654,0,0,0-.4436,5.228l12.35,15.994-4.22046,15.43109h-4v2h-2.02161v2.41162h2.02161v.00122h9v-4.41284l7.70227-16.37348,4.29773-16.62652Z"/><rect class="cls-10" x="189.36781" y="546.47406" width="3" height="3"/><polygon class="cls-10" points="126.368 514.474 126.368 516.425 125.368 516.425 125.368 546.474 128.368 546.474 128.368 517.474 130.368 517.474 130.368 520.474 133.368 520.474 133.368 517.474 133.368 517.367 133.368 514.474 126.368 514.474"/><rect class="cls-10" x="122.36779" y="546.47406" width="3" height="3"/><polygon class="cls-10" points="143.368 469.474 139.368 469.474 139.368 473.474 143.368 473.474 143.368 477.474 147.368 477.474 147.368 473.474 147.368 469.474 143.368 469.474"/><polygon class="cls-5" points="139.368 491.474 139.368 501.474 129.368 511.474 126.368 511.474 123.368 511.474 123.368 514.474 123.368 517.474 126.368 517.474 126.368 514.474 129.368 514.474 131.368 514.474 146.368 502.474 146.368 491.474 139.368 491.474"/><path class="cls-5" d="M309.89672,531.47406h7.47107v-5h-13l-24,3v.00061l-.0127-.00061a11,11,0,0,0,0,22l.0127-.00061v.00061l24,3h13v-5h-13v-18Z"/><rect class="cls-6" x="316.36781" y="527.47406" width="5" height="3" transform="translate(847.84187 210.10625) rotate(90)"/><rect class="cls-6" x="316.36781" y="550.47406" width="5" height="3" transform="translate(870.84187 233.10625) rotate(90)"/><path class="cls-10" d="M170.46276,495.98541l-24.095-14.51135h-7v10h7v7.98718l13.194,7.53937-8.48182,6.597,19.28785,7.87647,5.00427-13.124A9.40707,9.40707,0,0,0,170.46276,495.98541Z"/><path class="cls-10" d="M407.86779,526.47406a21.5,21.5,0,1,0,21.5,21.5A21.5,21.5,0,0,0,407.86779,526.47406Zm0,39.92852a18.42856,18.42856,0,1,1,18.42859-18.42852A18.42854,18.42854,0,0,1,407.86779,566.40258Z"/><path class="cls-10" d="M474.86779,526.47406a21.5,21.5,0,1,0,21.5,21.5A21.5,21.5,0,0,0,474.86779,526.47406Zm0,39.92852a18.42856,18.42856,0,1,1,18.42859-18.42852A18.42854,18.42854,0,0,1,474.86779,566.40258Z"/><rect class="cls-10" x="434.36781" y="558.80347" width="6" height="1.67059"/><rect class="cls-10" x="464.36781" y="520.47406" width="22" height="4"/><rect class="cls-10" x="473.36781" y="546.47406" width="3" height="3"/><polygon class="cls-10" points="410.368 514.474 410.368 516.425 409.368 516.425 409.368 546.474 412.368 546.474 412.368 517.474 414.368 517.474 414.368 520.474 417.368 520.474 417.368 517.474 417.368 517.367 417.368 514.474 410.368 514.474"/><rect class="cls-10" x="406.36779" y="546.47406" width="3" height="3"/><circle class="cls-10" cx="308.86781" cy="540.54083" r="7.5"/><path class="cls-11" d="M1049.09969,497.19525l-.87146-.51691-12.23871,10.32227L1022.11465,517.85a3.80126,3.80126,0,0,0-.44532,5.24805l12.34675,15.94489-4.05378,15.43109h5l7.36841-16.08283,4.46491-16.91717,5.00274-13.22919C1053.50887,504.28143,1052.57235,499.44427,1049.09969,497.19525Zm-13.31555,35.125-5.53778-8.356,7.76215-7.19934Z"/><polygon class="cls-11" points="1035.901 489.367 1022.962 481.474 1015.962 481.474 1015.962 491.474 1022.962 491.474 1022.962 499.474 1035.99 507.001 1048.228 496.678 1035.901 489.367"/><path class="cls-11" d="M999.9623,473.495a8,8,0,1,1,16,0"/><rect class="cls-11" x="1015.9623" y="481.47406" width="7" height="10"/><polygon class="cls-5" points="1030.413 554.474 1025.962 554.474 1025.962 556.474 1023.941 556.474 1023.941 558.886 1025.962 558.886 1025.962 558.887 1030.413 558.887 1034.962 558.887 1034.962 554.474 1030.413 554.474"/><path class="cls-5" d="M999.9623,473.495a8,8,0,0,0,16,0Z"/><polygon class="cls-5" points="1022.962 502.474 1007.962 514.474 1005.962 514.474 1005.962 511.474 1015.962 501.474 1015.962 491.474 1022.962 491.474 1022.962 502.474"/><rect class="cls-5" x="1002.9623" y="511.47406" width="3" height="3"/><rect class="cls-5" x="999.9623" y="511.47406" width="3" height="3"/><rect class="cls-5" x="999.9623" y="514.47406" width="3" height="3"/><polygon class="cls-5" points="847.962 536.474 847.962 538.474 832.962 538.474 832.962 542.474 847.962 542.474 847.962 544.474 863.962 544.474 863.962 536.474 847.962 536.474"/><rect class="cls-11" x="742.96233" y="558.80347" width="6" height="1.67059"/><polygon class="cls-5" points="912.962 538.474 912.962 531.474 912.962 524.474 908.962 524.474 908.962 531.474 909.962 531.474 909.962 538.474 906.962 538.474 906.962 542.474 909.962 542.474 909.962 549.474 908.962 549.474 908.962 556.474 909.962 556.474 912.962 556.474 912.962 549.474 912.962 542.474 935.962 542.474 935.962 538.474 912.962 538.474"/><path class="cls-11" d="M715.96233,473.495a8,8,0,0,1,16,0"/><path class="cls-11" d="M716.4623,526.47406a21.5,21.5,0,1,0,21.5,21.5A21.5,21.5,0,0,0,716.4623,526.47406Zm0,39.92852a18.42856,18.42856,0,1,1,18.42859-18.42852A18.42854,18.42854,0,0,1,716.4623,566.40258Z"/><path class="cls-11" d="M783.4623,526.47406a21.5,21.5,0,1,0,21.5,21.5A21.5,21.5,0,0,0,783.4623,526.47406Zm0,39.92852a18.42856,18.42856,0,1,1,18.42859-18.42852A18.42854,18.42854,0,0,1,783.4623,566.40258Z"/><rect class="cls-11" x="772.96233" y="520.47406" width="22" height="4"/><rect class="cls-11" x="781.96233" y="546.47406" width="3" height="3"/><polygon class="cls-11" points="718.962 514.474 718.962 516.425 717.962 516.425 717.962 546.474 720.962 546.474 720.962 517.474 722.962 517.474 722.962 520.474 725.962 520.474 725.962 517.474 725.962 517.367 725.962 514.474 718.962 514.474"/><rect class="cls-11" x="714.9623" y="546.47406" width="3" height="3"/><polygon class="cls-11" points="735.962 469.474 731.962 469.474 731.962 473.474 735.962 473.474 735.962 477.474 739.962 477.474 739.962 473.474 739.962 469.474 735.962 469.474"/><path class="cls-5" d="M715.96233,473.495a8,8,0,1,0,16,0Z"/><path class="cls-5" d="M754.17519,516.76489l-2.10754,14.73871-5.65454-7.53937,7.76208-7.19934-10.58947-3.1673-5.30933,4.22339a3.78652,3.78652,0,0,0-.4436,5.228l12.35,15.994-4.22046,15.43109h-4v2h-2.0216v2.41162h2.0216v.00122h9v-4.41284l7.70227-16.37348,4.29773-16.62652Z"/><polygon class="cls-5" points="731.962 491.474 731.962 501.474 721.962 511.474 718.962 511.474 715.962 511.474 715.962 514.474 715.962 517.474 718.962 517.474 718.962 514.474 721.962 514.474 723.962 514.474 738.962 502.474 738.962 491.474 731.962 491.474"/><path class="cls-11" d="M902.49123,531.47406h7.47107v-5h-13l-24,3v.00061l-.01269-.00061a11,11,0,0,0,0,22l.01269-.00061v.00061l24,3h13v-5h-13v-18Z"/><rect class="cls-6" x="908.96233" y="527.47406" width="5" height="3" transform="translate(1440.43638 -382.48827) rotate(90)"/><rect class="cls-6" x="908.96233" y="550.47406" width="5" height="3" transform="translate(1463.43638 -359.48827) rotate(90)"/><path class="cls-11" d="M763.05727,495.98541l-24.095-14.51135h-7v10h7v7.98718l13.194,7.53937-8.48181,6.597,19.28784,7.87647,5.00428-13.124A9.40707,9.40707,0,0,0,763.05727,495.98541Z"/><path class="cls-11" d="M1000.4623,526.47406a21.5,21.5,0,1,0,21.5,21.5A21.5,21.5,0,0,0,1000.4623,526.47406Zm0,39.92852a18.42856,18.42856,0,1,1,18.42859-18.42852A18.42854,18.42854,0,0,1,1000.4623,566.40258Z"/><path class="cls-11" d="M1067.4623,526.47406a21.5,21.5,0,1,0,21.5,21.5A21.5,21.5,0,0,0,1067.4623,526.47406Zm0,39.92852a18.42856,18.42856,0,1,1,18.42859-18.42852A18.42854,18.42854,0,0,1,1067.4623,566.40258Z"/><rect class="cls-11" x="1026.96233" y="558.80347" width="6" height="1.67059"/><rect class="cls-11" x="1056.96233" y="520.47406" width="22" height="4"/><rect class="cls-11" x="1065.96233" y="546.47406" width="3" height="3"/><polygon class="cls-11" points="1002.962 514.474 1002.962 516.425 1001.962 516.425 1001.962 546.474 1004.962 546.474 1004.962 517.474 1006.962 517.474 1006.962 520.474 1009.962 520.474 1009.962 517.474 1009.962 517.367 1009.962 514.474 1002.962 514.474"/><rect class="cls-11" x="998.9623" y="546.47406" width="3" height="3"/><circle class="cls-5" cx="901.46233" cy="540.54083" r="7.5"/><path class="cls-12" d="M456.50518,686.23167l-.87146-.51691L443.395,696.037l-13.87488,10.84943a3.80124,3.80124,0,0,0-.44531,5.24805l12.34674,15.94488-4.05377,15.43109h5l7.3684-16.08282,4.46491-16.91718,5.00275-13.22918C460.91436,693.31785,459.97783,688.48069,456.50518,686.23167Zm-13.31555,35.125-5.53779-8.356,7.76215-7.19934Z"/><polygon class="cls-12" points="443.307 678.404 430.368 670.51 423.368 670.51 423.368 680.51 430.368 680.51 430.368 688.51 443.395 696.037 455.634 685.715 443.307 678.404"/><path class="cls-12" d="M407.36779,662.53136a8,8,0,0,1,16,0"/><rect class="cls-12" x="423.36779" y="670.51047" width="7" height="10"/><polygon class="cls-13" points="437.819 743.511 433.368 743.511 433.368 745.511 431.346 745.511 431.346 747.922 433.368 747.922 433.368 747.923 437.819 747.923 442.368 747.923 442.368 743.511 437.819 743.511"/><path class="cls-13" d="M407.36779,662.53136a8,8,0,0,0,16,0Z"/><polygon class="cls-13" points="430.368 691.51 415.368 703.51 413.368 703.51 413.368 700.51 423.368 690.51 423.368 680.51 430.368 680.51 430.368 691.51"/><rect class="cls-13" x="410.36779" y="700.51047" width="3" height="3"/><rect class="cls-13" x="407.36779" y="700.51047" width="3" height="3"/><rect class="cls-13" x="407.36779" y="703.51047" width="3" height="3"/><path class="cls-12" d="M123.86779,715.51047a21.5,21.5,0,1,0,21.5,21.5A21.5,21.5,0,0,0,123.86779,715.51047Zm0,39.92853a18.42856,18.42856,0,1,1,18.42859-18.42853A18.42854,18.42854,0,0,1,123.86779,755.439Z"/><polygon class="cls-12" points="255.368 725.51 255.368 727.51 240.368 727.51 240.368 731.51 255.368 731.51 255.368 733.51 271.368 733.51 271.368 725.51 255.368 725.51"/><path class="cls-12" d="M190.86779,715.51047a21.5,21.5,0,1,0,21.5,21.5A21.5,21.5,0,0,0,190.86779,715.51047Zm0,39.92853a18.42856,18.42856,0,1,1,18.42859-18.42853A18.42854,18.42854,0,0,1,190.86779,755.439Z"/><rect class="cls-12" x="150.36781" y="747.83988" width="6" height="1.67059"/><rect class="cls-12" x="180.36781" y="709.51047" width="22" height="4"/><polygon class="cls-12" points="320.368 727.51 320.368 720.51 320.368 713.51 316.368 713.51 316.368 720.51 317.368 720.51 317.368 727.51 314.368 727.51 314.368 731.51 317.368 731.51 317.368 738.51 316.368 738.51 316.368 745.51 317.368 745.51 320.368 745.51 320.368 738.51 320.368 731.51 343.368 731.51 343.368 727.51 320.368 727.51"/><path class="cls-12" d="M123.36781,662.53136a8,8,0,0,1,16,0"/><path class="cls-13" d="M123.36781,662.53136a8,8,0,0,0,16,0Z"/><path class="cls-13" d="M161.58068,705.80131,159.47313,720.54l-5.65454-7.53936,7.76209-7.19934L150.9912,702.634l-5.30933,4.22339a3.78653,3.78653,0,0,0-.4436,5.228l12.35,15.994-4.22046,15.43109h-4v2h-2.02161v2.41162h2.02161v.00123h9v-4.41285l7.70227-16.37347,4.29773-16.62653Z"/><rect class="cls-12" x="189.36781" y="735.51047" width="3" height="3"/><polygon class="cls-12" points="126.368 703.51 126.368 705.461 125.368 705.461 125.368 735.51 128.368 735.51 128.368 706.51 130.368 706.51 130.368 709.51 133.368 709.51 133.368 706.51 133.368 706.404 133.368 703.51 126.368 703.51"/><rect class="cls-12" x="122.36779" y="735.51047" width="3" height="3"/><polygon class="cls-12" points="143.368 658.51 139.368 658.51 139.368 662.51 143.368 662.51 143.368 666.51 147.368 666.51 147.368 662.51 147.368 658.51 143.368 658.51"/><polygon class="cls-13" points="139.368 680.51 139.368 690.51 129.368 700.51 126.368 700.51 123.368 700.51 123.368 703.51 123.368 706.51 126.368 706.51 126.368 703.51 129.368 703.51 131.368 703.51 146.368 691.51 146.368 680.51 139.368 680.51"/><path class="cls-13" d="M309.89672,720.51047h7.47107v-5h-13l-24,3v.00061l-.0127-.00061a11,11,0,0,0,0,22l.0127-.00061v.00061l24,3h13v-5h-13v-18Z"/><rect class="cls-6" x="316.36781" y="716.51047" width="5" height="3" transform="translate(1036.87828 399.14266) rotate(90)"/><rect class="cls-6" x="316.36781" y="739.51047" width="5" height="3" transform="translate(1059.87828 422.14266) rotate(90)"/><path class="cls-12" d="M170.46276,685.02183l-24.095-14.51136h-7v10h7v7.98719l13.194,7.53936-8.48182,6.597,19.28785,7.87646,5.00427-13.124A9.40706,9.40706,0,0,0,170.46276,685.02183Z"/><path class="cls-12" d="M407.86779,715.51047a21.5,21.5,0,1,0,21.5,21.5A21.5,21.5,0,0,0,407.86779,715.51047Zm0,39.92853a18.42856,18.42856,0,1,1,18.42859-18.42853A18.42854,18.42854,0,0,1,407.86779,755.439Z"/><path class="cls-12" d="M474.86779,715.51047a21.5,21.5,0,1,0,21.5,21.5A21.5,21.5,0,0,0,474.86779,715.51047Zm0,39.92853a18.42856,18.42856,0,1,1,18.42859-18.42853A18.42854,18.42854,0,0,1,474.86779,755.439Z"/><rect class="cls-12" x="434.36781" y="747.83988" width="6" height="1.67059"/><rect class="cls-12" x="464.36781" y="709.51047" width="22" height="4"/><rect class="cls-12" x="473.36781" y="735.51047" width="3" height="3"/><polygon class="cls-12" points="410.368 703.51 410.368 705.461 409.368 705.461 409.368 735.51 412.368 735.51 412.368 706.51 414.368 706.51 414.368 709.51 417.368 709.51 417.368 706.51 417.368 706.404 417.368 703.51 410.368 703.51"/><rect class="cls-12" x="406.36779" y="735.51047" width="3" height="3"/><circle class="cls-12" cx="308.86781" cy="729.57725" r="7.5"/><path class="cls-4" d="M1049.09969,686.23167l-.87146-.51691L1035.98952,696.037l-13.87487,10.84943a3.80126,3.80126,0,0,0-.44532,5.24805l12.34675,15.94488-4.05378,15.43109h5l7.36841-16.08282,4.46491-16.91718,5.00274-13.22918C1053.50887,693.31785,1052.57235,688.48069,1049.09969,686.23167Zm-13.31555,35.125-5.53778-8.356,7.76215-7.19934Z"/><polygon class="cls-9" points="1035.901 678.404 1022.962 670.51 1015.962 670.51 1015.962 680.51 1022.962 680.51 1022.962 688.51 1035.99 696.037 1048.228 685.715 1035.901 678.404"/><path class="cls-9" d="M999.9623,662.53136a8,8,0,0,1,16,0"/><rect class="cls-9" x="1015.9623" y="670.51047" width="7" height="10"/><polygon class="cls-5" points="1030.413 743.511 1025.962 743.511 1025.962 745.511 1023.941 745.511 1023.941 747.922 1025.962 747.922 1025.962 747.923 1030.413 747.923 1034.962 747.923 1034.962 743.511 1030.413 743.511"/><path class="cls-5" d="M999.9623,662.53136a8,8,0,0,0,16,0Z"/><polygon class="cls-5" points="1022.962 691.51 1007.962 703.51 1005.962 703.51 1005.962 700.51 1015.962 690.51 1015.962 680.51 1022.962 680.51 1022.962 691.51"/><rect class="cls-5" x="1002.9623" y="700.51047" width="3" height="3"/><rect class="cls-5" x="999.9623" y="700.51047" width="3" height="3"/><rect class="cls-5" x="999.9623" y="703.51047" width="3" height="3"/><polygon class="cls-8" points="847.962 725.51 847.962 727.51 832.962 727.51 832.962 731.51 847.962 731.51 847.962 733.51 863.962 733.51 863.962 725.51 847.962 725.51"/><rect class="cls-4" x="742.96233" y="747.83988" width="6" height="1.67059"/><polygon class="cls-8" points="912.962 727.51 912.962 720.51 912.962 713.51 908.962 713.51 908.962 720.51 909.962 720.51 909.962 727.51 906.962 727.51 906.962 731.51 909.962 731.51 909.962 738.51 908.962 738.51 908.962 745.51 909.962 745.51 912.962 745.51 912.962 738.51 912.962 731.51 935.962 731.51 935.962 727.51 912.962 727.51"/><path class="cls-10" d="M715.96233,662.53136a8,8,0,0,1,16,0"/><path class="cls-4" d="M716.4623,715.51047a21.5,21.5,0,1,0,21.5,21.5A21.5,21.5,0,0,0,716.4623,715.51047Zm0,39.92853a18.42856,18.42856,0,1,1,18.42859-18.42853A18.42854,18.42854,0,0,1,716.4623,755.439Z"/><path class="cls-4" d="M783.4623,715.51047a21.5,21.5,0,1,0,21.5,21.5A21.5,21.5,0,0,0,783.4623,715.51047Zm0,39.92853a18.42856,18.42856,0,1,1,18.42859-18.42853A18.42854,18.42854,0,0,1,783.4623,755.439Z"/><rect class="cls-4" x="772.96233" y="709.51047" width="22" height="4"/><rect class="cls-4" x="781.96233" y="735.51047" width="3" height="3"/><polygon class="cls-4" points="718.962 703.51 718.962 705.461 717.962 705.461 717.962 735.51 720.962 735.51 720.962 706.51 722.962 706.51 722.962 709.51 725.962 709.51 725.962 706.51 725.962 706.404 725.962 703.51 718.962 703.51"/><rect class="cls-4" x="714.9623" y="735.51047" width="3" height="3"/><polygon class="cls-10" points="735.962 658.51 731.962 658.51 731.962 662.51 735.962 662.51 735.962 666.51 739.962 666.51 739.962 662.51 739.962 658.51 735.962 658.51"/><path class="cls-5" d="M715.96233,662.53136a8,8,0,0,0,16,0Z"/><path class="cls-5" d="M754.17519,705.80131,752.06765,720.54l-5.65454-7.53936,7.76208-7.19934-10.58947-3.1673-5.30933,4.22339a3.7865,3.7865,0,0,0-.4436,5.228l12.35,15.994-4.22046,15.43109h-4v2h-2.0216v2.41162h2.0216v.00123h9v-4.41285l7.70227-16.37347,4.29773-16.62653Z"/><polygon class="cls-5" points="731.962 680.51 731.962 690.51 721.962 700.51 718.962 700.51 715.962 700.51 715.962 703.51 715.962 706.51 718.962 706.51 718.962 703.51 721.962 703.51 723.962 703.51 738.962 691.51 738.962 680.51 731.962 680.51"/><path class="cls-11" d="M902.49123,720.51047h7.47107v-5h-13l-24,3v.00061l-.01269-.00061a11,11,0,0,0,0,22l.01269-.00061v.00061l24,3h13v-5h-13v-18Z"/><rect class="cls-6" x="908.96233" y="716.51047" width="5" height="3" transform="translate(1629.4728 -193.45185) rotate(90)"/><rect class="cls-6" x="908.96233" y="739.51047" width="5" height="3" transform="translate(1652.4728 -170.45185) rotate(90)"/><path class="cls-4" d="M763.05727,685.02183l-24.095-14.51136h-7v10h7v7.98719l13.194,7.53936-8.48181,6.597,19.28784,7.87646,5.00428-13.124A9.40707,9.40707,0,0,0,763.05727,685.02183Z"/><path class="cls-4" d="M1000.4623,715.51047a21.5,21.5,0,1,0,21.5,21.5A21.5,21.5,0,0,0,1000.4623,715.51047Zm0,39.92853a18.42856,18.42856,0,1,1,18.42859-18.42853A18.42854,18.42854,0,0,1,1000.4623,755.439Z"/><path class="cls-4" d="M1067.4623,715.51047a21.5,21.5,0,1,0,21.5,21.5A21.5,21.5,0,0,0,1067.4623,715.51047Zm0,39.92853a18.42856,18.42856,0,1,1,18.42859-18.42853A18.42854,18.42854,0,0,1,1067.4623,755.439Z"/><rect class="cls-4" x="1026.96233" y="747.83988" width="6" height="1.67059"/><rect class="cls-4" x="1056.96233" y="709.51047" width="22" height="4"/><rect class="cls-4" x="1065.96233" y="735.51047" width="3" height="3"/><polygon class="cls-4" points="1002.962 703.51 1002.962 705.461 1001.962 705.461 1001.962 735.51 1004.962 735.51 1004.962 706.51 1006.962 706.51 1006.962 709.51 1009.962 709.51 1009.962 706.51 1009.962 706.404 1009.962 703.51 1002.962 703.51"/><rect class="cls-4" x="998.9623" y="735.51047" width="3" height="3"/><circle class="cls-8" cx="901.46233" cy="729.57725" r="7.5"/></svg>