<?xml version="1.0" encoding="utf-8"?>
<!-- Generator: Adobe Illustrator 24.3.0, SVG Export Plug-In . SVG Version: 6.00 Build 0)  -->
<svg version="1.1" id="Layer_1" xmlns="http://www.w3.org/2000/svg" xmlns:xlink="http://www.w3.org/1999/xlink" x="0px" y="0px"
	 viewBox="0 0 1190.5 841.9" style="enable-background:new 0 0 1190.5 841.9;" xml:space="preserve">
<style type="text/css">
	.st0{fill:#D0BFAE;}
	.st1{fill:#F8F0DD;}
	.st2{fill:#2A2859;}
	.st3{fill:#43F8B6;}
	.st4{fill:#C7F6C9;}
	.st5{fill:#003C69;}
	.st6{fill:#6FE9FF;}
	.st7{fill:#484443;}
	.st8{fill:#B3F5FF;}
	.st9{fill:#F9C66B;}
	.st10{fill:#F8F0DD;stroke:#FAF3E2;stroke-width:3;stroke-miterlimit:10;}
	.st11{fill:none;stroke:#C7E7F5;stroke-width:0.9;stroke-miterlimit:10;}
	.st12{fill:#FF8274;}
	.st13{fill:#494544;}
	.st14{fill:#575756;}
	.st15{font-family:'OsloSans-Medium';}
	.st16{font-size:12px;}
</style>
<polygon class="st0" points="34.3,579.1 34.3,609.1 31.8,609.1 31.8,614.1 28,614.1 28,609.1 28,579.1 "/>
<path class="st1" d="M46.8,604.1H34.3v31.5l2,27.4h7.1l1.1-29.5c0.6-3.3,2-15.6,2.4-19.4l1.3,17.7l1,25.4h7.2l1.1-23.7
	c1-6,1.6-12.1,1.9-18.2v-11.3H46.8z"/>
<polygon class="st0" points="56.8,579.1 56.8,605.9 59.3,605.9 59.3,612.2 63.1,612.2 63.1,605.9 63.1,579.1 "/>
<path class="st2" d="M45.8,561.5c-9.5,0-17.8,7.8-17.8,17.5l6.3,5v20h22.5v-25l6.3,5v-5C63.2,569.5,55.4,561.6,45.8,561.5z"/>
<polygon class="st2" points="43.4,668.7 33.6,668.7 33.6,664.6 36.3,664.6 36.3,663 43.4,663 "/>
<polygon class="st2" points="49.1,663 59,663 59,658.9 56.3,658.9 56.3,657.3 49.1,657.3 "/>
<polygon class="st0" points="140.9,579.1 140.9,609.1 143.4,609.1 143.4,614.1 147.1,614.1 147.1,609.1 147.1,579.1 "/>
<path class="st1" d="M128.3,604.1h12.5v31.5l-2,27.4h-7.1l-1.1-29.5c-0.6-3.3-2-15.6-2.4-19.4l-1.3,17.7l-1,25.4h-7.2l-1.1-23.7
	c-1-6-1.6-12.1-1.9-18.2v-11.3H128.3z"/>
<polygon class="st0" points="118.3,579.1 118.3,605.9 115.8,605.9 115.8,612.2 112.1,612.2 112.1,605.9 112.1,579.1 "/>
<path class="st2" d="M129.3,561.5c9.5,0,17.8,7.8,17.8,17.5l-6.3,5v21.9h-22.5v-26.9l-6.3,5v-5C112,569.5,119.7,561.6,129.3,561.5z"
	/>
<polygon class="st2" points="131.7,668.7 141.6,668.7 141.6,664.6 138.8,664.6 138.8,663 131.7,663 "/>
<polygon class="st2" points="126,663 116.1,663 116.1,658.9 118.9,658.9 118.9,657.3 126,657.3 "/>
<polygon class="st0" points="56.8,729.3 56.8,717.4 59.3,717.4 59.3,712.4 63.1,712.4 63.1,717.4 63.1,729.3 "/>
<polygon class="st0" points="34.3,730.6 34.3,748.4 31.8,748.4 31.8,754.6 28,754.6 28,748.4 28,730.6 "/>
<polygon class="st2" points="46.7,758.6 56.6,758.6 56.6,754.5 53.8,754.5 53.8,752.9 46.7,752.9 "/>
<polygon class="st1" points="46.7,753.2 53.9,753.2 56.9,732.3 45.5,732.3 "/>
<path class="st2" d="M29.6,725.6c1.7-1.6,4.9-1.5,4.9-1.5h28.6v6c0,1.7-0.7,3.4-1.8,4.6c-1.7,1.6-5.1,1.4-5.1,1.4H34.5l-6.6-4.4
	v-1.6C28,730.2,28,727.2,29.6,725.6z"/>
<circle class="st3" cx="45.5" cy="729.1" r="11.9"/>
<path class="st0" d="M55,736.2c-2.2,3-5.8,4.7-9.5,4.7c-3.7,0-7.3-1.7-9.5-4.7C36,736.2,55,736.2,55,736.2L55,736.2z"/>
<polygon class="st2" points="128.5,712.4 118.6,712.4 118.6,716.5 121.3,716.5 121.3,718.1 128.5,718.1 "/>
<polygon class="st0" points="118.3,741.7 118.3,753.6 115.8,753.6 115.8,758.6 112.1,758.6 112.1,753.6 112.1,741.7 "/>
<polygon class="st0" points="140.9,740.4 140.9,722.6 143.4,722.6 143.4,716.3 147.1,716.3 147.1,722.6 147.1,740.4 "/>
<polygon class="st1" points="128.5,717.8 121.2,717.8 118.3,738.7 129.6,738.7 "/>
<path class="st2" d="M145.5,745.3c-1.7,1.6-4.9,1.5-4.9,1.5H112v-6c0-1.7,0.7-3.4,1.8-4.6c1.7-1.6,5.1-1.4,5.1-1.4h21.7l6.6,4.4v1.6
	C147.2,740.8,147.2,743.7,145.5,745.3z"/>
<ellipse transform="matrix(7.088906e-02 -0.9975 0.9975 7.088906e-02 -619.6194 818.5588)" class="st3" cx="129.6" cy="741.9" rx="11.9" ry="11.9"/>
<path class="st0" d="M120.1,734.7c2.2-3,5.8-4.7,9.5-4.7c3.7,0,7.3,1.7,9.5,4.7C139.1,734.8,120.1,734.7,120.1,734.7L120.1,734.7z"
	/>
<path class="st3" d="M33.6,548.4c0-6.6,5.3-11.9,11.9-11.9c6.6,0,11.9,5.3,11.9,11.9c0,0,0,0,0,0H33.6z"/>
<path class="st0" d="M33.6,548.4c0,6.6,5.3,11.9,11.9,11.9c6.6,0,11.9-5.3,11.9-11.9H33.6z"/>
<polygon class="st0" points="310.1,591.4 316.3,591.4 320,616.8 313.7,616.8 "/>
<polygon class="st0" points="281.3,591.4 287.5,591.4 283.9,616.8 277.6,616.8 "/>
<path class="st3" d="M286.9,564.8c0-6.6,5.3-11.9,11.9-11.9c6.6,0,11.9,5.3,11.9,11.9H286.9z"/>
<path class="st0" d="M286.9,564.8c0,6.6,5.3,11.9,11.9,11.9c6.6,0,11.9-5.3,11.9-11.9H286.9z"/>
<rect x="307.4" y="676.9" class="st3" width="11.7" height="3.2"/>
<rect x="278.6" y="698" class="st3" width="11.7" height="3.2"/>
<polygon class="st2" points="308.3,676.9 318.1,676.9 318.1,672.8 315.4,672.8 315.4,671.2 308.3,671.2 "/>
<polygon class="st2" points="289.3,697.9 279.5,697.9 279.5,693.8 282.2,693.8 282.2,692.2 289.3,692.2 "/>
<polygon class="st0" points="306.6,641.2 317,641.2 315.4,671.2 308.3,671.2 "/>
<polygon class="st0" points="280.6,662.2 291,662.2 289.3,692.2 282.2,692.2 "/>
<path class="st1" d="M311.7,617.9h-25.8l-6.4,17.8v30.1h12.9v-15.9c1.7-5.7,1.8-10.1,2.3-13.1h8c0.4,2.1,0.5,4.8,1.1,8.2l2.3,0h12
	v-9.3L311.7,617.9z M298.8,618l0.4,1.2h-0.9L298.8,618z"/>
<rect x="307.4" y="634.2" class="st4" width="5.4" height="34.2"/>
<rect x="295.7" y="637.5" class="st3" width="6.3" height="72.6"/>
<rect x="302" y="668.4" class="st4" width="5.4" height="5.4"/>
<rect x="290.2" y="668.4" class="st4" width="5.4" height="5.4"/>
<rect x="284.8" y="634.2" class="st4" width="5.4" height="34.2"/>
<path class="st2" d="M299.1,578c-9.5,0-19.6,7.8-19.6,17.5l6.3,5v20h26.2v-25l6.3,5v-5C318.2,585.8,308.6,578,299.1,578z"/>
<polygon class="st3" points="302,621.2 313,621.2 322.8,621.2 322.8,615.7 302,615.7 295.7,615.7 274.8,615.7 274.8,621.2 
	284.6,621.2 295.7,621.2 295.7,631.6 302,631.6 "/>
<rect x="290.2" y="628.8" class="st4" width="17.2" height="5.4"/>
<rect x="277.8" y="615.7" class="st0" width="6.3" height="5.4"/>
<polygon class="st0" points="277.9,615.4 284,615.4 284.1,615.7 284,616.1 277.9,616.1 277.8,615.7 "/>
<rect x="313.5" y="615.7" class="st0" width="6.3" height="5.4"/>
<polygon class="st0" points="313.7,615.4 319.8,615.4 319.8,615.7 319.8,616.1 313.7,616.1 313.5,615.7 "/>
<path class="st3" d="M141.4,548.4c0-6.5-5.3-11.8-11.8-11.9c-6.5,0-11.8,5.3-11.9,11.8s5.3,11.8,11.8,11.9c0,0,0,0,0,0
	C136.1,560.2,141.4,554.9,141.4,548.4C141.4,548.4,141.4,548.4,141.4,548.4"/>
<path class="st0" d="M120.1,555.5c2.2,3,5.7,4.7,9.4,4.7c3.7,0,7.2-1.7,9.5-4.7C139.1,555.5,120.1,555.5,120.1,555.5L120.1,555.5"/>
<polygon class="st3" points="482.9,686.3 486,686.3 486,710 492.3,710 492.3,686.3 495.5,686.3 495.5,661.1 482.9,661.1 "/>
<polygon class="st3" points="486,583.1 474.4,583.1 465.2,583.1 465.2,589.5 468.7,589.5 468.7,588.6 474.4,588.6 486,588.6 
	486,593.3 492.3,593.3 492.3,588.6 503.4,588.6 509.7,588.6 509.7,589.5 513.2,589.5 513.2,583.1 503.4,583.1 492.3,583.1 
	492.3,547.6 486,547.6 "/>
<rect x="503.9" y="588.1" class="st0" width="6.3" height="19.2"/>
<polygon class="st3" points="482.9,686.3 486,686.3 486,710 492.3,710 492.3,686.3 495.5,686.3 495.5,661.1 482.9,661.1 "/>
<rect x="503.9" y="583.1" class="st0" width="6.3" height="5.4"/>
<rect x="468.2" y="588.1" class="st0" width="6.3" height="19.2"/>
<rect x="468.2" y="583.1" class="st0" width="6.3" height="5.4"/>
<path class="st1" d="M471.8,646.9L471.8,646.9L471.8,646.9c0,9.6,7.8,17.3,17.4,17.3c9.5,0,17.3-7.8,17.3-17.3l0,0h0
	c0,0-1.8-37.2-4.9-34.5c-3,2.6-7.3,5.1-12.4,5.1c-5.2,0-9.4-2.5-12.4-5.1C473.6,609.7,471.8,646.9,471.8,646.9z"/>
<path class="st5" d="M475.3,606.4l-7.7-5.3v8.5l4.6,36.9h0c0,0,0,0,0,0c0.6,9.4,7.6,16.7,16.9,16.7s16.4-7.3,16.9-16.7c0,0,0,0,0,0
	h0l4.6-36.9v-3.2l-7.7-5.3v8.5h-27.7V606.4z"/>
<circle class="st3" cx="489.2" cy="602" r="11.8"/>
<path class="st1" d="M471.8,646.9L471.8,646.9L471.8,646.9c0,9.6,7.8,17.3,17.4,17.3c9.5,0,17.3-7.8,17.3-17.3l0,0h0
	C496.8,656,481.6,656,471.8,646.9z"/>
<rect x="374.1" y="676.9" class="st3" width="11.7" height="3.2"/>
<rect x="402.9" y="698" class="st3" width="11.7" height="3.2"/>
<polygon class="st2" points="384.9,676.9 375,676.9 375,672.8 377.8,672.8 377.8,671.2 384.9,671.2 "/>
<polygon class="st2" points="403.8,697.9 413.7,697.9 413.7,693.8 411,693.8 411,692.2 403.8,692.2 "/>
<rect x="380.1" y="634.2" class="st4" width="5.4" height="34.2"/>
<polygon class="st0" points="383.1,591.4 376.8,591.4 373.2,616.7 379.4,616.7 "/>
<polygon class="st0" points="411.9,591.4 405.6,591.4 409.2,616.7 415.5,616.7 "/>
<rect x="385.7" y="668.3" class="st4" width="5.4" height="5.4"/>
<rect x="397.5" y="668.3" class="st4" width="5.4" height="5.4"/>
<rect x="370.3" y="615.7" class="st3" width="48.1" height="5.4"/>
<polygon class="st0" points="386.5,641.1 376.1,641.1 377.7,671.2 384.9,671.2 "/>
<polygon class="st0" points="412.6,662.1 402.1,662.1 403.8,692.1 410.9,692.1 "/>
<path class="st1" d="M405.4,617.9h-22.2l-8.2,17.8v9.3h12l2.3,0c0.6-3.3,0.8-6.1,1.1-8.2h8c0.5,3,0.6,7.4,2.3,13.1v15.9h12.9v-30.1
	L405.4,617.9z"/>
<path class="st2" d="M394.1,577.9c9.5,0,19.6,7.8,19.6,17.5l-6.3,5v22.1c0,0-4.4,1.8-12.4,1.8c-4.6,0-9.3-0.6-13.8-1.8v-27.1l-6.3,5
	v-5C375,585.8,384.5,577.9,394.1,577.9z"/>
<polygon class="st3" points="400.6,634.5 388,634.5 388,637.5 391.1,637.5 391.1,710.1 397.5,710.1 397.5,637.5 400.6,637.5 "/>
<polygon class="st0" points="377,615.4 379.6,615.4 379.6,615.7 379.6,616 377,616 376.9,615.7 "/>
<rect x="376.9" y="615.7" class="st0" width="2.7" height="2.7"/>
<polygon class="st0" points="411.7,615.4 409.1,615.4 409.1,615.7 409.1,616 411.7,616 411.8,615.7 "/>
<rect x="409.1" y="615.7" class="st0" width="2.7" height="2.7"/>
<path class="st3" d="M406.2,564.8c0-6.5-5.3-11.8-11.8-11.9c-6.5,0-11.8,5.3-11.9,11.8c0,6.5,5.3,11.8,11.8,11.9c0,0,0,0,0,0
	C400.9,576.6,406.2,571.3,406.2,564.8C406.2,564.8,406.2,564.8,406.2,564.8"/>
<path class="st0" d="M384.9,571.9c2.2,3,5.7,4.7,9.4,4.7c3.7,0,7.2-1.7,9.5-4.7C403.8,571.8,384.9,571.9,384.9,571.9L384.9,571.9"/>
<polygon class="st6" points="744.4,527.2 647,527.2 640.7,588.2 750.7,588.2 "/>
<polygon class="st7" points="731.3,634.3 750.7,634.3 750.7,612 731.3,622.4 "/>
<polygon class="st7" points="660,634.3 640.7,634.3 640.7,612 660,622.4 "/>
<polygon class="st1" points="745.5,583.8 645.8,583.8 651,531.7 740.3,531.7 "/>
<polygon class="st6" points="737.3,623.9 654.1,623.9 640.7,612 750.7,612 "/>
<rect x="753.1" y="575.7" class="st8" width="10.5" height="10.5"/>
<polygon class="st6" points="756,586.2 750.1,586.2 750.1,583.3 753.1,583.3 753.1,580.5 756,580.5 "/>
<rect x="627.8" y="575.7" class="st8" width="10.5" height="10.5"/>
<polygon class="st6" points="635.4,586.2 641.2,586.2 641.2,583.3 638.2,583.3 638.2,580.5 635.4,580.5 "/>
<polygon class="st9" points="745,578.9 646.3,578.9 647.2,570 744.1,570 "/>
<path class="st2" d="M702.2,578.9c0-9.8,8.4-17.7,18-17.7c9.7,0.1,17.5,8,17.4,17.7"/>
<circle class="st10" cx="719.9" cy="579.4" r="11.8"/>
<circle class="st9" cx="719.9" cy="548.2" r="11.8"/>
<path class="st0" d="M708.1,548.2c0,6.5,5.3,11.8,11.8,11.8c6.5,0,11.8-5.3,11.8-11.8H708.1z"/>
<rect x="693.3" y="568.9" class="st1" width="4.7" height="9.9"/>
<rect x="693.3" y="568.9" class="st1" width="4.7" height="9.9"/>
<rect x="640.7" y="588.2" class="st8" width="110" height="23.8"/>
<rect x="681.7" y="606.1" class="st7" width="29.1" height="3"/>
<rect x="681.7" y="600.1" class="st7" width="29.1" height="3"/>
<circle class="st7" cx="651.8" cy="603.1" r="5.2"/>
<circle class="st7" cx="662.4" cy="604.5" r="3.8"/>
<circle class="st7" cx="740.7" cy="603.1" r="5.2"/>
<circle class="st7" cx="730.1" cy="604.5" r="3.8"/>
<polygon class="st0" points="745.6,584.9 645.7,584.9 646.4,577.8 744.9,577.8 "/>
<rect x="640.7" y="583.8" class="st6" width="110" height="4.5"/>
<rect x="640.7" y="588.2" class="st7" width="110" height="3"/>
<rect x="753.1" y="575.7" class="st8" width="10.5" height="10.5"/>
<polygon class="st6" points="756,586.2 750.1,586.2 750.1,583.3 753.1,583.3 753.1,580.5 756,580.5 "/>
<polygon class="st6" points="1103.5,716.3 1023.3,716.3 1013.9,707.2 1008.4,643.9 1008.4,567.5 1008.4,539.5 1118.4,539.5 
	1118.4,567.5 1118.4,643.9 1113,707.2 "/>
<rect x="1013.4" y="570.1" class="st9" width="99.8" height="27.9"/>
<rect x="1013.4" y="570.1" class="st0" width="99.8" height="13.9"/>
<polygon class="st1" points="1017.3,679.3 1109.5,679.3 1113.2,637 1013.7,637 "/>
<path class="st2" d="M1056.5,584.1c0,9.8-8.4,17.7-18,17.7c-9.7-0.1-17.5-8-17.4-17.7"/>
<rect x="1008.4" y="527.5" class="st8" width="110" height="11.9"/>
<rect x="1124.1" y="577.6" transform="matrix(0.2034 -0.9791 0.9791 0.2034 326.3041 1567.5059)" class="st8" width="4.6" height="11.2"/>
<polygon class="st6" points="1124.4,580.5 1118.3,579.2 1117.7,575.9 1118.9,576.2 1125,577.5 "/>
<rect x="994.7" y="580.9" transform="matrix(0.9791 -0.2034 0.2034 0.9791 -97.7073 215.6322)" class="st8" width="11.2" height="4.6"/>
<polygon class="st6" points="1002.4,580.5 1008.5,579.2 1009.1,575.9 1007.9,576.2 1001.8,577.5 "/>
<circle class="st10" cx="1038.8" cy="586" r="11.8"/>
<rect x="1008.4" y="598" class="st6" width="110" height="9.8"/>
<rect x="1008.4" y="538" class="st7" width="110" height="3"/>
<polygon class="st7" points="1113,707.2 1013.9,707.2 1013.6,704.7 1113.2,704.7 "/>
<rect x="1049.5" y="527.5" class="st7" width="29.1" height="3"/>
<path class="st7" d="M1103.2,527.5c0,2.9,2.3,5.2,5.2,5.2c2.9,0,5.2-2.3,5.2-5.2H1103.2z"/>
<path class="st7" d="M1094.1,527.5c0,2.1,1.7,3.8,3.8,3.8c2.1,0,3.8-1.7,3.8-3.8H1094.1z"/>
<path class="st7" d="M1024.7,527.5c0,2.9-2.3,5.2-5.2,5.2s-5.2-2.3-5.2-5.2c0,0,0,0,0,0H1024.7z"/>
<path class="st7" d="M1033.9,527.5c0,2.1-1.7,3.8-3.8,3.8c-2.1,0-3.8-1.7-3.8-3.8H1033.9z"/>
<path class="st7" d="M1093.1,716.3c0-2.9,2.3-5.2,5.2-5.2c2.9,0,5.2,2.3,5.2,5.2l0,0H1093.1z"/>
<path class="st7" d="M1033.7,716.3c0-2.9-2.3-5.2-5.2-5.2s-5.2,2.3-5.2,5.2c0,0,0,0,0,0H1033.7z"/>
<polygon class="st9" points="1015.5,658.1 1111.4,658.1 1113.2,637 1013.7,637 "/>
<rect x="1061.1" y="584.1" class="st1" width="4.7" height="13.9"/>
<path class="st2" d="M1056.5,584.1c0,9.8-8.4,17.7-18,17.7c-9.7-0.1-17.5-8-17.4-17.7"/>
<circle class="st0" cx="1038.8" cy="605" r="11.8"/>
<rect x="1011.2" y="598" class="st6" width="103.7" height="6.6"/>
<rect x="1013.4" y="604.6" class="st8" width="99.8" height="25.7"/>
<polygon class="st6" points="927.7,527.2 830.3,527.2 824,588.2 934,588.2 "/>
<polygon class="st7" points="914.4,634.3 933.7,634.3 933.7,612 914.4,622.4 "/>
<polygon class="st7" points="843.1,634.3 823.8,634.3 823.8,612 843.1,622.4 "/>
<polygon class="st6" points="818.6,586.2 824.5,586.2 824.5,583.3 821.5,583.3 821.5,580.5 818.6,580.5 "/>
<rect x="811" y="575.7" class="st8" width="10.5" height="10.5"/>
<polygon class="st6" points="939.3,586.2 933.5,586.2 933.5,583.3 936.4,583.3 936.4,580.5 939.3,580.5 "/>
<rect x="936.4" y="575.7" class="st8" width="10.5" height="10.5"/>
<polygon class="st1" points="928.5,583.8 828.8,583.8 833.9,531.7 923.4,531.7 "/>
<polygon class="st8" points="920.6,623.9 837.4,623.9 824,612 934,612 "/>
<rect x="824" y="586.2" class="st6" width="110" height="25.8"/>
<rect x="871.1" y="595" class="st11" width="14.6" height="5.5"/>
<circle class="st7" cx="843.1" cy="604.5" r="5.2"/>
<circle class="st7" cx="913.7" cy="604.5" r="5.2"/>
<path class="st2" d="M837.2,578.9c0-9.8,8.4-17.7,18-17.7c9.7,0.1,17.5,8,17.4,17.7"/>
<circle class="st9" cx="854.9" cy="548.3" r="11.8"/>
<path class="st0" d="M864.4,555.4c-2.2,3-5.7,4.7-9.4,4.7c-3.7,0-7.2-1.7-9.5-4.7C845.5,555.4,864.4,555.4,864.4,555.4L864.4,555.4z
	"/>
<polygon class="st9" points="928.6,584.9 828.7,584.9 830.1,570 927.1,570 "/>
<polygon class="st7" points="934,586.2 824,586.2 824.5,583.7 933.5,583.7 "/>
<rect x="415.2" y="22" class="st12" width="145.2" height="372.7"/>
<rect x="461" y="147.2" class="st1" width="53.5" height="53.5"/>
<polygon class="st0" points="514.5,147.2 514.5,174 487.8,174 487.8,200.8 461,200.8 461,147.2 "/>
<rect x="461" y="257" class="st1" width="53.5" height="53.5"/>
<polygon class="st0" points="514.5,257 514.5,283.8 487.8,283.8 487.8,310.6 461,310.6 461,257 "/>
<rect x="461" y="54.7" class="st7" width="53.5" height="5.4"/>
<rect x="461" y="65.6" class="st7" width="53.5" height="5.4"/>
<rect x="461" y="76.5" class="st7" width="53.5" height="5.4"/>
<rect x="415.2" y="387.5" class="st7" width="145.2" height="7.3"/>
<rect x="222.2" y="115.8" class="st12" width="145.2" height="64.1"/>
<rect x="222.2" y="22" class="st13" width="145.2" height="38.1"/>
<rect x="276.7" y="161.8" class="st7" width="36.3" height="7.3"/>
<rect x="234.9" y="179.9" class="st7" width="25.4" height="27.2"/>
<rect x="331.1" y="179.9" class="st7" width="23.6" height="27.2"/>
<rect x="262.2" y="29.3" class="st0" width="65.1" height="16.3"/>
<circle class="st13" cx="279.4" cy="37.5" r="4.5"/>
<rect x="269.4" y="32.9" class="st13" width="3.6" height="9.1"/>
<circle class="st7" cx="236.1" cy="164.6" r="4.7"/>
<circle class="st7" cx="247.6" cy="164.6" r="4.7"/>
<ellipse transform="matrix(0.1602 -0.9871 0.9871 0.1602 55.1805 394.1451)" class="st7" cx="259.2" cy="164.6" rx="4.7" ry="4.7"/>
<circle class="st7" cx="330.2" cy="164.6" r="4.7"/>
<circle class="st7" cx="341.8" cy="164.6" r="4.7"/>
<circle class="st7" cx="353.4" cy="164.6" r="4.7"/>
<circle class="st12" cx="236.1" cy="34" r="4.7"/>
<circle class="st12" cx="353.4" cy="34" r="4.7"/>
<rect x="222.2" y="60.2" class="st1" width="145.2" height="48.4"/>
<polyline class="st0" points="246.5,84.4 367.4,84.4 367.4,60.1 222.2,60.1 222.2,108.6 246.5,108.6 246.5,84.4 "/>
<polygon class="st7" points="367.4,108.6 222.2,108.6 222.2,115.9 276.7,115.9 276.7,123.1 313,123.1 313,115.9 367.4,115.9 "/>
<rect x="30" y="22" class="st12" width="145.2" height="32.7"/>
<rect x="30" y="60.1" class="st1" width="145.2" height="79.9"/>
<rect x="30" y="140.1" class="st12" width="145.2" height="39.9"/>
<rect x="30" y="54.7" class="st7" width="145.2" height="5.4"/>
<rect x="30" y="140" class="st7" width="145.2" height="7.3"/>
<rect x="84.5" y="147.2" class="st7" width="36.3" height="7.3"/>
<rect x="84.5" y="161.8" class="st7" width="36.3" height="7.3"/>
<rect x="42.7" y="29.3" class="st7" width="120.2" height="16.3"/>
<rect x="42.7" y="179.9" class="st7" width="25.4" height="27.2"/>
<rect x="138.9" y="179.9" class="st7" width="23.6" height="27.2"/>
<polygon class="st0" points="70,60.1 60.9,60.1 30,60.1 30,89.2 30,100.1 30,140 70,140 70,100.1 175.2,100.1 175.2,60.1 "/>
<circle class="st7" cx="59.1" cy="165.4" r="9.1"/>
<circle class="st1" cx="60" cy="37.4" r="4.5"/>
<circle class="st7" cx="146.2" cy="165.4" r="9.1"/>
<rect x="50" y="32.9" class="st1" width="3.6" height="9.1"/>
<text transform="matrix(1 0 0 1 31.9309 238.0403)" class="st14 st15 st16">B</text>
<text transform="matrix(1 0 0 1 39.9949 238.0403)" class="st14 st15 st16">uss </text>
<text transform="matrix(1 0 0 1 62.7698 238.0403)" class="st14 st15 st16">s</text>
<text transform="matrix(1 0 0 1 68.9861 238.0403)" class="st14 st15 st16">e</text>
<text transform="matrix(1 0 0 1 75.7898 238.0403)" class="st14 st15 st16">t</text>
<text transform="matrix(1 0 0 1 81.1297 238.0403)" class="st14 st15 st16">t </text>
<text transform="matrix(1 0 0 1 89.6492 238.0403)" class="st14 st15 st16">f</text>
<text transform="matrix(1 0 0 1 94.0769 238.0403)" class="st14 st15 st16">o</text>
<text transform="matrix(1 0 0 1 101.2527 238.0403)" class="st14 st15 st16">r</text>
<text transform="matrix(1 0 0 1 107.0007 238.0403)" class="st14 st15 st16">f</text>
<text transform="matrix(1 0 0 1 111.7883 238.0403)" class="st14 st15 st16">r</text>
<text transform="matrix(1 0 0 1 117.344 238.0403)" class="st14 st15 st16">a</text>
<text transform="matrix(1 0 0 1 31.9309 252.4402)" class="st14 st15 st16">(</text>
<text transform="matrix(1 0 0 1 36.1428 252.4402)" class="st14 st15 st16">s</text>
<text transform="matrix(1 0 0 1 42.3587 252.4402)" class="st14 st15 st16">om tidli</text>
<text transform="matrix(1 0 0 1 87.3455 252.4402)" class="st14 st15 st16">g</text>
<text transform="matrix(1 0 0 1 94.2092 252.4402)" class="st14 st15 st16">e</text>
<text transform="matrix(1 0 0 1 101.1331 252.4402)" class="st14 st15 st16">r</text>
<text transform="matrix(1 0 0 1 106.761 252.4402)" class="st14 st15 st16">e)</text>
<text transform="matrix(1 0 0 1 223.5502 238.0403)" class="st14 st15 st16">B</text>
<text transform="matrix(1 0 0 1 231.6141 238.0403)" class="st14 st15 st16">uss </text>
<text transform="matrix(1 0 0 1 254.389 238.0403)" class="st14 st15 st16">s</text>
<text transform="matrix(1 0 0 1 260.6053 238.0403)" class="st14 st15 st16">e</text>
<text transform="matrix(1 0 0 1 267.4091 238.0403)" class="st14 st15 st16">t</text>
<text transform="matrix(1 0 0 1 272.7489 238.0403)" class="st14 st15 st16">t ba</text>
<text transform="matrix(1 0 0 1 295.6678 238.0403)" class="st14 st15 st16">k</text>
<text transform="matrix(1 0 0 1 302.2797 238.0403)" class="st14 st15 st16">f</text>
<text transform="matrix(1 0 0 1 307.0677 238.0403)" class="st14 st15 st16">r</text>
<text transform="matrix(1 0 0 1 312.6234 238.0403)" class="st14 st15 st16">a</text>
<text transform="matrix(1 0 0 1 28.9309 490.0403)" class="st14 st15 st16">P</text>
<text transform="matrix(1 0 0 1 36.2512 490.0403)" class="st14 st15 st16">e</text>
<text transform="matrix(1 0 0 1 43.1751 490.0403)" class="st14 st15 st16">r</text>
<text transform="matrix(1 0 0 1 48.9231 490.0403)" class="st14 st15 st16">s</text>
<text transform="matrix(1 0 0 1 55.1389 490.0403)" class="st14 st15 st16">on </text>
<text transform="matrix(1 0 0 1 72.6096 490.0403)" class="st14 st15 st16">s</text>
<text transform="matrix(1 0 0 1 78.8264 490.0403)" class="st14 st15 st16">e</text>
<text transform="matrix(1 0 0 1 85.6301 490.0403)" class="st14 st15 st16">t</text>
<text transform="matrix(1 0 0 1 90.97 490.0403)" class="st14 st15 st16">t </text>
<text transform="matrix(1 0 0 1 99.4895 490.0403)" class="st14 st15 st16">f</text>
<text transform="matrix(1 0 0 1 103.9173 490.0403)" class="st14 st15 st16">o</text>
<text transform="matrix(1 0 0 1 111.093 490.0403)" class="st14 st15 st16">r</text>
<text transform="matrix(1 0 0 1 116.8411 490.0403)" class="st14 st15 st16">f</text>
<text transform="matrix(1 0 0 1 121.6282 490.0403)" class="st14 st15 st16">r</text>
<text transform="matrix(1 0 0 1 127.1843 490.0403)" class="st14 st15 st16">a, ba</text>
<text transform="matrix(1 0 0 1 155.2634 490.0403)" class="st14 st15 st16">k</text>
<text transform="matrix(1 0 0 1 161.8753 490.0403)" class="st14 st15 st16">f</text>
<text transform="matrix(1 0 0 1 166.6629 490.0403)" class="st14 st15 st16">r</text>
<text transform="matrix(1 0 0 1 172.219 490.0403)" class="st14 st15 st16">a </text>
<text transform="matrix(1 0 0 1 28.9309 504.4402)" class="st14 st15 st16">o</text>
<text transform="matrix(1 0 0 1 35.8787 504.4402)" class="st14 st15 st16">g </text>
<text transform="matrix(1 0 0 1 46.2346 504.4402)" class="st14 st15 st16">ov</text>
<text transform="matrix(1 0 0 1 59.6384 504.4402)" class="st14 st15 st16">e</text>
<text transform="matrix(1 0 0 1 66.5623 504.4402)" class="st14 st15 st16">n</text>
<text transform="matrix(1 0 0 1 73.7141 504.4402)" class="st14 st15 st16">f</text>
<text transform="matrix(1 0 0 1 78.5022 504.4402)" class="st14 st15 st16">r</text>
<text transform="matrix(1 0 0 1 84.0584 504.4402)" class="st14 st15 st16">a</text>
<text transform="matrix(1 0 0 1 276.8666 747.7842)" class="st14 st15 st16">S</text>
<text transform="matrix(1 0 0 1 284.5346 747.7842)" class="st14 st15 st16">y</text>
<text transform="matrix(1 0 0 1 291.4584 747.7842)" class="st14 st15 st16">k</text>
<text transform="matrix(1 0 0 1 298.142 747.7842)" class="st14 st15 st16">li</text>
<text transform="matrix(1 0 0 1 305.5824 747.7842)" class="st14 st15 st16">s</text>
<text transform="matrix(1 0 0 1 311.8105 747.7842)" class="st14 st15 st16">t </text>
<text transform="matrix(1 0 0 1 320.33 747.7842)" class="st14 st15 st16">s</text>
<text transform="matrix(1 0 0 1 326.5458 747.7842)" class="st14 st15 st16">e</text>
<text transform="matrix(1 0 0 1 333.3495 747.7842)" class="st14 st15 st16">t</text>
<text transform="matrix(1 0 0 1 338.6894 747.7842)" class="st14 st15 st16">t </text>
<text transform="matrix(1 0 0 1 347.2089 747.7842)" class="st14 st15 st16">f</text>
<text transform="matrix(1 0 0 1 351.6366 747.7842)" class="st14 st15 st16">o</text>
<text transform="matrix(1 0 0 1 358.8124 747.7842)" class="st14 st15 st16">r</text>
<text transform="matrix(1 0 0 1 364.5605 747.7842)" class="st14 st15 st16">f</text>
<text transform="matrix(1 0 0 1 369.3481 747.7842)" class="st14 st15 st16">r</text>
<text transform="matrix(1 0 0 1 374.9037 747.7842)" class="st14 st15 st16">a, ba</text>
<text transform="matrix(1 0 0 1 402.9828 747.7842)" class="st14 st15 st16">k</text>
<text transform="matrix(1 0 0 1 409.5951 747.7842)" class="st14 st15 st16">f</text>
<text transform="matrix(1 0 0 1 414.3827 747.7842)" class="st14 st15 st16">r</text>
<text transform="matrix(1 0 0 1 419.9384 747.7842)" class="st14 st15 st16">a </text>
<text transform="matrix(1 0 0 1 429.8739 747.7842)" class="st14 st15 st16">o</text>
<text transform="matrix(1 0 0 1 436.8217 747.7842)" class="st14 st15 st16">g </text>
<text transform="matrix(1 0 0 1 447.1772 747.7842)" class="st14 st15 st16">ov</text>
<text transform="matrix(1 0 0 1 460.581 747.7842)" class="st14 st15 st16">e</text>
<text transform="matrix(1 0 0 1 467.5048 747.7842)" class="st14 st15 st16">n</text>
<text transform="matrix(1 0 0 1 474.6566 747.7842)" class="st14 st15 st16">f</text>
<text transform="matrix(1 0 0 1 479.4447 747.7842)" class="st14 st15 st16">r</text>
<text transform="matrix(1 0 0 1 485.0009 747.7842)" class="st14 st15 st16">a</text>
<text transform="matrix(1 0 0 1 630.4379 500.0403)" class="st14 st15 st16">Bil </text>
<text transform="matrix(1 0 0 1 649.0853 500.0403)" class="st14 st15 st16">s</text>
<text transform="matrix(1 0 0 1 655.3011 500.0403)" class="st14 st15 st16">e</text>
<text transform="matrix(1 0 0 1 662.1049 500.0403)" class="st14 st15 st16">t</text>
<text transform="matrix(1 0 0 1 667.4447 500.0403)" class="st14 st15 st16">t </text>
<text transform="matrix(1 0 0 1 675.9642 500.0403)" class="st14 st15 st16">f</text>
<text transform="matrix(1 0 0 1 680.392 500.0403)" class="st14 st15 st16">o</text>
<text transform="matrix(1 0 0 1 687.5677 500.0403)" class="st14 st15 st16">r</text>
<text transform="matrix(1 0 0 1 693.3158 500.0403)" class="st14 st15 st16">f</text>
<text transform="matrix(1 0 0 1 698.1034 500.0403)" class="st14 st15 st16">r</text>
<text transform="matrix(1 0 0 1 703.6591 500.0403)" class="st14 st15 st16">a</text>
<text transform="matrix(1 0 0 1 813.7397 500.0403)" class="st14 st15 st16">Bil </text>
<text transform="matrix(1 0 0 1 832.3872 500.0403)" class="st14 st15 st16">s</text>
<text transform="matrix(1 0 0 1 838.603 500.0403)" class="st14 st15 st16">e</text>
<text transform="matrix(1 0 0 1 845.4067 500.0403)" class="st14 st15 st16">t</text>
<text transform="matrix(1 0 0 1 850.7466 500.0403)" class="st14 st15 st16">t ba</text>
<text transform="matrix(1 0 0 1 873.6655 500.0403)" class="st14 st15 st16">k</text>
<text transform="matrix(1 0 0 1 880.2778 500.0403)" class="st14 st15 st16">f</text>
<text transform="matrix(1 0 0 1 885.0654 500.0403)" class="st14 st15 st16">r</text>
<text transform="matrix(1 0 0 1 890.6211 500.0403)" class="st14 st15 st16">a</text>
<text transform="matrix(1 0 0 1 998.9767 500.0403)" class="st14 st15 st16">Bil </text>
<text transform="matrix(1 0 0 1 1017.6241 500.0403)" class="st14 st15 st16">s</text>
<text transform="matrix(1 0 0 1 1023.84 500.0403)" class="st14 st15 st16">e</text>
<text transform="matrix(1 0 0 1 1030.6437 500.0403)" class="st14 st15 st16">t</text>
<text transform="matrix(1 0 0 1 1035.9835 500.0403)" class="st14 st15 st16">t </text>
<text transform="matrix(1 0 0 1 1044.5031 500.0403)" class="st14 st15 st16">ov</text>
<text transform="matrix(1 0 0 1 1057.9069 500.0403)" class="st14 st15 st16">e</text>
<text transform="matrix(1 0 0 1 1064.8307 500.0403)" class="st14 st15 st16">n</text>
<text transform="matrix(1 0 0 1 1071.983 500.0403)" class="st14 st15 st16">f</text>
<text transform="matrix(1 0 0 1 1076.7711 500.0403)" class="st14 st15 st16">r</text>
<text transform="matrix(1 0 0 1 1082.3268 500.0403)" class="st14 st15 st16">a</text>
<text transform="matrix(1 0 0 1 416.2622 424.0403)" class="st14 st15 st16">B</text>
<text transform="matrix(1 0 0 1 424.3262 424.0403)" class="st14 st15 st16">uss </text>
<text transform="matrix(1 0 0 1 447.1011 424.0403)" class="st14 st15 st16">s</text>
<text transform="matrix(1 0 0 1 453.3174 424.0403)" class="st14 st15 st16">e</text>
<text transform="matrix(1 0 0 1 460.1211 424.0403)" class="st14 st15 st16">t</text>
<text transform="matrix(1 0 0 1 465.461 424.0403)" class="st14 st15 st16">t </text>
<text transform="matrix(1 0 0 1 473.9805 424.0403)" class="st14 st15 st16">ov</text>
<text transform="matrix(1 0 0 1 487.3843 424.0403)" class="st14 st15 st16">e</text>
<text transform="matrix(1 0 0 1 494.3081 424.0403)" class="st14 st15 st16">n</text>
<text transform="matrix(1 0 0 1 501.4605 424.0403)" class="st14 st15 st16">f</text>
<text transform="matrix(1 0 0 1 506.2486 424.0403)" class="st14 st15 st16">r</text>
<text transform="matrix(1 0 0 1 511.8042 424.0403)" class="st14 st15 st16">a</text>
</svg>
